<svg xmlns="http://www.w3.org/2000/svg" width="183.53" height="60.035" viewBox="0 0 183.53 60.035">
    <defs>
        <style>
            .cls-1{fill:none}.cls-2{clip-path:url(#clip-path)}.cls-3{fill:url(#linear-gradient)}.cls-4{fill:url(#linear-gradient-2)}.cls-5{fill:url(#linear-gradient-3)}.cls-6{fill:url(#linear-gradient-4)}.cls-7{fill:#f9f9f9}.cls-8{fill:#fbfcfc}
        </style>
        <clipPath id="clip-path">
            <path id="Path_39" d="M468.013-5.717l-8.275-4.778-15.963-9.217c-.886-.512-1.769-.2-1.769.868v37.551c0 .8.631 1.147 1.4.7l16.33-9.429 8.277-4.778 7.954-4.589c.933-.539.844-1.279.056-1.7s-8.01-4.628-8.01-4.628z" class="cls-1" data-name="Path 39" transform="translate(-442.006 19.953)"/>
        </clipPath>
        <linearGradient id="linear-gradient" x1=".5" x2=".5" y2="1" gradientUnits="objectBoundingBox">
            <stop offset="0" stop-color="#247bb2"/>
            <stop offset=".26" stop-color="#4393b4"/>
            <stop offset=".758" stop-color="#7abfb7"/>
            <stop offset="1" stop-color="#90d1b9"/>
        </linearGradient>
        <linearGradient id="linear-gradient-2" x2="1" y1=".5" y2=".5" gradientUnits="objectBoundingBox">
            <stop offset="0" stop-color="#53bea3"/>
            <stop offset="1" stop-color="#e4e893"/>
        </linearGradient>
        <linearGradient id="linear-gradient-3" x1=".5" x2=".5" y2="1" gradientUnits="objectBoundingBox">
            <stop offset="0" stop-color="#eb3531"/>
            <stop offset=".241" stop-color="#d1384d"/>
            <stop offset=".752" stop-color="#9e4084"/>
            <stop offset="1" stop-color="#8b439a"/>
        </linearGradient>
        <linearGradient id="linear-gradient-4" x1=".5" x2=".5" y2="1" gradientUnits="objectBoundingBox">
            <stop offset="0" stop-color="#f58374"/>
            <stop offset=".633" stop-color="#fbb06e"/>
            <stop offset="1" stop-color="#ffc66c"/>
        </linearGradient>
    </defs>
    <g id="Group_332" data-name="Group 332" transform="translate(-403.641 53.926)">
        <path id="Path_34" d="M587.171-2a8.113 8.113 0 0 1-8.111 8.114H411.754A8.114 8.114 0 0 1 403.641-2v-43.813a8.114 8.114 0 0 1 8.113-8.113H579.06a8.113 8.113 0 0 1 8.111 8.113z" data-name="Path 34"/>
        <g id="PLAY" transform="translate(417.407 -41.736)">
            <g id="Group_11" class="cls-2" data-name="Group 11">
                <path id="Path_35" d="M442.006-21.715v40.656l20.5-20.327z" class="cls-3" data-name="Path 35" transform="translate(-442.006 21.082)"/>
                <path id="Path_36" d="M468.013-7.111l-8.275-4.778-17.732-10.238v.148l20.5 20.328z" class="cls-4" data-name="Path 36" transform="translate(-442.006 21.347)"/>
                <path id="Path_37" d="M442.006 55.265v.148l17.732-10.238 8.275-4.778-5.506-5.459z" class="cls-5" data-name="Path 37" transform="translate(-442.006 -15.242)"/>
                <path id="Path_38" d="M504.646 19.721l-5.506 5.46 5.506 5.459 9.457-5.46z" class="cls-6" data-name="Path 38" transform="translate(-478.639 -5.485)"/>
            </g>
        </g>
        <g id="Group_12" data-name="Group 12" transform="translate(540.972 -31.095)">
            <path id="Path_40" d="M791.869 35.187a5.113 5.113 0 0 1-2.109-.426 3.974 3.974 0 0 1-1.6-1.31h-.129a15.879 15.879 0 0 1 .129 1.963v4.865h-1.79V23.148h1.456l.248 1.618h.086a4.162 4.162 0 0 1 1.608-1.4 4.884 4.884 0 0 1 2.1-.432 4.37 4.37 0 0 1 3.63 1.608 7.077 7.077 0 0 1 1.279 4.509 7.043 7.043 0 0 1-1.3 4.526 4.381 4.381 0 0 1-3.608 1.61zm-.259-10.734a3.173 3.173 0 0 0-2.621 1 5.165 5.165 0 0 0-.831 3.194v.4a5.916 5.916 0 0 0 .831 3.566 3.16 3.16 0 0 0 2.664 1.073 2.772 2.772 0 0 0 2.4-1.24 5.887 5.887 0 0 0 .868-3.42 5.666 5.666 0 0 0-.868-3.393 2.858 2.858 0 0 0-2.443-1.18z" class="cls-7" data-name="Path 40" transform="translate(-786.368 -18.185)"/>
            <path id="Path_41" d="M823.735 26.489h-1.791V9.7h1.791z" class="cls-7" data-name="Path 41" transform="translate(-809.179 -9.703)"/>
            <path id="Path_42" d="M841.053 35.009l-.356-1.683h-.086a4.961 4.961 0 0 1-1.764 1.5 5.358 5.358 0 0 1-2.195.394 3.95 3.95 0 0 1-2.756-.906 3.3 3.3 0 0 1-1-2.578q0-3.581 5.728-3.754l2.007-.065v-.733a2.994 2.994 0 0 0-.6-2.055 2.46 2.46 0 0 0-1.915-.664 7.8 7.8 0 0 0-3.344.906l-.55-1.37a8.416 8.416 0 0 1 1.915-.744 8.29 8.29 0 0 1 2.087-.27 4.5 4.5 0 0 1 3.134.938 3.92 3.92 0 0 1 1.019 3.01v8.069zm-4.045-1.262a3.638 3.638 0 0 0 2.627-.917 3.4 3.4 0 0 0 .955-2.568v-1.067l-1.792.075a6.515 6.515 0 0 0-3.08.665 2 2 0 0 0-.944 1.828 1.842 1.842 0 0 0 .588 1.478 2.438 2.438 0 0 0 1.646.507z" class="cls-7" data-name="Path 42" transform="translate(-816.201 -18.224)"/>
            <path id="Path_43" d="M862.222 23.533h1.919l2.589 6.743a25.757 25.757 0 0 1 1.058 3.334h.087q.14-.551.587-1.883t2.929-8.193h1.921L868.23 37a6.717 6.717 0 0 1-1.764 2.833 3.751 3.751 0 0 1-2.475.835 7.244 7.244 0 0 1-1.619-.183v-1.438a6.255 6.255 0 0 0 1.327.13 2.735 2.735 0 0 0 2.632-2.072l.658-1.683z" class="cls-7" data-name="Path 43" transform="translate(-835.004 -18.57)"/>
        </g>
        <g id="Group_14" data-name="Group 14" transform="translate(459.335 -32.416)">
            <path id="Path_44" d="M692.767 25a4.028 4.028 0 0 1-.322 6.85 1.74 1.74 0 0 0-.693 1.213 1.356 1.356 0 0 0 .644 1.063l.891.691c1.088.915 2.076 1.757 2.076 3.464 0 2.324-2.25 4.673-6.5 4.673-3.586 0-5.317-1.706-5.317-3.537a3.558 3.558 0 0 1 1.9-3.017 10.66 10.66 0 0 1 4.723-1.138 2.588 2.588 0 0 1-.742-1.68 2.232 2.232 0 0 1 .248-.966c-.273.025-.545.05-.792.05a3.91 3.91 0 0 1-4.1-3.882 4.449 4.449 0 0 1 1.582-3.314 6.744 6.744 0 0 1 4.428-1.361h5.093L694.3 25zm-1.756 10.981a3.836 3.836 0 0 0-.568-.026 9.9 9.9 0 0 0-2.6.4 2.778 2.778 0 0 0-2.127 2.547c0 1.755 1.707 3.018 4.354 3.018 2.373 0 3.635-1.14 3.635-2.672.002-1.263-.814-1.928-2.694-3.264zm.718-4.7a2.5 2.5 0 0 0 .617-1.806c0-1.78-1.063-4.549-3.115-4.549a2.31 2.31 0 0 0-1.732.816 2.857 2.857 0 0 0-.544 1.83c0 1.657.964 4.4 3.092 4.4a2.532 2.532 0 0 0 1.681-.687z" class="cls-7" data-name="Path 44" transform="translate(-638.803 -17.62)"/>
            <path id="Path_45" d="M655.1 34.961a5.827 5.827 0 0 1-6.024-5.828 6.118 6.118 0 0 1 6.4-6 5.772 5.772 0 0 1 5.9 5.827 6.033 6.033 0 0 1-6.276 6.001zm3.086-2a4.466 4.466 0 0 0 .742-2.741c0-2.173-1.037-6.321-4.1-6.321a3.44 3.44 0 0 0-2.221.841 3.736 3.736 0 0 0-1.137 3.013c0 2.442 1.21 6.466 4.2 6.466a3.153 3.153 0 0 0 2.513-1.257z" class="cls-7" data-name="Path 45" transform="translate(-616.701 -16.993)"/>
            <path id="Path_46" d="M617.8 34.961a5.827 5.827 0 0 1-6.025-5.828 6.118 6.118 0 0 1 6.4-6 5.772 5.772 0 0 1 5.9 5.827 6.033 6.033 0 0 1-6.275 6.001zm3.087-2a4.473 4.473 0 0 0 .741-2.741c0-2.173-1.037-6.321-4.1-6.321a3.44 3.44 0 0 0-2.222.841 3.736 3.736 0 0 0-1.136 3.013c0 2.442 1.209 6.466 4.2 6.466a3.156 3.156 0 0 0 2.517-1.257z" class="cls-7" data-name="Path 46" transform="translate(-592.787 -16.993)"/>
            <path id="Path_47" d="M575.958 24.588l-3.55.819a26.308 26.308 0 0 1-4.1.421c-6.852 0-9.457-5.039-9.457-8.986 0-4.815 3.7-9.282 10.029-9.282a14.289 14.289 0 0 1 3.8.521 9.677 9.677 0 0 1 3.277 1.539l-2.057 1.961-.868.2.62-.993a7.094 7.094 0 0 0-5.312-2.332c-3.922 0-6.877 2.98-6.877 7.324a8.778 8.778 0 0 0 8.787 9.059 7.393 7.393 0 0 0 3.153-.621v-4l-3.748.2 1.985-1.069h5.26l-.644.62a.58.58 0 0 0-.249.4c-.026.224-.049.944-.049 1.192z" class="cls-7" data-name="Path 47" transform="translate(-558.856 -7.007)"/>
            <path id="Path_48" d="M721.694 22.885c-.82-.075-.991-.223-.991-1.192V7.644l.014-.16c.1-.868.348-1.017 1.118-1.465h-3.551l-1.862.894h1.9V22.24c0 .5-.1.571-.67 1.315h4.394l.918-.545c-.425-.051-.848-.075-1.27-.125z" class="cls-7" data-name="Path 48" transform="translate(-659.883 -6.019)"/>
            <path id="Path_49" d="M743.187 34.1c-.27.148-.541.322-.812.444a5.741 5.741 0 0 1-2.394.469 5.268 5.268 0 0 1-3.279-.962 6.38 6.38 0 0 1-2.513-5.2 5.587 5.587 0 0 1 5.645-5.694 4.792 4.792 0 0 1 2.54.691 4.081 4.081 0 0 1 1.724 2.439l-5.792 2.343-1.9.148c.615 3.131 2.735 4.954 5.078 4.954a6.37 6.37 0 0 0 3.007-.861zm-2.316-7.347c.467-.172.714-.32.714-.665a2.446 2.446 0 0 0-2.441-2.12c-.987 0-2.835.765-2.835 3.426 0 .419.049.863.075 1.308z" class="cls-7" data-name="Path 49" transform="translate(-671.276 -17.007)"/>
            <g id="Group_13" data-name="Group 13" transform="translate(73.555 6.149)">
                <path id="Path_50" d="M764.582 23.325v1.627h-.2v-1.627h-.538v-.169h1.273v.169z" class="cls-7" data-name="Path 50" transform="translate(-763.846 -23.156)"/>
                <path id="Path_51" d="M769.654 24.951V23.31h-.009l-.5 1.642h-.154l-.506-1.642h-.006v1.642h-.179v-1.8h.307l.458 1.451h.006l.45-1.451h.312v1.8z" class="cls-7" data-name="Path 51" transform="translate(-766.701 -23.156)"/>
            </g>
        </g>
        <g id="Group_15" data-name="Group 15" transform="translate(459.378 -41.832)">
            <path id="Path_52" d="M563.862-14.879h-1.233a8.183 8.183 0 0 0-.351-1.442H560.5a7.454 7.454 0 0 0-.362 1.442h-1.16q0-.15.9-2.467a19.4 19.4 0 0 0 .9-2.552h1.457a21.313 21.313 0 0 0 .815 2.515 22.019 22.019 0 0 1 .812 2.504zm-1.781-2.178a21.814 21.814 0 0 1-.659-2.151h-.062a22.563 22.563 0 0 1-.682 2.151z" class="cls-8" data-name="Path 52" transform="translate(-558.974 20.013)"/>
            <path id="Path_53" d="M579.056-14.879h-.956a9.392 9.392 0 0 0-1.06-1.669 9.186 9.186 0 0 1-1.264-2.178h-.062a13.586 13.586 0 0 1 .1 1.526q0 .952.054 2.32h-.948q.058-1.195.058-2.625 0-1.407-.058-2.393h1.145a7.253 7.253 0 0 0 .952 1.63 9.6 9.6 0 0 1 1.164 2.055h.058a14.637 14.637 0 0 1-.092-1.542q0-1.044-.054-2.143h.964Q579-18.941 579-17.5t.056 2.621z" class="cls-8" data-name="Path 53" transform="translate(-569.198 20.013)"/>
            <path id="Path_54" d="M594.44-17.6a2.843 2.843 0 0 1-.7 1.912 2.45 2.45 0 0 1-1.966.817q-.57 0-1.573-.046.05-1.164.05-2.625 0-1.4-.05-2.393h.675q.166 0 .493-.012c.218-.008.361-.011.428-.011a2.6 2.6 0 0 1 2.018.694 2.4 2.4 0 0 1 .625 1.664zm-1.052.166a1.857 1.857 0 0 0-.432-1.247 1.636 1.636 0 0 0-1.318-.507 4.085 4.085 0 0 0-.455.034q.039.771.039 1.611 0 .921.038 1.827a2.554 2.554 0 0 0 .5.05 1.456 1.456 0 0 0 1.228-.515 1.986 1.986 0 0 0 .4-1.256z" class="cls-8" data-name="Path 54" transform="translate(-578.995 20.055)"/>
            <path id="Path_55" d="M609.114-14.92h-1.141a7.569 7.569 0 0 0-.686-1.684.9.9 0 0 0-.771-.32h-.428q0 .991.035 2h-1.071q.05-1.164.05-2.625 0-1.4-.05-2.393h.667q.116 0 .484-.012t.68-.011q1.769 0 1.769 1.21a1.358 1.358 0 0 1-1.01 1.338v.058a1.2 1.2 0 0 1 .682.607 13.425 13.425 0 0 1 .79 1.832zm-1.445-3.546q0-.767-.987-.767a3.359 3.359 0 0 0-.64.054q.043.6.043 1.557.212.008.358.008 1.225-.001 1.225-.852z" class="cls-8" data-name="Path 55" transform="translate(-588.518 20.055)"/>
            <path id="Path_56" d="M623-17.687a2.769 2.769 0 0 1-.724 1.962 2.352 2.352 0 0 1-1.792.779 2.265 2.265 0 0 1-1.7-.715 2.517 2.517 0 0 1-.686-1.817 2.767 2.767 0 0 1 .724-1.962 2.351 2.351 0 0 1 1.792-.779 2.267 2.267 0 0 1 1.7.713 2.516 2.516 0 0 1 .686 1.819zm-1.064.112a1.99 1.99 0 0 0-.413-1.306 1.27 1.27 0 0 0-1.018-.5 1.175 1.175 0 0 0-.956.505 2.015 2.015 0 0 0-.393 1.276 1.985 1.985 0 0 0 .414 1.3 1.27 1.27 0 0 0 1.016.5 1.174 1.174 0 0 0 .956-.507 2.017 2.017 0 0 0 .398-1.269z" class="cls-8" data-name="Path 56" transform="translate(-596.882 20.22)"/>
            <path id="Path_57" d="M635.9-14.879h-1.1q.05-1.195.05-2.625 0-1.407-.05-2.393h1.1q-.05.971-.05 2.393-.004 1.454.05 2.625z" class="cls-8" data-name="Path 57" transform="translate(-607.595 20.013)"/>
            <path id="Path_58" d="M645.839-17.6a2.842 2.842 0 0 1-.7 1.912 2.45 2.45 0 0 1-1.966.817q-.57 0-1.573-.046.05-1.164.05-2.625 0-1.4-.05-2.393h.675q.166 0 .493-.012c.218-.008.361-.011.428-.011a2.6 2.6 0 0 1 2.018.694 2.4 2.4 0 0 1 .625 1.664zm-1.052.166a1.859 1.859 0 0 0-.432-1.247 1.637 1.637 0 0 0-1.318-.507 4.081 4.081 0 0 0-.455.034q.039.771.039 1.611 0 .921.038 1.827a2.555 2.555 0 0 0 .5.05 1.456 1.456 0 0 0 1.227-.515 1.986 1.986 0 0 0 .401-1.256z" class="cls-8" data-name="Path 58" transform="translate(-611.951 20.055)"/>
            <path id="Path_59" d="M665.338-14.879H664.1a8.133 8.133 0 0 0-.351-1.442h-1.781a7.436 7.436 0 0 0-.362 1.442h-1.16q0-.15.9-2.467a19.36 19.36 0 0 0 .9-2.552h1.457a21.264 21.264 0 0 0 .816 2.515 22.108 22.108 0 0 1 .819 2.504zm-1.781-2.178a21.9 21.9 0 0 1-.659-2.151h-.061q0 .151-.682 2.151z" class="cls-8" data-name="Path 59" transform="translate(-624.038 20.013)"/>
            <path id="Path_60" d="M680.058-18.624a1.5 1.5 0 0 1-.685 1.361 3.043 3.043 0 0 1-1.678.439q-.181 0-.258-.008 0 .724.042 1.912H676.4q.05-1.114.05-2.625 0-1.388-.05-2.393h.671q.142 0 .547-.012t.7-.011a2.206 2.206 0 0 1 1.237.332 1.121 1.121 0 0 1 .503 1.005zm-.995.212q0-.825-1.095-.825a3.081 3.081 0 0 0-.578.058q.043.728.042 1.65c.064.005.139.008.224.008q1.407-.001 1.407-.892z" class="cls-8" data-name="Path 60" transform="translate(-634.262 20.055)"/>
            <path id="Path_61" d="M692.942-18.624a1.5 1.5 0 0 1-.684 1.361 3.045 3.045 0 0 1-1.679.439c-.121 0-.207 0-.258-.008q0 .724.042 1.912h-1.083q.05-1.114.05-2.625 0-1.388-.05-2.393h.671q.143 0 .548-.012t.7-.011a2.206 2.206 0 0 1 1.237.332 1.121 1.121 0 0 1 .506 1.005zm-.994.212q0-.825-1.095-.825a3.081 3.081 0 0 0-.578.058q.043.728.042 1.65.1.008.224.008 1.406-.001 1.407-.892z" class="cls-8" data-name="Path 61" transform="translate(-642.523 20.055)"/>
            <path id="Path_62" d="M711.782-17.687a2.767 2.767 0 0 1-.725 1.962 2.351 2.351 0 0 1-1.792.779 2.265 2.265 0 0 1-1.7-.715 2.518 2.518 0 0 1-.686-1.817 2.768 2.768 0 0 1 .724-1.962 2.352 2.352 0 0 1 1.793-.779 2.268 2.268 0 0 1 1.7.713 2.517 2.517 0 0 1 .686 1.819zm-1.064.112a1.987 1.987 0 0 0-.413-1.306 1.269 1.269 0 0 0-1.017-.5 1.176 1.176 0 0 0-.956.505 2.015 2.015 0 0 0-.393 1.276 1.985 1.985 0 0 0 .414 1.3 1.269 1.269 0 0 0 1.015.5 1.173 1.173 0 0 0 .956-.507 2.015 2.015 0 0 0 .394-1.269z" class="cls-8" data-name="Path 62" transform="translate(-653.805 20.22)"/>
            <path id="Path_63" d="M727.72-14.879h-.952a9.392 9.392 0 0 0-1.06-1.669 9.192 9.192 0 0 1-1.264-2.178h-.061a13.653 13.653 0 0 1 .1 1.526q0 .952.054 2.32h-.948q.057-1.195.058-2.625 0-1.407-.058-2.393h1.145a7.261 7.261 0 0 0 .952 1.63 9.6 9.6 0 0 1 1.164 2.055h.058a14.546 14.546 0 0 1-.093-1.542q0-1.044-.054-2.143h.963q-.054.956-.054 2.393t.05 2.626z" class="cls-8" data-name="Path 63" transform="translate(-664.518 20.013)"/>
        </g>
    </g>
</svg>
