<svg xmlns="http://www.w3.org/2000/svg" width="183.661" height="60.078" viewBox="0 0 183.661 60.078">
    <defs>
        <style>
            .cls-1{fill:#fff}
        </style>
    </defs>
    <g id="Group_331" data-name="Group 331" transform="translate(-403.641 -141.412)">
        <path id="Path_33" d="M587.3 193.371a8.119 8.119 0 0 1-8.117 8.119H411.76a8.12 8.12 0 0 1-8.119-8.119v-43.84a8.12 8.12 0 0 1 8.119-8.119h167.425a8.118 8.118 0 0 1 8.117 8.119z" data-name="Path 33"/>
        <g id="Group_3" data-name="Group 3" transform="translate(420.845 153.924)">
            <g id="Group_2" data-name="Group 2">
                <path id="Path_10" d="M474.923 209.355a7.815 7.815 0 0 1 3.722-6.557 8.006 8.006 0 0 0-6.3-3.411c-2.653-.279-5.225 1.587-6.576 1.587-1.378 0-3.458-1.56-5.7-1.514a8.394 8.394 0 0 0-7.069 4.31c-3.055 5.29-.777 13.062 2.15 17.338 1.464 2.094 3.176 4.435 5.415 4.35 2.191-.09 3.009-1.4 5.653-1.4 2.62 0 3.389 1.4 5.673 1.344 2.353-.038 3.832-2.1 5.249-4.217a17.289 17.289 0 0 0 2.4-4.887 7.555 7.555 0 0 1-4.617-6.943z" class="cls-1" data-name="Path 10" transform="translate(-451.553 -191.063)"/>
                <path id="Path_11" d="M495.459 181.77a7.693 7.693 0 0 0 1.761-5.513 7.837 7.837 0 0 0-5.068 2.624 7.321 7.321 0 0 0-1.81 5.31 6.472 6.472 0 0 0 5.117-2.421z" class="cls-1" data-name="Path 11" transform="translate(-476.404 -176.257)"/>
            </g>
        </g>
        <g id="Group_4" data-name="Group 4" transform="translate(462.019 170.015)">
            <path id="Path_12" d="M581.366 239.775H578.3l-1.677-5.269H570.8l-1.6 5.269h-2.977l5.776-17.939h3.567zm-5.249-7.482l-1.517-4.685q-.241-.718-.905-3.38h-.054q-.265 1.145-.852 3.38l-1.484 4.685z" class="cls-1" data-name="Path 12" transform="translate(-566.218 -221.56)"/>
            <path id="Path_13" d="M627.533 241.6a7.353 7.353 0 0 1-1.784 5.217 5.217 5.217 0 0 1-3.967 1.7 3.968 3.968 0 0 1-3.674-1.836h-.054v6.819h-2.874v-13.954q0-2.075-.107-4.259h2.527l.16 2.051h.054a5.115 5.115 0 0 1 8.186-.507 7.128 7.128 0 0 1 1.533 4.769zm-2.929.105a5.326 5.326 0 0 0-.852-3.114 2.944 2.944 0 0 0-2.5-1.278 2.985 2.985 0 0 0-1.929.705 3.27 3.27 0 0 0-1.131 1.851 3.769 3.769 0 0 0-.133.876v2.155a3.456 3.456 0 0 0 .865 2.384 2.867 2.867 0 0 0 2.249.972A2.944 2.944 0 0 0 623.7 245a5.507 5.507 0 0 0 .9-3.3z" class="cls-1" data-name="Path 13" transform="translate(-597.53 -230.011)"/>
            <path id="Path_14" d="M668.979 241.6a7.347 7.347 0 0 1-1.786 5.217 5.212 5.212 0 0 1-3.966 1.7 3.964 3.964 0 0 1-3.673-1.836h-.054v6.819h-2.873v-13.954q0-2.075-.107-4.259h2.528l.16 2.051h.054a5.116 5.116 0 0 1 8.187-.507 7.15 7.15 0 0 1 1.53 4.769zm-2.929.105a5.328 5.328 0 0 0-.854-3.114 2.94 2.94 0 0 0-2.5-1.278 2.993 2.993 0 0 0-1.93.705 3.268 3.268 0 0 0-1.13 1.851 3.825 3.825 0 0 0-.133.876v2.155a3.467 3.467 0 0 0 .862 2.384 2.875 2.875 0 0 0 2.252.972 2.943 2.943 0 0 0 2.526-1.256 5.507 5.507 0 0 0 .907-3.3z" class="cls-1" data-name="Path 14" transform="translate(-624.095 -230.011)"/>
            <path id="Path_15" d="M717.686 234.251a4.782 4.782 0 0 1-1.594 3.727 7.059 7.059 0 0 1-4.887 1.571 8.558 8.558 0 0 1-4.65-1.118l.666-2.4a7.876 7.876 0 0 0 4.155 1.149 3.928 3.928 0 0 0 2.534-.733 2.4 2.4 0 0 0 .9-1.96 2.5 2.5 0 0 0-.746-1.839 6.929 6.929 0 0 0-2.475-1.387q-4.712-1.757-4.711-5.145a4.554 4.554 0 0 1 1.652-3.625 6.515 6.515 0 0 1 4.386-1.419 8.708 8.708 0 0 1 4.073.852l-.719 2.343a7.063 7.063 0 0 0-3.435-.825 3.475 3.475 0 0 0-2.367.745 2.13 2.13 0 0 0-.719 1.629 2.192 2.192 0 0 0 .823 1.757 9.306 9.306 0 0 0 2.61 1.385 8.856 8.856 0 0 1 3.407 2.182 4.558 4.558 0 0 1 1.097 3.111z" class="cls-1" data-name="Path 15" transform="translate(-656.163 -221.068)"/>
            <path id="Path_16" d="M749.957 232.167h-3.168v6.278q0 2.4 1.677 2.4a5.11 5.11 0 0 0 1.277-.133l.08 2.183a6.513 6.513 0 0 1-2.236.319 3.449 3.449 0 0 1-2.663-1.038 5.1 5.1 0 0 1-.958-3.488v-6.519h-1.889v-2.157h1.888v-2.368l2.824-.852v3.221h3.167v2.16z" class="cls-1" data-name="Path 16" transform="translate(-678.93 -224.733)"/>
            <path id="Path_17" d="M781.2 241.642a7.1 7.1 0 0 1-1.7 4.9 6.083 6.083 0 0 1-4.74 1.97 5.786 5.786 0 0 1-4.537-1.889 6.878 6.878 0 0 1-1.691-4.765 7.027 7.027 0 0 1 1.743-4.924 6.034 6.034 0 0 1 4.7-1.918 5.91 5.91 0 0 1 4.578 1.891 6.8 6.8 0 0 1 1.647 4.735zm-2.986.09a5.819 5.819 0 0 0-.771-3.07 2.839 2.839 0 0 0-2.581-1.547 2.882 2.882 0 0 0-2.636 1.547 5.934 5.934 0 0 0-.771 3.124 5.812 5.812 0 0 0 .771 3.069 2.938 2.938 0 0 0 5.191-.027 5.843 5.843 0 0 0 .8-3.093z" class="cls-1" data-name="Path 17" transform="translate(-695.882 -230.003)"/>
            <path id="Path_18" d="M817.5 237.818a4.964 4.964 0 0 0-.9-.08 2.715 2.715 0 0 0-2.343 1.146 4.308 4.308 0 0 0-.719 2.555v6.788h-2.873l.027-8.864q0-2.237-.108-4.073h2.5l.1 2.475h.08a4.425 4.425 0 0 1 1.437-2.05 3.478 3.478 0 0 1 2.082-.693 4.628 4.628 0 0 1 .719.053z" class="cls-1" data-name="Path 18" transform="translate(-722.837 -230.011)"/>
            <path id="Path_19" d="M845.121 241.08a6.731 6.731 0 0 1-.1 1.3h-8.624a3.753 3.753 0 0 0 1.252 2.93 4.271 4.271 0 0 0 2.821.9 9.543 9.543 0 0 0 3.49-.612l.452 1.991a10.787 10.787 0 0 1-4.338.8 6.283 6.283 0 0 1-4.727-1.77 6.539 6.539 0 0 1-1.719-4.751 7.412 7.412 0 0 1 1.6-4.872 5.508 5.508 0 0 1 4.525-2.075 4.822 4.822 0 0 1 4.229 2.079 7 7 0 0 1 1.139 4.08zm-2.741-.746a3.906 3.906 0 0 0-.558-2.21 2.512 2.512 0 0 0-2.291-1.2 2.727 2.727 0 0 0-2.288 1.172 4.292 4.292 0 0 0-.851 2.235h5.988z" class="cls-1" data-name="Path 19" transform="translate(-737.599 -229.947)"/>
        </g>
        <g id="Group_6" data-name="Group 6" transform="translate(463.726 154.296)">
            <g id="Group_5" data-name="Group 5">
                <path id="Path_20" d="M578.219 182.627a4.428 4.428 0 0 1-1.426 3.584 5.675 5.675 0 0 1-3.752 1.111 17.356 17.356 0 0 1-2.067-.105v-8.671a15.212 15.212 0 0 1 2.433-.181 5.248 5.248 0 0 1 3.492 1.007 4.072 4.072 0 0 1 1.32 3.255zm-1.49.039a2.869 2.869 0 0 0-3.2-3.191 5.951 5.951 0 0 0-1.138.09v6.593a7.5 7.5 0 0 0 .955.039 3.343 3.343 0 0 0 2.5-.9 3.611 3.611 0 0 0 .88-2.627z" class="cls-1" data-name="Path 20" transform="translate(-570.974 -177.971)"/>
                <path id="Path_21" d="M602.039 188.3a3.485 3.485 0 0 1-.837 2.406 2.985 2.985 0 0 1-2.329.968 2.841 2.841 0 0 1-2.23-.929 3.381 3.381 0 0 1-.829-2.34 3.451 3.451 0 0 1 .856-2.419 2.97 2.97 0 0 1 2.308-.942 2.907 2.907 0 0 1 2.251.928 3.356 3.356 0 0 1 .81 2.328zm-1.465.046a2.872 2.872 0 0 0-.379-1.508 1.4 1.4 0 0 0-1.267-.76 1.418 1.418 0 0 0-1.3.76 2.915 2.915 0 0 0-.379 1.538 2.88 2.88 0 0 0 .379 1.509 1.427 1.427 0 0 0 1.283.76 1.409 1.409 0 0 0 1.267-.774 2.856 2.856 0 0 0 .392-1.525z" class="cls-1" data-name="Path 21" transform="translate(-586.893 -182.261)"/>
                <path id="Path_22" d="M626.215 185.414l-1.991 6.356h-1.294l-.823-2.76a20.588 20.588 0 0 1-.511-2.053h-.024a15.052 15.052 0 0 1-.511 2.053l-.875 2.76h-1.311l-1.869-6.356h1.448l.719 3.022q.26 1.072.432 2.04h.025q.158-.8.525-2.026l.905-3.033h1.151l.865 2.967q.313 1.086.51 2.092h.039a20.056 20.056 0 0 1 .432-2.092l.771-2.969h1.388z" class="cls-1" data-name="Path 22" transform="translate(-600.477 -182.498)"/>
                <path id="Path_23" d="M653.109 191.532H651.7v-3.64q0-1.683-1.281-1.683a1.276 1.276 0 0 0-1.021.462 1.641 1.641 0 0 0-.392 1.086v3.77h-1.413v-4.536q0-.837-.051-1.819h1.242l.066 1h.039a2.042 2.042 0 0 1 .732-.768 2.391 2.391 0 0 1 1.28-.357 2.027 2.027 0 0 1 1.479.576 2.8 2.8 0 0 1 .732 2.106z" class="cls-1" data-name="Path 23" transform="translate(-620.046 -182.26)"/>
                <path id="Path_24" d="M671.381 186.564h-1.412v-9.271h1.412z" class="cls-1" data-name="Path 24" transform="translate(-634.422 -177.293)"/>
                <path id="Path_25" d="M685.958 188.3a3.487 3.487 0 0 1-.837 2.406 2.986 2.986 0 0 1-2.329.968 2.836 2.836 0 0 1-2.23-.929 3.383 3.383 0 0 1-.829-2.34 3.453 3.453 0 0 1 .856-2.419 2.97 2.97 0 0 1 2.307-.942 2.909 2.909 0 0 1 2.251.928 3.356 3.356 0 0 1 .811 2.328zm-1.466.046a2.876 2.876 0 0 0-.38-1.511 1.394 1.394 0 0 0-1.267-.76 1.414 1.414 0 0 0-1.3.76 2.913 2.913 0 0 0-.379 1.539 2.871 2.871 0 0 0 .379 1.508 1.425 1.425 0 0 0 1.282.76 1.408 1.408 0 0 0 1.267-.773 2.847 2.847 0 0 0 .397-1.521z" class="cls-1" data-name="Path 25" transform="translate(-640.678 -182.261)"/>
                <path id="Path_26" d="M706.81 191.536h-1.267l-.1-.732h-.043a2.172 2.172 0 0 1-1.856.876 1.915 1.915 0 0 1-1.448-.576 1.81 1.81 0 0 1-.5-1.294 1.974 1.974 0 0 1 .975-1.778 5.059 5.059 0 0 1 2.741-.6v-.118q0-1.256-1.32-1.255a2.955 2.955 0 0 0-1.657.471l-.287-.928a4.074 4.074 0 0 1 2.18-.548q2.491 0 2.494 2.629v2.34a9.945 9.945 0 0 0 .088 1.513zm-1.472-2.184v-.981q-2.338-.041-2.338 1.28a.956.956 0 0 0 .271.746.987.987 0 0 0 .69.248 1.428 1.428 0 0 0 .864-.294 1.206 1.206 0 0 0 .512-1z" class="cls-1" data-name="Path 26" transform="translate(-654.693 -182.264)"/>
                <path id="Path_27" d="M727.635 186.564h-1.257l-.066-1.021h-.039a2.113 2.113 0 0 1-2.042 1.165 2.392 2.392 0 0 1-1.909-.905 3.513 3.513 0 0 1-.758-2.34 3.684 3.684 0 0 1 .824-2.5 2.533 2.533 0 0 1 1.962-.89 1.9 1.9 0 0 1 1.791.863h.027v-3.644h1.414v7.56q.003.929.053 1.712zm-1.464-2.679v-1.06a2.082 2.082 0 0 0-.039-.445 1.609 1.609 0 0 0-.511-.856 1.388 1.388 0 0 0-.945-.347 1.448 1.448 0 0 0-1.243.628 2.691 2.691 0 0 0-.453 1.608 2.507 2.507 0 0 0 .435 1.53 1.453 1.453 0 0 0 1.235.627 1.357 1.357 0 0 0 1.117-.523 1.743 1.743 0 0 0 .403-1.162z" class="cls-1" data-name="Path 27" transform="translate(-667.488 -177.293)"/>
                <path id="Path_28" d="M761.019 188.3a3.486 3.486 0 0 1-.837 2.406 2.985 2.985 0 0 1-2.329.968 2.844 2.844 0 0 1-2.23-.929 3.381 3.381 0 0 1-.829-2.34 3.451 3.451 0 0 1 .856-2.419 2.971 2.971 0 0 1 2.31-.942 2.906 2.906 0 0 1 2.249.928 3.358 3.358 0 0 1 .81 2.328zm-1.464.046a2.878 2.878 0 0 0-.379-1.508 1.4 1.4 0 0 0-1.267-.76 1.419 1.419 0 0 0-1.3.76 2.912 2.912 0 0 0-.379 1.538 2.873 2.873 0 0 0 .379 1.509 1.448 1.448 0 0 0 2.551-.014 2.869 2.869 0 0 0 .395-1.523z" class="cls-1" data-name="Path 28" transform="translate(-688.787 -182.261)"/>
                <path id="Path_29" d="M783.35 191.532h-1.412v-3.64q0-1.683-1.283-1.683a1.267 1.267 0 0 0-1.019.462 1.633 1.633 0 0 0-.393 1.086v3.77h-1.413v-4.536q0-.837-.05-1.819h1.241l.066 1h.039a2.067 2.067 0 0 1 .732-.768 2.391 2.391 0 0 1 1.282-.357 2.027 2.027 0 0 1 1.478.576 2.792 2.792 0 0 1 .732 2.106z" class="cls-1" data-name="Path 29" transform="translate(-703.521 -182.26)"/>
                <path id="Path_30" d="M812.865 183.648h-1.556v3.088c0 .785.276 1.177.824 1.177a2.507 2.507 0 0 0 .633-.066l.036 1.072a3.175 3.175 0 0 1-1.1.157 1.689 1.689 0 0 1-1.307-.51 2.492 2.492 0 0 1-.475-1.717v-3.2h-.929v-1.059h.929v-1.165l1.385-.418v1.582h1.556v1.06z" class="cls-1" data-name="Path 30" transform="translate(-723.526 -179.673)"/>
                <path id="Path_31" d="M830.754 186.564h-1.414v-3.612q0-1.708-1.28-1.71a1.348 1.348 0 0 0-1.348 1 1.763 1.763 0 0 0-.066.508v3.817h-1.412v-9.271h1.412v3.831h.027a2.135 2.135 0 0 1 1.91-1.045 1.969 1.969 0 0 1 1.454.576 2.9 2.9 0 0 1 .719 2.131z" class="cls-1" data-name="Path 31" transform="translate(-733.935 -177.293)"/>
                <path id="Path_32" d="M852 188.038a3.446 3.446 0 0 1-.052.641h-4.238a1.852 1.852 0 0 0 .613 1.439 2.1 2.1 0 0 0 1.387.445 4.679 4.679 0 0 0 1.714-.3l.221.982a5.321 5.321 0 0 1-2.133.393 3.076 3.076 0 0 1-2.32-.87 3.2 3.2 0 0 1-.842-2.334 3.635 3.635 0 0 1 .785-2.393 2.7 2.7 0 0 1 2.222-1.019 2.364 2.364 0 0 1 2.082 1.019 3.393 3.393 0 0 1 .561 1.997zm-1.349-.362a1.9 1.9 0 0 0-.271-1.086 1.235 1.235 0 0 0-1.125-.589 1.341 1.341 0 0 0-1.125.576 2.136 2.136 0 0 0-.419 1.1h2.94z" class="cls-1" data-name="Path 32" transform="translate(-747.468 -182.244)"/>
            </g>
        </g>
    </g>
</svg>
