<svg xmlns="http://www.w3.org/2000/svg" width="27.554" height="24.528" viewBox="0 0 27.554 24.528">
    <defs>
        <style>
            .cls-1{fill:#fff}
        </style>
    </defs>
    <g id="box">
        <path id="Path_63" d="M26.637 16.308H.917a.917.917 0 0 0-.917.917v6.052a.917.917 0 0 0 .917.917h.6v15.725a.917.917 0 0 0 .917.917h22.69a.917.917 0 0 0 .917-.917V24.194h.6a.917.917 0 0 0 .917-.917v-6.052a.917.917 0 0 0-.921-.917zM1.834 22.36v-4.218H25.72v4.218zM24.207 39H3.347V24.194h20.86V39z" class="cls-1" data-name="Path 63" transform="translate(0 -16.308)"/>
        <path id="Path_64" d="M115.334 158.869a.917.917 0 0 0 .653.287H116a.917.917 0 0 0 .648-.269l3.169-3.169a.917.917 0 0 0-1.3-1.3l-2.5 2.5-.526-.556a.917.917 0 0 0-1.332 1.261z" class="cls-1" data-name="Path 64" transform="translate(-103.341 -141.364)"/>
        <path id="Path_65" d="M87.751 126.58a6.212 6.212 0 1 0-6.212-6.212 6.219 6.219 0 0 0 6.212 6.212zm0-10.591a4.378 4.378 0 1 1-4.378 4.378 4.383 4.383 0 0 1 4.378-4.378z" class="cls-1" data-name="Path 65" transform="translate(-73.974 -105.077)"/>
    </g>
</svg>
