<svg xmlns="http://www.w3.org/2000/svg" width="50.22" height="45" viewBox="0 0 50.22 45"><defs><style>.cls-1{fill:#7f28c4}</style></defs><g id="Сгруппировать_45" transform="translate(-4582.334 -1526)"><path id="Контур_14" d="M4631.574 1530.376l-1.937-.01v-1.192a.988.988 0 00-.987-.986h-1.932v-1.2a.986.986 0 00-.985-.985h-26.259a.987.987 0 00-.986.986v2.494a2.659 2.659 0 00-.537.4l-14.814 14.787a2.751 2.751 0 000 3.887l10.365 10.363a2.751 2.751 0 003.887 0l1.1-1.1v6.36a.987.987 0 00.986.985h1.2v1.932a.986.986 0 00.986.985h1.2v1.932a.988.988 0 00.986.986h27.716a.988.988 0 00.987-.986v-38.652a.988.988 0 00-.976-.986zm-35.48 27.248a.917.917 0 01-1.295 0l-10.366-10.364a.928.928 0 010-1.3l14.312-14.286.5-.5a.917.917 0 01.87-.241l.086.022 7.7 1.9-2.207 2.206a2.748 2.748 0 101.3 1.3l2.206-2.206 1.923 7.788a.708.708 0 01.012.107.911.911 0 01-.253.762l-10.68 10.7-1.459 1.462zm9.07-19.432a.915.915 0 110-1.3.918.918 0 010 1.3zm-4.7 25v-7.35l11.718-11.736a2.758 2.758 0 00.724-2.61l-2.049-8.291a2.769 2.769 0 00-.186-.517l2.668-2.668a.916.916 0 00-1.3-1.3l-2.667 2.668a2.742 2.742 0 00-.519-.186l-8.292-2.049c-.033-.008-.067-.011-.1-.018v-1.168h24.285v35.222zm2.188 2.916v-.945h23.084a.986.986 0 00.985-.985v-34.02h.946v35.95zm27.933 2.917h-25.745v-.945h23.813a.988.988 0 00.987-.986v-34.759h.944z" class="cls-1"/><path id="Контур_15" d="M4607.255 1555.439a2.778 2.778 0 10-3.929 0 2.78 2.78 0 003.929 0zm-2.618-2.619a.926.926 0 110 1.309.927.927 0 010-1.309z" class="cls-1" transform="translate(-9.829 -12.034)"/><path id="Контур_16" d="M4609.839 1573.021a2.77 2.77 0 000-3.78c-.021-.023-.037-.051-.06-.074a2.778 2.778 0 100 3.928c.023-.023.039-.05.06-.074zm-1.37-1.235a.926.926 0 110-1.31.925.925 0 010 1.31z" class="cls-1" transform="translate(-11.058 -20.635)"/><path id="Контур_17" d="M4606.125 1563.975l2.679-.3a.926.926 0 10-.206-1.84l-1.636.182-1.474.164-8.676.964a.926.926 0 00.1 1.846 1 1 0 00.1-.006l8.471-.941z" class="cls-1" transform="translate(-6.566 -17.445)"/></g></svg>