<svg xmlns="http://www.w3.org/2000/svg" width="19.571" height="15" viewBox="0 0 19.571 15">
    <defs>
        <style>
            .cls-1{fill:#ff336d}
        </style>
    </defs>
    <g id="correct-symbol" transform="translate(0 -51.678)">
        <path id="Path_266" d="M19.217 53.749L17.5 52.031a1.219 1.219 0 0 0-1.717 0L7.5 60.327 3.788 56.6a1.169 1.169 0 0 0-.858-.353 1.169 1.169 0 0 0-.859.353L.354 58.319a1.22 1.22 0 0 0 0 1.717l4.571 4.571 1.717 1.717a1.219 1.219 0 0 0 1.717 0l1.717-1.717 9.141-9.141a1.219 1.219 0 0 0 0-1.717z" class="cls-1" data-name="Path 266"/>
    </g>
</svg>
