<svg xmlns="http://www.w3.org/2000/svg" width="31.777" height="26.564" viewBox="0 0 31.777 26.564">
    <defs>
        <style>
            .cls-1{fill:#fff}
        </style>
    </defs>
    <g id="check">
        <path id="Path_60" d="M12.158 50.926a1.084 1.084 0 0 1-.767-.318L.317 39.53a1.084 1.084 0 0 1 0-1.53l5.85-5.853a1.084 1.084 0 0 1 1.534 0l4.457 4.453 11.918-11.92a1.085 1.085 0 0 1 .767-.318 1.084 1.084 0 0 1 .767.318l5.85 5.853a1.084 1.084 0 0 1 0 1.533L12.925 50.608a1.084 1.084 0 0 1-.767.318zM2.617 38.763l9.541 9.545 17-17.009-4.315-4.319L12.925 38.9a1.084 1.084 0 0 1-1.534 0l-4.457-4.456z" class="cls-1" data-name="Path 60" transform="translate(0 -24.362)"/>
    </g>
</svg>
