<svg xmlns="http://www.w3.org/2000/svg" width="102.148" height="64.616" viewBox="0 0 102.148 64.616">
  <g id="Group_94" data-name="Group 94" transform="translate(-268.951 -370.401)">
      <path id="Path_156" fill="#004c9f" d="M320.026 370.4c-28.163 0-51.075 14.494-51.075 32.306s22.912 32.309 51.075 32.309 51.073-14.5 51.073-32.309S348.19 370.4 320.026 370.4z" class="cls-1" data-name="Path 156"/>
      <g id="Group_93" data-name="Group 93" transform="translate(281.538 388.688)">
          <path id="Path_157" fill="#fff" fill-rule="evenodd" d="M282.882 396.415l-1.037 4.849a1.017 1.017 0 0 1-.885.671.54.54 0 0 1-.55-.671l3.419-16.075a1.062 1.062 0 0 1 .823-.7.621.621 0 0 1 .609.7l-.885 4.177h3.024l.794-3.72a7.856 7.856 0 0 0 .213-1.587c0-1.525-1.4-1.525-2.257-1.525h-2.076c-2.715 0-3.081 1.8-3.355 3.141l-3.2 15.009a7.917 7.917 0 0 0-.182 1.649c0 1.652 1.067 1.554 2.2 1.554h2.063c2.867 0 3.172-2.2 3.386-3.17l.913-4.3zm13.362-9.61h-2.561l-3.111 14.674a.648.648 0 0 1-.7.579.486.486 0 0 1-.519-.579l3.113-14.674H289.9l-3.081 14.43a7.257 7.257 0 0 0-.122 1.372 1.192 1.192 0 0 0 1.251 1.28 3.319 3.319 0 0 0 2.318-1.066l-.945 4.578c-.032.154-.092.522-.672.522-.457 0-.611-.277-.549-.522l.274-1.372h-2.563l-.152.8a7.653 7.653 0 0 0-.092 1.4c0 1.161 1.189 1.223 1.892 1.223h1.556c2.41 0 2.869-2.168 3.081-3.144l4.148-19.5zm5.613-4.272H299.3l-4.546 21.354h2.563l.152-.7a2.4 2.4 0 0 0 1.709.889c1.708 0 2.226-1.681 2.409-2.534l2.655-12.419a6.131 6.131 0 0 0 .182-1.434c0-.915-.731-1.066-1.494-1.066a4.035 4.035 0 0 0-2.136.855l1.067-4.944zm-1.464 6.8a.912.912 0 0 1 .733-.58c.639 0 .517.427.488.58l-2.534 12.018a.675.675 0 0 1-.731.579.478.478 0 0 1-.487-.579l2.531-12.018zm7.9 8.569l-.794 3.634a.736.736 0 0 1-.763.517.419.419 0 0 1-.457-.517l1.159-5.341h3.784l1.464-6.9a1.856 1.856 0 0 0-1.922-2.5h-1.587a2.867 2.867 0 0 0-2.867 2.532l-2.563 12.05a5.74 5.74 0 0 0-.092 1.22c0 1.28 1.039 1.28 1.892 1.28h1.587c.853 0 2.471-.09 2.989-2.531l.733-3.449zm-.518-3.414l1.158-5.338a.671.671 0 0 1 .642-.522c.365 0 .641.185.579.522L309 394.493zm6.5 9.394l3.081-14.521a.872.872 0 0 1 .763-.609.475.475 0 0 1 .458.609l-.677 3.239h2.562l.794-3.753a5.64 5.64 0 0 0 .151-.975c0-.766-.333-1.251-1.189-1.251a4.532 4.532 0 0 0-2.472.883l.154-.7h-2.56l-3.63 17.082zm5.583 0h3.022l1.616-7.624h1.678c2.686 0 3.175-1.985 3.447-3.265l1.556-7.352a7.58 7.58 0 0 0 .182-1.587c0-1.616-1.492-1.525-2.255-1.525h-4.7l-4.548 21.354zm5.065-9.576l2.077-9.821h.395c.368 0 1.007.154.794 1.1l-1.648 7.686a1.236 1.236 0 0 1-1.253 1.04zm4.148 9.576h2.564l4.546-21.354h-2.564l-4.546 21.354zm7.231-11.955h2.564l.577-2.748a.861.861 0 0 1 .733-.55c.216 0 .58.124.49.55l-.642 3.021c-.274 1.31-1.5 1.708-2.532 2.2a3.581 3.581 0 0 0-2.255 2.532l-1.007 4.757a4.19 4.19 0 0 0-.124 1.069c0 .978.4 1.316 1.222 1.316a3.539 3.539 0 0 0 2.407-1.042l-.182.853h2.561l3.174-14.855a1.711 1.711 0 0 0-1.739-2.226h-1.739a2.593 2.593 0 0 0-2.867 2.226l-.642 2.9zm1.8 9.332a.8.8 0 0 1-.761.671.522.522 0 0 1-.457-.671l1.007-4.637c.152-.763.121-1.066 1.587-1.828l-1.376 6.465zm6.684-12.63h1.372L343.47 401.3c-.547 2.658 1.372 2.59 2.2 2.59h1.678l.4-1.828h-.915c-.916 0-.763-.823-.7-1.131l2.59-12.294h1.862l.4-1.828h-1.86l.917-4.272h-2.562l-.915 4.272h-1.375l-.395 1.828z" class="cls-2" data-name="Path 157" transform="translate(-277.286 -382.532)"/>
          <path id="Path_158" fill="#fff" fill-rule="evenodd" d="M277.3 398.3h7.722l-.341 2.252H277.3V398.3zm15.559 0h58.309v2.252h-58.82l.511-2.252z" class="cls-2" data-name="Path 158" transform="translate(-277.301 -374.534)"/>
          <path id="Path_159" fill="#fff" fill-rule="evenodd" d="M334.105 395.438a4.711 4.711 0 1 0-4.711 4.714 4.721 4.721 0 0 0 4.711-4.714zm-.549 0a4.163 4.163 0 1 1-4.177-4.166 4.162 4.162 0 0 1 4.177 4.166zm-5.923 2.457h.668v-2.225h1.708c1.078 0 .776.954.886 1.569l.109.656h.791c-.285-.452-.191-.562-.244-1.245-.083-.9-.1-.98-.63-1.322a1.294 1.294 0 0 0 .683-1.3c-.068-1.174-.844-1.325-1.651-1.325h-2.32v5.19zm2.333-4.6c.41 0 1.052.109.954.995-.068.668-.5.791-.954.791H328.3v-1.786z" class="cls-2" data-name="Path 159" transform="translate(-253.259 -378.375)"/>
      </g>
  </g>
</svg>
