<svg xmlns="http://www.w3.org/2000/svg" width="81.951" height="56" viewBox="0 0 81.951 56">
    <defs>
        <style>
            .cls-1{fill:#7f28c4}
        </style>
    </defs>
    <g id="Free_delivery" transform="translate(-2 -21)">
        <path id="Контур_416" d="M82.586 64.707H81.22V49.683A12.306 12.306 0 0 0 68.927 37.39h-9.561V22.366A1.366 1.366 0 0 0 58 21H3.366A1.366 1.366 0 0 0 2 22.366v43.707a1.366 1.366 0 0 0 1.366 1.366h1.366v1.366a4.1 4.1 0 0 0 4.1 4.1H15.4a8.176 8.176 0 0 0 14.172 0h32.269a8.176 8.176 0 0 0 14.172 0h3.841a4.1 4.1 0 0 0 4.1-4.1v-2.732a1.366 1.366 0 0 0-1.368-1.366zm-4.1-15.024v2.732H66.2a1.366 1.366 0 0 1-1.366-1.366V40.122h4.1a9.572 9.572 0 0 1 9.561 9.561zM62.1 40.122v10.927a4.1 4.1 0 0 0 4.1 4.1h12.288v9.561h-2.475a8.176 8.176 0 0 0-14.172 0h-2.475V40.122zM29.574 64.707a8.176 8.176 0 0 0-14.172 0H4.732v-5.463h51.9v5.463zM4.732 23.732h51.9v32.78h-51.9zm4.1 46.439a1.366 1.366 0 0 1-1.366-1.366v-1.366h6.952a7.649 7.649 0 0 0 0 2.732zm13.659 4.1a5.463 5.463 0 1 1 5.463-5.463 5.463 5.463 0 0 1-5.466 5.46zm8.072-4.1a7.649 7.649 0 0 0 0-2.732h30.292a7.649 7.649 0 0 0 0 2.732zm38.367 4.1a5.463 5.463 0 1 1 5.463-5.463 5.463 5.463 0 0 1-5.466 5.46zm12.29-5.466a1.366 1.366 0 0 1-1.366 1.366H77a7.649 7.649 0 0 0 0-2.732h4.22z" class="cls-1"/>
        <path id="Контур_417" d="M10.373 41.726a1.373 1.373 0 0 0 1.373-1.373v-4.118h2.744a1.373 1.373 0 1 0 0-2.745h-2.745v-2.745h4.118a1.373 1.373 0 0 0 0-2.745h-5.49A1.373 1.373 0 0 0 9 29.373v10.98a1.373 1.373 0 0 0 1.373 1.373z" class="cls-1" transform="translate(2.608 2.546)"/>
        <path id="Контур_418" d="M17.373 41.726a1.373 1.373 0 0 0 1.373-1.373v-3.2l3.02 4.026a1.373 1.373 0 0 0 2.2-1.647l-2.624-3.5A4.107 4.107 0 0 0 20.118 28h-2.745A1.373 1.373 0 0 0 16 29.373v10.98a1.373 1.373 0 0 0 1.373 1.373zm4.118-9.608a1.373 1.373 0 0 1-1.373 1.373h-1.373v-2.746h1.373a1.373 1.373 0 0 1 1.372 1.373z" class="cls-1" transform="translate(5.112 2.546)"/>
        <path id="Контур_419" d="M25.373 41.726h5.49a1.373 1.373 0 0 0 0-2.745h-4.118v-2.746h2.745a1.373 1.373 0 0 0 0-2.745h-2.745v-2.745h4.118a1.373 1.373 0 1 0 0-2.745h-5.49A1.373 1.373 0 0 0 24 29.373v10.98a1.373 1.373 0 0 0 1.373 1.373z" class="cls-1" transform="translate(8.032 2.546)"/>
        <path id="Контур_420" d="M32.373 41.726h5.49a1.373 1.373 0 1 0 0-2.745h-4.118v-2.746h2.745a1.373 1.373 0 0 0 0-2.745h-2.745v-2.745h4.118a1.373 1.373 0 1 0 0-2.745h-5.49A1.373 1.373 0 0 0 31 29.373v10.98a1.373 1.373 0 0 0 1.373 1.373z" class="cls-1" transform="translate(10.588 2.546)"/>
        <path id="Контур_421" d="M51.295 40H7.373a1.373 1.373 0 1 0 0 2.745h43.922a1.373 1.373 0 1 0 0-2.745z" class="cls-1" transform="translate(1.49 6.945)"/>
    </g>
</svg>
