<svg xmlns="http://www.w3.org/2000/svg" xmlns:xlink="http://www.w3.org/1999/xlink" width="55" height="44" viewBox="0 0 55 44">
    <defs>
        <path id="a" d="M0 .054h41.908v36.844H0z"/>
        <path id="c" d="M.097.028h31.207V29H.097z"/>
    </defs>
    <g fill="none" fill-rule="evenodd">
        <g>
            <mask id="b" fill="#fff">
                <use xlink:href="#a"/>
            </mask>
            <path fill="#FF306F" d="M38.896.054H3.012A3.016 3.016 0 0 0 0 3.067v21.537a3.016 3.016 0 0 0 3.012 3.014H5.34v8.017a1.262 1.262 0 0 0 2.154.893l8.907-8.91h1.787a1.262 1.262 0 0 0 0-2.525s-2.37.001-2.395.004c-.294.02-.582.141-.807.366l-7.122 7.125s-.002-6.313-.006-6.345a1.262 1.262 0 0 0-1.257-1.15H3.012a.489.489 0 0 1-.488-.489V3.067c0-.27.219-.488.488-.488h35.884c.27 0 .488.219.488.488v8.263a1.262 1.262 0 1 0 2.524 0V3.067A3.016 3.016 0 0 0 38.896.054" mask="url(#b)"/>
        </g>
        <g transform="translate(23 15)">
            <mask id="d" fill="#fff">
                <use xlink:href="#c"/>
            </mask>
            <path fill="#FF306F" d="M28.775 18.707c0 .284-.22.515-.49.515h-2.132c-.666 0-1.21.542-1.26 1.23-.003.028-.005 4-.005 4l-4.592-4.835-.014-.015a1.222 1.222 0 0 0-.884-.38H3.115a.504.504 0 0 1-.49-.515v-15.5c0-.285.22-.516.49-.516h25.17c.27 0 .49.231.49.515v15.5zm-.49-18.68H3.116C1.451.028.097 1.455.097 3.208v15.5c0 1.753 1.354 3.179 3.018 3.179h15.758l6.385 6.724c.242.255.565.39.894.39.163 0 .328-.033.484-.101.472-.207.78-.692.78-1.23v-5.783h.87c1.664 0 3.018-1.426 3.018-3.18v-15.5c0-1.752-1.354-3.178-3.018-3.178z" mask="url(#d)"/>
        </g>
        <path fill="#FF306F" d="M38.5 25a1.5 1.5 0 1 0 .001 3.001A1.5 1.5 0 0 0 38.5 25M33.713 8H10.287C9.577 8 9 8.672 9 9.5s.576 1.5 1.287 1.5h23.426c.71 0 1.287-.672 1.287-1.5S34.424 8 33.713 8M17.765 17h-8.53C8.553 17 8 17.672 8 18.5S8.553 20 9.235 20h8.53c.682 0 1.235-.672 1.235-1.5s-.553-1.5-1.235-1.5M32.5 25a1.5 1.5 0 1 0 .001 3.001A1.5 1.5 0 0 0 32.5 25M44.5 25a1.5 1.5 0 1 0 .001 3.001A1.5 1.5 0 0 0 44.5 25"/>
    </g>
</svg>
