<svg xmlns="http://www.w3.org/2000/svg" width="38.716" height="40.349" viewBox="0 0 38.716 40.349">
    <g id="discount" transform="translate(-10.359 .002)">
        <g id="Group_98" data-name="Group 98" transform="translate(10.359 -.002)">
            <g id="Group_97" data-name="Group 97">
                <path id="Path_58" d="M47.209 20.7a1.182 1.182 0 0 1 0-1.045l1.5-3.079A3.5 3.5 0 0 0 47.2 11.92l-3.027-1.606a1.182 1.182 0 0 1-.614-.846l-.592-3.375a3.5 3.5 0 0 0-3.957-2.875l-3.393.48a1.182 1.182 0 0 1-.994-.323L32.163.993a3.5 3.5 0 0 0-4.891 0l-2.463 2.383a1.183 1.183 0 0 1-.994.323l-3.393-.48a3.5 3.5 0 0 0-3.957 2.875l-.592 3.375a1.183 1.183 0 0 1-.614.846l-3.027 1.605a3.5 3.5 0 0 0-1.511 4.651l1.5 3.078a1.182 1.182 0 0 1 0 1.045l-1.5 3.078a3.5 3.5 0 0 0 1.511 4.651l3.027 1.606a1.182 1.182 0 0 1 .614.846l.592 3.375a3.5 3.5 0 0 0 3.453 2.91 3.6 3.6 0 0 0 .5-.036l3.393-.48a1.182 1.182 0 0 1 .994.323l2.463 2.382a3.5 3.5 0 0 0 4.891 0l2.463-2.382a1.184 1.184 0 0 1 .994-.323l3.393.48a3.5 3.5 0 0 0 3.957-2.875l.592-3.375a1.183 1.183 0 0 1 .614-.846l3.028-1.603a3.5 3.5 0 0 0 1.511-4.651zm-1.1 5.674l-3.027 1.606a3.5 3.5 0 0 0-1.816 2.5l-.592 3.375a1.185 1.185 0 0 1-1.339.973l-3.393-.48a3.494 3.494 0 0 0-2.938.955l-2.463 2.382a1.185 1.185 0 0 1-1.655 0L26.427 35.3a3.491 3.491 0 0 0-2.437-.99 3.572 3.572 0 0 0-.5.035l-3.393.48a1.185 1.185 0 0 1-1.339-.973l-.592-3.375a3.494 3.494 0 0 0-1.816-2.5l-3.027-1.606a1.185 1.185 0 0 1-.511-1.574l1.5-3.079a3.5 3.5 0 0 0 0-3.089l-1.5-3.079a1.185 1.185 0 0 1 .511-1.574l3.027-1.606a3.5 3.5 0 0 0 1.816-2.5l.591-3.37a1.185 1.185 0 0 1 1.343-.977L23.489 6a3.5 3.5 0 0 0 2.938-.955l2.463-2.379a1.185 1.185 0 0 1 1.655 0l2.463 2.382A3.494 3.494 0 0 0 35.945 6l3.393-.48a1.185 1.185 0 0 1 1.339.973l.592 3.375a3.494 3.494 0 0 0 1.816 2.5l3.027 1.606a1.185 1.185 0 0 1 .511 1.574l-1.5 3.078a3.5 3.5 0 0 0 0 3.089l1.5 3.078a1.185 1.185 0 0 1-.512 1.576z" class="cls-1" data-name="Path 58" transform="translate(-10.359 .002)"/>
            </g>
        </g>
        <g id="Group_100" data-name="Group 100" transform="translate(20.874 11.33)">
            <g id="Group_99" data-name="Group 99">
                <path id="Path_59" d="M161.136 144.132a1.164 1.164 0 0 0-1.646 0l-15.358 15.358a1.164 1.164 0 1 0 1.645 1.646l15.358-15.358a1.163 1.163 0 0 0 .001-1.646z" class="cls-1" data-name="Path 59" transform="translate(-143.792 -143.792)"/>
            </g>
        </g>
        <g id="Group_102" data-name="Group 102" transform="translate(20.796 9.701)">
            <g id="Group_101" data-name="Group 101">
                <path id="Path_60" d="M147.068 123.116a4.266 4.266 0 1 0 4.266 4.266 4.271 4.271 0 0 0-4.266-4.266zm0 6.206a1.939 1.939 0 1 1 1.939-1.939 1.941 1.941 0 0 1-1.939 1.939z" class="cls-1" data-name="Path 60" transform="translate(-142.802 -123.116)"/>
            </g>
        </g>
        <g id="Group_104" data-name="Group 104" transform="translate(30.105 22.112)">
            <g id="Group_103" data-name="Group 103">
                <path id="Path_61" d="M265.188 280.61a4.266 4.266 0 1 0 4.266 4.266 4.271 4.271 0 0 0-4.266-4.266zm0 6.206a1.939 1.939 0 1 1 1.939-1.939 1.942 1.942 0 0 1-1.939 1.939z" class="cls-1" data-name="Path 61" transform="translate(-260.922 -280.61)"/>
            </g>
        </g>
    </g>
</svg>
