<svg xmlns="http://www.w3.org/2000/svg" width="128.474" height="53.156" viewBox="0 0 128.474 53.156">
    <defs>
        <style>
            .cls-1{fill:#181818}
        </style>
    </defs>
    <path id="Disney_wordmark" d="M115.04 27.177a70.517 70.517 0 0 1-7.907.78l-.705 2.264a33.053 33.053 0 0 1 4.919-.037.713.713 0 0 1 .742.742 12.559 12.559 0 0 1-.056 1.671.813.813 0 0 1-.742.631c-.8.13-6.181.371-6.181.371l-.872 2.933s-.316.668.408.483A49.82 49.82 0 0 1 111.7 35.9a2.031 2.031 0 0 1 1.411 2.227c-.3 1.169-5.94 4.77-9.355 4.529 0 0-1.8.111-3.3-2.32-1.448-2.32.5-6.682.5-6.682s-.872-2.042-.223-2.784a2.811 2.811 0 0 1 1.485-.408l1.392-2.858a3.24 3.24 0 0 1-2.506-1.058c-.854-1.114-.928-1.6-.26-1.893a45.873 45.873 0 0 1 11.731-1.392s1.578-.186 2.97 2.543c0 0 .631 1.114-.483 1.374m-16.95 10.987c-.557 1.355-2.1 2.784-3.954 1.912-1.893-.891-4.882-6.979-4.882-6.979s-1.114-2.264-1.336-2.19c0 0-.241-.445-.371 2.042-.186 2.469.037 7.276-.984 8.037a1.8 1.8 0 0 1-2.673-.445c-.52-.872-.742-2.97-.445-6.626.334-3.657 1.169-7.554 2.227-8.761a1.419 1.419 0 0 1 2.339 0 27.085 27.085 0 0 1 3.842 5.141l.408.705a32.457 32.457 0 0 0 2.417 3.637s.186.186.334.037c.223-.056.148-1.244.148-1.244A62.643 62.643 0 0 0 92.729 22.8a3.319 3.319 0 0 1-.093-1.671c.186-.742.984-.371.984-.371s3.081 1.485 4.585 6.5a18.448 18.448 0 0 1-.074 10.914M83 25.3c-.3.52-.427 1.244-1.708 1.448 0 0-12.436.872-13.049 1.745 0 0-.408.52.26.65.705.148 3.527.52 4.863.594 1.448 0 6.311.037 8.093 2.227a4.855 4.855 0 0 1 .984 3.4c-.037 2.413-.464 3.267-1.411 4.139-.984.817-9.411 4.6-14.849-1.188a3.075 3.075 0 0 1 .872-4.9s2.413-1.485 8.594.241c0 0 1.856.668 1.782 1.355-.111.742-1.541 1.485-3.619 1.448a7.145 7.145 0 0 1-3.193-.854c.278.093-2.172-1.188-2.933-.316-.742.817-.557 1.3.186 1.8 1.856 1.077 9.151.687 11.322-1.745 0 0 .872-.984-.445-1.782-1.3-.742-5.086-1.206-6.552-1.262-1.392-.074-6.608 0-7.387-1.355 0 0-.742-.965.074-3.6.854-2.784 6.923-3.861 9.559-4.083 0 0 7.239-.3 8.594 1.188a.976.976 0 0 1-.037.835M62.475 41.617a2.8 2.8 0 0 1-3.267-.371c-.52-.65-.705-3.211-.613-7.239.13-4.121.186-9.169 1.114-9.986.928-.8 1.485-.093 1.856.445a4.274 4.274 0 0 1 .928 2.45c.111 1.3.427 7.981.427 7.981s.408 6.088-.427 6.719M64.331 19.9a7.456 7.456 0 0 1-5.791-.056c-.65 1.169-1.039 1.522-1.522 1.6-.742.074-1.392-1.114-1.485-1.485a1.933 1.933 0 0 1-.074-1.912 4.326 4.326 0 0 1-1.3-4.213c.334-1.374 2.784-6.534 10.209-7.146 0 0 3.638-.26 4.269 1.671h.111s3.527 0 3.452 3.155c0 3.155-3.9 7.09-7.87 8.445m3.3-9.039c-2.339.371-5.94 3.49-7.666 6.07 2.654.483 7.295.3 9.373-3.9 0 0 .984-2.636-1.708-2.172M57.37 12.959c-.742 1.206-.78 1.93-.427 2.413a18.4 18.4 0 0 1 4.733-4.937 5.485 5.485 0 0 0-4.306 2.524m63.238 28.529a55.541 55.541 0 0 0-3.99 14.812s-.186 1.244-1.206.835a5.9 5.9 0 0 1-3.063-4.4c-.371-3.081 1-8.278 3.805-14.255a8.232 8.232 0 0 1-.928-5.94A17.709 17.709 0 0 1 120.98 23s.594-.5.928-.334c.408.186.241 1.782-.093 2.6-.3.78-2.524 4.64-2.524 4.64s-1.392 2.636-1 4.7c2.636-4.046 8.631-12.25 12.343-9.652 2.357 1.671 2.357 7.053.594 10.172-1.392 2.469-5.327 7.573-10.58 6.385m7.721-12.622a36.02 36.02 0 0 0-5.754 8.13 9.5 9.5 0 0 0 4.64-1.93c.984-.872 3.248-3.23 2.9-6.348 0 0-.223-1.633-1.782.148m-83.16 14.789a30.288 30.288 0 0 1-16.148.186c-.093 1.374-.241 1.949-.464 2.172-.26.3-2.413 1.522-3.6-.223a9.968 9.968 0 0 1-.928-3.712 28.216 28.216 0 0 1-11.248-8.724 3.07 3.07 0 0 1-.186-4.213c1.615-2 6.96-4.028 11.749-4.826.186-4.083.631-7.239 1.206-8.631.687-1.671 1.559-.186 2.339.928.631.835 1.021 4.418 1.058 7.276a30.977 30.977 0 0 1 8.483.742c4.566.78 7.61 3.118 7.369 5.754a4.235 4.235 0 0 1-3.527 3.749 6.459 6.459 0 0 1-2.413-.613c-1.039-.483-.093-.928 1.114-1.448 1.336-.65 1.039-1.3 1.039-1.3-.483-1.485-6.4-2.469-12.288-2.469 0 3.248.13 8.631.223 11.768a33.212 33.212 0 0 0 7.2.613s15.035-.427 15.462-10.023c.464-9.614-15.034-18.82-26.453-21.716C13.807 5.98 7.347 8.1 6.791 8.374c-.613.3-.056.408-.056.408a11.66 11.66 0 0 1 1.726.464c1.114.371.223.928.223.928-1.949.668-4.121.278-4.548-.613-.427-.872.278-1.671 1.114-2.84.78-1.206 1.671-1.169 1.671-1.169 14.107-4.919 31.331 3.9 31.331 3.9 16.111 8.13 18.858 17.689 18.561 21.4-.26 3.657-1.671 9.837-11.6 12.844m-31-13.29a1.132 1.132 0 0 0-.483 1.93 25.7 25.7 0 0 0 10.209 6.5c.408-5.568.371-7.554.371-10.357-5.457.371-8.612 1.262-10.1 1.93" class="cls-1" transform="translate(-4.008 -4.061)"/>
</svg>
