<svg xmlns="http://www.w3.org/2000/svg" id="document" width="18.721" height="24.996" viewBox="0 0 18.721 24.996">
    <defs>
        <style>
            .cls-1{fill:#ff336d}
        </style>
    </defs>
    <path id="Path_13" d="M116.32 185.044a.732.732 0 0 0 1.036 0l3.137-3.137a.732.732 0 0 0-1.036-1.036l-1.887 1.887v-5.292a.732.732 0 0 0-1.465 0v5.292l-1.887-1.887a.732.732 0 1 0-1.036 1.036zm0 0" class="cls-1" data-name="Path 13" transform="translate(-107.477 -168.106)"/>
    <path id="Path_14" d="M119.972 385.6H113.7a.732.732 0 0 0 0 1.465h6.275a.732.732 0 1 0 0-1.465zm0 0" class="cls-1" data-name="Path 14" transform="translate(-107.474 -366.776)"/>
    <path id="Path_15" d="M16.92 0H5.939a.732.732 0 0 0-.518.215L.715 4.921a.732.732 0 0 0-.215.518V22.7A2.3 2.3 0 0 0 2.8 25h14.12a2.3 2.3 0 0 0 2.3-2.3V2.3a2.3 2.3 0 0 0-2.3-2.3zM5.991 1.716v2.938a.837.837 0 0 1-.836.836H2.216zM17.756 22.7a.836.836 0 0 1-.836.836H2.8a.837.837 0 0 1-.836-.836V6.955h3.19a2.3 2.3 0 0 0 2.3-2.3v-3.19h9.466a.836.836 0 0 1 .836.836zm0 0" class="cls-1" data-name="Path 15" transform="translate(-.5)"/>
</svg>
