<svg xmlns="http://www.w3.org/2000/svg" width="54.783" height="55" viewBox="0 0 54.783 55">
    <defs>
        <style>
            .cls-1{fill:none}.cls-2{fill:#7f28c4}
        </style>
    </defs>
    <g id="online-class1" transform="translate(-4 -3)">
        <ellipse id="Эллипс_2" cx="1.5" cy="2" class="cls-1" rx="1.5" ry="2" transform="translate(29.758 30.734)"/>
        <ellipse id="Эллипс_3" cx="1.5" cy="2" class="cls-1" rx="1.5" ry="2" transform="translate(12.916 30.734)"/>
        <ellipse id="Эллипс_4" cx="1.5" cy="2" class="cls-1" rx="1.5" ry="2" transform="translate(47.513 30.734)"/>
        <path id="Контур_447" d="M398.277 322.6a3.021 3.021 0 0 0-1.864-.6c-1.262 0-2.413.731-2.413 1.535v5.044h4.825v-5.044a1.3 1.3 0 0 0-.548-.935z" class="cls-1" transform="translate(-347.719 -284.368)"/>
        <path id="Контур_448" d="M138.855 295.044v5.044h4.825v-5.044a5.138 5.138 0 0 1 1.869-3.88 5.456 5.456 0 0 1-.622-1.165h-7.317a5.437 5.437 0 0 1-.62 1.16 5.151 5.151 0 0 1 1.865 3.885z" class="cls-1" transform="translate(-118.558 -255.866)"/>
        <path id="Контур_449" d="M117.091 57.235h7.2a5.366 5.366 0 0 1 10.069 0h7.2a5.487 5.487 0 0 1 3.091-3.14V34.316a1.307 1.307 0 0 0-1.3-1.316H115.3a1.307 1.307 0 0 0-1.3 1.316V54.1a5.484 5.484 0 0 1 3.091 3.135zm7.329-17.44a3.038 3.038 0 0 1 1.6-2.692 2.946 2.946 0 0 1 3.092.192l6.05 4.252a3.067 3.067 0 0 1-.014 5.009l-6.05 4.2a2.946 2.946 0 0 1-1.687.531 2.972 2.972 0 0 1-1.4-.352 3.037 3.037 0 0 1-1.6-2.688z" class="cls-1" transform="translate(-97.937 -26.71)"/>
        <path id="Контур_450" d="M298.855 295.044v5.044h4.825v-5.044a5.138 5.138 0 0 1 1.869-3.88 5.457 5.457 0 0 1-.622-1.165h-7.317a5.438 5.438 0 0 1-.62 1.16 5.151 5.151 0 0 1 1.865 3.885z" class="cls-1" transform="translate(-261.195 -255.866)"/>
        <path id="Контур_451" d="M246.52 110.78v5l3.634-2.483z" class="cls-1" transform="translate(-216.176 -96.075)"/>
        <path id="Контур_452" d="M234 328.58h4.825v-5.044a1.3 1.3 0 0 0-.548-.937 3.021 3.021 0 0 0-1.864-.6c-1.262 0-2.413.731-2.413 1.535z" class="cls-1" transform="translate(-205.021 -284.368)"/>
        <path id="Контур_453" d="M80.9 418H35.3a1.31 1.31 0 0 0-1.3 1.316v4.058a1.31 1.31 0 0 0 1.3 1.316h45.6a1.31 1.31 0 0 0 1.3-1.316v-4.058A1.31 1.31 0 0 0 80.9 418z" class="cls-1" transform="translate(-26.71 -369.979)"/>
        <path id="Контур_454" d="M78.278 322.6a3.026 3.026 0 0 0-1.865-.6c-1.262 0-2.413.731-2.413 1.535v5.044h4.825v-5.044a1.3 1.3 0 0 0-.547-.935z" class="cls-1" transform="translate(-62.324 -284.368)"/>
        <path id="Контур_455" d="M54.725 44.877l-.29-.033V39.2a4.485 4.485 0 0 0-1.766-3.475c-.014-.012-.029-.023-.045-.034l-.3-.226.205-.26a4.729 4.729 0 0 0 1.032-2.962 4.782 4.782 0 0 0-3.257-4.532l-.222-.075V7.565A4.57 4.57 0 0 0 45.522 3H17.261A4.57 4.57 0 0 0 12.7 7.565v20.068l-.222.075a4.782 4.782 0 0 0-3.257 4.532 4.728 4.728 0 0 0 1.03 2.96l.205.259-.261.2A4.5 4.5 0 0 0 8.348 39.2v5.649l-.29.033A4.557 4.557 0 0 0 4 49.413v4.022A4.57 4.57 0 0 0 8.565 58h45.652a4.57 4.57 0 0 0 4.565-4.565v-4.022a4.557 4.557 0 0 0-4.057-4.536zm-2.9-5.682v5.652h-6.086V39.2c0-1.178 1.393-2.174 3.043-2.174a3.658 3.658 0 0 1 2.255.736 1.923 1.923 0 0 1 .789 1.438zm-3.043-9.13a2.174 2.174 0 1 1-2.174 2.174 2.176 2.176 0 0 1 2.175-2.174zM15.3 7.565a1.958 1.958 0 0 1 1.957-1.957h28.265a1.959 1.959 0 0 1 1.957 1.957v20.068l-.222.075a4.818 4.818 0 0 0-3.005 3.005l-.075.222H36l-.075-.222a4.781 4.781 0 0 0-9.063 0l-.075.222h-8.18l-.075-.222a4.818 4.818 0 0 0-3.005-3.005l-.222-.075zm19.977 28.156c-.014-.012-.029-.023-.045-.034l-.3-.226.205-.26a4.743 4.743 0 0 0 .78-1.436l.083-.222h8.178l.075.222a4.76 4.76 0 0 0 .783 1.438l.205.259-.261.2a4.5 4.5 0 0 0-1.85 3.538v5.652h-6.087V39.2a4.485 4.485 0 0 0-1.766-3.479zm-3.886 1.3a3.658 3.658 0 0 1 2.255.736 1.923 1.923 0 0 1 .788 1.438v5.652h-6.086V39.2c0-1.183 1.393-2.178 3.043-2.178zm-2.174-4.783a2.174 2.174 0 1 1 2.174 2.174 2.176 2.176 0 0 1-2.174-2.173zm-11.331 3.483c-.014-.012-.029-.023-.045-.034l-.3-.226.205-.26a4.743 4.743 0 0 0 .78-1.436l.075-.222h8.178l.075.222a4.76 4.76 0 0 0 .783 1.438l.205.259-.261.2a4.5 4.5 0 0 0-1.842 3.538v5.652h-6.087V39.2a4.485 4.485 0 0 0-1.766-3.479zM14 30.065a2.174 2.174 0 1 1-2.174 2.174A2.176 2.176 0 0 1 14 30.065zM10.957 39.2c0-1.178 1.393-2.174 3.043-2.174a3.66 3.66 0 0 1 2.255.736 1.923 1.923 0 0 1 .788 1.438v5.652h-6.086zm45.217 14.235a1.959 1.959 0 0 1-1.957 1.957H8.565a1.959 1.959 0 0 1-1.957-1.957v-4.022a1.959 1.959 0 0 1 1.957-1.957h45.652a1.959 1.959 0 0 1 1.957 1.957z" class="cls-2"/>
        <path id="Контур_456" d="M217.79 86.186a2.389 2.389 0 0 0 1.112.276 2.368 2.368 0 0 0 1.343-.417l6.147-4.2a2.382 2.382 0 0 0 .011-3.925l-6.147-4.252a2.382 2.382 0 0 0-3.736 1.959v8.451a2.377 2.377 0 0 0 1.27 2.108zm1.362-10.079l5.453 3.772-5.453 3.726z" class="cls-2" transform="translate(-189.471 -62.543)"/>
    </g>
</svg>
