<svg xmlns="http://www.w3.org/2000/svg" width="12.037" height="23.955" viewBox="0 0 12.037 23.955">
    <defs>
        <style>
            .cls-1{fill:#181818}
        </style>
    </defs>
    <g id="facebook" transform="translate(-2457.752 -1857.641)">
        <path id="Shape" d="M2458.218 1870.629h3.146v10.971h4.2l.013-5.439v-5.526h.79c.823 0 1.646.008 2.469-.009.108 0 .295-.116.306-.2.175-1.287.328-2.577.484-3.867a.484.484 0 0 0-.029-.118h-.9c-.934 0-1.868.006-2.8-.01-.107 0-.3-.125-.3-.193 0-1.075 0-2.153.058-3.226a1.432 1.432 0 0 1 1.508-1.4c.8-.06 1.6-.036 2.393-.051.06 0 .12-.011.2-.019a2.421 2.421 0 0 0 .033-.261v-3.158c0-.194-.006-.344-.26-.353-.931-.035-1.862-.1-2.793-.123a5.551 5.551 0 0 0-2.776.608 4.511 4.511 0 0 0-2.37 3.21 13.069 13.069 0 0 0-.213 2.18c-.034.91-.008 1.823-.008 2.815h-3.617v4.108a3.563 3.563 0 0 0 .466.061z" class="cls-1"/>
    </g>
</svg>
