<svg xmlns="http://www.w3.org/2000/svg" width="50.859" height="50.125" viewBox="0 0 50.859 50.125">
    <defs>
        <style>
            .cls-1{fill:#ff336d}
        </style>
    </defs>
    <g id="gift-2" transform="translate(0 -.524)">
        <path id="Path_288" d="M46.254 13.306h-5.7a6.838 6.838 0 0 0 3.365-5.745c0-3.881-3.558-7.038-7.931-7.038-3.711 0-8.1 6.359-10.558 10.469C22.977 6.884 18.581.524 14.871.524 10.5.524 6.94 3.682 6.94 7.562a6.836 6.836 0 0 0 3.36 5.744H4.6A4.611 4.611 0 0 0 0 17.911v7.3a4.6 4.6 0 0 0 2.571 4.124v16.708a4.611 4.611 0 0 0 4.6 4.606h36.852a4.611 4.611 0 0 0 4.606-4.606V29.15a4.6 4.6 0 0 0 2.23-3.937v-7.3a4.61 4.61 0 0 0-4.605-4.607zM4.606 25.621a.41.41 0 0 1-.41-.408v-7.3a.41.41 0 0 1 .41-.408h18.725v8.115zM27.528 17.5h18.726a.41.41 0 0 1 .41.408v7.3a.41.41 0 0 1-.41.408H27.528zm8.458-12.78c2.025 0 3.735 1.3 3.735 2.842s-1.71 2.838-3.735 2.838H30.8c2.127-3.062 4.307-5.5 5.186-5.68zm-21.173 0c.923.185 3.115 2.622 5.24 5.688h-5.182c-2.025 0-3.735-1.3-3.735-2.842s1.711-2.846 3.677-2.849zM6.767 46.045V29.817h16.564v16.637H7.175a.409.409 0 0 1-.408-.409zm37.257.41h-16.5V29.817h16.91v16.227a.411.411 0 0 1-.41.411z" class="cls-1" data-name="Path 288"/>
    </g>
</svg>
