<svg xmlns="http://www.w3.org/2000/svg" width="66.367" height="66.322" viewBox="0 0 66.367 66.322">
    <path id="giftbox" d="M65.343 13.762h-5.4a5.587 5.587 0 0 0 .689-5.207l-1.638-4.4a5.61 5.61 0 0 0-7.665-3.113L38.367 7.2a3.891 3.891 0 0 0-2.267-.732h-5.83A3.893 3.893 0 0 0 28 7.2L15.041 1.041a5.61 5.61 0 0 0-7.665 3.112l-1.638 4.4A5.624 5.624 0 0 0 6 13.067a5.525 5.525 0 0 0 .424.694h-5.4A1.024 1.024 0 0 0 0 14.786v7.374a1.024 1.024 0 1 0 2.049 0v-6.35h7.114c.114.04.229.077.346.109l8.6 2.367a68.424 68.424 0 0 0-5.04 9.2H2.049v-1.229a1.024 1.024 0 0 0-2.049 0v2.253a1.025 1.025 0 0 0 1.024 1.024h3.653V65.8A1.024 1.024 0 0 0 5.7 66.822h54.966a1.024 1.024 0 0 0 1.025-1.022v-5.95a1.024 1.024 0 0 0-2.049 0v4.924H39.329V30.165A54.851 54.851 0 0 1 45.1 47.809a1.024 1.024 0 0 0 .76.844 1.01 1.01 0 0 0 .254.032 1.024 1.024 0 0 0 .818-.408 57.114 57.114 0 0 0 4.078-6.228 58.379 58.379 0 0 1 5.987 4.683 1.024 1.024 0 0 0 1.7-.913 68.7 68.7 0 0 0-4.5-16.284h5.456v26.218a1.024 1.024 0 1 0 2.049 0V29.535h3.653a1.024 1.024 0 0 0 1.024-1.024V14.786a1.023 1.023 0 0 0-1.036-1.024zM52.2 2.891a3.561 3.561 0 0 1 4.866 1.976l1.637 4.4a3.562 3.562 0 0 1-2.393 4.676l-16.3 4.489V13.51c3.665-2.244 12.8-6.873 15.075-3.663a1.024 1.024 0 1 0 1.671-1.184C55 6.186 51.3 6.065 45.763 8.306a48.788 48.788 0 0 0-5.754 2.83v-.756a3.9 3.9 0 0 0-.318-1.545zM30.27 8.516h5.83a1.866 1.866 0 0 1 1.864 1.864v8.467A1.866 1.866 0 0 1 36.1 20.71h-5.83a1.866 1.866 0 0 1-1.864-1.864V10.38a1.866 1.866 0 0 1 1.864-1.864zm-1.722 18.97a54.629 54.629 0 0 1 3.194-4.727h2.882a54.4 54.4 0 0 1 3.194 4.727zM7.828 12.134a3.525 3.525 0 0 1-.169-2.865L9.3 4.867a3.561 3.561 0 0 1 4.865-1.976l12.511 5.944a3.888 3.888 0 0 0-.318 1.545v.814A48.957 48.957 0 0 0 20.5 8.306c-5.539-2.241-9.238-2.12-10.993.357a1.024 1.024 0 1 0 1.671 1.184c2.3-3.24 11.582 1.506 15.177 3.725v4.86l-16.3-4.488a3.523 3.523 0 0 1-2.227-1.81zm18.989 8.55a3.929 3.929 0 0 0 2.473 1.95 56.987 56.987 0 0 0-9.635 22.436 56.051 56.051 0 0 1-3.037-4.977 1.024 1.024 0 0 0-1.46-.371 59.342 59.342 0 0 0-4.99 3.643 66.921 66.921 0 0 1 10.017-24.507zM6.726 29.535h5.456a68.718 68.718 0 0 0-4.5 16.284 1.024 1.024 0 0 0 1.7.913 58.33 58.33 0 0 1 5.987-4.683 57.088 57.088 0 0 0 4.078 6.228 1.024 1.024 0 0 0 .818.408 1.01 1.01 0 0 0 .254-.032 1.023 1.023 0 0 0 .76-.844 54.878 54.878 0 0 1 5.769-17.645v34.61H6.726zm22.361 35.239V29.535h8.194v35.239zm22.122-25.052a1.025 1.025 0 0 0-1.46.371 55.978 55.978 0 0 1-3.037 4.977 56.972 56.972 0 0 0-9.636-22.435 3.928 3.928 0 0 0 2.473-1.951l6.634-1.826A66.956 66.956 0 0 1 56.2 43.365a59.431 59.431 0 0 0-4.991-3.643zm13.11-12.236H53.3a68.477 68.477 0 0 0-5.039-9.2l8.6-2.367c.117-.032.232-.069.346-.109h7.115zm0 0" class="cls-1" transform="translate(0 -.5)"/>
</svg>
