<svg xmlns="http://www.w3.org/2000/svg" width="52" height="52" viewBox="0 0 52 52"><path fill="#7f28c4" d="M47.43 12.187h-6.2A7.613 7.613 0 0035.141 0a6.837 6.837 0 00-5.871 2.853A29.576 29.576 0 0026 9.627a29.574 29.574 0 00-3.269-6.774A6.837 6.837 0 0016.859 0a7.613 7.613 0 00-6.09 12.187H4.57A4.575 4.575 0 000 16.758V19.8a4.577 4.577 0 003.047 4.308V47.43A4.576 4.576 0 007.617 52h36.766a4.576 4.576 0 004.57-4.57V24.113A4.577 4.577 0 0052 19.8v-3.042a4.575 4.575 0 00-4.57-4.571zM28.8 10.841c2.334-5.921 3.221-7.794 6.344-7.794a4.57 4.57 0 110 9.141h-6.88c.186-.469.364-.92.536-1.347zM16.859 3.047c3.123 0 4.01 1.873 6.344 7.794.168.427.346.878.533 1.347h-6.877a4.57 4.57 0 110-9.141zm3.047 45.906H7.617a1.525 1.525 0 01-1.523-1.523V24.375h13.812zm0-27.625H4.57A1.525 1.525 0 013.047 19.8v-3.042a1.525 1.525 0 011.523-1.524h15.336zm9.141 27.625h-6.094V15.234h6.094zm16.859-1.523a1.525 1.525 0 01-1.523 1.523H32.094V24.375h13.812zm3.047-27.63a1.525 1.525 0 01-1.523 1.523H32.094v-6.089H47.43a1.525 1.525 0 011.523 1.523z"/></svg>