<svg xmlns="http://www.w3.org/2000/svg" width="32" height="22" viewBox="0 0 32 22"><g id="gift-card" transform="translate(0 -80)"><path id="Контур_422" fill="#fff" d="M29.125 80H6.375a2.867 2.867 0 00-2.543 1.534 1 1 0 101.769.933.872.872 0 01.774-.467H7.5v3.172a3.007 3.007 0 00-1.176.766 8.535 8.535 0 00-.831-.667A6.457 6.457 0 002.5 84a2.256 2.256 0 00-2.1 1.725 6.62 6.62 0 000 4.55A2.256 2.256 0 002.5 92a6.457 6.457 0 002.993-1.27 8.546 8.546 0 00.831-.667 3.007 3.007 0 001.176.766V100H6.375a.876.876 0 01-.875-.875V94a1 1 0 10-2 0v5.125A2.878 2.878 0 006.375 102h22.75A2.878 2.878 0 0032 99.125v-16.25A2.878 2.878 0 0029.125 80zM4.2 89.2a4.874 4.874 0 01-1.672.8 4.072 4.072 0 010-4 4.873 4.873 0 011.672.8A4.24 4.24 0 015.48 88a4.239 4.239 0 01-1.28 1.2zM29.125 82a.876.876 0 01.875.875V87H16.923a6.122 6.122 0 00-.326-1.275A2.256 2.256 0 0014.5 84a6.457 6.457 0 00-2.993 1.27 8.543 8.543 0 00-.831.667 3.007 3.007 0 00-1.176-.765V82zM15 88a3.326 3.326 0 01-.524 2 4.873 4.873 0 01-1.672-.8A4.239 4.239 0 0111.52 88a4.239 4.239 0 011.28-1.2 4.874 4.874 0 011.672-.8A3.325 3.325 0 0115 88zm-6.5-1a1 1 0 11-1 1 1 1 0 011-1zm20.625 13H9.5v-9.172a3.007 3.007 0 001.176-.766 8.538 8.538 0 00.831.667A6.457 6.457 0 0014.5 92a2.256 2.256 0 002.1-1.725A6.122 6.122 0 0016.923 89H30v10.125a.876.876 0 01-.875.875z" data-name="Контур 422"/></g></svg>