<svg xmlns="http://www.w3.org/2000/svg" width="45" height="55" viewBox="0 0 45 55">
    <g fill="#FF336D" fill-rule="evenodd">
        <path fill-rule="nonzero" d="M42.923 24.346a7.886 7.886 0 0 0-2.776-1.948 8.588 8.588 0 0 0 2.421-5.973c0-3.036-1.582-5.705-3.96-7.244a7.346 7.346 0 0 0 .172-1.614A7.57 7.57 0 0 0 31.216 0a7.533 7.533 0 0 0-6.23 3.272 9.237 9.237 0 0 0-2.518-.344c-.936 0-1.84.14-2.69.387A7.496 7.496 0 0 0 13.537 0a7.57 7.57 0 0 0-7.36 9.31A8.596 8.596 0 0 0 2.4 16.425c0 2.314.925 4.423 2.42 5.973a7.886 7.886 0 0 0-2.776 1.948A7.773 7.773 0 0 0 0 29.62v7.169a3.334 3.334 0 0 0 3.325 3.325c.409 0 .807-.075 1.173-.215v14.025c0 .592.484 1.076 1.087 1.076H39.427a1.08 1.08 0 0 0 1.075-1.076V39.899c.366.14.764.215 1.173.215A3.334 3.334 0 0 0 45 36.79V29.62a7.908 7.908 0 0 0-2.077-5.274zm-2.518-7.921a6.44 6.44 0 0 1-6.434 6.436c-.151 0-.312-.01-.463-.021a9.103 9.103 0 0 0-1.173-1.636 8.553 8.553 0 0 0-3.196-2.196 9.414 9.414 0 0 0 2.572-8.632 6.518 6.518 0 0 1 2.27-.41c.958 0 1.862.216 2.68.593.097.075.204.14.323.183.032.01.053.021.086.032a6.446 6.446 0 0 1 3.335 5.65zM17.53 29.706a1.082 1.082 0 1 0-2.163 0v5.22c0 .776-.635 1.4-1.399 1.4a1.403 1.403 0 0 1-1.399-1.4v-7.943c0-.936.205-1.83.56-2.637.01-.021.021-.043.032-.075a6.324 6.324 0 0 1 4.896-3.606 9.358 9.358 0 0 0 3.357 1.055v4.327a1.082 1.082 0 0 0 2.163 0v-4.338a9.358 9.358 0 0 0 3.357-1.054 6.344 6.344 0 0 1 5.488 6.318v7.943c0 .775-.635 1.4-1.399 1.4a1.403 1.403 0 0 1-1.399-1.4c0-.054 0-.108-.01-.162v-4.09a1.082 1.082 0 0 0-2.163 0v4.876h-9.9v-5.834h-.021zM31.227 2.163a5.406 5.406 0 0 1 5.401 5.404c0 .226-.01.44-.043.656a8.744 8.744 0 0 0-2.614-.409 8.66 8.66 0 0 0-2.96.527 9.448 9.448 0 0 0-3.949-4.23 5.413 5.413 0 0 1 4.165-1.948zm-1.485 10.182c0 4.004-3.26 7.255-7.253 7.255-3.992 0-7.252-3.261-7.252-7.255 0-3.993 3.26-7.254 7.252-7.254s7.253 3.261 7.253 7.254zM8.135 7.567a5.406 5.406 0 0 1 9.63-3.37 9.498 9.498 0 0 0-3.798 4.144 8.66 8.66 0 0 0-2.96-.527c-.99 0-1.936.162-2.818.474a3.995 3.995 0 0 1-.054-.721zm2.862 2.41c.775 0 1.55.14 2.27.41a9.753 9.753 0 0 0-.204 1.958 9.37 9.37 0 0 0 2.776 6.663 8.553 8.553 0 0 0-4.368 3.832c-.151.01-.312.021-.463.021a6.44 6.44 0 0 1-6.435-6.436c0-3.552 2.873-6.448 6.424-6.448zM3.314 37.951a1.164 1.164 0 0 1-1.162-1.162V29.62a5.63 5.63 0 0 1 4.82-5.597 8.528 8.528 0 0 0 3.649.99 8.48 8.48 0 0 0-.226 1.96v7.943c0 .882.322 1.7.86 2.325H6.65v-5.167a1.082 1.082 0 1 0-2.163 0v4.564c-.01.054-.01.097-.01.15 0 .646-.528 1.163-1.163 1.163zm12.041 14.886h-2.798V44.71a1.082 1.082 0 0 0-2.162 0v8.127H6.639V39.415h8.716v13.422zm12.073 0h-3.863V42.504a1.082 1.082 0 1 0-2.163 0v10.333H17.54V37.714h9.9v15.123h-.01zm10.89 0h-3.756V44.71a1.082 1.082 0 0 0-2.163 0v8.127h-2.797V39.415h8.716v13.422zm4.498-16.048c0 .635-.517 1.162-1.162 1.162a1.164 1.164 0 0 1-1.163-1.162c0-.054 0-.097-.01-.151v-4.564a1.082 1.082 0 0 0-2.163 0v5.167h-4.616c.538-.625.86-1.432.86-2.325v-7.943a8.48 8.48 0 0 0-.226-1.96 8.528 8.528 0 0 0 3.648-.99c2.776.399 4.82 2.756 4.82 5.597v7.169h.012z"/>
        <path d="M22.927 29.653l-.02-.048a.997.997 0 0 0-1.291-.533.968.968 0 0 0-.543 1.27l.02.048a.99.99 0 0 0 .917.61c.128 0 .246-.02.374-.068.503-.213.75-.785.543-1.279z"/>
    </g>
</svg>
