<svg xmlns="http://www.w3.org/2000/svg" width="61" height="55" viewBox="0 0 61 55">
    <path fill="#FF336D" fill-rule="nonzero" d="M59.809 27.863h-8.96v-2.486a2.177 2.177 0 0 0-2.168-2.185h-1.597a20.423 20.423 0 0 0-5.468-10.123A20.17 20.17 0 0 0 23.66 7.426a1.215 1.215 0 0 0-.965 1.393c.12.648.739 1.08 1.382.972a17.8 17.8 0 0 1 15.846 4.983 17.945 17.945 0 0 1 4.718 8.418h-6.517a2.177 2.177 0 0 0-2.168 2.185v2.486h-8.96a1.2 1.2 0 0 0-1.191 1.2v7.361c0 1.129.44 2.15 1.144 2.918v6.172c-4.647-.084-8.984-1.933-12.296-5.271A18.068 18.068 0 0 1 9.781 23.9a1.203 1.203 0 0 0-.929-1.417 1.194 1.194 0 0 0-1.406.937c-1.358 6.736.703 13.665 5.528 18.516a20.227 20.227 0 0 0 13.988 5.967v4.347c0 .108.011.228.023.336C13.38 52.418 2.383 41.227 2.383 27.502c0-4.298 1.084-8.489 3.145-12.211l4.015 4.07c.227.228.524.348.846.348h7.494l7.351 7.41c.238.24.536.347.846.347.31 0 .608-.12.846-.348a1.202 1.202 0 0 0 0-1.693l-7.363-7.409v-7.552c0-.325-.131-.625-.346-.853L15.19 5.564a24.701 24.701 0 0 1 12.093-3.158c9.663 0 18.538 5.716 22.601 14.554.203.432.632.696 1.084.696.167 0 .334-.036.5-.108.596-.276.859-.997.585-1.597a27.462 27.462 0 0 0-9.89-11.503A27.072 27.072 0 0 0 27.284.005 27.076 27.076 0 0 0 13.44 3.799L10.008.353A1.191 1.191 0 0 0 8.709.09c-.44.18-.738.624-.738 1.105v6.808H1.203c-.476 0-.917.288-1.096.744-.178.445-.083.961.25 1.31l3.42 3.47A27.715 27.715 0 0 0 0 27.502c0 7.35 2.836 14.254 7.994 19.44C13.141 52.143 19.992 55 27.284 55H57.14a2.726 2.726 0 0 0 2.716-2.738v-12.92A4.256 4.256 0 0 0 61 36.424v-7.36a1.2 1.2 0 0 0-1.191-1.201zM10.353 4.1l6.827 6.856v4.659l-6.827-6.893V4.1zm-1.68 6.316L15.5 17.32h-4.622l-6.815-6.904h4.61zM38.34 25.593h10.127v2.27H38.34v-2.27zm19.134 21.242h-7.815a1.2 1.2 0 0 0-1.192 1.2c0 .661.537 1.201 1.192 1.201h7.815v3.026a.334.334 0 0 1-.333.336H29.642a.34.34 0 0 1-.321-.336V40.651c.238.036.476.06.714.06h9.83c.214 1.777 1.715 3.158 3.526 3.158a3.557 3.557 0 0 0 3.527-3.158l9.817.012c.238 0 .476-.024.715-.06l.023 6.172zm-15.25-6.556v-2.114h2.348v2.114c0 .648-.525 1.188-1.18 1.188-.655 0-1.168-.54-1.168-1.188zm16.394-3.855c0 .504-.19.973-.548 1.333a1.883 1.883 0 0 1-1.31.552l-9.794-.012v-1.104a1.42 1.42 0 0 0-1.418-1.43H41.27a1.42 1.42 0 0 0-1.417 1.43v1.104h-9.794a1.868 1.868 0 0 1-1.858-1.873v-6.16h30.416v6.16z"/>
</svg>
