<svg xmlns="http://www.w3.org/2000/svg" width="45.299" height="55" viewBox="0 0 45.299 55"><g id="headset" transform="translate(-37.953)"><g id="Group_46" data-name="Group 46" transform="translate(37.953)"><path id="Path_18" d="M82.739 25.439a3.211 3.211 0 00-2.055-1.523v-4.745C80.684 8.609 71.665 0 60.582 0s-20.1 8.609-20.1 19.171v4.744a3.211 3.211 0 00-2.045 1.564 4.294 4.294 0 00-.481 2.106v10.44a4.294 4.294 0 00.481 2.1 3.507 3.507 0 003.343 1.728h1.585a2.045 2.045 0 002.045 1.922h1.8a2.045 2.045 0 002.045-2.045V23.68a2.045 2.045 0 00-2.045-2.045h-1.853a2.045 2.045 0 00-2.045 2.045v.082h-.828v-4.591c0-9.448 8.1-17.126 18.057-17.126S78.6 9.724 78.6 19.171v4.591h-.83v-.082a2.045 2.045 0 00-2.045-2.045h-1.718a2.045 2.045 0 00-2.045 2.045V41.8a2.045 2.045 0 001.82 1.984 6.646 6.646 0 01-1.656 3.487c-1.605 1.779-4.223 2.8-7.75 3.067v-.45a2.147 2.147 0 00-2.229-2.045H57.76a2.147 2.147 0 00-2.229 2.045v3.067A2.147 2.147 0 0057.76 55h4.427a2.147 2.147 0 002.229-2.045v-.573c4.141-.276 7.27-1.523 9.264-3.722a8.722 8.722 0 002.239-4.887 2.045 2.045 0 001.922-1.912h1.585a3.507 3.507 0 003.343-1.728 4.294 4.294 0 00.481-2.1V27.586a4.3 4.3 0 00-.511-2.147zm-37.33 14.447v-14.12a2.041 2.041 0 000-.358v-1.687l1.718-.051v18.067h-1.718zm-2.045-14.171V39.8h-1.585c-1.186 0-1.462-.5-1.554-.675a2.341 2.341 0 01-.225-1.11V27.586a2.341 2.341 0 01.215-1.125c.092-.164.368-.675 1.554-.675zm19.048 25.664v1.4a.276.276 0 01-.225.143H57.76a1.126 1.126 0 01-.164 0v-2.985a.276.276 0 01.2-.061h4.611zm13.354-25.613v15.971h-1.728V23.68H75.8zm5.173 13.384c-.092.164-.368.675-1.554.675H77.81V25.807h1.575c1.186 0 1.462.5 1.554.675a2.341 2.341 0 01.225 1.114v10.44a2.343 2.343 0 01-.225 1.114z" data-name="Path 18" transform="translate(-37.953)" fill="#7f28c4"/></g></g></svg>