<svg xmlns="http://www.w3.org/2000/svg" xmlns:xlink="http://www.w3.org/1999/xlink" width="55" height="55" viewBox="0 0 55 55">
    <defs>
        <path id="a" d="M.037.107H19V55H.037z"/>
        <path id="c" d="M0 .1h14.948V29H0z"/>
    </defs>
    <g fill="none" fill-rule="evenodd">
        <path fill="#FF306F" d="M27 50.143c-6.154 0-11.143-4.989-11.143-11.143 0-6.154 4.989-11.143 11.143-11.143 6.154 0 11.143 4.989 11.143 11.143C38.136 45.151 33.15 50.136 27 50.143M40 39c0-7.18-5.82-13-13-13s-13 5.82-13 13 5.82 13 13 13c7.177-.008 12.992-5.823 13-13"/>
        <path fill="#FF306F" d="M32.531 32.243L21.265 43.51a.867.867 0 1 0 1.225 1.225L33.756 33.47a.866.866 0 0 0-1.225-1.226M24 33.667a1.333 1.333 0 1 1 0 2.666 1.333 1.333 0 0 1 0-2.666M24 38a3 3 0 1 0 0-6 3 3 0 0 0 0 6M31 43.333a1.333 1.333 0 1 1 0-2.666 1.333 1.333 0 0 1 0 2.666M31 39a3 3 0 1 0 0 6 3 3 0 0 0 0-6"/>
        <g transform="translate(36)">
            <mask id="b" fill="#fff">
                <use xlink:href="#a"/>
            </mask>
            <path fill="#FF306F" d="M18.681 7.657L10.148.337a.974.974 0 0 0-1.26 0L.356 7.658A.893.893 0 0 0 .277 8.95c.18.195.437.306.708.306h2.844v21.958c0 .505.425.915.949.915.523 0 .948-.41.948-.915V8.34c0-.505-.425-.914-.948-.914h-1.3l6.04-5.18 6.04 5.18H14.26c-.523 0-.948.41-.948.914v44.83H5.726v-7.319c0-.505-.425-.915-.948-.915-.524 0-.949.41-.949.915v8.234c0 .505.425.915.949.915h9.481c.524 0 .948-.41.948-.915V9.255h2.845c.523 0 .947-.41.947-.915" mask="url(#b)"/>
        </g>
        <path fill="#FF306F" d="M31.166 53h-7.333c0-.553-.41-1-.917-1-.506 0-.916.448-.916 1v1c0 .552.41 1 .916 1h9.167c.507 0 .917-.448.917-1v-1c0-.553-.41-1-.917-1-.506 0-.917.447-.917 1M30.3 21.25v1.833c0 .507.425.917.95.917.525 0 .95-.41.95-.917v-.916h2.85c.526 0 .95-.412.95-.918a.904.904 0 0 0-.318-.684L27.13 13.23a.976.976 0 0 0-1.262 0l-8.55 7.334a.895.895 0 0 0-.079 1.294c.18.196.438.307.71.308h2.85v.916c0 .507.425.917.95.917.524 0 .95-.41.95-.917V21.25c0-.506-.426-.917-.95-.917h-1.302l6.052-5.19 6.052 5.19H31.25c-.525 0-.95.41-.95.917"/>
        <g transform="translate(0 26)">
            <mask id="d" fill="#fff">
                <use xlink:href="#c"/>
            </mask>
            <path fill="#FF306F" d="M4.67 29h9.344c.516 0 .934-.404.934-.903V19.97c0-.5-.418-.904-.934-.904s-.934.404-.934.904v7.225H5.605V8.227c0-.499-.418-.903-.934-.903H3.39L9.342 2.21l3.584 3.08a.957.957 0 0 0 1.321-.034.882.882 0 0 0-.08-1.316L9.963.327a.958.958 0 0 0-1.24 0L.312 7.552a.883.883 0 0 0-.077 1.276.95.95 0 0 0 .698.302h2.803v18.967c0 .499.418.903.934.903" mask="url(#d)"/>
        </g>
    </g>
</svg>
