<svg xmlns="http://www.w3.org/2000/svg" xmlns:xlink="http://www.w3.org/1999/xlink" width="55" height="55" viewBox="0 0 55 55">
    <defs>
        <path id="a" d="M0 0h9v28.923H0z"/>
        <path id="c" d="M0 55h55V0H0z"/>
    </defs>
    <g fill="none" fill-rule="evenodd">
        <path fill="#FF306F" d="M46 28h-1.8c0 1.323-1.212 2.4-2.7 2.4-1.488 0-2.7-1.077-2.7-2.4H37c0 2.206 2.019 4 4.5 4s4.5-1.794 4.5-4"/>
        <g transform="translate(37)">
            <mask id="b" fill="#fff">
                <use xlink:href="#a"/>
            </mask>
            <path fill="#FF306F" d="M1.8 8.371V3.57l1.8 1.339v4.356L1.8 8.37zm5.4 0l-1.8.893V4.908l1.8-1.339v4.802zM3.6 25.507l-2.064-2.046-1.272 1.262 4.236 4.2 4.236-4.2-1.272-1.262L5.4 25.507V11.26L9 9.475V0L4.5 3.346 0 0v9.475l3.6 1.784v14.248z" mask="url(#b)"/>
        </g>
        <path fill="#FF306F" d="M39.582 19.688L39.045 18C34.831 19.265 32 22.996 32 27.284 32 32.641 36.486 37 42 37s10-4.359 10-9.716c0-4.288-2.83-8.02-7.045-9.284l-.537 1.688c3.448 1.035 5.764 4.087 5.764 7.596 0 4.383-3.671 7.95-8.182 7.95-4.51 0-8.182-3.567-8.182-7.95 0-3.51 2.316-6.56 5.764-7.596"/>
        <mask id="d" fill="#fff">
            <use xlink:href="#c"/>
        </mask>
        <path fill="#FF306F" d="M1.774 53.226H12.42v-8.871H1.774v8.87zm0-21.29H12.42v-8.871H1.774v8.87zm0-21.29H12.42V1.773H1.774v8.871zm42.74 3.853l-.376 1.734c5.266 1.138 9.088 5.876 9.088 11.267 0 6.359-5.174 11.532-11.532 11.532-6.36 0-11.533-5.173-11.533-11.532 0-5.391 3.822-10.129 9.088-11.267l-.376-1.734c-5.785 1.25-10.05 6.268-10.447 12.114h-5.361V5.323h-8.871V0H0v12.42h14.194V7.096h7.096v19.516h-7.096V21.29H0v12.42h14.194v-5.323h7.096v19.516h-7.096v-5.322H0V55h14.194v-5.323h8.87v-21.29h5.368c.46 6.924 6.224 12.42 13.262 12.42C49.03 40.806 55 34.836 55 27.5c0-6.22-4.41-11.688-10.486-13.001z" mask="url(#d)"/>
        <path fill="#FF306F" d="M4 27h7v-2H4zM8 30h2v-2H8zM4 30h2v-2H4zM4 5h7V3H4zM8 9h2V7H8zM4 9h2V7H4zM4 48h7v-2H4zM8 52h2v-2H8zM4 52h2v-2H4z" mask="url(#d)"/>
    </g>
</svg>
