<svg xmlns="http://www.w3.org/2000/svg" xmlns:xlink="http://www.w3.org/1999/xlink" width="65" height="55" viewBox="0 0 65 55">
    <defs>
        <path id="a" d="M.125.02h42.784v26.892H.125z"/>
        <path id="c" d="M0 .003h65V54H0z"/>
    </defs>
    <g fill="none" fill-rule="evenodd">
        <g transform="translate(10)">
            <mask id="b" fill="#fff">
                <use xlink:href="#a"/>
            </mask>
            <path fill="#FF306F" d="M42.9 5.657L42.224.813a.922.922 0 0 0-1.047-.782l-5.318.817a.92.92 0 0 0 .277 1.82l3.1-.476c-4.145 5.142-8.602 9.52-13.27 13.03-4.062 3.053-8.292 5.46-12.572 7.153-7.285 2.881-12.26 2.692-12.308 2.69a.917.917 0 0 0-.96.875.92.92 0 0 0 .872.965c.03.001.155.007.37.007 1.322 0 6.026-.204 12.584-2.779 4.446-1.746 8.835-4.23 13.043-7.384 4.836-3.624 9.445-8.15 13.72-13.465l.367 2.629a.919.919 0 0 0 1.037.784.92.92 0 0 0 .781-1.04" mask="url(#b)"/>
        </g>
        <g transform="translate(0 1)">
            <mask id="d" fill="#fff">
                <use xlink:href="#c"/>
            </mask>
            <path fill="#FF306F" d="M53.73 48.004a9.43 9.43 0 0 1-2.997.873l-.053.007a10.153 10.153 0 0 1-.539.045l-.103.004c-.134.006-.267.01-.402.01a9.733 9.733 0 0 1-1.08-.064c-.06-.007-.12-.013-.178-.021a10.102 10.102 0 0 1-.253-.038l-.033-.005a9.354 9.354 0 0 1-3.112-1.108l-.016-.007a9.361 9.361 0 0 1-1.916-1.463 9.138 9.138 0 0 1-2.73-6.532c0-2.468.97-4.788 2.73-6.533a9.28 9.28 0 0 1 2.228-1.632l.068-.035a9.423 9.423 0 0 1 7.763-.373l.057.023a9.776 9.776 0 0 1 .48.21 9.27 9.27 0 0 1 2.58 1.807 9.193 9.193 0 0 1 0 13.065 9.324 9.324 0 0 1-2.46 1.753c-.012.005-.024.008-.035.014zm-25.731.939V26.488c0-.118.097-.215.217-.215h7.332c.12 0 .217.097.217.215v22.455H28zm-9.678 0h-7.766V34.045c0-.118.097-.215.217-.215h7.332c.12 0 .217.097.217.215v14.898zm44.97 0h-7.488a11.266 11.266 0 0 0 1.732-1.407 10.956 10.956 0 0 0 3.271-7.831c0-2.959-1.161-5.74-3.271-7.832a11.128 11.128 0 0 0-2.472-1.846v-3.71a.923.923 0 0 0-.927-.918.923.923 0 0 0-.926.919v2.893a11.23 11.23 0 0 0-7.767.226V18.153c0-.12.098-.216.218-.216h7.331c.12 0 .218.097.218.216v2.28c0 .507.415.919.926.919a.923.923 0 0 0 .927-.92v-2.28a2.064 2.064 0 0 0-2.07-2.052H45.66c-1.141 0-2.07.92-2.07 2.053v12.24c-.656.419-1.279.91-1.853 1.48a10.956 10.956 0 0 0-3.271 7.831c0 2.959 1.162 5.74 3.271 7.832.536.53 1.116 1 1.733 1.407h-5.851V26.488a2.064 2.064 0 0 0-2.07-2.052h-7.333c-1.141 0-2.07.92-2.07 2.052v22.455h-5.972V34.045a2.064 2.064 0 0 0-2.07-2.052h-7.332c-1.142 0-2.07.92-2.07 2.052v14.898H4.885V1.698c0-.935-.767-1.695-1.71-1.695H1.71C.767.003 0 .763 0 1.698V8.22c0 .507.415.918.926.918a.923.923 0 0 0 .927-.918V1.84h1.179v47.245c0 .935.767 1.695 1.71 1.695h58.405v1.383H1.853V14.025a.923.923 0 0 0-.926-.918.923.923 0 0 0-.927.918v38.28C0 53.24.767 54 1.71 54h61.58c.943 0 1.71-.76 1.71-1.695v-1.667c0-.935-.767-1.695-1.71-1.695z" mask="url(#d)"/>
        </g>
        <path fill="#FF306F" d="M49.044 37.362h2c.441 0 .798.132 1.068.396.271.264.407.61.407 1.035 0 .427-.136.772-.407 1.036-.27.264-.627.396-1.068.396h-2v-2.863zM46.2 43.568h1.4v1.227a.2.2 0 0 0 .056.147.192.192 0 0 0 .144.058h1.044c.054 0 .1-.02.14-.058a.195.195 0 0 0 .06-.147v-1.227H52.2a.192.192 0 0 0 .144-.057.201.201 0 0 0 .056-.147v-.819a.2.2 0 0 0-.056-.146.192.192 0 0 0-.144-.058h-3.156v-.754h2.125c.833 0 1.513-.26 2.04-.78.527-.52.791-1.191.791-2.014 0-.822-.264-1.493-.79-2.013-.528-.52-1.208-.78-2.041-.78h-3.37a.193.193 0 0 0-.199.204v4.021h-1.4a.188.188 0 0 0-.144.06.204.204 0 0 0-.056.145v.952c0 .06.019.109.056.147a.192.192 0 0 0 .144.058h1.4v.754h-1.4a.192.192 0 0 0-.144.057.201.201 0 0 0-.056.147v.819c0 .06.019.108.056.147a.192.192 0 0 0 .144.057z"/>
    </g>
</svg>
