<svg width="50px" height="50px" viewBox="0 0 50 50" version="1.1" xmlns="http://www.w3.org/2000/svg" xmlns:xlink="http://www.w3.org/1999/xlink">
  <g id="Page-1" stroke="none" stroke-width="1" fill="none" fill-rule="evenodd">
      <g id="information" fill="#FF336D">
          <path d="M21.951,16.518 C22.040495,16.7042849 22.1406614,16.8852522 22.251,17.06 C22.351,17.208 22.497,17.36 22.596,17.503 C22.7490771,17.6627325 22.9138686,17.8108109 23.089,17.946 C23.2638308,18.0847109 23.4648366,18.1867443 23.68,18.246 C23.8831084,18.3418131 24.0984764,18.4091156 24.32,18.446 C24.5309967,18.4849472 24.7455335,18.5013727 24.96,18.495 C25.1745048,18.5031743 25.3892397,18.4867337 25.6,18.446 C25.7904252,18.4095546 25.9735444,18.3419829 26.142,18.246 L26.191,18.246 C26.3983017,18.1496321 26.5961593,18.0341315 26.782,17.901 C26.9415881,17.7837166 27.0898963,17.6518127 27.225,17.507 L27.274,17.458 C27.4040452,17.3226916 27.519667,17.1742265 27.619,17.015 C27.7299505,16.8667792 27.8132822,16.6997771 27.865,16.522 C27.865,16.473 27.865,16.473 27.914,16.422 C28.0029855,16.2162928 28.0700231,16.0017724 28.114,15.782 C28.1796905,15.3575265 28.1796905,14.9254735 28.114,14.501 C28.0630705,14.2830638 27.9962245,14.0691566 27.914,13.861 C27.775611,13.5302195 27.5749766,13.2290981 27.323,12.974 L27.223,12.874 C27.0685228,12.7307874 26.9037472,12.5991007 26.73,12.48 C26.53,12.38 26.385,12.28 26.188,12.18 C25.9991384,12.0913442 25.8008875,12.0242542 25.597,11.98 C25.3860033,11.9410528 25.1714665,11.9246273 24.957,11.931 C24.7424952,11.9228257 24.5277603,11.9392663 24.317,11.98 C24.1131102,12.024246 23.9148584,12.0913363 23.726,12.18 L23.677,12.18 C23.490712,12.2694891 23.3097444,12.3696556 23.135,12.48 C22.9612507,12.5990978 22.7964749,12.7307847 22.642,12.874 C22.4971873,13.0091037 22.3652834,13.1574119 22.248,13.317 C22.1376614,13.4917478 22.037495,13.6727151 21.948,13.859 C21.8593521,14.0478647 21.7922624,14.2461148 21.748,14.45 C21.7090528,14.6609967 21.6926273,14.8755335 21.699,15.09 C21.6908257,15.3045048 21.7072663,15.5192397 21.748,15.73 C21.7915626,15.9982934 21.8595108,16.2620532 21.951,16.518 Z" id="Path_221"></path>
          <path d="M28.793,33.159 L27.66,33.159 L27.66,21.089 C27.6624177,20.7485223 27.5282321,20.4212883 27.2874719,20.1805281 C27.0467117,19.9397679 26.7194777,19.8055823 26.379,19.808 L21.206,19.808 C20.8655223,19.8055823 20.5382883,19.9397679 20.2975281,20.1805281 C20.0567679,20.4212883 19.9225823,20.7485223 19.925,21.089 L19.925,23.749 C19.9225823,24.0894777 20.0567679,24.4167117 20.2975281,24.6574719 C20.5382883,24.8982321 20.8655223,25.0324177 21.206,25.03 L22.241,25.03 L22.241,33.209 L21.206,33.209 C20.8655223,33.2065823 20.5382883,33.3407679 20.2975281,33.5815281 C20.0567679,33.8222883 19.9225823,34.1495223 19.925,34.49 L19.925,37.15 C19.9225823,37.4904777 20.0567679,37.8177117 20.2975281,38.0584719 C20.5382883,38.2992321 20.8655223,38.4334177 21.206,38.431 L28.793,38.431 C29.1334777,38.4334177 29.4607117,38.2992321 29.7014719,38.0584719 C29.9422321,37.8177117 30.0764177,37.4904777 30.074,37.15 L30.074,34.49 C30.0829928,33.7706124 29.5122047,33.1775454 28.793,33.159 Z" id="Path_222"></path>
          <path d="M25,-7.76489983e-16 C11.1928813,-1.62193217e-15 1.69088438e-15,11.1928813 0,25 C-1.69088438e-15,38.8071187 11.1928813,50 25,50 C38.8071187,50 50,38.8071187 50,25 C49.9966878,11.1942534 38.8057466,0.00331218693 25,-7.76489983e-16 Z M25,46.709 C13.0104504,46.709 3.291,36.9895496 3.291,25 C3.291,13.0104504 13.0104504,3.291 25,3.291 C36.9895496,3.291 46.709,13.0104504 46.709,25 C46.6979737,36.9849794 36.9849794,46.6979737 25,46.709 Z" id="Path_223" fill-rule="nonzero"></path>
      </g>
  </g>
</svg>
