<svg xmlns="http://www.w3.org/2000/svg" width="55.004" height="55.003" viewBox="0 0 55.004 55.003">
    <defs>
        <style>
            .cls-1{fill:none}.cls-2{fill:#7f28c4}
        </style>
    </defs>
    <g id="padlockq2" transform="translate(-4 -4)">
        <path id="Контур_434" d="M137.88 329.615a1.315 1.315 0 1 0-1.315 1.315 1.317 1.317 0 0 0 1.315-1.315z" class="cls-1" transform="translate(-116.926 -288.908)"/>
        <path id="Контур_435" d="M64.486 271H31.637A1.639 1.639 0 0 0 30 272.637v19.753a1.639 1.639 0 0 0 1.637 1.637h32.849a1.639 1.639 0 0 0 1.637-1.637v-19.753A1.639 1.639 0 0 0 64.486 271zm-25.63 7.568a3.945 3.945 0 1 1 3.945 3.945 3.95 3.95 0 0 1-3.945-3.945zm4.874 11.452a1.315 1.315 0 0 1-1.956-1.753L52.3 275.116a1.315 1.315 0 0 1 2.054 1.644l-10.526 13.152c-.028.038-.064.074-.098.109zm9.593.384a3.945 3.945 0 1 1 3.945-3.945 3.949 3.949 0 0 1-3.945 3.941z" class="cls-1" transform="translate(-23.163 -237.862)"/>
        <path id="Контур_436" d="M63.274 44.733a11.514 11.514 0 0 1 23.027 0v1.637h3.274v-1.637a14.788 14.788 0 0 0-29.575 0v8.294h3.274z" class="cls-1" transform="translate(-49.889 -23.163)"/>
        <path id="Контур_437" d="M232.975 400.6a1.315 1.315 0 1 0 1.315 1.315 1.314 1.314 0 0 0-1.315-1.315z" class="cls-1" transform="translate(-202.815 -353.318)"/>
        <path id="Контур_438" d="M211.5 376.5a3.945 3.945 0 1 0 3.945 3.945 3.943 3.943 0 0 0-3.945-3.945zm0 5.261a1.315 1.315 0 1 1 1.315-1.315 1.317 1.317 0 0 1-1.315 1.315z" class="cls-2" transform="translate(-181.336 -331.848)"/>
        <g id="Сгруппировать_2357" transform="translate(4 4)">
            <path id="Контур_439" d="M68.049 275H35.2a1.2 1.2 0 0 0-1.2 1.2v19.753a1.2 1.2 0 0 0 1.2 1.2h32.849a1.2 1.2 0 0 0 1.2-1.2V276.2a1.2 1.2 0 0 0-1.2-1.2z" class="cls-1" transform="translate(-30.726 -245.425)"/>
            <path id="Контур_440" d="M78.405 36.4A11.909 11.909 0 0 1 90.3 48.3v1.2h2.4v-1.2a14.351 14.351 0 0 0-28.7 0v7.858h2.4V48.3a11.752 11.752 0 0 1 3.537-8.409 11.98 11.98 0 0 1 8.468-3.491z" class="cls-1" transform="translate(-57.452 -30.726)"/>
            <path id="Контур_441" d="M41.323 30.3h-25.1v-8.73a8.676 8.676 0 0 1 17.352 0v3.274a1.2 1.2 0 0 0 1.2 1.2h6.548a1.2 1.2 0 0 0 1.2-1.2V21.57a17.625 17.625 0 0 0-35.25 0v8.884l-.29.1A4.486 4.486 0 0 0 4 34.775v19.753A4.479 4.479 0 0 0 8.474 59h32.849a4.479 4.479 0 0 0 4.477-4.472V34.775a4.479 4.479 0 0 0-4.477-4.475zM9.675 21.57a15.224 15.224 0 0 1 30.448 0v2.074h-4.147V21.57A11.06 11.06 0 0 0 17.1 13.783a10.885 10.885 0 0 0-3.278 7.788V30.3H9.675zM43.4 54.528a2.075 2.075 0 0 1-2.077 2.072H8.474A2.075 2.075 0 0 1 6.4 54.528V34.775A2.075 2.075 0 0 1 8.474 32.7h32.849a2.075 2.075 0 0 1 2.077 2.075z" class="cls-2" transform="translate(-4 -4)"/>
        </g>
        <g id="Сгруппировать_2358" transform="translate(50.053 17.205)">
            <path id="Контур_442" d="M426.051 129.095a1.2 1.2 0 0 0 1.676 1.454l6.548-3.274a1.2 1.2 0 0 0-1.074-2.148l-6.548 3.274a1.194 1.194 0 0 0-.602.694z" class="cls-2" transform="translate(-425.989 -125)"/>
            <path id="Контур_443" d="M434.878 279.095a1.19 1.19 0 0 0-.6-.694l-6.548-3.274a1.188 1.188 0 0 0-.535-.127 1.2 1.2 0 0 0-.539 2.274l6.548 3.274a1.2 1.2 0 0 0 1.676-1.454z" class="cls-2" transform="translate(-425.99 -258.63)"/>
            <path id="Контур_444" d="M433.748 215H427.2a1.2 1.2 0 0 0 0 2.4h6.548a1.2 1.2 0 1 0 0-2.4z" class="cls-2" transform="translate(-425.999 -205.178)"/>
        </g>
        <path id="Контур_445" d="M119.04 308.145a3.945 3.945 0 1 0-3.945 3.945 3.949 3.949 0 0 0 3.945-3.945zm-5.26 0a1.315 1.315 0 1 1 1.315 1.315 1.317 1.317 0 0 1-1.315-1.315z" class="cls-2" transform="translate(-95.456 -267.438)"/>
        <path id="Контур_446" d="M147.895 304.487a1.316 1.316 0 0 0-1.849.205l-10.521 13.152a1.315 1.315 0 0 0 1.956 1.753c.034-.034.067-.071.1-.109l10.519-13.152a1.315 1.315 0 0 0-.205-1.849z" class="cls-2" transform="translate(-116.914 -267.438)"/>
    </g>
</svg>
