<svg width="211px" height="89px" viewBox="0 0 211 89" version="1.1" xmlns="http://www.w3.org/2000/svg" xmlns:xlink="http://www.w3.org/1999/xlink">
    <g id="Page-1" stroke="none" stroke-width="1" fill="none" fill-rule="evenodd">
        <g id="symbol-4-1" fill="#000000">
            <path d="M149.067,33.015 C148.579201,32.9972721 148.090777,33.0210242 147.607,33.086 C147.028292,32.963113 146.426199,33.0135483 145.876,33.231 C145.754,33.274 145.636,33.289 145.597,33.302 C145.461,33.327 145.257,33.359 145.118,33.388 C144.48232,33.3818487 143.854774,33.5311829 143.29,33.823 C143.038,33.901 142.734,34.123 142.708,34.083 C142.444059,34.2069555 142.189692,34.3503502 141.947,34.512 C140.773857,35.1044406 139.640468,35.7725158 138.554,36.512 C138.250909,36.7318937 137.96962,36.9803659 137.714,37.254 C134.310248,39.8263954 131.615666,43.221204 129.883,47.12 C129.293387,48.3233143 128.610292,49.4785241 127.84,50.575 C127.794783,49.9989455 127.718337,49.4257693 127.611,48.858 C127.657867,47.8846407 127.630119,46.9091215 127.528,45.94 C127.454,45.123 127.618,43.94 126.922,43.22 C126.955029,43.0214687 126.891526,42.8190764 126.751,42.675 C126.387,40.843 126.551,41.229 125.813,41.085 C125.513,40.941 125.032,41.203 124.835,41.116 C123.352,40.867 119.223,42.536 117.271,43.297 C117.027,43.387 116.765,43.456 116.521,43.547 C115.762366,43.9447771 115.17937,44.6112102 114.886,45.416 C113.804,48.316 113.273,51.54 111.796,54.194 C108.728,59.707 105.246,64.987 101.802,70.267 C100.42128,72.0976249 98.9315847,73.8434508 97.341,75.495 C97.18,75.395 97.484,74.756 97.332,74.657 C97.532,71.807 97.553,68.925 97.978,66.112 C98.7204546,61.2760311 99.5931047,56.4609498 100.595,51.672 C100.61111,51.6883409 100.626142,51.7057108 100.64,51.724 C100.64,51.724 100.763,51.113 100.858,50.43 C101.831,46.167 101.343,46.425 99.024,45.137 C95.612,42.979 91.573,41.942 87.96,40.179 C87.1204005,39.7507237 86.1834184,39.5494001 85.242,39.595 C84.842,39.727 84.719,39.154 84.074,40.063 C83.589947,40.821563 83.2121005,41.6428661 82.951,42.504 C82.633,43.509 82.251,44.619 82.251,44.619 C81.965,45.179 80.998,45.05 80.151,45.298 C79.1438586,45.7556224 78.2022288,46.3454862 77.351,47.052 C75.59,48.597 74.857,49.561 73.133,51.152 C69.933,54.134 67.138,57.214 65.412,61.361 C64.9436656,62.4953506 64.3222282,63.5602392 63.565,64.526 C62.741,65.632 61.526,67.471 60.653,68.536 C58.753,70.836 56.867,73.144 54.846,75.616 C55.53,70.509 56.168,65.657 56.802,60.801 C57.467,55.656 58.419,50.539 58.673,45.35 C58.706,45.189 58.656,45.367 58.706,44.91 C58.86,44.639 58.772,44.253 58.873,44.253 C58.9420207,43.9548344 58.9522111,43.6460676 58.903,43.344 C59.083568,42.0004809 59.0906258,40.6393194 58.924,39.294 C58.86,38.47 59.012,37.301 58.324,36.571 C58.3849587,36.3130762 58.2574395,36.0476194 58.018,35.934 C57.489,34.82 56.48,34.269 54.286,33.444 C53.57,33.172 52.813,32.97 52.086,32.744 C49.686,31.972 47.915,32.944 46.277,34.757 C44.753,36.426 44.517,38.52 43.816,40.518 C41.723,46.388 39.384,52.168 37.116,57.965 C36.6839787,58.8322804 36.1962933,59.6706985 35.656,60.475 C35.5922092,59.1539581 35.5975498,57.830484 35.672,56.51 C36.246,51.463 36.952,46.421 37.454,41.359 C37.4949923,40.8847607 37.5013425,40.4081631 37.473,39.933 C37.493,39.359 37.512,38.659 37.512,38.185 C37.3986499,37.440108 37.0878857,36.739162 36.612,36.155 C36.612,36.155 35.263,34.8 34.267,33.949 C33.2668937,33.3821928 32.1570145,33.0361015 31.012,32.934 C30.2343464,33.0568297 29.4688112,33.2468752 28.724,33.502 C28.1847241,33.8240335 27.7099964,34.2434893 27.324,34.739 C27.1220252,34.9272228 26.9674778,35.160586 26.873,35.42 C26.4287794,36.3565772 25.9216182,37.2619835 25.355,38.13 L23.623,41.079 L21.194,45.21 C19.858,47.291 18.502,49.356 17.181,51.444 C16.8638793,51.7942492 16.5040696,52.1033294 16.11,52.364 C16.11,49.546 16.534,46.755 16.329,44.033 C16.328417,43.0839245 16.1747778,42.141154 15.874,41.241 C15.8598189,41.2213875 15.8493153,41.1993639 15.843,41.176 C15.5718846,40.2377566 15.1817099,39.3381032 14.682,38.499 C14.569,38.309 14.445,38.136 14.327,37.964 C14.0372013,37.3620888 13.7157518,36.7759358 13.364,36.208 C12.9674555,35.530919 12.251237,35.1046614 11.467,35.079 C11.433,34.862 10.073,34.879 10.049,34.821 C8.933,35.195 7.138,34.346 6.859,35.457 C7.05201082,35.9959735 7.09113865,36.5780433 6.972,37.138 L6.993,37.138 C6.406,40.447 5.844,43.646 5.31,46.838 C4.982,48.769 4.746,50.715 4.432,52.649 C3.45,58.71 2.38,64.739 1.485,70.801 C1.2815776,72.2110939 1.1148546,73.6262388 0.985,75.045 C0.359,77.793 -0.475,82.119 0.336,82.728 L1.316,83.183 C1.316,83.183 4.47,84.726 5.771,84.726 C6.90686992,84.7421383 8.03563213,84.9082415 9.128,85.22 C9.717,85.378 11.328,85.691 11.742,82.952 C11.8474472,82.2806484 11.9361414,81.6067724 12.008,80.931 C12.0421541,80.7834375 12.0688546,80.6342486 12.088,80.484 C12.704,76.119 13.394,71.768 14.069,67.419 C14.469,64.937 14.537,62.306 15.448,60.033 C16.7944478,57.1235224 18.3331867,54.3069554 20.054,51.602 C22.39,47.453 24.733,43.311 27.329,38.733 C27.4020896,39.6526581 27.3927189,40.5770126 27.301,41.495 C26.955,43.23 26.371,44.916 26.043,46.658 C25.199,51.062 24.418,55.476 23.7,59.9 C22.9173333,64.6246667 22.1986667,69.3606667 21.544,74.108 C21.21,76.548 21.45,77.054 23.812,77.191 C25.916318,77.2043759 28.0158952,76.9897912 30.074,76.551 C32.139,76.232 32.774,75.887 33.519,73.12 C33.6359578,72.4269595 33.8440972,71.7524398 34.138,71.114 C37.395,66.156 38.238,60.167 40.557,54.814 C41.565,52.494 42.445,50.066 43.303,47.683 C43.3495977,49.7882117 43.2225003,51.8936807 42.923,53.978 C42.135,60.63 41.244,67.256 40.474,73.906 C40,78.062 40.535,82.014 43.1,85.445 C44.486886,87.6487206 47.1971967,88.6235249 49.67,87.808 C52.951,86.9 55.319,84.579 57.7,82.279 C59.537,80.495 61.26,78.579 63.024,76.746 C63.3591249,77.6338693 63.8227307,78.4677532 64.4,79.221 C68.239,82.807 73.258,82.848 76.629,77.951 C78.653,75.01 80.482,73.375 82.329,70.31 C82.529,69.993 82.838,69.496 83.306,68.71 C83.354,69.91 83.262,69.528 83.318,70.301 C83.524,73.301 83.293,76.431 84.074,79.261 C85.539,84.661 89.523,87.061 93.963,84.527 C95.6912199,83.5438517 97.1850478,82.1967451 98.341,80.579 C101.026,76.656 103.434,72.52 105.897,68.436 C107.632021,65.7696581 109.22491,63.0134808 110.669,60.179 C110.214,64.393 109.637,68.048 109.136,72.155 C108.815358,75.60877 108.712488,79.0793019 108.828,82.546 C108.843,83.283 109.549,83.425 110.386,83.48 C113.693,84.419 115.686,83.48 119.427,82.18 C119.558366,82.125883 119.685981,82.0630773 119.809,81.992 L120.223,81.913 L120.8,81.328 C121.468,80.858 121.432,80.485 121.865,79.481 C122.07,79.037 122.033,79.298 122.175,78.85 C122.543,78.95 122.49,77.837 122.49,77.837 C122.554049,77.7121679 122.594398,77.5765424 122.609,77.437 C122.771,76.849 122.632,77.33 122.717,76.737 C122.849,76.467 122.779,76.08 122.869,76.08 C122.953324,75.7836289 122.967024,75.4716213 122.909,75.169 C122.910751,75.1570639 122.910751,75.1449361 122.909,75.133 C124.819,69.201 126.648,63.233 128.723,57.367 C131.654,49.074 137.796,43.692 146.671,43.33 C147.592,43.296 148.071,43.507 148.293,42.975 C149.217524,40.5913562 149.778784,38.0823693 149.958,35.532 C150.044043,35.2329329 150.059109,34.9179134 150.002,34.612 C150.002,34.522 150.007,34.444 150.002,34.375 C150.00463,34.3662053 150.006306,34.3571533 150.007,34.348 L150.007,34.33 C150.077,32.76 150.061,33.038 149.064,33.015 M82.864,54.842 C82.693,55.163 82.086,56.084 81.877,56.442 C81.698,56.76 81.045,57.698 80.925,57.896 C78.525,61.757 76.878,64.838 74.436,68.674 C73.9244637,69.5230106 73.3628021,70.3407926 72.754,71.123 C71.913,72.174 71.662,72.712 71.544,72.667 C68.526,70.838 76.054,53.503 82.105,54.316 C82.146,54.33 83.057,54.466 82.864,54.843" id="Shape" fill-rule="nonzero"></path>
            <path d="M199.51,79.357 C199.496281,79.3445704 199.484185,79.3304589 199.474,79.315 C199.386,79.183 199.301,79.036 199.301,79.036 L199.474,79.136 C199.346356,79.0335358 199.2276,78.9204667 199.119,78.798 C190.146,65.753 177.473,56.641 166.941,45.218 C167.461,44.836 167.901,44.531 168.327,44.218 C172.292,41.318 176.276,38.451 180.206,35.518 C184.013,33.09 182.071,33.776 180.637,32.018 C180.321416,31.6393349 179.994604,31.2701707 179.657,30.911 C179.598,30.831 179.546,30.744 179.479,30.639 C179.613,30.512 179.288,30.622 179.417,30.489 C178.758961,29.6021431 177.867977,28.9150401 176.843,28.504 C176.844324,28.4846907 176.840529,28.4653739 176.832,28.448 C176.832,28.468 176.843,28.483 176.843,28.504 C176.621,28.416 176.548,28.273 176.343,28.189 C176.191,28.033 175.911,27.942 175.772,27.821 L175.699,27.738 L175.599,27.632 C175.279,27.369 175.447,27.453 175.099,27.344 L174.687,27.027 L173.887,26.982 C173.520707,26.8740717 173.127823,26.9013996 172.78,27.059 C172.391815,27.1471241 172.016926,27.2859846 171.665,27.472 C171.500745,27.4791181 171.34045,27.5246719 171.197,27.605 C171.037,27.257 170.275,28.053 170.275,28.053 C170.142747,28.0943347 170.018357,28.1575437 169.907,28.24 C169.386,28.504 169.825,28.286 169.341,28.621 C169.071,28.703 168.841,29.027 168.776,28.957 C168.513103,29.0972752 168.285932,29.2960504 168.112,29.538 C167.608938,29.8984766 167.131768,30.293779 166.684,30.721 C165.858,31.221 164.996,31.753 164.054,32.335 C164.054,31.435 164.045,31.003 164.054,30.583 C164.214,23.883 164.565,16.539 164.48,9.855 C164.418,5.34 163.062,2.848 160.115,1.394 C159.942,1.313 159.82,1.259 159.82,1.259 C159.82,1.259 158.192,0.418 157.365,0.066 C156.538,-0.286 155.065,0.915 155.065,0.915 L154.299,1.353 C154.254982,1.67920455 154.076601,1.97215528 153.807,2.161 C153.388,2.401 153.089,3.714 153.089,3.714 L153.338,4.188 C153.495628,4.53524537 153.572226,4.91378968 153.562,5.295 L153.369,6.645 L153.342,9.345 L153.059,26.445 C152.727,32.896 152.594,39.362 152.232,45.811 C151.725,55.141 150.817,64.45 150.513,73.791 C150.623691,75.5546096 151.136808,77.269445 152.013,78.804 C152.8,80.415 155.324,80.879 156.9,79.979 C158.46,79.105 159.564,77.563 159.029,75.759 C158.869,75.241 158.159,75.371 158.236,73.935 C158.466,69.656 158.714,65.385 159.014,61.109 C159.114,59.684 159.371,58.256 159.591,56.492 C161.4442,57.6940969 163.202368,59.0367095 164.85,60.508 C167.39,62.987 169.55,64.685 172.002,67.224 C172.792862,68.2643756 173.592893,69.2977492 174.402,70.324 C174.991033,70.877287 175.686469,71.3049593 176.446,71.581 L176.476,71.581 C177.598061,72.463648 178.838934,73.1837313 180.162,73.72 C180.851221,74.1579947 181.598053,74.4979229 182.381,74.73 C184.037,75.075 184.375,75.23 184.568,75.255 C184.761,75.28 185.862,75.455 185.862,75.455 C185.862,75.455 186.892,76.036 186.919,75.929 C186.926,75.895 186.892,75.837 186.831,75.77 C187.839,76.22 189.746,77.1 189.908,77.143 C188.96582,76.2102649 187.880848,75.433838 186.694,74.843 C185.894,74.368 185.331,73.97 184.632,73.543 C185.28021,73.7212564 185.915105,73.9448061 186.532,74.212 C186.553898,74.2285867 186.573413,74.2481024 186.59,74.27 L186.813,74.379 L186.945,74.53 L187.032,74.438 C187.253,74.538 187.469,74.649 187.666,74.759 L187.816,74.847 L187.836,74.847 C189.112,75.59 190.019,76.453 191.766,77.647 C192.018,77.905 192.666,77.763 192.487,77.631 C192.410632,77.5376981 192.339522,77.4402137 192.274,77.339 L192.102,76.979 L190.702,75.079 L190.676,74.813 C190.845133,74.8445217 191.012127,74.886604 191.176,74.939 C191.376,74.995 191.27,75.079 191.543,75.079 C191.816,75.079 192.135,75.109 192.135,75.109 C192.157007,75.1580152 192.194162,75.1986751 192.241,75.225 C192.326,75.286 192.276,75.17 192.326,75.286 C192.376,75.402 192.303,75.427 192.439,75.518 C192.575,75.609 192.667,75.631 192.69,75.725 C192.713,75.819 192.834,75.867 192.968,76.011 C193.050502,76.0935065 193.137289,76.1716145 193.228,76.245 C193.327546,76.2792001 193.420791,76.3295384 193.504,76.394 C193.669,76.507 193.873,76.686 193.873,76.686 C193.936036,76.718813 193.989192,76.7678271 194.027,76.828 C194.417581,77.1221134 194.823123,77.3958129 195.242,77.648 C195.599,77.873 195.404,77.679 195.666,77.648 C195.906,77.621 195.657,77.587 196.105,77.587 C196.553,77.587 196.527,77.587 196.643,77.704 C196.759,77.821 197.782,78.399 197.782,78.399 C197.782,78.399 199.245,79.599 199.35,79.626 C199.459725,79.673884 199.564268,79.7328571 199.662,79.802 L199.821,79.811 C199.749808,79.6862217 199.669945,79.5665944 199.582,79.453 C199.55347,79.425412 199.529204,79.3937317 199.51,79.359" id="Path"></path>
            <path d="M210.572,66.757 C210.652,66.81 210.641,66.164 210.641,66.164 L210.523,65.978 C210.523,65.978 210.641,65.896 210.56,65.815 C210.455291,65.6872987 210.361305,65.5511695 210.279,65.408 L210.454,65.491 C210.355929,65.4286956 210.267352,65.3525795 210.191,65.265 C209.989663,64.8161264 209.699497,64.4126825 209.338,64.079 C209.280078,63.8038572 209.169737,63.5424352 209.013,63.309 C208.513,62.286 208.267,62.289 207.654,62.173 C207.66,61.994 207.5,62.306 207.498,62.121 C206.417467,62.0036119 205.325768,62.1942865 204.349,62.671 C204.331911,62.6650591 204.315489,62.6573506 204.3,62.648 C204.315841,62.656063 204.330344,62.666519 204.343,62.679 C204.124,62.779 203.99,62.733 203.777,62.833 C203.559414,62.8728082 203.34514,62.9289674 203.136,63.001 L202.882,63.001 C202.482,63.061 202.661,62.983 202.337,63.173 L201.837,63.259 L201.245,63.835 C200.567,64.274 200.595,64.653 200.137,65.643 C199.937,66.092 199.983,65.628 199.837,66.077 C199.626086,66.4432109 199.506383,66.8547947 199.488,67.277 C199.424061,67.4001992 199.381779,67.5334735 199.363,67.671 C199.185,68.258 199.335,67.777 199.229,68.365 C199.087,68.633 199.168,69.027 199.067,69.027 C198.985896,69.3197567 198.964807,69.6258872 199.005,69.927 C198.806443,71.2671831 198.77286,72.6266475 198.905,73.975 C198.953,74.8 198.763,75.975 199.437,76.716 C199.337,77.674 200.544,77.416 200.544,77.416 L201.121,77.502 C201.377352,77.6762023 201.648766,77.8271365 201.932,77.953 L202.099,77.862 L202.105,77.881 L202.105,77.862 L202.195,77.809 C202.286,77.83 202.213,77.909 202.364,77.956 C202.564,78.016 202.451,78.099 202.73,78.099 C203.009,78.099 203.324,78.13 203.324,78.13 C203.324,78.13 203.324,78.086 203.41,78.148 C203.496,78.21 203.437,78.086 203.494,78.205 C203.551,78.324 203.437,77.921 203.576,78.016 C203.592,78.025 203.676,78.365 203.715,78.028 C204.10698,77.9748783 204.482501,77.8362772 204.815,77.622 C204.956893,77.5293463 205.093754,77.4292046 205.225,77.322 C205.356662,77.3294873 205.487831,77.3004157 205.604,77.238 C206.004202,77.0716712 206.368279,76.8291793 206.676,76.524 C206.923,76.535 207.145,75.324 207.322,75.086 C207.351,75.063 207.339,75.008 207.343,74.972 C207.525,74.719 207.702,74.46 207.873,74.213 C208.101,73.894 207.987,73.919 208.173,73.571 C208.44,73.705 208.411,73.457 208.428,73.392 L208.521,73.131 C208.547077,73.0629475 208.576445,72.9962022 208.609,72.931 C208.637,72.957 208.988,72.683 209.017,72.711 L209.395,72.293 L209.749,71.739 L209.579,71.398 C209.78321,71.2148244 209.911606,70.9619552 209.939,70.689 C210.001,70.569 209.922,70.38 209.987,70.271 C210.738796,69.2604885 210.956303,67.949113 210.571,66.75" id="Path"></path>
        </g>
    </g>
</svg>
