<svg version="1.1" id="svg4987" xmlns:svg="http://www.w3.org/2000/svg" xmlns="http://www.w3.org/2000/svg" xmlns:xlink="http://www.w3.org/1999/xlink" x="0" y="0" width="125.59" height="75.144" viewBox="0.205 0.428 125.59 75.144" xml:space="preserve"><g id="layer1" transform="translate(-457.205 -631.077)"><path id="path618" fill="#0066CB" d="M520.205 696.926c7.598-6.875 12.347-16.811 12.347-27.854 0-11.042-4.749-20.97-12.347-27.846a37.402 37.402 0 00-25.196-9.722c-20.783 0-37.599 16.819-37.599 37.568 0 20.757 16.816 37.576 37.599 37.576a37.435 37.435 0 0025.196-9.722"/><path id="path620" fill="#0066CB" d="M520.205 696.926c7.598-6.875 12.347-16.811 12.347-27.854 0-11.042-4.749-20.97-12.347-27.846"/><path id="path622" fill="none" stroke="#0066CB" stroke-width=".31" d="M520.205 696.926c7.598-6.875 12.347-16.811 12.347-27.854 0-11.042-4.749-20.97-12.347-27.846"/><path id="path624" fill="#CC0001" d="M545.457 631.505c-9.721 0-18.604 3.678-25.252 9.722a40.788 40.788 0 00-3.799 3.983h7.598a30.991 30.991 0 012.85 3.976h-13.297a47.152 47.152 0 00-2.179 3.976h17.654a33.346 33.346 0 011.564 3.983h-20.783a31.596 31.596 0 00-1.117 3.976h23.018c.559 2.564.838 5.227.838 7.952 0 4.173-.671 8.188-1.956 11.935h-20.782c.447 1.365.95 2.693 1.564 3.982h17.654c-.671 1.375-1.341 2.702-2.179 3.977h-13.297c.838 1.389 1.844 2.717 2.85 3.977h7.598a40.89 40.89 0 01-3.799 3.982c6.648 6.037 15.531 9.723 25.252 9.723 20.727 0 37.543-16.819 37.543-37.576 0-20.749-16.817-37.568-37.543-37.568"/><path id="path626" fill="#231F20" d="M579.033 689.944h.168c.057 0 .111.008.111-.016.057-.03.112-.076.112-.121 0-.047-.056-.092-.112-.115 0-.023-.111-.016-.111-.016h-.168v.268zm0 .61h-.223v-1.068h.447a.52.52 0 01.279.054c.056.061.111.16.111.268 0 .121-.056.229-.168.273l.168.474h-.279l-.111-.427h-.225v.426h.001zm.168.39c.503 0 .95-.412.95-.924s-.447-.924-.95-.924c-.502 0-.894.412-.894.924s.392.924.894.924zm-1.229-.924c0-.672.559-1.213 1.229-1.213.671 0 1.229.541 1.229 1.213s-.559 1.213-1.229 1.213-1.229-.541-1.229-1.213"/><path id="path628" fill="#231F20" d="M489.142 679.528h-4.749l2.793-14.645-6.425 14.645h-3.911l-.782-14.561-3.128 14.561h-4.302l3.631-19.047h7.431l.111 11.79 5.14-11.79h7.877l-3.686 19.047"/><path id="path630" fill="#231F20" d="M541.378 679.336c-1.285.352-2.291.504-3.352.504-2.402 0-3.688-1.198-3.688-3.403 0-.435 0-.9.111-1.39l.279-1.518.224-1.221 2.179-11.829h4.637l-.67 3.556h2.402l-.67 3.762h-2.402l-1.229 6.464c-.056.289-.056.496-.056.641 0 .801.447 1.152 1.564 1.152.559 0 .949-.045 1.285-.145l-.614 3.427"/><path id="path632" fill="#231F20" d="M522.831 668.928c0 1.961 1.062 3.305 3.575 4.319 1.9.779 2.234 1.008 2.234 1.71 0 .97-.838 1.403-2.736 1.403-1.397 0-2.738-.189-4.246-.617l-.615 3.578.168.031.894.16c.279.046.671.092 1.229.137 1.117.084 2.011.131 2.625.131 4.973 0 7.264-1.641 7.264-5.174 0-2.122-.95-3.373-3.297-4.313-2.011-.786-2.234-.954-2.234-1.678 0-.84.782-1.267 2.291-1.267.949 0 2.234.092 3.407.237l.671-3.587c-1.229-.168-3.073-.305-4.135-.305-5.307 0-7.151 2.381-7.095 5.235"/><path id="path634" fill="#231F20" d="M501.098 672.629a8.606 8.606 0 00-1.062-.068c-2.625 0-3.966.793-3.966 2.357 0 .961.67 1.58 1.676 1.58 1.899.001 3.296-1.579 3.352-3.869zm3.184 6.899h-3.911l.112-1.61c-1.229 1.274-2.793 1.877-4.917 1.877-2.57 0-4.302-1.725-4.302-4.228 0-3.777 3.017-5.975 8.212-5.975.559 0 1.229.037 1.9.121.167-.511.223-.732.223-1.007 0-1.03-.838-1.412-3.017-1.412-1.341 0-2.849.168-3.911.435l-.615.16-.447.099.67-3.479c2.346-.596 3.854-.824 5.586-.824 4.022 0 6.146 1.572 6.146 4.548 0 .763-.056 1.343-.391 3.068l-.95 5.494-.167.984-.112.786-.112.542v.421"/><path id="path636" fill="#231F20" d="M517.356 669.973c0-.32.056-.587.056-.786 0-1.259-.838-2-2.235-2-1.508 0-2.57.992-2.961 2.777l5.14.009zm2.29 9.219c-1.62.428-3.185.633-4.805.625-5.251 0-7.933-2.381-7.933-6.936 0-5.319 3.464-9.234 8.157-9.234 3.854 0 6.313 2.19 6.313 5.631 0 1.146-.168 2.251-.615 3.823h-9.274c-.056.236-.056.344-.056.488 0 1.793 1.397 2.709 4.134 2.709 1.676 0 3.185-.297 4.861-.977l-.782 3.871"/><path id="path638" fill="#231F20" d="M564.787 670.653c0-1.618-.67-3.152-2.569-3.152-2.402 0-3.854 2.824-3.854 5.311 0 2.099 1.005 3.511 2.682 3.479 1.005 0 3.184-1.381 3.575-3.793.11-.556.166-1.173.166-1.845zm4.749 1.853c-.671 5.151-4.302 7.434-9.106 7.434-5.252 0-7.375-3.205-7.375-7.135 0-5.495 3.576-9.211 9.163-9.211 4.86 0 7.431 3.06 7.431 6.991-.001.953-.001 1.021-.113 1.921"/><path id="path640" fill="#FFF" d="M571.1 677.147h.167s.057 0 .112-.023.056-.076.056-.122c0-.038 0-.084-.056-.106 0-.023-.112-.023-.167-.023h-.112v.274zm0 .603h-.224v-1.068h.447c.056 0 .168.008.279.062.056.053.111.16.111.267 0 .114-.056.229-.167.274l.167.466h-.279l-.168-.42h-.166v.419zm.167.389c.504 0 .895-.412.895-.924a.9.9 0 00-.895-.916c-.502 0-.949.412-.949.916 0 .512.447.924.949.924zm-1.228-.924c0-.664.559-1.205 1.229-1.205.671 0 1.229.541 1.229 1.205 0 .672-.559 1.213-1.229 1.213a1.225 1.225 0 01-1.229-1.213"/><path id="path642" fill="#FFF" d="M490.315 678.428h-4.693l2.793-14.644-6.425 14.644h-4.246l-.782-14.552-2.793 14.552h-4.246l3.631-19.047h7.318l.335 11.798 5.196-11.798h7.598l-3.686 19.047"/><path id="path644" fill="#FFF" d="M542.552 678.246c-1.285.351-2.291.503-3.353.503-2.402 0-3.688-1.205-3.688-3.402 0-.436.056-.9.112-1.389l.279-1.52.223-1.229 2.18-11.828h4.637l-.67 3.556h2.402l-.671 3.77h-2.402l-1.229 6.463c-.056.283-.056.496-.056.642 0 .802.503 1.145 1.62 1.145.503 0 .895-.046 1.229-.146l-.613 3.435"/><path id="path646" fill="#231F20" d="M554.563 667.386l-.111-.488.95-2.427c-.225-.023-.336-.03-.336-.045-.279-.054-.391-.084-.447-.084a1.866 1.866 0 00-.446-.038c-1.564 0-2.626.679-4.079 2.511l.504-2.755h-4.861l-2.85 15.468h4.638c.614-3.549.894-5.57 1.285-7.25.614-2.785 2.682-4.052 4.19-3.77.167.031.279.031.502.115l.279.106.782-1.343"/><path id="path648" fill="#FFF" d="M556.183 663.067c-.391-.153-.447-.153-.502-.168-.225-.054-.392-.084-.392-.092a3.69 3.69 0 00-.503-.038c-1.508 0-2.625.687-4.078 2.519l.447-2.351h-4.246l-2.85 15.491h4.693c1.676-9.47 2.402-11.133 4.637-11.133.168 0 .335.015.559.038l.559.114 1.676-4.38"/><path id="path650" fill="#FFF" d="M524.003 667.837c0 1.953 1.117 3.304 3.632 4.319 1.899.771 2.179 1 2.179 1.71 0 .961-.838 1.396-2.682 1.396-1.453 0-2.738-.191-4.246-.611l-.67 3.572.223.037.838.152c.279.055.727.1 1.285.139 1.117.084 1.955.129 2.57.129 5.027 0 7.318-1.633 7.318-5.166 0-2.129-.949-3.373-3.352-4.312-1.955-.786-2.18-.961-2.18-1.687 0-.832.783-1.259 2.291-1.259.949 0 2.179.084 3.408.229l.67-3.586c-1.229-.168-3.072-.306-4.189-.306-5.251.001-7.095 2.382-7.095 5.244"/><path id="path652" fill="#FFF" d="M502.104 671.53a8.597 8.597 0 00-1.062-.061c-2.626 0-3.967.793-3.967 2.357 0 .962.615 1.58 1.676 1.58 1.9.001 3.241-1.587 3.353-3.876zm3.407 6.898H501.6l.112-1.602c-1.173 1.273-2.793 1.869-4.917 1.869-2.514 0-4.246-1.725-4.246-4.228 0-3.771 3.017-5.975 8.212-5.975.503 0 1.173.045 1.899.122.112-.512.167-.725.167-1.007 0-1.023-.838-1.404-3.017-1.404-1.341 0-2.85.16-3.855.427l-.67.168-.391.1.615-3.488c2.346-.595 3.854-.816 5.586-.816 4.022 0 6.146 1.572 6.146 4.541 0 .763-.056 1.343-.335 3.067l-1.006 5.503-.167.984-.112.786-.056.533-.054.42"/><path id="path654" fill="#FFF" d="M518.361 668.882v-.794c0-1.259-.782-1.992-2.179-1.992-1.508 0-2.57.984-3.017 2.778l5.196.008zm2.459 9.218c-1.565.42-3.129.626-4.75.626-5.251 0-7.989-2.381-7.989-6.944 0-5.311 3.463-9.226 8.156-9.226 3.855 0 6.313 2.19 6.313 5.624 0 1.145-.168 2.259-.56 3.83h-9.273c-.056.237-.056.344-.056.488 0 1.794 1.396 2.71 4.078 2.71 1.676 0 3.185-.306 4.86-.985l-.779 3.877"/><path id="path656" fill="#FFF" d="M565.904 669.424c0-1.618-.67-3.151-2.569-3.151-2.402 0-3.854 2.823-3.854 5.311 0 2.106 1.006 3.519 2.682 3.487 1.006 0 3.184-1.381 3.575-3.793a9.625 9.625 0 00.166-1.854zm4.861 1.985c-.727 5.15-4.303 7.439-9.106 7.439-5.308 0-7.431-3.213-7.431-7.143 0-5.487 3.631-9.21 9.219-9.21 4.859 0 7.43 3.06 7.43 6.99 0 .961 0 1.023-.112 1.924"/></g></svg>