<svg width="165px" height="45px" viewBox="0 0 165 45" version="1.1" xmlns="http://www.w3.org/2000/svg" xmlns:xlink="http://www.w3.org/1999/xlink">
    <g id="Page-1" stroke="none" stroke-width="1" fill="none" fill-rule="evenodd">
        <g id="mailing" transform="translate(0.000000, -1.000000)">
            <g transform="translate(0.000000, 0.665000)">
                <path d="M61.923,1.229 L31.506,20.56 L1.089,1.229 C0.39669118,1.86223441 0.00165881201,2.75677051 -3.71924713e-16,3.695 L-3.71924713e-16,41.695 C0.00182961947,42.6380809 0.401207237,43.5366805 1.1,44.17 L31.506,24.849 L62.753,45.055 L63.012,45.055 L63.012,3.695 C63.0105874,2.75671835 62.6155133,1.86208754 61.923,1.229 Z" id="Path_46" fill="#D6CED1"></path>
                <path d="M3.361,45.057 L62.754,45.057 L41.542,22.696 L21.47,22.696 L1.099,44.171 C1.71516437,44.7396242 2.52255455,45.0558699 3.361,45.057 Z" id="Path_47" fill="#C2B8B9"></path>
                <path d="M3.36,0.335 C2.51738425,0.336143261 1.70627947,0.655442102 1.089,1.229 L29.189,30.715 C29.790095,31.355325 30.6292453,31.7185447 31.5075,31.7185447 C32.3857547,31.7185447 33.224905,31.355325 33.826,30.715 L61.926,1.229 C61.3087205,0.655442102 60.4976158,0.336143261 59.655,0.335 L3.36,0.335 Z" id="Path_48" fill="#ECE7EA"></path>
            </g>
            <g id="EMAIL" transform="translate(77.000000, 16.299000)" fill="#181818" font-family="Roboto-Black, Roboto" font-size="26" font-weight="700">
                <text>
                    <tspan x="0.224" y="24">EMAIL</tspan>
                </text>
            </g>
        </g>
    </g>
</svg>
