<svg xmlns="http://www.w3.org/2000/svg" width="56.288" height="55.355" viewBox="0 0 56.288 55.355">
    <defs>
        <style>
            .cls-1{fill:#ff2f6f}
        </style>
    </defs>
    <g id="Group_299" data-name="Group 299">
        <g id="Group_298" data-name="Group 298">
            <path id="Path_311" d="M94.424 43.309a156.718 156.718 0 0 0 6.801 8.848H96.6a.938.938 0 0 0 0 1.876h15.01a.938.938 0 1 0 0-1.876h-4.629c.2-.245.412-.5.636-.773a153.885 153.885 0 0 0 6.165-8.075 82.427 82.427 0 0 0 6.2-9.988c1.916-3.762 2.888-6.885 2.888-9.283a18.75 18.75 0 0 0-5.495-13.285.938.938 0 1 0-1.327 1.326 16.881 16.881 0 0 1 4.946 11.959c0 2.1-.9 4.936-2.683 8.431a80.563 80.563 0 0 1-6.057 9.757 151.827 151.827 0 0 1-6.089 7.974c-.5.617-.957 1.163-1.343 1.625a.95.95 0 0 1-1.43 0c-.387-.462-.84-1.008-1.343-1.625a152.576 152.576 0 0 1-6.088-7.974 80.564 80.564 0 0 1-6.061-9.757c-1.782-3.495-2.683-6.331-2.683-8.431a16.891 16.891 0 0 1 23.462-15.583.938.938 0 0 0 .733-1.728A18.77 18.77 0 0 0 85.34 24.038c0 2.4.972 5.521 2.888 9.288a82.369 82.369 0 0 0 6.196 9.983z" class="cls-1" data-name="Path 311" transform="translate(-75.958 -5.246)"/>
            <path id="Path_312" d="M180.042 83.961a.938.938 0 1 0 0-1.876 9.381 9.381 0 1 0 6.634 2.748.938.938 0 1 0-1.327 1.327 7.505 7.505 0 1 1-5.307-2.2z" class="cls-1" data-name="Path 312" transform="translate(-151.898 -73.637)"/>
            <path id="Path_313" d="M55.935 375.477l-5.77-10.32a2.916 2.916 0 0 0-2.553-1.474h-6.685a.938.938 0 0 0 0 1.876h6.686a1.04 1.04 0 0 1 .917.512l5.768 10.32a.844.844 0 0 1-.008.867 1.032 1.032 0 0 1-.908.5H2.909a1.032 1.032 0 0 1-.907-.5.844.844 0 0 1-.008-.867l5.768-10.32a1.039 1.039 0 0 1 .916-.512h6.686a.938.938 0 0 0 0-1.876H8.677a2.917 2.917 0 0 0-2.555 1.474l-5.769 10.32a2.721 2.721 0 0 0 .029 2.731 2.89 2.89 0 0 0 2.526 1.424h50.473a2.889 2.889 0 0 0 2.526-1.424 2.721 2.721 0 0 0 .028-2.731z" class="cls-1" data-name="Path 313" transform="translate(0 -324.277)"/>
            <path id="Path_314" d="M357.374 406.351h-3.753a.944.944 0 0 0-.521.158l-2.814 1.876a.938.938 0 0 0 1.041 1.561l2.575-1.719h3.471a.938.938 0 0 0 0-1.876z" class="cls-1" data-name="Path 314" transform="translate(-311.405 -362.254)"/>
            <path id="Path_315" d="M366.937 458.489a.938.938 0 0 0 .938.938h7.505a.938.938 0 1 0 0-1.876h-7.505a.938.938 0 0 0-.938.938z" class="cls-1" data-name="Path 315" transform="translate(-326.597 -407.825)"/>
            <path id="Path_316" d="M92.842 410.1a.938.938 0 0 0 .522-1.719l-2.814-1.876a.944.944 0 0 0-.522-.158h-3.753a.938.938 0 0 0 0 1.876h3.471l2.578 1.719a.936.936 0 0 0 .518.158z" class="cls-1" data-name="Path 316" transform="translate(-75.955 -362.253)"/>
            <path id="Path_317" d="M60.675 457.551a.938.938 0 1 0 0 1.876h7.505a.938.938 0 1 0 0-1.876z" class="cls-1" data-name="Path 317" transform="translate(-53.17 -407.825)"/>
        </g>
    </g>
</svg>
