<svg xmlns="http://www.w3.org/2000/svg" width="90.264" height="57.1" viewBox="0 0 90.264 57.1">
    <g id="Group_129" data-name="Group 129" transform="translate(-55.954 -28)">
        <path fill="#003473" id="Path_225" d="M144.272 28H57.9a2.545 2.545 0 0 0-1.947 2.389v52.323A2.544 2.544 0 0 0 57.9 85.1h86.371a2.543 2.543 0 0 0 1.947-2.388V30.389A2.544 2.544 0 0 0 144.272 28z" class="cls-1" data-name="Path 225"/>
        <g id="Group_128" data-name="Group 128" transform="translate(59.569 31.618)">
            <g id="Group_126" data-name="Group 126">
                <g id="Group_117" data-name="Group 117">
                    <path fill="#ed1c2e" id="Path_226" d="M103.542 45.174l-.169-.319-1.178-.245.591-.864-.109-.209a24.79 24.79 0 0 0-4.223-5.465 22.341 22.341 0 0 0-15.618-6.453c-12.851 0-23.267 11.161-23.267 24.931s10.416 24.933 23.267 24.933a22.35 22.35 0 0 0 15.618-6.452 25.692 25.692 0 0 0 7.646-18.479 26.241 26.241 0 0 0-2.558-11.378z" class="cls-2" data-name="Path 226" transform="translate(-59.569 -31.618)"/>
                    <g id="Group_116" data-name="Group 116" transform="translate(44.149)">
                        <path fill="#fcb131" id="Path_227" d="M114.072 31.618a22.338 22.338 0 0 0-15.618 6.453 24.765 24.765 0 0 1 4.223 5.465l.109.209-.591.864 1.178.245.169.319a26.244 26.244 0 0 1 2.558 11.376 25.693 25.693 0 0 1-7.647 18.479 22.348 22.348 0 0 0 15.618 6.452c12.85 0 23.267-11.164 23.267-24.933s-10.416-24.929-23.266-24.929z" class="cls-3" data-name="Path 227" transform="translate(-98.454 -31.618)"/>
                    </g>
                </g>
                <g id="Group_125" data-name="Group 125" transform="translate(3.214 10.365)">
                    <g id="Group_124" data-name="Group 124">
                        <g id="Group_123" data-name="Group 123">
                            <g id="Group_118" data-name="Group 118" transform="translate(0 11.744)">
                                <path fill="#003473" id="Path_228" d="M73.631 52.538H76.5l-2.239 11.8h-2.868z" class="cls-1" data-name="Path 228" transform="translate(-62.783 -52.397)"/>
                                <path fill="#003473" id="Path_229" d="M65.021 52.538h7.447l-.428 2.231h-4.583L67 57.2h4.416l-.4 2.229h-4.44l-.5 2.671h4.581l-.423 2.229h-7.451z" class="cls-1" data-name="Path 229" transform="translate(-62.783 -52.397)"/>
                                <path fill="#003473" id="Path_230" d="M83.4 64.173a9.833 9.833 0 0 1-2.773.394c-3.039 0-4.623-1.486-4.623-4.332 0-3.317 2.016-5.762 4.751-5.762a3.389 3.389 0 0 1 3.708 3.514 9.81 9.81 0 0 1-.334 2.388H78.68a1.922 1.922 0 0 0-.026.305c0 1.121.806 1.692 2.384 1.692a6.816 6.816 0 0 0 2.824-.612zm-1.44-5.759c.016-.2.023-.359.023-.485a1.16 1.16 0 0 0-1.283-1.247c-.864 0-1.482.619-1.733 1.732z" class="cls-1" data-name="Path 230" transform="translate(-61.708 -52.397)"/>
                                <path fill="#003473" id="Path_231" d="M110.908 58.748c0 2.187-.838 3.484-2.163 3.484-.963.018-1.548-.854-1.548-2.149 0-1.54.853-3.28 2.228-3.28 1.104-.003 1.483.943 1.483 1.945zm2.937.037a4.024 4.024 0 0 0-4.277-4.317c-3.223 0-5.307 2.3-5.307 5.688 0 2.428 1.232 4.41 4.278 4.41 3.079.001 5.306-1.761 5.306-5.781z" class="cls-1" data-name="Path 231" transform="translate(-59.349 -52.397)"/>
                                <path fill="#003473" id="Path_232" d="M115 57.217c.149-.833.283-1.646.371-2.516h2.663l-.237 1.573h.032a3.765 3.765 0 0 1 3.186-1.793c1.654 0 2.537 1.467 2.521 3.354a9.8 9.8 0 0 1-.261 2.006l-.846 4.494h-2.869l.848-4.512a8.011 8.011 0 0 0 .189-1.459 1 1 0 0 0-1.091-1.11c-1.2 0-1.92 1.221-2.138 2.646l-.85 4.437h-2.867z" class="cls-1" data-name="Path 232" transform="translate(-58.552 -52.397)"/>
                                <path fill="#003473" id="Path_233" d="M125.315 54.7h2.869l-1.821 9.633H123.5z" class="cls-1" data-name="Path 233" transform="translate(-57.519 -52.397)"/>
                                <path fill="#003473" id="Path_234" d="M91.221 64.192a6.6 6.6 0 0 1-2.431.37c-2.4 0-3.884-1.981-3.884-4.409 0-3.168 2.146-5.688 5.305-5.688a6.632 6.632 0 0 1 2.589.648l-.513 2.357a3.866 3.866 0 0 0-1.935-.56c-1.468 0-2.511 1.11-2.511 3.111a1.961 1.961 0 0 0 1.959 2.094 3.852 3.852 0 0 0 1.832-.426z" class="cls-1" data-name="Path 234" transform="translate(-60.999 -52.397)"/>
                                <path fill="#003473" id="Path_235" d="M134.368 64.192a6.582 6.582 0 0 1-2.43.37c-2.4 0-3.885-1.981-3.885-4.409 0-3.168 2.146-5.688 5.305-5.688a6.632 6.632 0 0 1 2.589.648l-.513 2.357a3.873 3.873 0 0 0-1.936-.56c-1.467 0-2.51 1.11-2.51 3.111a1.961 1.961 0 0 0 1.958 2.094 3.852 3.852 0 0 0 1.832-.426z" class="cls-1" data-name="Path 235" transform="translate(-57.519 -52.397)"/>
                                <path fill="#003473" id="Path_236" d="M99.407 54.7c-.364 2.979-1.011 6-1.516 8.984l-.123.648h2.9c1.046-5.763 1.4-7.4 3.589-6.827l1.055-2.729c-1.528-.561-2.514.24-3.4 1.379a6.7 6.7 0 0 0 .193-1.457h-2.7z" class="cls-1" data-name="Path 236" transform="translate(-59.976 -52.397)"/>
                                <path fill="#003473" id="Path_237" d="M97.264 62.187c-1.191.173-1.737-.161-1.737-.809a10.536 10.536 0 0 1 .236-1.665l.488-2.682h1.5l.439-2.331h-1.481l.428-2.3h-2.868l-1.379 7.33a10.744 10.744 0 0 0-.252 1.979 2.518 2.518 0 0 0 2.652 2.848 9.409 9.409 0 0 0 1.557-.153z" class="cls-1" data-name="Path 237" transform="translate(-60.458 -52.397)"/>
                            </g>
                            <g id="Group_122" data-name="Group 122" transform="translate(8.356)">
                                <g id="Group_119" data-name="Group 119" transform="translate(0 .235)">
                                    <path fill="#003473" id="Path_238" d="M83.4 47.039a3.333 3.333 0 0 0-.423-.029c-1.073 0-1.616.367-1.616 1.1a.66.66 0 0 0 .679.732c.767-.004 1.323-.742 1.36-1.803zm1.377 3.206h-1.572l.036-.745a2.381 2.381 0 0 1-1.985.869 1.77 1.77 0 0 1-1.73-1.965c0-1.752 1.225-2.773 3.325-2.773a6.374 6.374 0 0 1 .772.055 1.785 1.785 0 0 0 .073-.467c0-.477-.33-.654-1.214-.654a6.308 6.308 0 0 0-2.005.324l.263-1.619a7.537 7.537 0 0 1 2.267-.381c1.626 0 2.488.73 2.485 2.109a9.281 9.281 0 0 1-.153 1.427c-.164 1.042-.517 3.275-.566 3.82z" class="cls-1" data-name="Path 238" transform="translate(-70.237 -40.888)"/>
                                    <path fill="#003473" id="Path_239" d="M78.733 50.245h-1.894l1.086-6.8-2.423 6.8h-1.29l-.159-6.762-1.142 6.762h-1.772L72.62 41.4h2.723l.165 4.952L77.17 41.4h3.03z" class="cls-1" data-name="Path 239" transform="translate(-71.139 -40.888)"/>
                                    <path fill="#003473" id="Path_240" d="M113.227 47.039a3.291 3.291 0 0 0-.42-.029c-1.074 0-1.617.367-1.617 1.1a.66.66 0 0 0 .679.732c.773-.004 1.331-.742 1.358-1.803zm1.379 3.206h-1.568l.036-.745a2.379 2.379 0 0 1-1.984.869 1.769 1.769 0 0 1-1.729-1.965c0-1.752 1.224-2.773 3.324-2.773a6.386 6.386 0 0 1 .771.055 1.743 1.743 0 0 0 .073-.467c0-.477-.329-.654-1.214-.654a6.328 6.328 0 0 0-2.006.324c.021-.12.266-1.619.266-1.619a7.516 7.516 0 0 1 2.265-.381c1.628 0 2.487.73 2.486 2.109a9.541 9.541 0 0 1-.153 1.427c-.164 1.042-.518 3.275-.567 3.82z" class="cls-1" data-name="Path 240" transform="translate(-67.03 -40.888)"/>
                                    <path fill="#003473" id="Path_241" d="M93.19 50.136a4.337 4.337 0 0 1-1.361.233 1.384 1.384 0 0 1-1.5-1.58 16.329 16.329 0 0 1 .259-1.918c.109-.672.821-4.91.821-4.91H93.3l-.22 1.088h1.136l-.256 1.73h-1.144c-.219 1.368-.531 3.072-.534 3.3 0 .371.2.533.648.533a1.512 1.512 0 0 0 .511-.068z" class="cls-1" data-name="Path 241" transform="translate(-69.16 -40.888)"/>
                                    <path fill="#003473" id="Path_242" d="M98.962 50.078a6.435 6.435 0 0 1-1.932.291 2.861 2.861 0 0 1-3.206-3.209c0-2.46 1.4-4.271 3.3-4.271a2.4 2.4 0 0 1 2.543 2.6 7.714 7.714 0 0 1-.231 1.77h-3.754c-.127 1.045.541 1.479 1.637 1.479a4.474 4.474 0 0 0 1.955-.451zM97.9 45.813c.012-.15.2-1.285-.876-1.285-.6 0-1.028.457-1.2 1.285z" class="cls-1" data-name="Path 242" transform="translate(-68.707 -40.888)"/>
                                    <path fill="#003473" id="Path_243" d="M85.91 45.324a2.1 2.1 0 0 0 1.441 2.01c.767.359.886.467.886.793 0 .449-.338.652-1.087.652a5.322 5.322 0 0 1-1.7-.285l-.26 1.663a8.8 8.8 0 0 0 1.971.212c2 0 2.921-.761 2.921-2.4a1.974 1.974 0 0 0-1.335-2.006c-.794-.364-.886-.447-.886-.781 0-.389.315-.588.927-.588a10.3 10.3 0 0 1 1.361.108l.27-1.669a12.639 12.639 0 0 0-1.667-.141C86.637 42.889 85.9 44 85.91 45.324z" class="cls-1" data-name="Path 243" transform="translate(-69.651 -40.888)"/>
                                    <path fill="#003473" id="Path_244" d="M108.172 43.079a3.592 3.592 0 0 1 1.692.478l.311-1.921a5.592 5.592 0 0 0-2.082-.748A3.776 3.776 0 0 0 105 42.554c-1.1-.364-1.552.372-2.1 1.1l-.491.115a3.913 3.913 0 0 0 .06-.725h-1.74c-.235 2.229-.656 4.484-.986 6.712l-.085.484h1.9c.315-2.055.488-3.37.595-4.261l.713-.4c.106-.4.439-.531 1.108-.516a8.1 8.1 0 0 0-.135 1.476c0 2.354 1.272 3.819 3.312 3.819a5.949 5.949 0 0 0 1.674-.258l.332-2.017a3.7 3.7 0 0 1-1.608.454c-1.1 0-1.769-.814-1.769-2.156-.013-1.937.979-3.302 2.392-3.302z" class="cls-1" data-name="Path 244" transform="translate(-67.759 -40.888)"/>
                                    <path fill="#003473" id="Path_245" d="M124.205 41.4l-.421 2.556a2.364 2.364 0 0 0-1.809-1.174 2.938 2.938 0 0 0-2.395 1.791 15.718 15.718 0 0 1-1.611-.443v.006a10.578 10.578 0 0 0 .082-1.084h-1.738c-.236 2.229-.659 4.484-.987 6.712l-.088.484h1.9c.256-1.66.45-3.041.6-4.135.646-.585.972-1.1 1.625-1.062a6.19 6.19 0 0 0-.457 2.336c0 1.8.908 2.984 2.285 2.984a2.228 2.228 0 0 0 1.746-.794l-.088.67h1.79l1.442-8.848zm-2.369 7.186c-.644 0-.97-.479-.97-1.42 0-1.413.609-2.416 1.469-2.416.651 0 1 .494 1 1.408.005 1.425-.617 2.426-1.499 2.426z" class="cls-1" data-name="Path 245" transform="translate(-65.875 -40.888)"/>
                                </g>
                                <g id="Group_121" data-name="Group 121" transform="translate(.545)">
                                    <path fill="#fff" id="Path_246" d="M79.278 49.72h-1.894l1.086-6.8-2.423 6.8h-1.291l-.156-6.761-1.144 6.761h-1.772l1.481-8.847h2.723l.076 5.477 1.836-5.477h2.941z" class="cls-4" data-name="Path 246" transform="translate(-71.684 -40.653)"/>
                                    <path fill="#fff" id="Path_247" d="M83.941 46.516a3.045 3.045 0 0 0-.423-.031c-1.073 0-1.616.369-1.616 1.1a.662.662 0 0 0 .68.734c.77-.004 1.327-.739 1.359-1.803zm1.378 3.2H83.75l.036-.744a2.378 2.378 0 0 1-1.985.869 1.77 1.77 0 0 1-1.729-1.966c0-1.752 1.224-2.773 3.325-2.773a6.426 6.426 0 0 1 .771.057 1.766 1.766 0 0 0 .074-.469c0-.477-.33-.652-1.215-.652a6.265 6.265 0 0 0-2 .322l.263-1.618a7.574 7.574 0 0 1 2.267-.382c1.626 0 2.487.73 2.486 2.111a9.39 9.39 0 0 1-.153 1.425c-.17 1.046-.523 3.281-.571 3.824z" class="cls-4" data-name="Path 247" transform="translate(-70.792 -40.653)"/>
                                    <path fill="#fff" id="Path_248" d="M110.72 41.112l-.312 1.92a3.609 3.609 0 0 0-1.69-.478c-1.414 0-2.406 1.367-2.406 3.315 0 1.343.666 2.154 1.769 2.154a3.672 3.672 0 0 0 1.608-.454l-.335 2.017a5.939 5.939 0 0 1-1.674.259c-2.039 0-3.309-1.466-3.309-3.819 0-3.164 1.755-5.373 4.266-5.373a6.557 6.557 0 0 1 2.083.459z" class="cls-4" data-name="Path 248" transform="translate(-68.18 -40.653)"/>
                                    <path fill="#fff" id="Path_249" d="M113.772 46.516a3 3 0 0 0-.42-.031c-1.073 0-1.616.369-1.616 1.1a.662.662 0 0 0 .679.734c.769-.004 1.327-.739 1.357-1.803zm1.381 3.2h-1.57l.036-.744a2.377 2.377 0 0 1-1.985.869 1.77 1.77 0 0 1-1.729-1.966c0-1.752 1.224-2.773 3.324-2.773a6.383 6.383 0 0 1 .771.057 1.736 1.736 0 0 0 .075-.469c0-.477-.33-.652-1.215-.652a6.29 6.29 0 0 0-2.006.322c.021-.119.265-1.618.265-1.618a7.564 7.564 0 0 1 2.267-.382c1.625 0 2.486.73 2.484 2.111a9.115 9.115 0 0 1-.152 1.425c-.164 1.046-.518 3.281-.565 3.824z" class="cls-4" data-name="Path 249" transform="translate(-67.618 -40.653)"/>
                                    <path fill="#fff" id="Path_250" d="M93.735 49.612a4.36 4.36 0 0 1-1.36.233 1.385 1.385 0 0 1-1.5-1.58 16.522 16.522 0 0 1 .259-1.918c.109-.673.821-4.911.821-4.911h1.883l-.221 1.09h.967l-.258 1.729h-.969c-.219 1.369-.531 3.074-.534 3.3 0 .372.2.533.648.533a1.545 1.545 0 0 0 .511-.067z" class="cls-4" data-name="Path 250" transform="translate(-69.731 -40.653)"/>
                                    <path fill="#fff" id="Path_251" d="M99.509 49.555a6.473 6.473 0 0 1-1.933.29 2.861 2.861 0 0 1-3.206-3.21c0-2.46 1.4-4.271 3.293-4.271a2.4 2.4 0 0 1 2.544 2.605 7.727 7.727 0 0 1-.231 1.77h-3.749c-.126 1.044.541 1.479 1.636 1.479a4.475 4.475 0 0 0 1.959-.453zm-1.06-4.268c.011-.15.2-1.284-.877-1.284-.6 0-1.027.458-1.2 1.284z" class="cls-4" data-name="Path 251" transform="translate(-69.277 -40.653)"/>
                                    <path fill="#fff" id="Path_252" d="M86.454 44.8a2.1 2.1 0 0 0 1.443 2.01c.767.361.885.467.885.8 0 .447-.338.65-1.087.65a5.345 5.345 0 0 1-1.7-.283l-.26 1.661a8.766 8.766 0 0 0 1.97.213c2 0 2.922-.761 2.922-2.405a1.969 1.969 0 0 0-1.335-2c-.794-.365-.885-.445-.885-.782 0-.39.314-.589.927-.589a10.636 10.636 0 0 1 1.36.108l.27-1.669a13.141 13.141 0 0 0-1.667-.141c-2.115-.009-2.85 1.098-2.843 2.427z" class="cls-4" data-name="Path 252" transform="translate(-70.211 -40.653)"/>
                                    <path fill="#fff" id="Path_253" d="M125.177 49.72h-1.791l.088-.669a2.233 2.233 0 0 1-1.746.794c-1.377 0-2.287-1.186-2.287-2.985 0-2.394 1.412-4.41 3.082-4.41a2.139 2.139 0 0 1 1.809.98l.42-2.557h1.869zm-2.795-1.662c.883 0 1.5-1 1.5-2.425 0-.914-.354-1.41-1-1.41-.86 0-1.47 1-1.47 2.418-.001.941.325 1.417.97 1.417z" class="cls-4" data-name="Path 253" transform="translate(-66.42 -40.653)"/>
                                    <path fill="#fff" id="Path_254" d="M116.856 42.526c-.234 2.227-.656 4.482-.986 6.711l-.085.483h1.894c.678-4.4.84-5.259 1.9-5.151a6.983 6.983 0 0 1 .72-2.086c-.793-.166-1.236.282-1.816 1.134a6.547 6.547 0 0 0 .113-1.091z" class="cls-4" data-name="Path 254" transform="translate(-66.42 -40.653)"/>
                                    <path fill="#fff" id="Path_255" d="M101.268 42.526c-.237 2.227-.658 4.482-.988 6.711l-.086.483h1.895c.678-4.4.842-5.259 1.9-5.151a7.045 7.045 0 0 1 .719-2.086c-.792-.166-1.234.282-1.814 1.134a6.443 6.443 0 0 0 .113-1.091z" class="cls-4" data-name="Path 255" transform="translate(-68.737 -40.653)"/>
                                    <g id="Group_120" data-name="Group 120" transform="translate(59.587 7.94)">
                                        <path fill="#fff" id="Path_256" d="M126.007 49.156a.563.563 0 1 1 .563.563.564.564 0 0 1-.563-.563zm.562.429a.428.428 0 1 0-.428-.429.429.429 0 0 0 .428.429zm-.075-.181h-.116v-.495h.21a.236.236 0 0 1 .127.025.15.15 0 0 1 .063.124.135.135 0 0 1-.085.128l.091.218h-.13l-.074-.2h-.086zm0-.281h.063a.136.136 0 0 0 .07-.01.068.068 0 0 0 .029-.057.067.067 0 0 0-.027-.051.158.158 0 0 0-.074-.009h-.061z" class="cls-4" data-name="Path 256" transform="translate(-126.007 -48.593)"/>
                                    </g>
                                </g>
                            </g>
                        </g>
                    </g>
                </g>
            </g>
            <g id="Group_127" data-name="Group 127" transform="translate(79.376 39.785)">
                <path fill="#fcb131" id="Path_257" d="M133.983 68.858h-.3v-.166h.789v.166h-.305v.823h-.182z" class="cls-3" data-name="Path 257" transform="translate(-133.681 -68.692)"/>
                <path fill="#fcb131" id="Path_258" d="M134.7 68.692h.28l.26.668.255-.668h.281v.989h-.18v-.757h-.006l-.28.757h-.146l-.277-.757h-.006v.757h-.181z" class="cls-3" data-name="Path 258" transform="translate(-133.681 -68.692)"/>
            </g>
        </g>
    </g>
</svg>
