<?xml version="1.0" encoding="UTF-8"?>
<svg width="98px" height="35px" viewBox="0 0 98 35" version="1.1" xmlns="http://www.w3.org/2000/svg" xmlns:xlink="http://www.w3.org/1999/xlink">
    <!-- Generator: Sketch 52.5 (67469) - http://www.bohemiancoding.com/sketch -->
    <title>Slice 1</title>
    <desc>Created with Sketch.</desc>
    <g id="Page-1" stroke="none" stroke-width="1" fill="none" fill-rule="evenodd">
        <g id="mts">
            <path d="M97.6,21.4 C97.6,21.4 95.5,21.7 93,21.7 C90,21.7 89.4,20.7 89.4,18.4 L89.4,15.5 C89.4,13.1 89.9,12.1 93,12.1 C95.2,12.1 97.3,12.4 97.3,12.4 L97.7,8 C97.7,8 95,7.6 92.6,7.6 C86.3,7.6 84.1,9.7 84.1,14.7 L84.1,19.1 C84.1,24.6 86.9,26.2 92.6,26.2 C94.9,26.2 98,25.8 98,25.8 L97.6,21.4 Z" id="Path" fill="#E30613"></path>
            <polygon id="Path" fill="#E30613" points="66.3 12.5 71.5 12.5 71.5 25.9 76.9 25.9 76.9 12.5 82.1 12.5 82.4 8 66 8"></polygon>
            <polygon id="Path" fill="#E30613" points="55.3 24.1 58.2 17.3 58.5 17.3 59.1 25.9 64.3 25.9 63.1 8 58.1 8 53.8 18.2 53.5 18.2 48.9 8 44 8 42.8 25.9 47.9 25.9 48.4 17.3 48.7 17.3 51.9 24.1"></polygon>
            <g id="XMLID_1_">
                <g id="Group">
                    <path d="M35,3.5 L35,31.5 C35,33.4 33.4,35 31.5,35 L3.5,35 C1.6,35 0,33.4 0,31.5 L0,3.5 C0,1.6 1.6,0 3.5,0 L31.5,0 C33.4,0 35,1.6 35,3.5 Z M17.5,30.4 C24,30.4 27,25.2 27,20 C27,12.7 22,4.5 17.5,4.5 C13.1,4.5 8,12.8 8,20.1 C8,25.2 10.9,30.4 17.5,30.4 Z" id="Shape" fill="#E30613" fill-rule="nonzero"></path>
                    <path d="M27,20 C27,25.2 24,30.4 17.5,30.4 C10.9,30.4 8,25.2 8,20.1 C8,12.8 13.1,4.5 17.5,4.5 C22,4.5 27,12.7 27,20 Z" id="Path" fill="#FFFFFF"></path>
                </g>
            </g>
        </g>
    </g>
</svg>