<?xml version="1.0" encoding="UTF-8"?>
<svg width="45px" height="52px" viewBox="0 0 45 52" version="1.1" xmlns="http://www.w3.org/2000/svg" xmlns:xlink="http://www.w3.org/1999/xlink">
    <!-- Generator: Sketch 52.5 (67469) - http://www.bohemiancoding.com/sketch -->
    <title>Untitled</title>
    <desc>Created with Sketch.</desc>
    <defs>
        <polygon id="path-1" points="0.0680064815 0.0448450382 10.9428611 0.0448450382 10.9428611 12.9102802 0.0680064815 12.9102802"></polygon>
        <polygon id="path-3" points="0.0680064815 0.0625290076 10.9428611 0.0625290076 10.9428611 12.9284603 0.0680064815 12.9284603"></polygon>
        <polygon id="path-5" points="0.0848731481 0.03507 10.9597991 0.03507 10.9597991 13 0.0848731481 13"></polygon>
    </defs>
    <g id="Page-1" stroke="none" stroke-width="1" fill="none" fill-rule="evenodd">
        <g id="Group-20">
            <path d="M18.5600813,27.2898524 C18.5600813,26.0624184 19.5958772,25.0638802 20.8687296,25.0638802 L24.1313734,25.0638802 C25.4041228,25.0638802 26.4396096,26.0624184 26.4396096,27.2898524 L26.4396096,30.4952881 L25.6255198,30.4952881 L25.6255198,27.1833523 C25.6255198,26.7676838 25.2760649,26.4307976 24.8450155,26.4307976 C24.4140692,26.4307976 24.0650264,26.7676838 24.0650264,27.1833523 L24.0650264,30.4952881 L20.9345615,30.4952881 L20.9345615,27.1833523 C20.9345615,26.7676838 20.5856217,26.4307976 20.1546754,26.4307976 C19.723626,26.4307976 19.3745832,26.7676838 19.3745832,27.1833523 L19.3745832,30.4952881 L18.5600813,30.4952881 L18.5600813,27.2898524 Z M22.499897,19.5047119 C23.6594238,19.5047119 24.6024988,20.414235 24.6024988,21.5319898 C24.6024988,22.6451746 23.6649871,23.5595657 22.4982486,23.5595657 C21.339855,23.5583735 20.3976042,22.6494465 20.3976042,21.5319898 C20.3976042,20.414235 21.3406792,19.5047119 22.499897,19.5047119 Z M17,27.2898524 L17,30.7403775 C17,31.4349134 17.5859963,32 18.306232,32 L26.6938711,32 C27.4140037,32 28,31.4349134 28,30.7403775 L28,27.2898524 C28,25.6425773 26.8866276,24.2423787 25.3478721,23.7493188 C25.8572191,23.1428044 26.1627861,22.3712745 26.1627861,21.5319898 C26.1627861,19.5844877 24.5196681,18 22.5003091,18 C20.4803319,18 18.8372139,19.5844877 18.8372139,21.5319898 C18.8372139,22.3712745 19.1428839,23.1428044 19.6521279,23.7493188 C18.1134754,24.2423787 17,25.6429747 17,27.2898524 Z" id="Fill-1" fill="#FF006A"></path>
            <path d="M18.5600813,9.20359998 C18.5600813,7.90584885 19.5958772,6.85002106 20.8687296,6.85002106 L22.499897,6.85002106 L24.1313734,6.85002106 C25.4041228,6.85002106 26.4396096,7.90584885 26.4396096,9.20359998 L26.4396096,11.4089575 L25.6255198,11.4089575 L25.6255198,9.09056937 C25.6255198,8.65157779 25.276477,8.29525823 24.8454276,8.29525823 C24.4144813,8.29525823 24.0650264,8.65157779 24.0650264,9.09056937 L24.0650264,11.4089575 L20.9345615,11.4089575 L20.9345615,9.09056937 C20.9345615,8.65157779 20.5856217,8.29525823 20.1546754,8.29525823 C19.723626,8.29525823 19.3745832,8.65157779 19.3745832,9.09056937 L19.3745832,11.4089575 L18.5600813,11.4089575 L18.5600813,9.20359998 Z M17,9.20359998 L17,11.6682136 C17,12.4024924 17.5859963,13 18.306232,13 L26.6938711,13 C27.4140037,13 28,12.4024924 28,11.6682136 L28,9.20359998 C28,7.4622352 26.8866276,5.98138708 25.3478721,5.46003863 C25.856807,4.8186214 26.1627861,4.00282609 26.1627861,3.1153887 C26.1627861,1.95598452 25.6472577,0.881353303 24.7482767,0.167978856 C24.4080939,-0.101886989 23.9180122,-0.0401193298 23.6533454,0.306745996 C23.3886787,0.653611321 23.4496685,1.15332009 23.7895422,1.42318593 C24.3065129,1.83307948 24.6024988,2.45033589 24.6024988,3.1153887 C24.6024988,4.29569724 23.6617934,5.25929373 22.4990728,5.25929373 C21.3402671,5.25887354 20.3976042,4.29727294 20.3976042,3.1153887 C20.3976042,2.48836292 20.6662889,1.894532 21.1354569,1.48579397 C21.4627618,1.20038116 21.5012925,0.698256313 21.2213783,0.364101679 C20.9414641,0.0303672339 20.4490128,-0.00902540602 20.1212958,0.276492448 C19.3055576,0.987871001 18.8372139,2.02279444 18.8372139,3.1153887 C18.8372139,4.00282609 19.1428839,4.8186214 19.6521279,5.46045881 C18.1134754,5.98138708 17,7.4622352 17,9.20359998 Z" id="Fill-3" fill="#FF006A"></path>
            <g id="Group-7" transform="translate(34.000000, 9.000000)">
                <mask id="mask-2" fill="white">
                    <use xlink:href="#path-1"></use>
                </mask>
                <g id="Clip-6"></g>
                <path d="M1.61065463,9.32426489 C1.61065463,8.09829542 2.63436759,7.10086794 3.89264537,7.10086794 L7.11819167,7.10086794 C8.3765713,7.10086794 9.40018241,8.09829542 9.40018241,9.32426489 L9.40018241,11.4076389 L8.59534907,11.4076389 L8.59534907,9.21748626 C8.59534907,8.80277634 8.250275,8.46616565 7.8242287,8.46616565 C7.39808056,8.46616565 7.05270093,8.80277634 7.05270093,9.21748626 L7.05270093,11.4076389 L3.95783056,11.4076389 L3.95783056,9.21748626 C3.95783056,8.80277634 3.61275648,8.46616565 3.18671019,8.46616565 C2.76066389,8.46616565 2.41548796,8.80277634 2.41548796,9.21748626 L2.41548796,11.4076389 L1.61024722,11.4076389 L1.61024722,9.32426489 L1.61065463,9.32426489 Z M5.50567315,1.54748626 C6.65160833,1.54748626 7.58396019,2.45589847 7.58396019,3.57280687 C7.58396019,4.68931832 6.65160833,5.59782977 5.50567315,5.59782977 C4.3592287,5.59782977 3.42687685,4.68931832 3.42687685,3.57280687 C3.42687685,2.45589847 4.3592287,1.54748626 5.50567315,1.54748626 Z M0.0680064815,9.32426489 L0.0680064815,11.652158 C0.0680064815,12.3458221 0.647339815,12.9102802 1.35928426,12.9102802 L9.65155278,12.9102802 C10.3635991,12.9102802 10.9429324,12.3458221 10.9429324,11.652158 L10.9429324,9.32426489 C10.9429324,7.67882214 9.842525,6.28028015 8.32136759,5.7877687 C8.82441389,5.18143282 9.12660833,4.41115802 9.12660833,3.57280687 C9.12660833,1.62717328 7.50217315,0.0448450382 5.50567315,0.0448450382 C3.50917315,0.0448450382 1.88463611,1.62757023 1.88463611,3.57280687 C1.88463611,4.41115802 2.18683056,5.18143282 2.6899787,5.7877687 C1.16871944,6.28028015 0.0680064815,7.67882214 0.0680064815,9.32426489 Z" id="Fill-5" fill="#FF006A" mask="url(#mask-2)"></path>
            </g>
            <path d="M1.55999288,18.3764771 C1.55999288,17.1376847 2.59590151,16.1298248 3.86866284,16.1298248 L7.13133716,16.1298248 C8.40420152,16.1298248 9.43959502,17.1376847 9.43959502,18.3764771 L9.43959502,20.481642 L8.62549756,20.481642 L8.62549756,18.2685817 C8.62549756,17.8495341 8.27603937,17.5094027 7.84508902,17.5094027 C7.41403565,17.5094027 7.06509258,17.8495341 7.06509258,18.2685817 L7.06509258,20.481642 L3.93459835,20.481642 L3.93459835,18.2685817 C3.93459835,17.8495341 3.58555226,17.5094027 3.15460191,17.5094027 C2.72354853,17.5094027 2.37450244,17.8495341 2.37450244,18.2685817 L2.37450244,20.481642 L1.55999288,20.481642 L1.55999288,18.3764771 Z M5.49984546,10.518358 C6.65938317,10.518358 7.60246696,11.4362716 7.60246696,12.5648622 C7.60246696,13.6930517 6.65938317,14.6110657 5.49984546,14.6110657 C4.34061683,14.6110657 3.39753304,13.6930517 3.39753304,12.5648622 C3.39753304,11.4362716 4.34061683,10.518358 5.49984546,10.518358 Z M0,18.3764771 L0,20.7287186 C0,21.4296381 0.586001817,22 1.30614118,22 L9.69385882,22 C10.4139982,22 11,21.4296381 11,20.7287186 L11,18.3764771 C11,16.713824 9.88661715,15.3006541 8.34795029,14.8029913 C8.85678696,14.1903135 9.16287194,13.411982 9.16287194,12.5648622 C9.16287194,10.5988785 7.51973851,9 5.50025756,9 C3.48026149,9 1.83712806,10.5992796 1.83712806,12.5648622 C1.83712806,13.411982 2.14280095,14.1907146 2.65204971,14.8029913 C1.11297075,15.3006541 0,16.713824 0,18.3764771 Z" id="Fill-8" fill="#FF006A"></path>
            <g id="Group-12" transform="translate(34.000000, 28.000000)">
                <mask id="mask-4" fill="white">
                    <use xlink:href="#path-3"></use>
                </mask>
                <g id="Clip-11"></g>
                <path d="M1.61065463,9.34204809 C1.61065463,8.11597939 2.63436759,7.11865115 3.89264537,7.11865115 L7.11819167,7.11865115 C8.3765713,7.11865115 9.40018241,8.11597939 9.40018241,9.34204809 L9.40018241,11.4254221 L8.59534907,11.4254221 L8.59534907,9.23526947 C8.59534907,8.82006336 8.250275,8.48394885 7.8242287,8.48394885 C7.39808056,8.48394885 7.05270093,8.82006336 7.05270093,9.23526947 L7.05270093,11.4254221 L3.95783056,11.4254221 L3.95783056,9.23526947 C3.95783056,8.82006336 3.61275648,8.48394885 3.18671019,8.48394885 C2.76066389,8.48394885 2.41548796,8.82006336 2.41548796,9.23526947 L2.41548796,11.4254221 L1.61024722,11.4254221 L1.61024722,9.34204809 L1.61065463,9.34204809 Z M5.50567315,1.56526947 C6.65160833,1.56526947 7.58396019,2.47358244 7.58396019,3.59059008 C7.58396019,4.70710153 6.65160833,5.61551374 5.50567315,5.61551374 C4.3592287,5.61551374 3.42687685,4.70710153 3.42687685,3.59059008 C3.42687685,2.47358244 4.3592287,1.56526947 5.50567315,1.56526947 Z M0.0680064815,11.6699412 C0.0680064815,12.3640023 0.647339815,12.9284603 1.35928426,12.9284603 L9.65155278,12.9284603 C10.3635991,12.9284603 10.9429324,12.3640023 10.9429324,11.6699412 L10.9429324,9.34204809 C10.9429324,7.69660534 9.842525,6.29796412 8.32136759,5.80545267 C8.82441389,5.19921603 9.12660833,4.42894122 9.12660833,3.59059008 C9.12660833,1.6452542 7.50217315,0.0625290076 5.50567315,0.0625290076 C3.50917315,0.0625290076 1.88463611,1.6452542 1.88463611,3.59059008 C1.88463611,4.42894122 2.18683056,5.19921603 2.6899787,5.80545267 C1.16871944,6.29796412 0.0680064815,7.69660534 0.0680064815,9.34204809 L0.0680064815,11.6699412 Z" id="Fill-10" fill="#FF006A" mask="url(#mask-4)"></path>
            </g>
            <path d="M1.55999288,37.3762158 C1.55999288,36.1373709 2.59590151,35.1296501 3.86866284,35.1296501 L7.13133716,35.1296501 C8.40420152,35.1296501 9.43959502,36.1373709 9.43959502,37.3762158 L9.43959502,39.4812995 L8.62549756,39.4812995 L8.62549756,37.2683245 C8.62549756,36.8487917 8.27603937,36.5091748 7.84508902,36.5091748 C7.41403565,36.5091748 7.06509258,36.8487917 7.06509258,37.2683245 L7.06509258,39.4812995 L3.93459835,39.4812995 L3.93459835,37.2683245 C3.93459835,36.8487917 3.58555226,36.5091748 3.15460191,36.5091748 C2.72354853,36.5091748 2.37450244,36.8487917 2.37450244,37.2683245 L2.37450244,39.4812995 L1.55999288,39.4812995 L1.55999288,37.3762158 Z M5.49984546,29.5183997 C6.65938317,29.5183997 7.60246696,30.4361777 7.60246696,31.564825 C7.60246696,32.692971 6.65938317,33.6108493 5.49984546,33.6108493 C4.34061683,33.6108493 3.39753304,32.692971 3.39753304,31.564825 C3.39753304,30.4361777 4.34061683,29.5183997 5.49984546,29.5183997 Z M0,39.7283666 C0,40.4296601 0.586001817,41 1.30614118,41 L9.69385882,41 C10.4139982,41 11,40.4296601 11,39.7283666 L11,37.3762158 C11,35.7136268 9.88661715,34.3004111 8.34795029,33.8027675 C8.85678696,33.1902136 9.16287194,32.4119122 9.16287194,31.564825 C9.16287194,29.5992179 7.51973851,28 5.50025756,28 C3.48026149,28 1.83712806,29.5992179 1.83712806,31.564825 C1.83712806,32.4119122 2.14280095,33.1902136 2.65204971,33.8027675 C1.11338285,34.3004111 0,35.7136268 0,37.3762158 L0,39.7283666 Z" id="Fill-13" fill="#FF006A"></path>
            <path d="M11.102507,31.7497747 C11.313452,32.1128002 11.7802925,32.2364451 12.1449361,32.0273 L13.5253006,31.2356722 C15.2391659,33.7267918 18.036077,35.4273849 21.2368375,35.6619598 L21.2368375,37.2419115 C21.2368375,37.6608025 21.5787035,38 21.9999888,38 C22.4214757,38 22.7634424,37.6608025 22.7634424,37.2419115 L22.7634424,35.6600576 C25.9339671,35.4266841 28.7512371,33.7501191 30.4781037,31.2376746 L31.8553438,32.0273 C32.2199874,32.2364451 32.6867272,32.1128002 32.8976722,31.7497747 C33.1083149,31.3871497 32.9833403,30.9239068 32.6183943,30.7142611 L31.2434723,29.9258371 C31.6238385,29.1412175 31.9079541,28.2985299 32.0776776,27.4101887 C32.1562907,26.9988066 31.8843702,26.6022418 31.4701399,26.5242504 C31.0561112,26.4460588 30.656898,26.7162755 30.5782849,27.1276576 C29.80697,31.16549 26.2297739,34.1741161 21.9999888,34.1741161 C17.1850404,34.1741161 13.2678933,30.2829556 13.2678933,25.4999499 C13.2678933,20.7170444 17.1850404,16.8254835 21.9999888,16.8254835 C25.1809952,16.8254835 28.0246711,18.5342862 29.5519815,21.1428434 C29.555509,21.1494512 29.5586334,21.1560589 29.562564,21.1627668 C29.5648821,21.1666713 29.5676033,21.1701754 29.5700222,21.17408 C30.0455303,21.9941411 30.3928388,22.9008037 30.5782849,23.8723424 C30.656898,24.2837245 31.0561112,24.5542416 31.4701399,24.4757496 C31.8843702,24.3980585 32.1562907,24.0010933 32.0776776,23.5898113 C31.9083572,22.70137 31.6238385,21.8586824 31.2434723,21.0741629 L32.6183943,20.2857389 C32.9833403,20.0760932 33.1083149,19.6124498 32.8976722,19.2501251 C32.6871303,18.8871998 32.2199874,18.7634548 31.8553438,18.9725999 L30.4781037,19.7623254 C28.7512371,17.2497807 25.9339671,15.573416 22.7634424,15.3399424 L22.7634424,13.7579884 C22.7634424,13.339598 22.4218788,13 22.0002911,13 C21.5787035,13 21.2368375,13.339598 21.2368375,13.7579884 L21.2368375,15.3376397 C18.036077,15.5726151 15.239569,17.2732082 13.5253006,19.7642277 L12.1449361,18.9725999 C11.7798894,18.7634548 11.3130488,18.8871998 11.102507,19.2501251 C10.8918643,19.6124498 11.0168389,20.0760932 11.3817848,20.2857389 L12.7598313,21.0760651 C11.403857,23.8591269 11.39912,27.1311617 12.7598313,29.9243353 L11.3817848,30.7146616 C11.0168389,30.9239068 10.8914612,31.3875502 11.102507,31.7497747" id="Fill-15" fill="#FF006A"></path>
            <g id="Group-19" transform="translate(17.000000, 39.000000)">
                <mask id="mask-6" fill="white">
                    <use xlink:href="#path-5"></use>
                </mask>
                <g id="Clip-18"></g>
                <path d="M1.62721574,9.38637 C1.62721574,8.15097 2.65123426,7.14547 3.90961389,7.14547 L7.13516019,7.14547 C8.39343796,7.14547 9.41715093,8.15097 9.41715093,9.38637 L9.41715093,11.48537 L8.61231759,11.48537 L8.61231759,9.27877 C8.61231759,8.86037 8.26683611,8.52127 7.84068796,8.52127 C7.41464167,8.52127 7.06956759,8.86037 7.06956759,9.27877 L7.06956759,11.48537 L3.97469722,11.48537 L3.97469722,9.27877 C3.97469722,8.86037 3.629725,8.52127 3.2036787,8.52127 C2.77753056,8.52127 2.43245648,8.86037 2.43245648,9.27877 L2.43245648,11.48537 L1.62721574,11.48537 L1.62721574,9.38637 Z M5.52223426,1.54937 C6.66857685,1.54937 7.6009287,2.46517 7.6009287,3.59027 C7.6009287,4.71577 6.66857685,5.63117 5.52223426,5.63117 C4.37619722,5.63117 3.44384537,4.71577 3.44384537,3.59027 C3.44384537,2.46517 4.37619722,1.54937 5.52223426,1.54937 Z M0.0848731481,9.38637 L0.0848731481,11.73177 C0.0848731481,12.43117 0.664206481,13.00007 1.37625278,13.00007 L9.6685213,13.00007 C10.3804657,13.00007 10.9597991,12.43117 10.9597991,11.73177 L10.9597991,9.38637 C10.9597991,7.72827 9.85908611,6.31847 8.33782685,5.82217 C8.840975,5.21177 9.143475,4.43507 9.143475,3.59027 C9.143475,1.63007 7.51903981,0.03507 5.52264167,0.03507 C3.52563241,0.03507 1.90119722,1.63007 1.90119722,3.59027 C1.90119722,4.43507 2.20339167,5.21177 2.70684537,5.82217 C1.18568796,6.31847 0.0848731481,7.72827 0.0848731481,9.38637 Z" id="Fill-17" fill="#FF006A" mask="url(#mask-6)"></path>
            </g>
        </g>
    </g>
</svg>