<?xml version="1.0" encoding="UTF-8"?>
<svg width="52px" height="52px" viewBox="0 0 52 52" version="1.1" xmlns="http://www.w3.org/2000/svg" xmlns:xlink="http://www.w3.org/1999/xlink">
    <!-- Generator: Sketch 52.5 (67469) - http://www.bohemiancoding.com/sketch -->
    <title>Slice 1</title>
    <desc>Created with Sketch.</desc>
    <g id="Page-1" stroke="none" stroke-width="1" fill="none" fill-rule="evenodd">
        <g id="Group-9" fill="#FF006A">
            <path d="M34.5563238,9.62071832 C30.6151169,11.1995305 27.4883827,11.5322331 25.9978072,11.5918186 C25.99161,11.5917169 25.9854128,11.5917169 25.979114,11.5917169 L24.9713094,11.5917169 C24.9656202,11.5917169 24.9600326,11.5917169 24.9543433,11.5918186 C23.4632598,11.5324365 20.3360177,11.1998355 16.3942012,9.62061663 C13.789453,8.57715875 10.7122963,8.43419424 7.97496891,8.63216856 C9.48830134,7.56420538 10.8608256,6.29704769 12.0462151,4.86120002 C13.5297807,3.06428054 15.7164729,2.03363455 18.0454972,2.03363455 C20.161379,2.03363455 22.2129522,2.91216467 23.6740657,4.44379653 L25.2570911,6.10324232 C25.4488991,6.30416541 25.7142605,6.41784559 25.9918132,6.41784559 C26.2694674,6.41784559 26.5349305,6.30416541 26.7266368,6.10324232 L28.3096622,4.44379653 C29.7708773,2.91216467 31.822349,2.03363455 33.9382307,2.03363455 C36.267255,2.03363455 38.4538456,3.06428054 39.9375128,4.86120002 C41.1631333,6.3459566 42.5887908,7.6503298 44.1633839,8.7404596 C41.1574441,8.41151921 37.5458055,8.42311093 34.5563238,9.62071832 M51.3487667,9.96257228 L49.2723031,9.16233709 C46.2517339,7.99838636 43.5655079,6.06317972 41.5038769,3.5658765 C39.6329364,1.29969584 36.8752903,0 33.9382307,0 C31.2698851,0 28.6829157,1.10782242 26.8401165,3.03947019 L25.9918132,3.9286769 L25.1435099,3.03947019 C23.3009139,1.10782242 20.7137412,0 18.0454972,0 C15.1084376,0 12.3508932,1.29969584 10.4799526,3.5658765 C8.41832167,6.06317972 5.73199407,7.99838636 2.7115264,9.16233709 L0.634961235,9.96257228 C-0.247985335,10.3037145 -0.199119002,11.6151037 0.713086412,11.8862889 C0.734420986,11.8925931 0.756263525,11.8979823 0.778207658,11.902863 C0.78775742,11.9049983 0.797205588,11.9074387 0.806856943,11.909269 C0.827277178,11.9132345 0.847799006,11.9160816 0.86852402,11.9187254 C0.879902459,11.9202506 0.891077712,11.9221825 0.902557745,11.923301 C0.921758861,11.9251313 0.941264757,11.9257414 0.960770653,11.9264532 C0.973469804,11.9269616 0.986168955,11.9280801 0.998868106,11.9281818 L0.999985631,11.9281818 C2.58108073,11.9281818 4.32492814,13.3770447 6.53265014,15.2112814 C7.52887314,16.0389706 8.65798005,16.9770862 9.90930359,17.8883579 C10.3630189,18.2188235 10.9984844,18.1185653 11.3285607,17.664353 C11.6587386,17.2102424 11.5585677,16.5743249 11.1048525,16.2438593 C9.90584942,15.37082 8.85070236,14.4941201 7.83050337,13.6465013 C6.65628907,12.6708651 5.59677351,11.7913181 4.5663136,11.1289634 C7.61553214,10.5736795 12.197589,10.1299404 15.6393637,11.5085413 C20.4293819,13.4274788 24.085315,13.6388751 25.4634269,13.6388751 L25.4874029,13.6388751 C26.8659211,13.6388751 30.5219559,13.4273771 35.3115677,11.5085413 C39.0689925,10.003245 44.185836,10.6701754 47.1830388,11.2831129 C46.2260308,11.9251313 45.2388496,12.744686 44.1536309,13.6463996 C40.7148025,16.5034528 36.4351886,20.0590594 29.4565479,20.9749067 C28.9000203,21.0479142 28.5082769,21.5584582 28.5813225,22.1152673 C28.648374,22.6272348 29.0850216,23 29.5871968,23 C29.6311867,23 29.6757861,22.9971529 29.7205887,22.9912554 C37.28146,21.9990451 42.0036139,18.0757573 45.4513826,15.2111797 C47.6592062,13.3768413 49.4030536,11.9280801 50.9840471,11.9280801 C51.4736248,11.9280801 51.8934079,11.5787017 51.9829115,11.0970353 C52.0720088,10.6155723 51.8056314,10.1384817 51.3487667,9.96257228" id="Fill-1"></path>
            <path d="M26.0104399,21 L25.9857009,21 C25.4392657,21 25,21.4477 25,22 C25,22.5523 25.4469843,23 25.9934194,23 L26.0104399,23 C26.556875,23 27,22.5523 27,22 C27,21.4477 26.5569739,21 26.0104399,21" id="Fill-3"></path>
            <path d="M24.0263158,48.9446021 C24.0263158,49.5061842 23.5836184,49.9630681 23.0394737,49.9630681 L21.2631579,49.9630681 L21.2631579,42.2227268 C21.2631579,41.660228 20.82125,41.2042608 20.2763158,41.2042608 C19.7313816,41.2042608 19.2894737,41.660228 19.2894737,42.2227268 L19.2894737,49.9630681 L13.9605263,49.9630681 C13.4163816,49.9630681 12.9736842,49.5061842 12.9736842,48.9446021 L12.9736842,34.4823855 L24.0263158,34.4823855 L24.0263158,48.9446021 Z M14.75,27.9642033 L14.9473684,27.9642033 L22.0526316,27.9642033 L22.25,27.9642033 L22.25,32.4454535 L14.75,32.4454535 L14.75,27.9642033 Z M15.9341118,18.0590108 C15.9342105,17.5379636 16.2698355,17.2743846 16.4141118,17.185167 C16.5585855,17.0960512 16.9421711,16.9152735 17.3871382,17.161233 L20.5450329,18.9074948 C20.86625,19.0851152 21.0656908,19.429153 21.0656908,19.8051707 L21.0656908,25.9272714 L15.9341118,25.9272714 L15.9341118,18.0590108 Z M24.2236842,32.4557401 L24.2236842,27.9642033 C24.2236842,27.1307926 23.7356908,26.4135889 23.0394737,26.0985774 L23.0394737,19.8053743 C23.0394737,18.6770159 22.4408553,17.6451062 21.4772039,17.1122448 L18.3193092,15.3659831 C17.3929605,14.8537965 16.3017105,14.8805822 15.4003289,15.4376831 C14.49875,15.9946821 13.9605263,16.9747519 13.9605263,18.0591126 L13.9605263,26.0985774 C13.2643092,26.4135889 12.7763158,27.1307926 12.7763158,27.9642033 L12.7763158,32.4557401 C11.7802961,32.5582996 11,33.4279677 11,34.4823855 L11,48.9446021 C11,50.6293485 12.3280921,52 13.9605263,52 L23.0394737,52 C24.6719079,52 26,50.6293485 26,48.9446021 L26,34.4823855 C26,33.4279677 25.2197039,32.5582996 24.2236842,32.4557401 Z" id="Fill-5"></path>
            <path d="M21.7069,38.293 C21.521,38.1071 21.263,38 21,38 C20.737,38 20.479,38.1071 20.293,38.293 C20.107,38.479 20,38.737 20,39 C20,39.263 20.1069,39.521 20.293,39.7071 C20.4791,39.893 20.737,40 21,40 C21.263,40 21.521,39.893 21.7069,39.7071 C21.8929,39.521 22,39.263 22,39 C22,38.737 21.893,38.479 21.7069,38.293" id="Fill-7"></path>
        </g>
    </g>
</svg>