<svg xmlns="http://www.w3.org/2000/svg" width="430" height="140.747" viewBox="0 0 430 140.747">
    <defs>
        <style>
            .cls-1{fill:#fff}
        </style>
    </defs>
    <g id="Сгруппировать_2362" transform="translate(-535.727 -274.607)">
        <path id="Контур_457" d="M591.045 309.587c-1.011-2.021-5.053-12.125-7.074-12.125s-6.063 10.1-7.073 12.125c-2.021 0-12.631 1.011-13.136 3.032-1.01 2.021 7.074 8.589 9.095 10.1-.506 2.526-3.032 12.631-1.515 13.641 2.021 1.517 10.609-4.042 12.63-5.557 2.021 1.515 11.116 7.074 12.631 5.557 1.517-1.01-1.01-11.114-1.515-13.641 2.021-1.515 10.1-8.084 9.095-10.1-.507-2.019-11.117-3.032-13.138-3.032z" class="cls-1" transform="translate(8.847 7.013)"/>
        <path id="Контур_458" d="M631.216 342.929c16.673-14.07 15.662-8.541 4.547-28.14 3.536-21.607 6.063-16.583-15.157-24.622-11.62-18.593-6.568-16.583-28.293-9.547-21.22-7.036-15.663-8.543-27.788 10.05-21.219 7.537-18.188 3.016-15.156 25.125-10.61 19.094-11.116 13.567 5.557 28.14 1.515 7.034 2.021 11.055 3.031 13.567l-22.23 40.2 22.23-5.026 7.579 21.607 23.745-43.716c3.032 2.01 4.547 2.01 7.074.5l23.745 43.216 7.578-21.607 22.232 5.024-22.231-39.7c1.011-3.01 1.521-7.533 3.537-15.071zm-38.4 18.593c-20.713 0-37.892-17.084-37.892-37.687s17.178-37.688 37.892-37.688 37.893 17.085 37.893 37.688-17.177 37.686-37.891 37.686z" class="cls-1" transform="translate(0 .304)"/>
        <path id="Контур_459" d="M587.473 285.95a34.861 34.861 0 1 0 34.861 34.861 34.931 34.931 0 0 0-34.861-34.861zm0 66.185a31.325 31.325 0 1 1 31.327-31.324 31.482 31.482 0 0 1-31.327 31.324z" class="cls-1" transform="translate(5.345 3.591)"/>
        <path id="Контур_460" d="M644.7 339.233h10.442v18.628h4.512v-22.85h-19.5v22.85h4.546z" class="cls-1" transform="translate(32.288 18.615)"/>
        <path id="Контур_461" d="M658.291 335.011v22.85h4.545v-6.188h4.06q9.734 0 9.733-8.444a7.767 7.767 0 0 0-2.353-6.122q-2.352-2.1-6.9-2.1zm13.633 8.347q0 4.319-5.188 4.318h-3.9v-8.6h4.254q4.834-.003 4.834 4.282z" class="cls-1" transform="translate(37.899 18.615)"/>
        <path id="Контур_462" d="M691.463 353.768h-12.7v-5.221h10.248v-3.9h-10.246v-5.511h12.182v-4.125h-16.6v22.85h17.113z" class="cls-1" transform="translate(42.867 18.615)"/>
        <path id="Контур_463" d="M706.438 356.657a5.835 5.835 0 0 0 2.562-5.141 4.9 4.9 0 0 0-1.418-3.593 6.892 6.892 0 0 0-3.609-1.885 5.552 5.552 0 0 0 2.658-1.934 5.427 5.427 0 0 0 1.015-3.352 5.085 5.085 0 0 0-2.353-4.48 11.924 11.924 0 0 0-6.671-1.579 12.553 12.553 0 0 0-5.462 1.048 10.607 10.607 0 0 0-3.755 3.045l3.286 2.965a6.17 6.17 0 0 1 5.706-3.094 6.939 6.939 0 0 1 3.512.757 2.472 2.472 0 0 1 1.289 2.272 2.683 2.683 0 0 1-1.224 2.288 5.508 5.508 0 0 1-3.256.87h-3.608v3.513h4.125a7.258 7.258 0 0 1 3.819.79 2.356 2.356 0 0 1 1.24 2.047q0 3.255-5.059 3.255-5.383 0-7.187-3.158l-3.256 3.029a9.874 9.874 0 0 0 4.013 3.062 16.219 16.219 0 0 0 6.268 1.031q4.803 0 7.365-1.756z" class="cls-1" transform="translate(47.325 18.513)"/>
        <path id="Контур_464" d="M710.962 349.513v-14.471h-4.544v22.979h2.418l13.536-14.567v14.438h4.544v-22.979h-2.386z" class="cls-1" transform="translate(52.774 18.584)"/>
        <path id="Контур_465" d="M745.879 335.011h-17.4v10.926q0 6.059-1.9 7.7h-2.386v9.573h4.158v-5.35h17.109v5.35h4.158v-9.573h-3.739zm-4.543 18.628h-9.991q1.674-2.127 1.676-7.381v-7.025h8.315z" class="cls-1" transform="translate(58.252 18.591)"/>
        <path id="Контур_466" d="M750.245 348.547h10.248v-3.9h-10.248v-5.511h12.182v-4.125h-16.6v22.85h17.113v-4.093h-12.7z" class="cls-1" transform="translate(64.972 18.615)"/>
        <path id="Контур_467" d="M776.368 345.227h-10.475v-10.216h-4.544v22.85h4.544v-8.411h10.475v8.412h4.512v-22.85h-4.512z" class="cls-1" transform="translate(69.761 18.615)"/>
        <path id="Контур_468" d="M778.436 339.3h7.284v18.564h4.641V339.3h7.284v-4.286h-19.209z" class="cls-1" transform="translate(75.046 18.615)"/>
        <path id="Контур_469" d="M805.569 339.011a7.29 7.29 0 0 1 6.317 3.062l3.544-3q-3.576-4.382-9.99-4.383a11.947 11.947 0 0 0-8.685 3.141q-3.241 3.144-3.24 8.622a11.16 11.16 0 0 0 11.925 11.957q6.412 0 9.99-4.351l-3.544-3a7.266 7.266 0 0 1-6.317 3.031 7.06 7.06 0 0 1-5.318-2.063 7.671 7.671 0 0 1-2-5.576 7.359 7.359 0 0 1 2-5.447 7.184 7.184 0 0 1 5.318-1.993z" class="cls-1" transform="translate(79.696 18.513)"/>
        <path id="Контур_470" d="M831.686 335.011h-5.736l-8.992 10.667v-10.667h-4.544v22.85h4.544v-10.667l9.862 10.667h5.962l-10.829-11.731z" class="cls-1" transform="translate(85.28 18.615)"/>
        <path id="Контур_471" d="M834.191 349.513v-14.471h-4.544v22.979h2.418l13.535-14.567v14.438h4.544v-22.979h-2.385z" class="cls-1" transform="translate(90.735 18.584)"/>
        <path id="Контур_472" d="M857.692 334.913a6.2 6.2 0 0 0 4.142-1.322 5.054 5.054 0 0 0 1.66-3.868h-2.9a2.606 2.606 0 0 1-2.9 2.063 2.655 2.655 0 0 1-2.933-2.063h-2.836a4.97 4.97 0 0 0 1.629 3.852 6.148 6.148 0 0 0 4.138 1.338z" class="cls-1" transform="translate(97.786 17.045)"/>
        <path id="Контур_473" d="M853.064 349.513v-14.471h-4.544v22.979h2.418l13.536-14.567v14.438h4.544v-22.979h-2.385z" class="cls-1" transform="translate(96.709 18.584)"/>
        <path id="Контур_474" d="M659.425 364.387h-5.737l-8.988 10.667v-10.667h-4.544v22.85h4.544v-10.668l9.862 10.667h5.962l-10.829-11.731z" class="cls-1" transform="translate(32.286 27.665)"/>
        <path id="Контур_475" d="M660.834 376.473a12.434 12.434 0 0 1-.79 5.156 2.734 2.734 0 0 1-2.658 1.611c-.495 0-.9-.01-1.224-.032v4.029a15.9 15.9 0 0 0 2.062.1 8.4 8.4 0 0 0 2.9-.452 5.568 5.568 0 0 0 2.224-1.564 7.219 7.219 0 0 0 1.5-3.157 21.657 21.657 0 0 0 .5-5.045v-8.508h8.444v18.628h4.545v-22.85h-17.5z" class="cls-1" transform="translate(37.232 27.665)"/>
        <path id="Контур_476" d="M687.18 373.411l-1.451 3.416-1.45-3.384-4.383-9.057h-5.253l8.862 17.016a4.707 4.707 0 0 1-1.755 1.74 5.292 5.292 0 0 1-2.337.452 13.821 13.821 0 0 1-1.58-.129v4.029a14.86 14.86 0 0 0 2.386.194 7.063 7.063 0 0 0 4.721-1.418 15.18 15.18 0 0 0 3.335-4.867l8.38-17.016H691.5z" class="cls-1" transform="translate(42.947 27.665)"/>
        <path id="Контур_477" d="M703.438 372.992h-5.867v-4.545h12.538v-4.06h-17.082v22.85h9.9q4.641 0 6.913-1.789t2.272-5.527q-.004-6.93-8.674-6.929zm-.678 10.377h-5.189V376.8h5.576a5.386 5.386 0 0 1 3.24.773 2.885 2.885 0 0 1 1.015 2.449q-.002 3.348-4.642 3.347z" class="cls-1" transform="translate(48.638 27.665)"/>
        <path id="Контур_478" d="M656.693 332.577l6.45-12.491c11.455 1.407 21.631 5.652 30.782 17.981h14.4l-30.764-62.514h-6.716l-30.69 62.514h7.435c3.71 0 6.91-1.838 9.103-5.49zm17.532-35.54l8.143 17.168a58.424 58.424 0 0 0-14.112-4.611z" class="cls-1" transform="translate(32.185 .299)"/>
        <path id="Контур_479" d="M744.115 281.081l-16.308 35-16.434-35.02a9.569 9.569 0 0 0-8.661-5.5h-8.127l29.9 62.511h6.593l29.895-62.511h-8.188a9.569 9.569 0 0 0-8.67 5.52z" class="cls-1" transform="translate(48.968 .3)"/>
        <path id="Контур_480" d="M871.3 275.554a6.578 6.578 0 0 0-6.579 6.585l.037 32.974-32.642-39.558h-9.683v62.51h5.977a6.577 6.577 0 0 0 6.579-6.585l-.036-32.907 26.757 32.537s5.237 6.953 12.889 6.953h2.677v-62.51z" class="cls-1" transform="translate(88.451 .3)"/>
        <path id="Контур_481" d="M787.811 339.97a33.271 33.271 0 0 0 23.454-9.526 31.785 31.785 0 0 0 9.828-23.18 32.643 32.643 0 0 0-33.282-32.656 32.812 32.812 0 0 0-23.512 9.336 32.729 32.729 0 0 0 0 46.474 32.912 32.912 0 0 0 23.512 9.552zm0-53.24a20.52 20.52 0 1 1-20.511 20.533 20.558 20.558 0 0 1 20.511-20.533z" class="cls-1" transform="translate(67.474)"/>
    </g>
</svg>
