<svg xmlns="http://www.w3.org/2000/svg" width="23.078" height="22.145" viewBox="0 0 23.078 22.145">
    <g id="print" transform="translate(0 -.5)">
        <path fill="#a2acae" id="Path_267" d="M20.8 7.83h-2.31V1.178A.678.678 0 0 0 17.814.5H5.264a.678.678 0 0 0-.678.678V7.83H2.277A2.279 2.279 0 0 0 0 10.107v7.423a2.279 2.279 0 0 0 2.277 2.277h2.588v2.164a.678.678 0 0 0 .678.678h11.993a.678.678 0 0 0 .678-.678v-2.164H20.8a2.279 2.279 0 0 0 2.277-2.277v-7.423A2.279 2.279 0 0 0 20.8 7.83zM5.942 1.855h11.194V7.83H5.942zm-3.665 7.33H20.8a.923.923 0 0 1 .921.922v.655H1.355v-.655a.923.923 0 0 1 .922-.922zM16.859 21.29H6.22v-6.441h10.639zm3.941-2.838h-2.586v-4.28a.678.678 0 0 0-.678-.678H5.542a.678.678 0 0 0-.678.678v4.283H2.277a.923.923 0 0 1-.922-.922v-5.416h20.368v5.413a.923.923 0 0 1-.923.922zm0 0" class="cls-1" data-name="Path 267"/>
        <path fill="#a2acae" id="Path_268" d="M172.721 405.961h6.214a.678.678 0 0 0 0-1.355h-6.214a.678.678 0 1 0 0 1.355zm0 0" class="cls-1" data-name="Path 268" transform="translate(-164.288 -385.891)"/>
        <path fill="#a2acae" id="Path_269" d="M172.721 344.828h6.214a.678.678 0 0 0 0-1.355h-6.214a.678.678 0 0 0 0 1.355zm0 0" class="cls-1" data-name="Path 269" transform="translate(-164.288 -327.513)"/>
    </g>
</svg>
