<?xml version="1.0" encoding="UTF-8"?>
<svg width="62px" height="40px" viewBox="0 0 62 40" version="1.1" xmlns="http://www.w3.org/2000/svg" xmlns:xlink="http://www.w3.org/1999/xlink">
    <!-- Generator: Sketch 52.5 (67469) - http://www.bohemiancoding.com/sketch -->
    <title>Untitled</title>
    <desc>Created with Sketch.</desc>
    <defs>
        <polygon id="path-1" points="0 0.0535357143 15.9108235 0.0535357143 15.9108235 34.2857143 0 34.2857143"></polygon>
        <polygon id="path-3" points="0.0890160584 0.0535714286 15.8836788 0.0535714286 15.8836788 34.2857143 0.0890160584 34.2857143"></polygon>
    </defs>
    <g id="Page-1" stroke="none" stroke-width="1" fill="none" fill-rule="evenodd">
        <g id="Group-9">
            <path d="M30.4998792,17.1758605 C27.2605317,17.1759795 24.6250649,14.5800189 24.6250649,11.3892299 L24.6250649,10.9877178 C25.1906365,10.766904 25.742673,10.4155066 26.271144,9.93519194 C26.6388864,9.60081678 26.6619685,9.03598583 26.3223839,8.67363695 C25.9829201,8.31140711 25.4096142,8.28867103 25.0416301,8.62304619 C24.5883269,9.0352716 24.1353863,9.30155755 23.695739,9.41464278 C23.6851043,9.41738063 23.6772491,9.41857101 23.6716901,9.41904715 C23.6651643,9.40654826 23.6563423,9.3803601 23.6563423,9.33834001 L23.6563423,7.57242491 C23.6563423,4.38163594 26.2918091,1.78567526 29.5311566,1.78567526 L31.4686017,1.78567526 C34.70807,1.78567526 37.343416,4.38163594 37.343416,7.57242491 L37.343416,7.76705054 C37.343416,7.79597655 37.3257721,7.82109337 37.3025692,7.82561678 C31.8751365,8.88147569 29.1529004,6.8915328 28.2344508,5.98685098 C27.8804852,5.63819137 27.3065751,5.63819137 26.9527303,5.98685098 C26.5987647,6.33551059 26.5987647,6.90081769 26.9527303,7.24935827 C29.7672948,10.0217319 33.8743353,10.0717275 36.3746934,9.77580129 L36.3746934,11.3891109 C36.3746934,14.5798998 33.7392266,17.1758605 30.4998792,17.1758605 Z M30.4997583,23.4856591 L27.1303778,20.1666672 C27.3865769,19.7420619 27.5312327,19.2507959 27.5312327,18.7369128 L27.5312327,18.3736116 C28.4452108,18.7519115 29.4481336,18.9615358 30.4998792,18.9615358 C31.5516247,18.9615358 32.5544266,18.7520305 33.4682839,18.3737307 L33.4682839,18.7369128 C33.4682839,19.2509149 33.6129398,19.7420619 33.8692597,20.1666672 L30.4997583,23.4856591 Z M41.160299,21.9707932 L35.8934742,19.6650449 C35.5213813,19.5020831 35.2811342,19.1378297 35.2811342,18.7369128 L35.2811342,17.312277 C37.0503581,15.9237094 38.1875436,13.7854463 38.1875436,11.3892299 L38.1875436,9.38381218 C38.7703966,9.06657836 39.1562662,8.45353739 39.1562662,7.7669315 L39.1562662,7.57230587 C39.1562662,3.3969612 35.707609,0 31.4687226,0 L29.5312774,0 C25.292391,0 21.8437338,3.3969612 21.8437338,7.57230587 L21.8437338,9.33822098 C21.8437338,9.94173898 22.1074255,10.4884763 22.5670128,10.8383263 C22.6449602,10.8976067 22.7270164,10.949745 22.8124564,10.99486 L22.8124564,11.3891109 C22.8124564,13.7853273 23.9495211,15.9235904 25.7186241,17.3120389 L25.7186241,18.7367938 C25.7186241,19.1377106 25.4782562,19.5020831 25.1062841,19.6649259 L19.8394593,21.9706741 C18.1145869,22.7257264 17,24.4151006 17,26.2743408 L17,38.1071029 C17,38.6001544 17.4058097,38.999881 17.9063647,38.999881 C18.4069197,38.999881 18.8127294,38.6001544 18.8127294,38.1071029 L18.8127294,26.2744598 C18.8127294,26.1710166 18.820222,26.0687638 18.8310984,25.9673442 L21.2579805,28.3578468 C21.6356324,28.7299567 21.8437338,29.2245558 21.8437338,29.7508188 L21.8437338,38.1071029 C21.8437338,38.6002735 22.2495435,38.999881 22.7500985,38.999881 C23.2506535,38.999881 23.6564632,38.6002735 23.6564632,38.1071029 L23.6564632,29.7508188 C23.6564632,28.7475742 23.2599588,27.8046815 22.5398219,27.0953395 L19.6465849,24.2453537 C19.9072554,23.9789487 20.2200116,23.7580159 20.57579,23.6023154 L25.7537911,21.3354923 L29.5937562,25.1178955 L29.5937562,38.1069838 C29.5937562,38.6001544 29.9995658,38.9997619 30.5001208,38.9997619 C31.0006759,38.9997619 31.4064855,38.6001544 31.4064855,38.1069838 L31.4064855,25.1180146 L35.2464506,21.3356113 L40.4243309,23.6023154 C40.7801092,23.7580159 41.0928655,23.9789487 41.3535359,24.2454728 L38.460299,27.0953395 C37.740162,27.8046815 37.3436577,28.7475742 37.3436577,29.7508188 L37.3436577,38.1072219 C37.3436577,38.6002735 37.7494674,39 38.2500224,39 C38.7505774,39 39.1563871,38.6002735 39.1563871,38.1072219 L39.1563871,29.7508188 C39.1563871,29.2246749 39.3643676,28.7299567 39.7421404,28.3578468 L42.1689016,25.9674632 C42.179778,26.0688828 42.1872706,26.1708976 42.1872706,26.2743408 L42.1872706,38.1071029 C42.1872706,38.6001544 42.5930803,38.999881 43.0936353,38.999881 C43.5941903,38.999881 44,38.6001544 44,38.1071029 L44,26.2744598 C43.9996375,24.4152197 42.8851714,22.7258454 41.160299,21.9707932 Z" id="Fill-1" fill="#FF006A"></path>
            <g id="Group-5" transform="translate(0.000000, 5.000000)">
                <mask id="mask-2" fill="white">
                    <use xlink:href="#path-1"></use>
                </mask>
                <g id="Clip-4"></g>
                <path d="M9.37,17.2309167 C6.73647059,17.2309167 4.59388235,15.0628214 4.59388235,12.3979405 L4.59388235,12.2129405 C5.29752941,12.049369 6.34082353,11.66925 7.42917647,10.7835357 C7.81423529,11.1511548 8.36458824,11.6021071 9.06541176,11.9888929 C9.89435294,12.4465119 11.0391765,12.8696071 12.4375294,12.8696071 C12.9689412,12.8696071 13.5375294,12.8071071 14.1385882,12.6635357 C14.0017647,15.2054405 11.9154118,17.2309167 9.37,17.2309167 Z M9.37,22.586869 L7.33105882,20.5236548 C7.39058824,20.2935357 7.42317647,20.0534167 7.42317647,19.8072262 L7.42317647,18.7172262 C8.03835294,18.91175 8.69235294,19.016631 9.37,19.016631 C10.0476471,19.016631 10.7016471,18.91175 11.3168235,18.7172262 L11.3168235,19.8072262 C11.3168235,20.0534167 11.3494118,20.2936548 11.4089412,20.5236548 L9.37,22.586869 Z M9.37,5.6565119 C12.0035294,5.6565119 14.1461176,7.82460714 14.1461176,10.4894881 L14.1461176,10.8130595 C10.4725882,11.9511548 8.28329412,9.12341667 8.18976471,8.9994881 C8.03623529,8.79246429 7.80152941,8.66294048 7.54647059,8.64460714 C7.29141176,8.6265119 7.04082353,8.72091667 6.86,8.90389286 C6.01776471,9.75615476 5.19282353,10.1673452 4.59705882,10.3657976 C4.66235294,7.75782143 6.77752941,5.6565119 9.37,5.6565119 Z M9.37,1.83925 C10.4435294,1.83925 11.3168235,2.72305952 11.3168235,3.80925 C11.3168235,3.92889286 11.3062353,4.04627381 11.286,4.16103571 C10.6796471,3.97270238 10.0364706,3.87067857 9.37,3.87067857 C8.70447059,3.87067857 8.06211765,3.97234524 7.45670588,4.16032143 C7.43635294,4.04532143 7.42317647,3.92865476 7.42317647,3.80925 C7.42317647,2.72294048 8.29647059,1.83925 9.37,1.83925 Z M15.9108235,12.3982976 L15.9108235,10.489369 C15.9108235,8.16008333 14.7145882,6.10960714 12.9121176,4.92960714 C13.0234118,4.56829762 13.0815294,4.18984524 13.0815294,3.80925 C13.0815294,1.73829762 11.4165882,0.0535357143 9.37,0.0535357143 C7.32341176,0.0535357143 5.65847059,1.73841667 5.65847059,3.80925 C5.65847059,4.19460714 5.71611765,4.5694881 5.82764706,4.92984524 C4.02529412,6.10984524 2.82917647,8.16020238 2.82917647,10.489369 L2.82917647,12.3979405 C2.82917647,14.6535357 3.95070588,16.6480595 5.65835294,17.8435357 L5.65835294,19.8071071 C5.65835294,20.194369 5.44576471,20.5423452 5.10352941,20.7155595 L2.05164706,22.2596071 C0.786117647,22.9000833 0,24.1873452 0,25.6190119 L0,33.3928214 C0,33.8857976 0.395058824,34.2856786 0.882352941,34.2856786 C1.36964706,34.2856786 1.76470588,33.8857976 1.76470588,33.3928214 L1.76470588,26.0052024 L3.20211765,27.4597262 C3.56976471,27.8319881 3.77235294,28.3265119 3.77235294,28.8528214 L3.77235294,33.3928214 C3.77235294,33.8857976 4.16741176,34.2856786 4.65470588,34.2856786 C5.142,34.2856786 5.53705882,33.8857976 5.53705882,33.3928214 L5.53705882,28.8528214 C5.53705882,27.8496071 5.15094118,26.9065119 4.45,26.1971071 L2.44941176,24.1728214 C2.43976471,24.1629405 2.42941176,24.1544881 2.41952941,24.1453214 C2.54505882,24.0332976 2.68588235,23.9355595 2.84094118,23.8569881 L5.89282353,22.3129405 C6.04917647,22.2337738 6.19470588,22.1403214 6.33035294,22.0365119 L8.48764706,24.2196071 L8.48764706,33.3929405 C8.48764706,33.8859167 8.88270588,34.2857976 9.37,34.2857976 C9.85729412,34.2857976 10.2523529,33.8859167 10.2523529,33.3929405 L10.2523529,24.2194881 L12.4097647,22.0363929 C12.5455294,22.1403214 12.6909412,22.2337738 12.8472941,22.3128214 L13.6888235,22.7387738 C13.8155294,22.8029405 13.9501176,22.8332976 14.0828235,22.8332976 C14.4064706,22.8332976 14.7181176,22.6522262 14.8727059,22.3394881 C15.0907059,21.8984167 14.914,21.3621071 14.4781176,21.14175 L13.6365882,20.7157976 C13.2942353,20.5425833 13.0816471,20.1946071 13.0816471,19.8074643 L13.0816471,17.8438929 C14.7892941,16.6484167 15.9108235,14.6538929 15.9108235,12.3982976 Z" id="Fill-3" fill="#FF006A" mask="url(#mask-2)"></path>
            </g>
            <g id="Group-8" transform="translate(46.000000, 5.000000)">
                <mask id="mask-4" fill="white">
                    <use xlink:href="#path-3"></use>
                </mask>
                <g id="Clip-7"></g>
                <path d="M1.84831533,12.6635714 C2.44487007,12.8071429 3.00930803,12.8696429 3.53695766,12.8696429 C4.92510365,12.8696429 6.0615708,12.4464286 6.88446131,11.9889286 C7.58016934,11.6021429 8.12650511,11.1511905 8.50875328,10.7835714 C9.58916204,11.6692857 10.6247241,12.0494048 11.3233518,12.2129762 L11.3233518,12.3979762 C11.3233518,15.0628571 9.19640292,17.2309524 6.58209635,17.2309524 C4.05514745,17.2309524 1.98414015,15.2054762 1.84831533,12.6635714 Z M4.55803796,20.5236905 C4.61713285,20.2935714 4.64936642,20.0534524 4.64936642,19.8071429 L4.64936642,18.7172619 C5.26016934,18.9117857 5.90927883,19.0166667 6.58209635,19.0166667 C7.25479708,19.0166667 7.90402336,18.9117857 8.51470949,18.7172619 L8.51470949,19.8071429 C8.51470949,20.0534524 8.54694307,20.2934524 8.60615474,20.5236905 L6.58209635,22.5869048 L4.55803796,20.5236905 Z M11.3201985,10.3657143 C10.7287825,10.1672619 9.90974599,9.75619048 9.07377518,8.90392857 C8.89427153,8.72095238 8.64551241,8.62654762 8.39231533,8.64464286 C8.13911825,8.66297619 7.90612555,8.7925 7.7536,8.99952381 C7.66087007,9.12345238 5.4875562,11.9511905 1.84084088,10.8130952 L1.84084088,10.4895238 C1.84084088,7.82464286 3.96767299,5.65654762 6.58209635,5.65654762 C9.15552701,5.65654762 11.255381,7.75785714 11.3201985,10.3657143 Z M8.51470949,3.80928571 C8.51470949,3.92869048 8.5016292,4.04535714 8.48142482,4.1602381 C7.88031533,3.97238095 7.24265109,3.87071429 6.58209635,3.87071429 C5.92049051,3.87071429 5.28189197,3.9727381 4.68008175,4.16107143 C4.65999416,4.04619048 4.64936642,3.92892857 4.64936642,3.80928571 C4.64936642,2.72309524 5.51640292,1.83928571 6.58209635,1.83928571 C7.64778978,1.83928571 8.51470949,2.72297619 8.51470949,3.80928571 Z M2.89742482,17.8439286 L2.89742482,19.807381 C2.89742482,20.1945238 2.68650511,20.542619 2.34665109,20.7158333 L1.51126423,21.1416667 C1.0785635,21.3621429 0.903147445,21.8984524 1.1195562,22.3395238 C1.27301606,22.6522619 1.58238832,22.8332143 1.90367299,22.8332143 C2.03541022,22.8332143 2.16901606,22.8028571 2.29479708,22.7386905 L3.13018394,22.3128571 C3.28539562,22.2338095 3.42974599,22.1403571 3.56440292,22.0364286 L5.70618394,24.2195238 L5.70618394,33.3928571 C5.70618394,33.8859524 6.09835912,34.2857143 6.58209635,34.2857143 C7.06583358,34.2857143 7.45800876,33.8859524 7.45800876,33.3928571 L7.45800876,24.2196429 L9.5995562,22.0365476 C9.73409635,22.1403571 9.87868029,22.2338095 10.033892,22.3129762 L13.0634978,23.8570238 C13.2174248,23.9355952 13.3572204,24.0332143 13.4818336,24.1453571 C13.4719066,24.1545238 13.4616292,24.1629762 13.4520526,24.1727381 L11.4661839,26.1971429 C10.7703591,26.9065476 10.3870599,27.8496429 10.3870599,28.8528571 L10.3870599,33.3927381 C10.3870599,33.8858333 10.779235,34.2855952 11.2629723,34.2855952 C11.7467095,34.2855952 12.1388847,33.8858333 12.1388847,33.3927381 L12.1388847,28.8528571 C12.1388847,28.3265476 12.3399942,27.8320238 12.7049577,27.4597619 L14.1318774,26.0052381 L14.1318774,33.3927381 C14.1318774,33.8858333 14.5240526,34.2855952 15.0077898,34.2855952 C15.491527,34.2855952 15.8837022,33.8858333 15.8837022,33.3927381 L15.8837022,25.6190476 C15.8837022,24.1872619 15.1033226,22.900119 13.8470307,22.2596429 L10.8174248,20.7155952 C10.4776876,20.542381 10.2666511,20.1942857 10.2666511,19.8070238 L10.2666511,17.8435714 C11.9618336,16.6480952 13.0751766,14.6535714 13.0751766,12.3979762 L13.0751766,10.4894048 C13.0751766,8.1602381 11.8877898,6.1097619 10.0985927,4.92988095 C10.209308,4.56940476 10.2665343,4.19464286 10.2665343,3.80928571 C10.2665343,1.73845238 8.61374599,0.0535714286 6.58209635,0.0535714286 C4.55044672,0.0535714286 2.89754161,1.73833333 2.89754161,3.80928571 C2.89754161,4.18988095 2.95535182,4.56833333 3.06583358,4.92964286 C1.27651971,6.10964286 0.0890160584,8.16011905 0.0890160584,10.4894048 L0.0890160584,12.3983333 C0.0890160584,14.6538095 1.20235912,16.6484524 2.89742482,17.8439286 Z" id="Fill-6" fill="#FF006A" mask="url(#mask-4)"></path>
            </g>
        </g>
    </g>
</svg>