<svg xmlns="http://www.w3.org/2000/svg" width="76.233" height="75.884" viewBox="0 0 76.233 75.884"><defs><linearGradient id="linear-gradient" x1=".5" x2=".5" y2="1" gradientUnits="objectBoundingBox"><stop offset="0" stop-color="#986f2c"/><stop offset=".478" stop-color="#f9dea3"/><stop offset="1" stop-color="#986f2c"/></linearGradient><style>.cls-1{fill:#fff}</style></defs><g id="Сгруппировать_4265" transform="translate(3108.225 11480.892)"><g id="Сгруппировать_4263" transform="translate(-82)"><g id="Сгруппировать_4260" transform="translate(-3026.225 -11479.628)"><path id="Контур_2188" d="M6.043 0s-25.974 0-25.974 25.974v47.7h47.918s25.974 0 25.974-25.974V0z" class="cls-1" transform="translate(19.931)"/></g><g id="Сгруппировать_4261" transform="translate(-3026.225 -11479.628)"><path id="Контур_2189" d="M6.043 0s-25.974 0-25.974 25.974v47.7h47.918s25.974 0 25.974-25.974V0z" class="cls-1" transform="translate(19.931)"/></g><g id="Сгруппировать_4259" transform="translate(-3026.093 -11480.892)"><path id="Контур_2190" fill="url(#linear-gradient)" d="M801.688 985.738H752.9v-48.567c0-27 27.047-27.317 27.32-27.317H829v48.565c0 27.007-27.04 27.319-27.312 27.319zm-44.959-3.824h44.959c.956 0 23.493-.343 23.493-23.494v-44.742h-44.957c-1 0-23.5.366-23.5 23.493z" transform="translate(-752.904 -909.854)"/></g></g><g id="gift-card" transform="translate(-3093.727 -11458.225)"><path id="Контур_422" fill="#181818" d="M38.487 80H8.424a3.789 3.789 0 00-3.36 2.027A1.321 1.321 0 007.4 83.259a1.153 1.153 0 011.022-.616h1.489v4.192a3.973 3.973 0 00-1.554 1.012 11.277 11.277 0 00-1.1-.882C6.7 86.571 4.78 85.286 3.3 85.286c-.705 0-2 .3-2.771 2.279a8.748 8.748 0 000 6.013C1.3 95.561 2.6 95.857 3.3 95.857c1.476 0 3.4-1.285 3.955-1.679a11.293 11.293 0 001.1-.882 3.974 3.974 0 001.554 1.012v12.12H8.424a1.158 1.158 0 01-1.156-1.156V98.5a1.321 1.321 0 00-2.643 0v6.772a3.8 3.8 0 003.8 3.8h30.062a3.8 3.8 0 003.8-3.8V83.8a3.8 3.8 0 00-3.8-3.8zM5.545 92.151a6.441 6.441 0 01-2.209 1.061 5.381 5.381 0 010-5.282 6.439 6.439 0 012.209 1.061 5.6 5.6 0 011.7 1.58 5.6 5.6 0 01-1.7 1.58zm32.942-9.508a1.158 1.158 0 011.156 1.157v5.45H22.362a8.09 8.09 0 00-.431-1.685c-.768-1.983-2.065-2.279-2.771-2.279-1.476 0-3.4 1.285-3.955 1.679a11.288 11.288 0 00-1.1.882 3.973 3.973 0 00-1.554-1.012v-4.192zm-18.665 7.928a4.395 4.395 0 01-.693 2.641 6.439 6.439 0 01-2.209-1.061 5.6 5.6 0 01-1.7-1.58 5.6 5.6 0 011.7-1.58 6.441 6.441 0 012.209-1.061 4.394 4.394 0 01.693 2.641zm-8.59-1.321a1.321 1.321 0 11-1.321 1.321 1.323 1.323 0 011.321-1.321zm27.255 17.179H12.554v-12.12a3.974 3.974 0 001.553-1.009 11.283 11.283 0 001.1.882c.555.394 2.479 1.679 3.955 1.679.705 0 2-.3 2.771-2.279a8.091 8.091 0 00.431-1.685h17.279v13.38a1.158 1.158 0 01-1.156 1.152z" transform="translate(0 -80)"/></g></g></svg>