<svg width="149" height="42" viewBox="0 0 149 42" xmlns="http://www.w3.org/2000/svg" xmlns:xlink="http://www.w3.org/1999/xlink"><g id="Page-1" stroke="none" stroke-width="1" fill="none" fill-rule="evenodd"><g id="900-states" transform="translate(-203 -106)"><g id="logo" transform="translate(203 106)"><path d="M54.14 11.23c0-4.56 2.68-7.52 7.48-7.52a9.718 9.718 0 014.35.84l-.64 1.67a10.523 10.523 0 00-3.67-.63c-2.93-.02-5.24 1.57-5.24 5.44 0 3.95 2.39 5.66 5.64 5.66a10.794 10.794 0 003.41-.51l.52 1.72a11.165 11.165 0 01-4.29.72c-4.98 0-7.56-2.95-7.56-7.39zm13.15 1c0-2.29.44-5.89 1.74-7.1 1.14-1.06 4.18-1.78 7.72-2.43l.35 1.92c-3.15.53-5.94 1.02-6.62 1.68-.6.838-.948 1.83-1 2.86a8.147 8.147 0 013.85-1c2.71 0 4.43 1.33 4.43 4.72 0 3.99-2.34 5.77-5.46 5.77-3.1 0-5.01-1.92-5.01-6.42zm8.3.73c0-1.77-.77-3.14-2.82-3.14a7.235 7.235 0 00-3.35.96c-.02.36-.04.9-.04 1.26 0 3.34 1.01 4.89 3.08 4.89 2.45 0 3.13-2.04 3.13-3.97zm3.95.13c0-4.42 2.27-6.08 5.11-6.08 3.16 0 4.49 1.99 4.49 5.63v.75h-7.43c.02 2.95 1.72 3.54 3.7 3.54a10.388 10.388 0 003.11-.49l.37 1.66a11.3 11.3 0 01-3.81.61c-3.37 0-5.54-1.31-5.54-5.62zm7.36-1.19c0-1.98-.72-3.27-2.38-3.27-1.49 0-2.6 1.08-2.75 3.27h5.13zm4.51-4.54h2.25v.82a4.677 4.677 0 013.05-1.15c2.67 0 4.49 1.85 4.49 5.57 0 4.56-2.73 5.99-5.77 5.99-.59.014-1.182-.006-1.77-.06v4.12h-2.25V7.36zm7.6 5.34c0-2.03-.72-3.85-2.9-3.85a4.681 4.681 0 00-2.45.84v7.08a9.97 9.97 0 001.73.2c2.59 0 3.62-1.78 3.62-4.27zm4.06-.47c0-2.29.44-5.89 1.74-7.1 1.14-1.06 4.18-1.78 7.72-2.43l.35 1.92c-3.15.53-5.94 1.02-6.62 1.68-.6.838-.948 1.83-1 2.86a8.147 8.147 0 013.85-1c2.71 0 4.43 1.33 4.43 4.72 0 3.99-2.34 5.77-5.46 5.77s-5.01-1.92-5.01-6.42zm8.3.73c0-1.77-.77-3.14-2.82-3.14a7.235 7.235 0 00-3.35.96c-.02.36-.04.9-.04 1.26 0 3.34 1.01 4.89 3.08 4.89 2.45 0 3.13-2.04 3.13-3.97zm3.56 2.5c0-2.82 2.53-3.4 4.49-3.42l2.46-.04v-1.2c0-1.54-.78-1.95-2.44-1.95a9.464 9.464 0 00-3.16.54l-.46-1.62c1.26-.515 2.61-.773 3.97-.76 2.71 0 4.2.94 4.2 3.21v5.83a.964.964 0 001.18.86l-.17 1.64a2.986 2.986 0 01-.43.04c-1.16 0-2.29-.35-2.5-1.35a5.79 5.79 0 01-3.66 1.41c-2.09 0-3.48-1.13-3.48-3.19zm6.95.49v-2.58l-2.4.11c-1.55.04-2.44.69-2.44 1.84 0 1.12.83 1.51 1.93 1.51a5.714 5.714 0 002.91-.88zm5.14-8.59h2.17v4.66h5.32V7.36h2.17v11.2h-2.17v-4.84h-5.32v4.84h-2.17V7.36zm12.33 0h2.17v11.2h-2.17V7.36zm5.46 9.18l-3.21-3.8 4.5-5.38h2.44l-4.6 5.22 2.24 2.45a6.013 6.013 0 002.81 2.02l-.37 1.63a4.922 4.922 0 01-3.81-2.14zM44.34 20.1c-.163 12.125-10.039 21.87-22.165 21.87S.173 32.224.01 20.1c0-.49.02-.98.05-1.46l13.42 7.63L41.9 10.11a21.539 21.539 0 012.44 9.99zm-30.86.61L.99 13.61c-.252.79-.452 1.595-.6 2.41l13.09 7.44L40.68 8a21.13 21.13 0 00-1.45-1.93L13.48 20.71zM37.55 4.27a23.609 23.609 0 00-1.95-1.65L13.48 15.2 2.92 9.19c-.4.693-.76 1.407-1.08 2.14l11.64 6.62L37.55 4.27zm-24.07 8.31l19.88-11.3A21.487 21.487 0 0030.77 0L13.48 9.82l-7.7-4.37a23.292 23.292 0 00-1.55 1.87l9.25 5.26z" id="Shape" fill="#299D37"/><path d="M54.21 31.41c0-4.56 2.81-7.43 7.46-7.43 4.89 0 7.16 3.2 7.16 7.47 0 4.49-2.64 7.48-7.5 7.48-4.73 0-7.12-3.03-7.12-7.52zm12.36.02c0-3.22-1.61-5.66-5.03-5.66-3.57 0-5.09 2.44-5.09 5.62 0 3.09 1.46 5.74 4.95 5.74 3.71 0 5.17-2.48 5.17-5.7zm4.51-3.72h2.08v4.74h5.14v-4.74h2.18v11.2H78.3v-4.76h-5.14v4.76h-2.08v-11.2zm11.06 9.74a3.888 3.888 0 002.18-1.64c.62-1.15 1.02-4.24 1.14-8.1h7.25v11.2h-2.06v-9.52h-3.28c-.31 3.9-.7 6.28-1.45 7.65a4.906 4.906 0 01-3.13 2.22l-.65-1.81zm12.64-1.56c0-2.83 2.54-3.4 4.51-3.42l2.47-.04v-1.21c0-1.54-.79-1.95-2.45-1.95-1.082 0-2.156.18-3.18.53l-.45-1.62a10.2 10.2 0 013.98-.76c2.72 0 4.21.95 4.21 3.22v5.85a.964.964 0 001.18.86l-.17 1.64a2.986 2.986 0 01-.43.04c-1.16 0-2.3-.35-2.51-1.35a5.822 5.822 0 01-3.67 1.41c-2.1 0-3.49-1.12-3.49-3.2zm6.98.5V33.8l-2.41.1c-1.56.05-2.45.7-2.45 1.85a1.653 1.653 0 001.93 1.64 5.907 5.907 0 002.93-1zm5.36-8.68h2.05v6.85l-.06 1.5.98-1.52 4.83-6.83h2.18v11.2h-2.18V32.1l.06-1.54-.97 1.56-4.84 6.79h-2.05v-11.2zm1.56-3.91l.93-1.02a3.138 3.138 0 002.45 1.23 3.174 3.174 0 002.47-1.23l.91 1.02a3.967 3.967 0 01-6.76 0zm11.29 3.91h2.18v4.74h5.33v-4.74h2.18v11.2h-2.18v-4.76h-5.33v4.76h-2.18v-11.2z" id="Shape" fill="#F59726"/></g></g></g></svg>