<svg xmlns="http://www.w3.org/2000/svg" width="47.07" height="41.168" viewBox="0 0 47.07 41.168"><defs><style>.cls-1{fill:#fff}</style></defs><g id="send-mail" transform="rotate(45 16.049 25.198)"><g id="Group_11" data-name="Group 11" transform="translate(5.611)"><g id="Group_10" data-name="Group 10"><path id="Path_55" d="M28.216 9.522L19.588.894a3.049 3.049 0 00-4.314 0L.894 15.274a3.049 3.049 0 000 4.314l8.628 8.628a3.049 3.049 0 004.314 0l14.38-14.38a3.049 3.049 0 000-4.314zM18.448 2.63l8.032 8.032h-8.032zm-7.786 23.85L2.63 18.448h8.032v8.032zM2.63 16.421L16.421 2.63V15.4a1.03 1.03 0 01-1.021 1.021H2.63zM12.689 26.48v-8.032H15.4a3.054 3.054 0 003.05-3.05v-2.709h8.03z" class="cls-1" data-name="Path 55"/></g></g><g id="Group_13" data-name="Group 13" transform="translate(0 23.628)"><g id="Group_12" data-name="Group 12"><path id="Path_56" d="M7.919.3a1.017 1.017 0 00-1.438 0L.3 6.481a1.017 1.017 0 001.436 1.438l6.183-6.183a1.017 1.017 0 000-1.436z" class="cls-1" data-name="Path 56"/></g></g><g id="Group_15" data-name="Group 15" transform="translate(0 20.752)"><g id="Group_14" data-name="Group 14"><path id="Path_57" d="M5.043.3a1.017 1.017 0 00-1.438 0L.3 3.606a1.017 1.017 0 001.436 1.437l3.307-3.307a1.017 1.017 0 000-1.436z" class="cls-1" data-name="Path 57"/></g></g><g id="Group_17" data-name="Group 17" transform="translate(2.876 26.504)"><g id="Group_16" data-name="Group 16"><path id="Path_58" d="M7.92.3a1.017 1.017 0 00-1.439 0L.3 6.482a1.017 1.017 0 001.436 1.437l6.183-6.183A1.017 1.017 0 007.92.3z" class="cls-1" data-name="Path 58"/></g></g><g id="Group_19" data-name="Group 19" transform="translate(8.628 29.38)"><g id="Group_18" data-name="Group 18"><path id="Path_59" d="M5.043.3a1.017 1.017 0 00-1.438 0L.3 3.605a1.017 1.017 0 001.436 1.438l3.307-3.307a1.017 1.017 0 000-1.436z" class="cls-1" data-name="Path 59"/></g></g></g></svg>