<svg xmlns="http://www.w3.org/2000/svg" width="26.795" height="27.376" viewBox="0 0 26.795 27.376">
    <defs>
        <style>
            .cls-1{fill:#fff}
        </style>
    </defs>
    <path id="shopping-cart" d="M6.045 18.749a3.862 3.862 0 0 0 3.042 3.769 2.556 2.556 0 1 0 2.368.087h10.19a2.554 2.554 0 1 0 2.532 0h1.914a.964.964 0 0 0 0-1.928H9.9a1.93 1.93 0 0 1-1.928-1.928v-1.434a3.831 3.831 0 0 0 1.928.519h13.012a5.011 5.011 0 0 0 4.613-3.48L29.911 6a.964.964 0 0 0-.927-1.229H7.972v-.915A3.86 3.86 0 0 0 4.117 0a.964.964 0 0 0 0 1.928 1.93 1.93 0 0 1 1.928 1.928zm16.867 6.7a.627.627 0 1 1 .627-.627.627.627 0 0 1-.627.626zm-12.723 0a.627.627 0 1 1 .627-.627.627.627 0 0 1-.627.626zm15.482-11.625a3.127 3.127 0 0 1-2.759 2.082H9.9a1.93 1.93 0 0 1-1.928-1.928V6.7h19.734z" class="cls-1" transform="translate(-3.153)"/>
</svg>
