<svg xmlns="http://www.w3.org/2000/svg" width="50.03" height="43.883" viewBox="0 0 50.03 43.883"><defs><style>.cls-1{fill:#7f28c4}</style></defs><g id="Сгруппировать_47" transform="translate(-629 -4279)"><g id="speech-bubble" transform="translate(629 4279)"><path id="Контур_19" d="M6.035 48.716a8.358 8.358 0 01-2.741-.453l-1.98-.685 1.521-1.44a7.958 7.958 0 002.555-5.753A20.339 20.339 0 010 26.774C0 14.676 11.221 4.833 25.014 4.833S50.03 14.676 50.03 26.774s-11.223 21.94-25.016 21.94a27.858 27.858 0 01-11.768-2.58 13.158 13.158 0 01-7.211 2.582zm6.912-5.568l.73.37a25.225 25.225 0 0011.336 2.654c12.391 0 22.472-8.7 22.472-19.4S37.4 7.378 25.014 7.378s-22.471 8.7-22.471 19.4a17.867 17.867 0 005.04 12.232l.331.35.015.481a10.523 10.523 0 01-1.792 6.329 11.388 11.388 0 006.172-2.511z" class="cls-1" transform="translate(0 -4.833)"/><path id="Контур_20" d="M18.221 42.007a9.613 9.613 0 01-2.276-.22 4.058 4.058 0 01-1.21-.448c-.056-.056-.077-.184-.064-.386a4.036 4.036 0 01.094-.625 2.871 2.871 0 01.188-.573c.076-.167.149-.244.219-.23q.543.188 1.179.365a6.183 6.183 0 001.617.177 4.4 4.4 0 001.7-.292 1.05 1.05 0 00.7-1.044 1.342 1.342 0 00-.46-1.054 5.733 5.733 0 00-1.649-.865 11.775 11.775 0 01-1.221-.555 4.651 4.651 0 01-1.012-.71 2.932 2.932 0 01-.689-.97 3.264 3.264 0 01-.251-1.336 3.014 3.014 0 01.24-1.19 2.5 2.5 0 01.741-.971 3.764 3.764 0 011.284-.647 6.408 6.408 0 011.869-.24q.709 0 1.179.031a7.727 7.727 0 01.773.084 3.472 3.472 0 01.49.115c.125.042.244.076.355.1s.146.163.146.365a2.78 2.78 0 01-.084.647 2.4 2.4 0 01-.229.6q-.147.261-.293.219-.355-.1-.971-.229a5.981 5.981 0 00-1.2-.125 2.9 2.9 0 00-1.638.334 1.061 1.061 0 00-.449.9 1.143 1.143 0 00.5.971 6.392 6.392 0 001.565.741 6.762 6.762 0 012.494 1.534 3.084 3.084 0 01.8 2.181 3.214 3.214 0 01-.375 1.629 2.817 2.817 0 01-1 1.021 4.352 4.352 0 01-1.43.533 8.717 8.717 0 01-1.632.163z" class="cls-1" transform="translate(-5.339 -14.065)"/><path id="Контур_21" d="M38.9 42.07a.8.8 0 01-.573-.146.843.843 0 01-.135-.564v-7.306q-.835 1.357-1.285 2.1c-.3.495-.517.857-.657 1.086s-.223.365-.252.406a.212.212 0 00-.04.085 4.915 4.915 0 01-.261.407.372.372 0 01-.3.093h-.334a.483.483 0 01-.355-.093 2.507 2.507 0 01-.251-.407L32.324 34.1v7.389a.829.829 0 01-.094.429q-.093.156-.49.156h-.876a1.288 1.288 0 01-.512-.094c-.146-.062-.219-.267-.219-.616V31.342a.729.729 0 01.156-.553.666.666 0 01.449-.135h1.044a1.04 1.04 0 01.386.062.8.8 0 01.324.313l2.775 4.425 2.776-4.383a.758.758 0 01.3-.324.729.729 0 01.344-.093h1.149c.265 0 .417.055.46.167a1.686 1.686 0 01.062.543v10.1a.966.966 0 01-.083.46c-.056.1-.216.146-.48.146z" class="cls-1" transform="translate(-10.969 -14.232)"/><path id="Контур_22" d="M52.815 42.007a9.61 9.61 0 01-2.276-.22 4.051 4.051 0 01-1.21-.448c-.056-.056-.077-.184-.064-.386a3.958 3.958 0 01.093-.625 2.831 2.831 0 01.188-.573c.076-.167.148-.244.219-.23q.543.188 1.179.365a6.149 6.149 0 001.617.177 4.4 4.4 0 001.7-.292 1.051 1.051 0 00.7-1.044 1.341 1.341 0 00-.46-1.054 5.738 5.738 0 00-1.65-.865 11.836 11.836 0 01-1.221-.555 4.671 4.671 0 01-1.013-.71 2.94 2.94 0 01-.688-.97 3.255 3.255 0 01-.251-1.336 3.025 3.025 0 01.24-1.19 2.5 2.5 0 01.742-.971 3.76 3.76 0 011.283-.647 6.417 6.417 0 011.869-.24q.71 0 1.179.031a7.763 7.763 0 01.773.084 3.516 3.516 0 01.49.115c.125.041.244.076.356.1.1.041.146.163.146.365a2.749 2.749 0 01-.085.647 2.4 2.4 0 01-.228.6q-.147.261-.293.219a12.468 12.468 0 00-.97-.229 5.986 5.986 0 00-1.2-.125 2.894 2.894 0 00-1.638.334 1.061 1.061 0 00-.45.9 1.143 1.143 0 00.5.971 6.381 6.381 0 001.565.741 6.768 6.768 0 012.494 1.534 3.084 3.084 0 01.8 2.181 3.214 3.214 0 01-.375 1.629 2.817 2.817 0 01-1 1.021 4.352 4.352 0 01-1.43.533 8.721 8.721 0 01-1.631.163z" class="cls-1" transform="translate(-17.932 -14.065)"/></g></g></svg>