<svg xmlns="http://www.w3.org/2000/svg" width="55.678" height="55.677" viewBox="0 0 55.678 55.677">
    <defs>
        <style>
            .cls-1{fill:#ff336d}
        </style>
    </defs>
    <g id="tag">
        <path id="Path_322" d="M162.584 191.705a1.087 1.087 0 1 0-1.538 0 1.086 1.086 0 0 0 1.538 0zm0 0" class="cls-1" data-name="Path 322" transform="translate(-143.25 -169.204)"/>
        <path id="Path_323" d="M231.147 175.417a3.262 3.262 0 1 0-4.614 0 3.266 3.266 0 0 0 4.614 0zm-3.076-3.075a1.087 1.087 0 1 1 0 1.537 1.088 1.088 0 0 1-.001-1.538zm0 0" class="cls-1" data-name="Path 323" transform="translate(-201.046 -151.377)"/>
        <path id="Path_324" d="M226.533 283.931a3.263 3.263 0 1 0 4.614 0 3.261 3.261 0 0 0-4.614 0zm3.076 3.077a1.088 1.088 0 1 1 0-1.539 1.088 1.088 0 0 1 0 1.539zm0 0" class="cls-1" data-name="Path 324" transform="translate(-201.046 -252.203)"/>
        <path id="Path_325" d="M174.891 236.646a1.087 1.087 0 0 0 1.279.853l15.379-3.076a1.087 1.087 0 1 0-.426-2.132l-15.379 3.076a1.087 1.087 0 0 0-.853 1.279zm0 0" class="cls-1" data-name="Path 325" transform="translate(-155.854 -207.011)"/>
        <path id="Path_326" d="M82.4 56.574a1.087 1.087 0 0 0-.769.318L70.216 68.309a1.087 1.087 0 0 0 1.538 1.538L82.4 59.2l13.843 13.84-24.414 24.413-13.841-13.84L65.6 76a1.087 1.087 0 0 0-1.538-1.538l-8.383 8.383a1.087 1.087 0 0 0 0 1.538L71.06 99.76a1.087 1.087 0 0 0 1.538 0L98.55 73.809a1.088 1.088 0 0 0 0-1.538L83.171 56.892a1.087 1.087 0 0 0-.771-.318zm0 0" class="cls-1" data-name="Path 326" transform="translate(-49.343 -50.422)"/>
        <path id="Path_327" d="M53.82.319l-4.667 4.667a7.686 7.686 0 0 0-9.184-.086L36.145.967l-.011-.011a3.26 3.26 0 0 0-4.615 0L.956 31.653a3.262 3.262 0 0 0 0 4.614l4.313 4.313a7.726 7.726 0 0 0 9.831 9.828l4.313 4.313a3.261 3.261 0 0 0 4.612 0l30.7-30.567a3.26 3.26 0 0 0 0-4.613l-.011-.011-3.934-3.822a7.669 7.669 0 0 0-.085-9.185l4.667-4.667A1.087 1.087 0 1 0 53.82.319zm-5.3 14.688a1.087 1.087 0 0 0 .011 1.549l4.661 4.529a1.086 1.086 0 0 1 0 1.531l-30.7 30.567a1.089 1.089 0 0 1-1.539 0L16.13 48.36a1.088 1.088 0 0 0-1.231-.216 5.547 5.547 0 0 1-7.362-7.362 1.087 1.087 0 0 0-.215-1.231L2.494 34.73a1.09 1.09 0 0 1 0-1.54l30.564-30.7a1.087 1.087 0 0 1 1.533 0l4.53 4.66a1.086 1.086 0 0 0 1.549.011 5.474 5.474 0 0 1 6.924-.616L46 8.14a3.26 3.26 0 1 0 1.539 1.536l1.595-1.595a5.466 5.466 0 0 1-.618 6.926zm-3.154-4.692a1.088 1.088 0 1 1-1.539 0 1.087 1.087 0 0 1 1.535 0zm0 0" class="cls-1" data-name="Path 327"/>
    </g>
</svg>
