<svg xmlns="http://www.w3.org/2000/svg" xmlns:xlink="http://www.w3.org/1999/xlink" width="56" height="56" viewBox="0 0 56 56">
    <defs>
        <path id="a" d="M0 56h56V0H0z"/>
    </defs>
    <g fill="none" fill-rule="evenodd">
        <path fill="#FF306F" d="M54.167 54.2h-4.584v-9.9H47.75v9.9h-16.5v-9.9h-1.833v9.9h-4.584V44.096c0-2.108 1.462-3.91 3.552-4.385l4.94-1.119.909 5.36 5.266-3.103 5.227 3.08 1.08-5.307 4.807 1.089c2.091.474 3.553 2.277 3.553 4.385V54.2zM39.5 36.2a7.4 7.4 0 0 0 2.75-.53v.98l-2.75 2.025-2.75-2.025v-.98a7.4 7.4 0 0 0 2.75.53zM34 29v-3.6h.158c.901 0 1.776-.168 2.592-.478v.478h1.074c.902 0 1.777-.168 2.593-.478v.478h1.074c1.25 0 2.45-.317 3.509-.903V29c0 .632-.117 1.236-.32 1.8H39.5v1.8h4.088a5.526 5.526 0 0 1-4.088 1.8c-3.033 0-5.5-2.422-5.5-5.4zm-2.75 1.8c-1.516 0-2.75-1.212-2.75-2.7 0-1.488 1.234-2.7 2.75-2.7h.917V29c0 .623.089 1.223.24 1.8H31.25zm-.917-9c0-4.963 4.112-9 9.167-9s9.167 4.037 9.167 9v1.891a4.664 4.664 0 0 0-.917-.091h-.917v-1.8H45v.503a5.33 5.33 0 0 1-2.218 1.138c.038-.036.079-.068.116-.105l-1.296-1.272a5.337 5.337 0 0 1-2.487 1.377c.039-.036.079-.068.116-.105l-1.296-1.272a5.357 5.357 0 0 1-3.777 1.536H34v-1.8h-1.833v1.8h-.917c-.313 0-.62.032-.917.091V21.8zm17.417 9h-1.158a7.036 7.036 0 0 0 .241-1.8v-3.6h.917c1.516 0 2.75 1.212 2.75 2.7 0 1.488-1.234 2.7-2.75 2.7zm-4.374 7.271l.645.147-.581 2.854-2.3-1.355 2.236-1.646zm-7.752 0l2.235 1.646-2.26 1.332-.485-2.862.51-.116zm15.402-.114l-6.943-1.572V34.61a7.285 7.285 0 0 0 1.759-2.011h1.908c2.527 0 4.583-2.019 4.583-4.5 0-1.464-.727-2.755-1.833-3.577V21.8c0-5.955-4.934-10.8-11-10.8s-11 4.845-11 10.8v2.723c-1.106.823-1.833 2.114-1.833 3.577 0 2.481 2.056 4.5 4.583 4.5h1.908a7.272 7.272 0 0 0 1.759 2.011v1.774l-6.943 1.573C25.045 38.62 23 41.146 23 44.096V56h33V44.096c0-2.95-2.045-5.475-4.974-6.14z"/>
        <path fill="#FF306F" d="M24.143 32.21H1.857V7.159H7.43V1.789h16.714v30.422zM5.57 3.056v2.313h-2.4l2.4-2.313zM26 0H6.116L0 5.893V34h26V0z"/>
        <mask id="b" fill="#fff">
            <use xlink:href="#a"/>
        </mask>
        <path fill="#FF306F" d="M15 6h7V4h-7zM15 9h7V7h-7zM3 13h18v-2H3zM14 16h8v-2h-8zM4 16h8v-2H4zM3 20h18v-2H3zM3 23h18v-2H3zM14 27h8v-2h-8zM4 27h8v-2H4zM3 31h18v-2H3zM19.222 44.248l-.893.298-.1.506c-.137.68-.401 1.32-.789 1.9l-.286.43.422.842-.351.351-.843-.421-.43.286c-.58.388-1.22.652-1.9.788l-.506.102-.298.892h-.497l-.297-.892-.506-.102a5.277 5.277 0 0 1-1.9-.788l-.43-.286-.843.421-.351-.351.422-.842-.286-.43a5.276 5.276 0 0 1-.788-1.9l-.101-.506-.893-.298v-.496l.893-.298.1-.506c.137-.68.401-1.32.789-1.9l.286-.43-.422-.842.351-.351.843.421.43-.286a5.255 5.255 0 0 1 1.9-.788l.506-.102.298-.892h.497l.297.892.506.102c.68.135 1.32.401 1.9.788l.43.286.843-.421.351.351-.422.842.286.43c.388.58.652 1.22.788 1.9l.101.506.893.298v.496zm-.026-3.738l.543-1.085-2.164-2.164-1.086.543c-.5-.281-1.026-.5-1.576-.654L14.53 36h-3.06l-.383 1.15a6.974 6.974 0 0 0-1.576.654l-1.086-.543-2.164 2.164.543 1.085a7.007 7.007 0 0 0-.653 1.576L5 42.47v3.06l1.151.383c.153.55.372 1.077.653 1.576l-.543 1.085 2.164 2.164 1.086-.543c.5.282 1.026.5 1.576.654L11.47 52h3.06l.383-1.15a6.974 6.974 0 0 0 1.576-.654l1.086.543 2.164-2.164-.543-1.085c.281-.499.5-1.026.653-1.576L21 45.53v-3.06l-1.151-.383a7.013 7.013 0 0 0-.653-1.577z" mask="url(#b)"/>
        <path fill="#FF306F" d="M12.5 46.25c-.965 0-1.75-.785-1.75-1.75s.785-1.75 1.75-1.75 1.75.785 1.75 1.75-.785 1.75-1.75 1.75m0-5.25C10.57 41 9 42.57 9 44.5s1.57 3.5 3.5 3.5 3.5-1.57 3.5-3.5-1.57-3.5-3.5-3.5" mask="url(#b)"/>
    </g>
</svg>
