<svg xmlns="http://www.w3.org/2000/svg" id="Group_112" width="91.373" height="57.104" data-name="Group 112" viewBox="0 0 91.373 57.104">
    <path id="Path_19" fill="#005a9b" fill-rule="evenodd" d="M-60.015 104.131v57.1h91.374v-57.1z" class="cls-1" data-name="Path 19" transform="translate(60.015 -104.131)"/>
    <path id="Path_20" fill="#ffffff" fill-rule="evenodd" d="M31.374 106.281v54.969h-89.238v-54.969z" class="cls-2" data-name="Path 20" transform="translate(58.932 -105.214)"/>
    <path id="Path_21" fill="#005a9b" fill-rule="evenodd" d="M31.229 161.561v-49.9H-52.5v49.9z" class="cls-1" data-name="Path 21" transform="translate(56.232 -107.921)"/>
    <path id="Path_22" fill="#faa929" fill-rule="evenodd" d="M-6.355 163.966a60.8 60.8 0 0 1 37.829-3.8l.174-4.184c-17.4-1.9-29.894 3.642-38 7.571v.413z" class="cls-3" data-name="Path 22" transform="translate(33 -130.077)"/>
    <path id="Path_23" fill="#ffffff" fill-rule="evenodd" d="M-38.631 178.647h8.366v2.52h-5.2l-.035 2.328h5.18v2.416h-5.2l.019 2.328h5.127v2.52h-8.258v-12.111z" class="cls-2" data-name="Path 23" transform="translate(49.249 -141.714)"/>
    <path id="Path_24" fill="#ffffff" fill-rule="evenodd" d="M-17.553 176.6h3.045l.011 13.126h-3.045l-.011-13.126z" class="cls-2" data-name="Path 24" transform="translate(38.637 -140.685)"/>
    <path id="Path_25" fill="#ffffff" fill-rule="evenodd" d="M.893 192.777a6.443 6.443 0 0 1-4.008 1.312 4.359 4.359 0 0 1-4.656-4.533 4.786 4.786 0 0 1 4.743-4.918c3.361 0 4.41 2.381 4.41 5.408h-6.107a1.871 1.871 0 0 0 2.118 1.838 3.909 3.909 0 0 0 2.485-.875l1.015 1.768zm-2.24-4.516c0-.91-.437-1.733-1.453-1.733a2.1 2.1 0 0 0-1.89 1.733z" class="cls-2" data-name="Path 25" transform="translate(33.712 -144.73)"/>
    <path id="Path_26" fill="#ffffff" fill-rule="evenodd" d="M21.112 193.179a6.927 6.927 0 0 1-3.238.91c-2.8 0-4.813-1.61-4.813-4.516a4.685 4.685 0 0 1 5.006-4.935 6.254 6.254 0 0 1 2.993.77l-.98 2a3.758 3.758 0 0 0-1.435-.35 2.3 2.3 0 0 0-2.538 2.363 2.234 2.234 0 0 0 2.275 2.258 3.852 3.852 0 0 0 1.645-.508l1.085 2.013z" class="cls-2" data-name="Path 26" transform="translate(23.225 -144.73)"/>
    <path id="Path_27" fill="#ffffff" fill-rule="evenodd" d="M31.471 182.238h1.376l-.011-2.993h2.941l-.071 2.993h2.5l-.052 2.206h-2.5c0 1.225-.087 2.52-.087 3.273 0 .77.192 1.138.875 1.138a2.194 2.194 0 0 0 1.12-.42l.665 2.065a5.958 5.958 0 0 1-3.011.875c-2.467 0-2.59-1.558-2.59-3.588 0-1.085.087-2.17.087-3.342H31.4l.07-2.206z" class="cls-2" data-name="Path 27" transform="translate(13.992 -142.015)"/>
    <path id="Path_28" fill="#ffffff" fill-rule="evenodd" d="M48.179 185.024h3.045v1.243h.035a2.521 2.521 0 0 1 2.24-1.488 4.71 4.71 0 0 1 1 .1l-.4 3.011a3.59 3.59 0 0 0-1.085-.176 2.156 2.156 0 0 0-1.8 1.033l-.052 5.093h-3.053l.07-8.821z" class="cls-2" data-name="Path 28" transform="translate(5.58 -144.801)"/>
    <path id="Path_29" fill="#ffffff" fill-rule="evenodd" d="M67.079 184.638c3.255 0 4.936 2.065 4.936 4.725s-1.68 4.726-4.936 4.726-4.936-2.065-4.936-4.726 1.681-4.725 4.936-4.725zm0 7.141c1.453 0 1.89-1.261 1.89-2.416s-.437-2.415-1.89-2.415-1.89 1.26-1.89 2.415.438 2.416 1.89 2.416z" class="cls-2" data-name="Path 29" transform="translate(-1.485 -144.73)"/>
    <path id="Path_30" fill="#ffffff" fill-rule="evenodd" d="M85.285 184.953h3.045v.963a4.318 4.318 0 0 1 2.853-1.278c1.873 0 2.888 1.033 2.888 3.448 0 1.8-.018 3.745-.035 5.688H90.99c.018-1.7.035-3.413.035-5.233 0-.717-.193-1.278-1.1-1.278a2.839 2.839 0 0 0-1.592.8l-.016 5.705h-3.1l.07-8.821z" class="cls-2" data-name="Path 30" transform="translate(-13.101 -144.73)"/>
    <path id="Path_31" fill="#ffffff" fill-rule="evenodd" d="M11.816 135.82l3.848-12.685H19.1l-3.851 12.685z" class="cls-2" data-name="Path 31" transform="translate(23.852 -113.713)"/>
    <path id="Path_32" fill="#ffffff" fill-rule="evenodd" d="M-2.324 123.14l-3.088 5.377a13.062 13.062 0 0 0-1.467 3.011h-.047c.054-1.128-.1-2.513-.118-3.3l-.341-5.092h-5.779l-.06.342a2.4 2.4 0 0 1 2.608 2.271l1.126 10.069h3.557L1.26 123.14z" class="cls-2" data-name="Path 32" transform="translate(36.458 -113.716)"/>
    <path id="Path_33" fill="#ffffff" fill-rule="evenodd" d="M53.38 135.844l-.095-1.886h-4.286l-.876 1.889h-3.728l6.757-12.661h4.575l1.145 12.661zm-.394-7.482a29.023 29.023 0 0 1-.006-2.981h-.051c-.209.631-1.106 2.521-1.5 3.451l-1.277 2.78h3.01l-.175-3.251z" class="cls-2" data-name="Path 33" transform="translate(7.45 -113.737)"/>
    <path id="Path_34" fill="#ffffff" fill-rule="evenodd" d="M28.484 135.9a9.591 9.591 0 0 1-5.18-1.455l1.635-2.5a6.341 6.341 0 0 0 3.7 1.242 1.592 1.592 0 0 0 1.5-.723c.477-.825-.11-1.269-1.45-2.028l-.662-.431c-1.988-1.359-2.848-2.648-1.913-4.9.6-1.44 2.178-2.532 4.784-2.532a7.682 7.682 0 0 1 4.463 1.536l-1.88 2.2a4.177 4.177 0 0 0-2.661-1.166 1.6 1.6 0 0 0-1.464.656c-.358.709.116 1.191 1.16 1.84l.788.5c2.413 1.521 2.987 3.117 2.383 4.61-1.041 2.568-3.078 3.143-5.209 3.143z" class="cls-2" data-name="Path 34" transform="translate(18.068 -113.43)"/>
</svg>
