<svg xmlns="http://www.w3.org/2000/svg" width="68.963" height="44.441" viewBox="0 0 68.963 44.441">
    <g id="voucher" transform="translate(0 -91.027)">
        <g id="Group_322" data-name="Group 322" transform="translate(0 91.027)">
            <g id="Group_321" data-name="Group 321">
                <path id="Path_348" d="M67.951 91.027H1.012A1.012 1.012 0 0 0 0 92.039v38.868a1.012 1.012 0 0 0 1.012 1.012h16.836l.217 2.627a1.021 1.021 0 0 0 1.681.674l3.469-3.08 3.928 2.468a1.021 1.021 0 0 0 1.547-.94l-.145-1.749h39.4a1.012 1.012 0 0 0 1.012-1.012V92.039a1.012 1.012 0 0 0-1.006-1.012zm-47.573 2.024h2.294v13.091h-2.294zm4.454 15.115v6.613h-6.613v-6.613zM2.024 93.051h16.33v13.091h-1.147a1.012 1.012 0 0 0-1.012 1.012v.035l-8.043-2.681a2.092 2.092 0 0 0-2.752 1.985v1.807H2.024zm14.171 16.272v4.3l-8.683 2.895a.067.067 0 0 1-.089-.064v-9.96a.067.067 0 0 1 .089-.064zm-14.171 1H5.4v2.294H2.024zm0 19.569v-15.25H5.4v1.808a2.113 2.113 0 0 0 2.753 1.985l7.836-2.612c-.021.054-1.881 9.207-1.881 9.207a1.021 1.021 0 0 0 1.427 1.115l1.769-.841.379 4.588H2.024zm14.468-6.444l1.346-6.647h6.747l-1.612 7.959-2.244-2.52a1.012 1.012 0 0 0-1.19-.241zm7.158 6.572a1.012 1.012 0 0 0-1.211.1l-2.523 2.24-.66-7.984.466-.222 3.085 3.465a1.021 1.021 0 0 0 1.748-.472l1.112-5.489.839 10.157zm3.206-16.4v-4.3l8.683-2.895a.06.06 0 0 1 .061.009.061.061 0 0 1 .028.055v9.96a.069.069 0 0 1-.089.064zm40.082 16.272H28.379s-1.157-13.986-1.163-14.018l7.684 2.561a2.113 2.113 0 0 0 2.753-1.985v-1.808h29.285v15.25zm0-21.593h-8.614a1.012 1.012 0 0 0 0 2.024h8.615v2.294H37.653v-2.294H53.42a1.012 1.012 0 0 0 0-2.024H37.653v-1.808a2.092 2.092 0 0 0-2.753-1.984l-8.043 2.681v-.035a1.012 1.012 0 0 0-1.012-1.012H24.7V93.052h42.238V108.3z" class="cls-1" data-name="Path 348" transform="translate(0 -91.027)"/>
            </g>
        </g>
        <g id="Group_324" data-name="Group 324" transform="translate(41.027 97.505)">
            <g id="Group_323" data-name="Group 323">
                <path id="Path_349" d="M311.005 139.121h-5.4a1.012 1.012 0 0 0 0 2.024h5.4a1.012 1.012 0 0 0 0-2.024z" class="cls-1" data-name="Path 349" transform="translate(-304.595 -139.121)"/>
            </g>
        </g>
        <g id="Group_326" data-name="Group 326" transform="translate(50.744 97.505)">
            <g id="Group_325" data-name="Group 325">
                <path id="Path_350" d="M385.3 139.121h-7.558a1.012 1.012 0 1 0 0 2.024h7.558a1.012 1.012 0 1 0 0-2.024z" class="cls-1" data-name="Path 350" transform="translate(-376.735 -139.121)"/>
            </g>
        </g>
        <g id="Group_328" data-name="Group 328" transform="translate(41.027 102.903)">
            <g id="Group_327" data-name="Group 327">
                <path id="Path_351" d="M322.882 179.2h-17.275a1.012 1.012 0 0 0 0 2.024h17.274a1.012 1.012 0 0 0 0-2.024z" class="cls-1" data-name="Path 351" transform="translate(-304.595 -179.2)"/>
            </g>
        </g>
    </g>
</svg>
