<svg xmlns="http://www.w3.org/2000/svg" width="26.795" height="26.518" viewBox="0 0 26.795 26.518"><defs><style>.cls-1{fill:#fff}</style></defs><g id="wallet"><path id="Path_61" d="M25.879 7.092c-3.917-1.26-16.9-5.414-16.9-5.414H8.97A3.145 3.145 0 004.9 4.681v2.438h-.2a2.992 2.992 0 00-2.989 2.989v3.786H.9a.9.9 0 00-.9.9v5.935a.9.9 0 00.9.9h.809v3.436A2.992 2.992 0 004.7 28.052h21.2a.9.9 0 00.9-.9V8.019c0-.497-.455-.778-.921-.927zM6.7 4.681a1.349 1.349 0 011.338-1.348 1.358 1.358 0 01.4.059l11.68 3.727H6.7zM1.8 19.829v-4.137h5.034a2.068 2.068 0 010 4.136zM25 26.254H4.7a1.192 1.192 0 01-1.19-1.19v-3.437h3.324a3.866 3.866 0 100-7.733H3.507v-3.786A1.192 1.192 0 014.7 8.918H25z" class="cls-1" data-name="Path 61" transform="translate(0 -1.534)"/><path id="Path_62" d="M68.8 172.963a.9.9 0 10-.636.264.9.9 0 00.636-.264z" class="cls-1" data-name="Path 62" transform="translate(-61.201 -156.1)"/></g></svg>