<svg width="198" height="52" viewBox="0 0 198 52" xmlns="http://www.w3.org/2000/svg" xmlns:xlink="http://www.w3.org/1999/xlink"><g id="Page-1" stroke="none" stroke-width="1" fill="none" fill-rule="evenodd"><g id="webmoney" transform="translate(-1 -74)" fill="#295D9B"><g id="Group" transform="translate(1 74)"><path d="M25.853.148c4.058 0 7.902.944 11.326 2.623.537.255 1.074.536 1.612.844l-2.379 2.131-3.576-3.697-6.035 5.383-3.585-3.913-11.241 10.135 7.208 7.941-2.833 2.491 7.099 7.956-2.816 2.484 10.144 11.291 6.021-5.544 5.205 5.941a27.761 27.761 0 01-3.405 2.264 25.664 25.664 0 01-12.745 3.375C11.613 51.853 0 40.239 0 26S11.613.148 25.853.148" id="Fill-2"/><path id="Fill-3" d="M21.141 24.366l6.147-5.535 5.536 6.147-6.148 5.536-5.535-6.148"/><path id="Fill-4" d="M25.513 34.989l6.148-5.535 5.535 6.148-6.148 5.536-5.535-6.149"/><path id="Fill-5" d="M16.741 13.868l6.148-5.535 5.535 6.147-6.148 5.536-5.535-6.148"/><path id="Fill-6" d="M28.023 10.89l4.61-4.152 4.152 4.611-4.611 4.152-4.151-4.611"/><path id="Fill-7" d="M36.216 29.903l4.61-4.151 4.152 4.611-4.611 4.152-4.151-4.612"/><path id="Fill-8" d="M40.27 39.216l4.611-4.152 4.152 4.611-4.611 4.151-4.152-4.61"/><path id="Fill-9" d="M42.129 17.871l3.074-2.767 2.768 3.074-3.075 2.767-2.767-3.074"/><path id="Fill-10" d="M38.201 8.739l3.073-2.768 2.768 3.074-3.074 2.768-2.767-3.074"/><path id="Fill-11" d="M46.058 27.004l3.073-2.768 2.768 3.075-3.074 2.767-2.767-3.074"/><path id="Fill-12" d="M32.273 20.16l4.61-4.151 4.152 4.611-4.61 4.151-4.152-4.611"/><path d="M122.918 16.07l-.145.096-.144-.096c-1.06-.964-2.217-1.35-3.662-1.35-3.325 0-5.494 2.314-5.494 5.928v16.915h3.325V20.648c0-2.41 1.639-2.603 2.169-2.603.385 0 .964.097 1.445.482.483.482.723 1.157.723 2.121v16.915h3.326V20.648c0-2.41 1.639-2.603 2.168-2.603.386 0 .964.097 1.446.482.482.482.723 1.157.723 2.121v16.915h3.324V20.648c0-1.879-.577-3.422-1.638-4.482-.964-.915-2.313-1.446-3.855-1.446-1.494 0-2.698.434-3.711 1.35" id="Fill-13"/><path d="M147.159 22.527c-1.108-1.156-2.94-2.168-5.446-2.168-2.41 0-4.241 1.012-5.35 2.168-1.734 1.88-2.072 4.531-2.072 6.602 0 2.024.338 4.676 2.072 6.555 1.109 1.156 2.94 2.168 5.35 2.168 2.506 0 4.338-1.012 5.446-2.168 1.735-1.879 2.071-4.531 2.071-6.555 0-2.071-.336-4.722-2.071-6.602zm-1.302 7.326c0 1.589 0 3.373-1.205 4.674-.482.482-1.397 1.109-2.939 1.109-1.446 0-2.361-.627-2.844-1.109-1.205-1.301-1.205-3.085-1.205-4.674v-1.495c0-1.589 0-3.373 1.205-4.626.483-.529 1.398-1.157 2.844-1.157 1.542 0 2.457.628 2.939 1.157 1.205 1.253 1.205 3.037 1.205 4.626v1.495z" id="Fill-14"/><path d="M151.977 20.648l2.796.048v1.494c.819-.578 1.541-1.012 2.362-1.301 1.012-.434 1.734-.53 2.746-.53 1.446 0 2.939.289 4.144 1.639 1.157 1.349 1.398 2.94 1.398 4.289v11.228h-3.085v-11.47c0-2.746-1.733-3.47-3.18-3.47-1.446 0-2.939.628-4.143 1.735v13.205h-3.038V20.648" id="Fill-15"/><path d="M180.507 34.238c-.579.289-1.205.53-1.976.771-.916.29-1.638.433-2.603.433-1.589 0-3.035-.529-3.807-1.397-.578-.578-1.204-1.734-1.204-3.759v-.433h10.409v-.771c0-2.699-.096-4.917-1.783-6.7-1.108-1.204-2.795-2.023-4.916-2.023-2.361 0-4.096 1.012-5.155 2.216-1.736 1.977-1.929 4.578-1.929 6.265 0 1.88.29 4.676 2.024 6.602 1.109 1.301 3.084 2.41 5.88 2.41 1.253 0 2.603-.145 3.951-.675a21.228 21.228 0 002.073-.964l-.964-1.975zm-9.59-6.987c0-1.929.626-3.037 1.109-3.567.481-.53 1.252-1.109 2.553-1.109.868 0 1.735.193 2.362.82 1.109 1.06 1.109 2.361 1.109 3.518v.723h-7.133v-.385z" id="Fill-16"/><path d="M198 20.696l-6.602 19.855c-.241.868-.867 2.313-1.59 3.132-.868.964-2.024 1.398-3.326 1.398a5.293 5.293 0 01-2.65-.675c-.529-.338-1.061-.675-1.398-1.06l1.446-1.832c.241.242.578.483.868.674a3.145 3.145 0 001.59.435c.916 0 1.494-.481 1.783-.867.337-.434.674-1.445.916-2.072l.386-1.35-7.084-17.638h3.324l4.24 10.554c.435 1.011.869 2.555.965 2.988h.144c.53-2.024.772-2.7 1.206-3.952l3.035-9.59H198" id="Fill-17"/><path d="M68.317 36.551l.097-.145.145.145c1.107.916 2.216 1.349 3.711 1.349 3.324 0 5.493-2.362 5.493-5.927V15.058H74.39v16.915c0 2.409-1.639 2.554-2.12 2.554-.435 0-1.013-.048-1.447-.482-.482-.434-.722-1.156-.722-2.072V15.058h-3.374v16.915c0 2.409-1.638 2.554-2.168 2.554-.386 0-.964-.048-1.398-.482-.482-.434-.723-1.156-.723-2.072V15.058h-3.373v16.915c0 1.832.578 3.373 1.639 4.433.963.964 2.361 1.494 3.855 1.494 1.494 0 2.698-.481 3.758-1.349" id="Fill-18"/><path d="M93.233 34.238c-.53.241-1.157.53-1.928.771-.915.29-1.639.433-2.602.433-1.591 0-3.037-.529-3.808-1.397-.53-.578-1.156-1.734-1.156-3.759v-.433h10.313v-.771c0-2.699-.096-4.917-1.735-6.7-1.108-1.156-2.796-1.975-4.964-1.975-2.265 0-3.999 1.012-5.06 2.168-1.783 2.025-1.928 4.626-1.928 6.265 0 1.88.241 4.676 1.976 6.602 1.157 1.254 3.084 2.41 5.88 2.41a10.93 10.93 0 003.951-.723c.723-.241 1.494-.675 2.024-.964l-.963-1.927zm-9.494-6.987c0-1.929.578-2.988 1.108-3.567a3.237 3.237 0 012.506-1.109c.868 0 1.735.241 2.362.868 1.108 1.012 1.108 2.313 1.108 3.518v.675h-7.084v-.385z" id="Fill-19"/><path d="M108.364 22.094c-1.205-1.061-2.891-1.687-4.626-1.687-.771 0-1.59.144-2.169.241-.481.144-1.108.385-1.638.578v-6.602h-3.036v21.444c1.783 1.061 3.904 1.784 6.313 1.784 1.782 0 4.193-.385 5.927-2.651 1.398-1.88 1.687-4.24 1.687-6.168 0-1.832-.144-4.964-2.458-6.939zm-5.205.481c1.205 0 2.459.386 3.23 1.206 1.06 1.157 1.06 2.89 1.06 4.385v1.445c0 2.844-.482 4-.916 4.627-.482.627-1.493 1.398-3.228 1.398-.627 0-1.399-.194-1.977-.337-.432-.146-.963-.434-1.397-.676V23.587l3.228-1.012z" id="Fill-20"/></g></g></g></svg>