<?xml version="1.0" encoding="UTF-8"?>
<svg width="52px" height="52px" viewBox="0 0 52 52" version="1.1" xmlns="http://www.w3.org/2000/svg" xmlns:xlink="http://www.w3.org/1999/xlink">
    <!-- Generator: Sketch 52.5 (67469) - http://www.bohemiancoding.com/sketch -->
    <title>Untitled</title>
    <desc>Created with Sketch.</desc>
    <defs>
        <polygon id="path-1" points="0 0.000203125 52 0.000203125 52 51.9999898 0 51.9999898"></polygon>
    </defs>
    <g id="Page-1" stroke="none" stroke-width="1" fill="none" fill-rule="evenodd">
        <g id="Group-10">
            <path d="M38.8674377,46.4925565 C38.5956736,46.0205037 37.995536,45.8596913 37.5265712,46.1335471 L37.488799,46.155602 C37.0202266,46.4295567 36.8607982,47.0347298 37.1325623,47.507277 C37.314556,47.8233635 37.6437143,48 37.9819969,48 C38.1489797,48 38.3185134,47.9568793 38.4734288,47.8662863 L38.511201,47.8442315 C38.9797734,47.5701778 39.1392018,46.9650048 38.8674377,46.4925565" id="Fill-1" fill="#FF336D"></path>
            <g id="Group-5">
                <mask id="mask-2" fill="white">
                    <use xlink:href="#path-1"></use>
                </mask>
                <g id="Clip-4"></g>
                <path d="M19.0011758,18.0681617 C19.4541445,17.8132398 20.5055195,17.7759664 21.2731289,17.7487477 C21.5807617,17.7378805 21.8714336,17.7275211 22.1310273,17.7057867 C22.2680352,17.6943102 22.4201758,17.696443 22.5636836,17.7076148 C22.4995977,17.8721461 22.4787773,18.0527242 22.5066055,18.2318805 C22.555457,18.5470289 22.7497461,18.8207398 23.0308711,18.9711539 C23.2214023,19.0731227 23.486582,19.249943 23.7673008,19.4371227 C24.5610117,19.9662633 25.4607539,20.5659898 26.305957,20.619818 C27.074582,20.6696852 27.5022617,20.2316461 27.6854805,20.0450758 C27.7001055,20.0302477 27.713918,20.0154195 27.728543,20.0019117 C27.8317305,19.917818 27.928418,19.8050836 28.0003242,19.6690914 C28.1627227,19.7155055 28.3333477,19.7617164 28.5082383,19.8091461 C29.1095898,19.9719508 30.2289102,20.2750133 30.4762148,20.5370445 C30.9154727,21.0027086 31.2578398,21.8890445 31.5599883,22.6709742 C31.7126367,23.0661539 31.8568555,23.4390914 32.0186445,23.7849117 C32.0881133,23.9332945 32.1564648,24.0861461 32.2259336,24.2409273 C32.694543,25.2862086 33.2257148,26.4710367 34.3525508,27.207568 C34.8635117,27.541607 35.4898477,27.6375836 36.0425508,27.7223883 C36.1093789,27.7326461 36.185957,27.7444273 36.2637539,27.7572242 C35.935707,28.2148648 35.4686211,28.6497555 34.9751289,29.1093258 C33.7178867,30.2801383 32.1532148,31.737357 32.8738008,34.0620211 C33.2139336,35.1598102 33.2297773,35.2784352 32.6828633,35.8732867 C32.6083164,35.9544352 32.5388477,36.0283727 32.4737461,36.0976383 C32.0053398,36.5963102 31.6353477,36.9901695 31.3290352,37.9550133 C31.2400664,38.2352242 31.124793,38.3650211 30.9154727,38.6007477 C30.7480977,38.7891461 30.5395898,39.0239586 30.347332,39.3530211 C30.1169883,39.7473883 30.0408164,40.1269273 29.9797773,40.4319195 C29.9195508,40.7320367 29.8854258,40.8826539 29.7676133,41.0272789 C29.4993867,41.3565445 28.9990898,41.8347008 28.4854883,42.1610211 C28.0081445,42.4641852 27.729457,42.5055211 27.6344961,42.4998336 C27.5261289,42.3837477 27.1335898,41.8749195 26.5404648,40.1145367 C26.3942148,39.6802555 26.191293,39.2333805 25.9950742,38.801232 C25.5625195,37.8485758 25.1153398,36.8634195 25.3328867,36.1901617 C25.358582,36.1107398 25.3839727,36.0331461 25.408957,35.9572789 C25.7565039,34.897982 26.0845508,33.897693 25.4768008,32.4412867 C25.2917539,31.9977633 24.9971211,31.6736773 24.7374258,31.3876773 C24.5693398,31.202732 24.3789102,30.993107 24.3495586,30.8724508 C24.3138086,30.7252867 24.3149258,30.5553727 24.3162461,30.3586461 C24.3196992,29.827982 24.3249805,29.0261461 23.5278164,28.2796617 C22.4039258,27.2276773 21.0933633,27.5517633 20.2260195,27.7662633 C19.9596211,27.8320758 19.7079492,27.8944352 19.484918,27.9206383 C18.058168,28.0878102 16.7843711,27.5495289 15.9891367,26.4429039 C15.1572383,25.2853961 15.0364805,23.727732 15.6740898,22.3779664 C15.9827383,21.724818 16.4490117,21.2000445 16.988918,20.5927008 C17.106832,20.4599586 17.2258633,20.3260992 17.3448945,20.1889898 C17.5429414,19.9606773 17.7608945,19.6515211 17.9913398,19.3241852 C18.2664727,18.9336773 18.7787539,18.2064898 19.0011758,18.0681617 Z M10.7207852,12.518482 L9.52610547,13.7984742 C9.47278516,13.8556539 9.42616797,13.9188258 9.38726953,13.9866695 L6.67433203,18.7231383 L4.26313672,20.4472633 C3.81402734,20.7684039 3.70373047,21.3892555 4.01471484,21.8454742 L4.91648828,23.1682242 C4.39669141,23.2456148 3.93021484,23.3093961 3.62004297,23.3432164 C3.56042578,23.2860367 3.49806641,23.2280445 3.43357422,23.1681227 C3.19216016,22.9438727 2.85669922,22.6443648 2.35660547,22.206732 C3.18139453,17.1018961 5.64123828,12.2927086 9.50995703,8.62173203 C10.2507539,8.85502109 10.858707,9.40762266 11.1556758,10.1284117 C11.4898164,10.9390836 11.3189883,11.877318 10.7207852,12.518482 Z M4.80202734,28.7165836 L8.98975391,31.9006695 C9.11355859,31.994818 9.25716797,32.0592086 9.40971484,32.0889664 L11.9337461,32.5821539 C12.2559023,32.6451227 12.5246367,32.8356539 12.6906914,33.1188102 C12.8567461,33.4018648 12.8916836,33.7294039 12.7895117,34.0413023 C12.5792773,34.6824664 12.5782617,35.3605992 12.7867695,36.0022711 L13.1085195,36.9923023 C13.3007773,37.5839039 12.9755742,38.221818 12.3839727,38.4141773 L11.3747461,38.7420211 C11.0226289,38.8563805 10.7608008,39.1533492 10.6912305,39.5167398 L9.87893359,43.7568727 C8.09316016,42.1224273 6.52523828,40.1907086 5.25255859,37.9862945 C3.69987109,35.2972242 2.72974609,32.4289977 2.30216797,29.5287789 L4.80202734,28.7165836 Z M48.5157461,13.0082164 C45.0441367,6.99520859 39.4388008,2.69413828 32.7322227,0.897091406 C26.0258477,-0.899955469 19.0208789,0.0223335937 13.0078711,3.49384141 C6.99496484,6.96534922 2.69379297,12.5707867 0.896847656,19.2772633 C-0.900097656,25.9837398 0.0220898438,32.9889117 3.49359766,39.0017164 C6.60760547,44.3953961 11.5569492,48.4945602 17.4299023,50.5438883 C20.213832,51.515232 23.120043,51.9999898 26.0217852,51.9999898 C29.1768242,51.9999898 32.3261758,51.426568 35.3030742,50.2824664 C35.8266289,50.0813727 36.0878477,49.493732 35.8865508,48.9701773 C35.6852539,48.4466227 35.0976133,48.1850992 34.5742617,48.3867008 C26.6503555,51.4322555 18.0721836,50.0484664 11.6632852,45.237857 L12.5731836,40.4882867 L13.0116289,40.3458961 C14.668418,39.8076148 15.578418,38.0217398 15.0403398,36.3648492 L14.7185898,35.3747164 C14.6441445,35.1455914 14.6445508,34.9033648 14.7196055,34.674443 C15.0018477,33.814107 14.9009961,32.8726227 14.4428477,32.0914039 C13.9846992,31.3102867 13.2123164,30.7625602 12.323543,30.5887867 L10.0312773,30.1408961 L5.60843359,26.7781617 C5.34345703,26.5766617 4.99662109,26.517857 4.67994922,26.6206383 L2.09051172,27.4617789 C2.03556641,26.5356305 2.03475391,25.6097867 2.08695703,24.688818 C2.18912891,24.783982 2.25565234,24.8486773 2.29658203,24.8911305 C2.34726172,24.9755289 2.41002734,25.0529195 2.48355859,25.1199508 C2.69501172,25.3125133 2.88655859,25.399857 3.28874609,25.399857 C3.65833203,25.3997555 4.20544922,25.3261227 5.10884766,25.1926695 C5.96562891,25.0660211 6.81794141,24.9233258 6.82637109,24.9219039 C7.16792578,24.8647242 7.45666797,24.6372242 7.59255859,24.3188258 C7.72844922,24.0003258 7.69259766,23.6345992 7.49749609,23.3483961 L6.25223828,21.5218961 L8.03587891,20.2464742 C8.15470703,20.1614664 8.25383203,20.0518805 8.32644922,19.9251305 L11.0912852,15.0983727 L12.2057305,13.9042008 C13.3445508,12.6836227 13.6695508,10.8978492 13.0335664,9.35450547 C12.6583945,8.44420078 12.0031133,7.68634141 11.1835039,7.17558359 C12.0711602,6.47774766 13.0176211,5.83343516 14.0234961,5.25280234 C17.7140742,3.12202109 21.7416367,2.08943516 25.7268477,2.04992734 L23.9133477,4.32482578 L17.1883867,6.68239609 C16.9152852,6.77806797 16.6959102,6.98586484 16.5856133,7.25338047 L14.7075195,11.8062242 C14.574168,12.1297008 14.6165195,12.4987789 14.8197461,12.7835602 L17.5627461,16.6258727 C17.1699023,16.9842867 16.7875195,17.506318 16.330793,18.1544898 C16.1305117,18.4387633 15.9414023,18.707193 15.8106914,18.8577086 C15.697043,18.9887242 15.583293,19.116693 15.4705586,19.243443 C14.880582,19.9071539 14.2705977,20.5936148 13.8372305,21.5105211 C12.8843711,23.5274508 13.076832,25.8717164 14.339457,27.6285445 C15.5603398,29.3271773 17.5731055,30.1906617 19.7213555,29.9379742 C20.0713398,29.896943 20.3976602,29.8162008 20.713418,29.7379977 C21.5841133,29.5225836 21.859957,29.5010523 22.1392539,29.7624742 C22.2751445,29.889732 22.2876367,29.9138023 22.2848945,30.3453414 C22.2829648,30.6199664 22.280832,30.9616227 22.3754883,31.3517242 C22.5271211,31.9758258 22.9190508,32.4071617 23.2338945,32.753693 C23.3904023,32.925943 23.552293,33.103982 23.6021602,33.2235211 C23.9189336,33.9825992 23.7810117,34.4029664 23.4787617,35.3241383 C23.4528633,35.4029508 23.426457,35.4833883 23.3999492,35.565857 C22.9407852,36.9872242 23.580832,38.3972164 24.1455195,39.6408492 C24.3289414,40.0447633 24.5021055,40.4260289 24.6155508,40.7631148 C25.5286992,43.4725992 26.2132305,44.0932477 26.762582,44.3430914 C27.0503086,44.4738023 27.3480898,44.5311852 27.648918,44.5310836 C29.1129414,44.530982 30.6406445,43.1716695 31.3424414,42.3099117 C31.7832227,41.7687867 31.891793,41.2269508 31.9710117,40.8311617 C32.0105195,40.6343336 32.0415977,40.478943 32.1009102,40.3773805 C32.191707,40.2219898 32.2986523,40.1015367 32.4340352,39.9489898 C32.7063242,39.6423727 33.0452383,39.2609039 33.2647148,38.5693648 C33.4314805,38.0440836 33.5526445,37.9153023 33.953918,37.4879273 C34.023793,37.4136852 34.0982383,37.3342633 34.178168,37.2473258 C35.5308789,35.7753805 35.1825195,34.650982 34.813543,33.4604664 C34.5030664,32.4587555 35.0461211,31.8180992 36.3591211,30.5953883 C36.9282773,30.0653336 37.5167305,29.5173023 37.9716289,28.8587711 C38.1706914,28.5705367 38.7763086,27.6937477 38.401543,26.8246773 C38.0341914,25.972568 37.1005273,25.8293648 36.3503867,25.7143961 C36.0541289,25.6688961 35.6064414,25.6002398 35.4639492,25.507107 C34.835582,25.0962867 34.451168,24.2388961 34.0793477,23.4096383 C34.0053086,23.2445992 33.9322852,23.081693 33.8582461,22.9235602 C33.7262148,22.6414195 33.5942852,22.300068 33.4546367,21.9387086 C33.0851523,20.9823961 32.6664102,19.8984195 31.953543,19.1427945 C31.3127852,18.4638492 30.1049023,18.136818 29.039207,17.8481773 C28.680793,17.7511852 28.3424883,17.6595758 28.1193555,17.5772086 C27.9323789,17.5081461 27.729457,17.4956539 27.5358789,17.5411539 C27.0171992,17.6627242 26.6936211,17.7966852 26.4533242,17.9892477 C26.3898477,18.0401305 26.2018555,18.2072008 26.0917617,18.475732 C25.7199414,18.2972867 25.2086758,17.9565445 24.8940352,17.746818 C24.8875352,17.7424508 24.8809336,17.7380836 24.8744336,17.7337164 C24.9804648,17.3093883 24.8844883,16.9688492 24.7839414,16.7561773 C24.2166133,15.5561148 22.3333398,15.6500602 21.9618242,15.6816461 C21.7507773,15.699318 21.4837695,15.7087633 21.2013242,15.7187164 C20.7576992,15.7344586 20.2673555,15.7521305 19.7821914,15.806568 L19.8071758,15.7368961 C20.1754414,14.7108102 21.1553164,14.0214039 22.2454883,14.0214039 L22.8228711,14.0214039 C23.3835977,14.0214039 23.8383945,13.566607 23.8383945,13.0058805 C23.8383945,12.4451539 23.3835977,11.990357 22.8228711,11.990357 L22.2454883,11.990357 C20.6269883,11.990357 19.1448867,12.8421617 18.314207,14.1828883 L16.7994023,12.060943 L18.2897305,8.44846641 L24.8611289,6.14462266 C25.0413008,6.08145078 25.2001445,5.96871641 25.3192773,5.81931797 L28.2405195,2.15504453 C35.7047539,2.86506797 42.7308477,7.05005234 46.7569883,14.0235367 C47.8293867,15.8810133 48.6226914,17.8364977 49.1501055,19.836568 L48.719582,20.2204742 C48.1576367,20.7218883 47.8283711,21.4410523 47.8157773,22.193732 C47.8156758,22.2019586 47.8154727,22.2100836 47.815168,22.2182086 L47.1137773,20.2893336 C47.0092695,20.0015055 46.8553008,19.7375445 46.6564414,19.5048648 L45.405293,18.0400289 C44.9202305,17.472193 44.2139648,17.1466852 43.4673789,17.1466852 L41.935918,17.1466852 C41.3922539,17.1466852 40.8954102,17.4444664 40.6389648,17.9235367 C40.3825195,18.4027086 40.4105508,18.9814117 40.7120898,19.433568 L40.8670742,19.6662477 C39.8774492,20.5172398 38.7328398,21.1982164 37.5140898,21.657482 L35.414793,17.636318 L35.414793,16.7392164 C35.414793,16.4617477 35.3012461,16.1961617 35.100457,16.0047164 L33.2100742,14.2000523 C33.1057695,14.1005211 32.981457,14.0243492 32.8454648,13.9765133 L31.1437852,13.3785133 C30.6143398,13.1922477 30.0348242,13.4708336 29.8489648,13.9998727 C29.6630039,14.5291148 29.9411836,15.108732 30.4703242,15.294693 L31.9657305,15.8202789 L33.3837461,17.1738023 L33.3837461,17.8855523 C33.3837461,18.0491695 33.4233555,18.2104508 33.4991211,18.3555836 L36.1272539,23.389732 C36.3635898,23.8427008 36.900043,24.0496852 37.3788086,23.8725602 L38.144082,23.5904195 C39.9219336,22.934732 41.5697852,21.8800055 42.9095977,20.5403961 C43.2518633,20.1980289 43.305082,19.6618805 43.0364492,19.258982 L42.982418,19.1778336 L43.4673789,19.1778336 C43.6190117,19.1778336 43.7625195,19.2439508 43.8610352,19.3593258 L45.1121836,20.8241617 C45.1525039,20.8713883 45.1836836,20.9248102 45.2050117,20.9834117 L46.5857539,24.7801227 C46.7043789,25.1063414 46.9814414,25.3492789 47.3200508,25.4244352 C47.3931758,25.4405836 47.4668086,25.4485055 47.5400352,25.4485055 C47.8064336,25.4485055 48.0657227,25.3435914 48.258082,25.1510289 L48.915293,24.493818 C49.3314961,24.0775133 49.6180039,23.5508102 49.7549102,22.9669273 C50.7713477,31.1127477 47.5773086,39.5391852 40.826043,44.8382086 C40.3847539,45.1843336 40.3077695,45.8226539 40.6541992,46.2640445 C41.0004258,46.705232 41.6386445,46.7822164 42.0800352,46.4357867 C46.9542227,42.610232 50.3027383,37.1385523 51.508793,31.0286539 C52.7261211,24.8598492 51.6632695,18.4598883 48.5157461,13.0082164 Z" id="Fill-3" fill="#FF336D" mask="url(#mask-2)"></path>
            </g>
            <path d="M38.876096,38.8525377 C38.5577931,39.9888713 38.2761637,40.5192025 38.1136239,40.754448 C38.0948884,40.7290132 38.0745585,40.7004122 38.0528334,40.6674842 C37.8623897,40.3803138 38.1470088,39.6726778 38.3353597,39.2044033 L38.345425,39.1798128 C38.6491781,38.4246845 38.567958,37.8448557 38.5088617,37.421435 C38.4708926,37.1503065 38.4573393,37.0338974 38.5048754,36.8736899 C38.5439408,36.7420834 38.7774361,36.6143817 39.1292236,36.434544 C39.2851861,36.3547569 39.4568943,36.2670543 39.6301971,36.1608826 L38.876096,38.8525377 Z M41.9666446,34.6983293 L41.487197,32.7843877 C41.382458,32.366455 41.047612,32.0584936 40.6423089,32.0072018 C40.2365074,31.957071 39.8429638,32.171842 39.6481352,32.5519918 C39.5389117,32.7650742 39.4405507,32.9909267 39.3454783,33.2092859 C39.1855296,33.5767711 39.0200997,33.9566044 38.8479929,34.166415 C38.7513261,34.2840905 38.502982,34.4110534 38.263009,34.5336892 C37.6892863,34.8268753 36.9034945,35.2284495 36.603329,36.2419362 C36.4169713,36.8705238 36.4865316,37.3678214 36.5373564,37.7307685 C36.5813049,38.04559 36.5914699,38.1548224 36.5118443,38.3528127 L36.5018787,38.3772977 C36.1846719,39.1656706 35.5945059,40.6330786 36.4220538,41.8806498 C37.0125188,42.770973 37.633379,42.9999917 38.1158163,42.9999917 C38.2099917,43.0003083 38.2990847,42.9915486 38.3815006,42.9771954 C39.3979973,42.8012626 40.1621637,41.6816041 40.7866115,39.4529466 L41.9587717,35.2693984 C42.0108921,35.0832284 42.0136825,34.8856602 41.9666446,34.6983293 Z" id="Fill-6" fill="#FF336D"></path>
            <path d="M26.3527293,13.079139 L26.2874449,13.0558163 C25.783836,12.8755596 25.2315781,13.1462412 25.0547782,13.6612181 C24.8779784,14.1762939 25.1432749,14.7400903 25.6472707,14.9207424 L25.7124584,14.9440651 C25.8183642,14.9820139 25.9263011,15 26.0325939,15 C26.4318444,15 26.8055614,14.745328 26.9452218,14.3386633 C27.1220216,13.8235875 26.8567251,13.2596922 26.3527293,13.079139" id="Fill-8" fill="#FF336D"></path>
        </g>
    </g>
</svg>