<svg xmlns="http://www.w3.org/2000/svg" xmlns:xlink="http://www.w3.org/1999/xlink" width="55" height="55" viewBox="0 0 55 55">
    <defs>
        <path id="a" d="M.095.116h17.903v27.77H.095z"/>
        <path id="c" d="M0 55h55V0H0z"/>
    </defs>
    <g fill="none" fill-rule="evenodd">
        <path fill="#FF306F" d="M32.65 52.273a.908.908 0 0 1-.906.91h-2.721a.908.908 0 0 1-.907-.91v-1.818h4.535v1.818zm-7.256.91h-2.72a.908.908 0 0 1-.908-.91v-1.818h4.535v1.818a.908.908 0 0 1-.907.91zM10.33 41.21l2.17.352.352 2.175c.022.14.077.272.16.387l1.286 1.787-1.286 1.787a.898.898 0 0 0-.16.387L12.5 50.26l-2.171.352a.9.9 0 0 0-.386.16l-1.783 1.29-1.784-1.29a.899.899 0 0 0-.386-.16l-2.17-.352-.352-2.175a.897.897 0 0 0-.16-.387L2.023 45.91l1.286-1.787a.896.896 0 0 0 .16-.387l.351-2.175 2.17-.352a.888.888 0 0 0 .387-.161l1.784-1.29 1.783 1.29a.888.888 0 0 0 .386.16zm18.693-22.035l-1.815 1.818-1.814-1.818v-1.441h3.629v1.441zm-6.35-7.804a4.54 4.54 0 0 1 4.535-4.544 4.54 4.54 0 0 1 4.536 4.544 4.54 4.54 0 0 1-4.536 4.545 4.545 4.545 0 0 1-4.535-4.545zM39 34.095v-3.636a.908.908 0 1 0-1.814 0v3.636a.908.908 0 0 1-.907.909h-.907a.908.908 0 0 1-.907-.91v-9.998h3.628c.5 0 .907-.407.907-.909v-3.635a3.632 3.632 0 0 0-3.628-3.636h-3.73a6.372 6.372 0 0 0 1.447-6.952A6.35 6.35 0 0 0 27.21 5a6.349 6.349 0 0 0-5.881 3.964 6.37 6.37 0 0 0 1.446 6.952h-1.915a.908.908 0 0 0 0 1.818h2.721v1.818a.91.91 0 0 0 .266.642l2.455 2.46v3.26a.908.908 0 1 0 1.815 0v-3.26l2.455-2.46a.912.912 0 0 0 .266-.642v-1.818h4.535c1.002 0 1.814.814 1.814 1.818v2.726h-3.628c-.501 0-.907.407-.907.91v25.45h-4.535V37.73a.908.908 0 1 0-1.815 0v10.908h-4.535V34.095h7.257a.908.908 0 0 0 0-1.818h-7.257v-9.09a.908.908 0 1 0-1.814 0v10.908a.908.908 0 0 1-.907.909h-.907a.908.908 0 0 1-.907-.91v-9.089a.908.908 0 1 0-1.814 0v7.272h-3.628a4.545 4.545 0 0 0-4.535 4.544v1.354L5.49 39.447l-2.605.421a.908.908 0 0 0-.752.754l-.42 2.61-1.542 2.144a.91.91 0 0 0 0 1.064l1.542 2.144.42 2.61a.908.908 0 0 0 .752.754l2.605.42 2.14 1.546c.317.23.744.23 1.061 0l2.14-1.545 2.605-.421a.908.908 0 0 0 .752-.754l.42-2.61 1.542-2.144a.91.91 0 0 0 0-1.064l-1.542-2.144-.42-2.61a.908.908 0 0 0-.752-.754l-2.605-.42-1.763-1.273v-1.354a2.724 2.724 0 0 1 2.72-2.726h3.629a2.724 2.724 0 0 0 2.721 2.726h.907c.31-.003.617-.06.907-.167v15.62A2.724 2.724 0 0 0 22.673 55h2.721a2.702 2.702 0 0 0 1.814-.709 2.7 2.7 0 0 0 1.815.709h2.72a2.724 2.724 0 0 0 2.722-2.727V36.654c.29.108.597.164.907.167h.907A2.724 2.724 0 0 0 39 34.095zM45.283 7.059h1.5c.33 0 .598.103.801.308.203.206.305.474.305.806 0 .331-.102.6-.305.805-.203.206-.47.308-.801.308h-1.5V7.06zm-2.133 4.827h1.05v.955c0 .046.014.084.042.114.028.03.064.045.108.045h.783c.04 0 .076-.015.105-.045a.155.155 0 0 0 .045-.114v-.955h2.367c.044 0 .08-.014.108-.044a.16.16 0 0 0 .042-.115v-.636a.16.16 0 0 0-.042-.114.142.142 0 0 0-.108-.045h-2.367v-.587h1.594c.625 0 1.135-.202 1.53-.606.395-.405.593-.926.593-1.566s-.198-1.162-.593-1.567c-.395-.404-.906-.606-1.53-.606H44.35a.142.142 0 0 0-.108.045.16.16 0 0 0-.042.114v3.127h-1.05a.138.138 0 0 0-.108.047.162.162 0 0 0-.042.112v.741a.16.16 0 0 0 .042.114c.028.03.064.045.108.045h1.05v.587h-1.05a.142.142 0 0 0-.108.045.16.16 0 0 0-.042.114v.636a.16.16 0 0 0 .042.115c.028.03.064.044.108.044z"/>
        <g transform="translate(37)">
            <mask id="b" fill="#fff">
                <use xlink:href="#a"/>
            </mask>
            <path fill="#FF306F" d="M8.16 18.583v4.675c0 1.533-1.202 2.776-2.684 2.776H1.9c-.494 0-.894.415-.894.926 0 .511.4.925.894.925h3.577c2.469-.003 4.47-2.073 4.472-4.627v-4.675c4.567-.481 8.044-4.458 8.05-9.21 0-.51-.4-.925-.895-.925-.494 0-.894.415-.894.926.01 3.584-2.453 6.666-5.857 7.325-3.405.66-6.779-1.29-8.022-4.636-1.242-3.345 0-7.132 2.955-9.002 2.955-1.871 6.778-1.291 9.09 1.378a.877.877 0 0 0 .855.299.906.906 0 0 0 .671-.624.95.95 0 0 0-.195-.912C13.04.116 8.716-.762 5.12 1.052S-.47 6.93.236 11.006c.706 4.075 3.942 7.17 7.924 7.577" mask="url(#b)"/>
        </g>
        <mask id="d" fill="#fff">
            <use xlink:href="#c"/>
        </mask>
        <path fill="#FF306F" d="M8.1 19.075h1.8V6.378H8.1v12.697zM5.612 2.057a.896.896 0 0 1 1.273 0A5.647 5.647 0 0 1 8.1 4.564h-.027a5.616 5.616 0 0 1-2.464-1.225.912.912 0 0 1 .003-1.282zm6.139-.266a.9.9 0 0 1 .831.56.911.911 0 0 1-.195.988 5.619 5.619 0 0 1-2.464 1.225H9.9c.19-.926.61-1.788 1.22-2.507a.884.884 0 0 1 .631-.266zM16.2 19.075h-4.5V8.056l1.997 2.516a.896.896 0 0 0 1.265.142.912.912 0 0 0 .14-1.275l-2.43-3.061H16.2v12.697zM.9 20.89h2.7v3.576C3.603 26.97 5.616 28.997 8.1 29h3.6c.497 0 .9-.406.9-.907 0-.5-.403-.907-.9-.907H8.1a2.71 2.71 0 0 1-2.7-2.72v-3.577h11.7c.497 0 .9-.406.9-.907V5.471c0-.501-.403-.907-.9-.907h-3.393a2.736 2.736 0 0 0-.047-3.79 2.75 2.75 0 0 0-3.818 0A6.32 6.32 0 0 0 9 1.95 6.301 6.301 0 0 0 8.158.77a2.751 2.751 0 0 0-3.818 0 2.736 2.736 0 0 0-.047 3.794H.9c-.497 0-.9.406-.9.907v6.297c0 .5.403.906.9.906s.9-.406.9-.906v-5.39h3.527l-2.43 3.06a.911.911 0 0 0 .14 1.276.895.895 0 0 0 1.266-.142L6.3 8.056v11.02H4.753a.88.88 0 0 0-.253-.053.882.882 0 0 0-.253.052H1.8V17.21c0-.5-.403-.907-.9-.907s-.9.406-.9.907v2.773c0 .5.403.907.9.907zM52.333 38.428a.897.897 0 0 0-.889.905c0 .5.398.905.89.905.49 0 .888.405.888.905v8.143c0 .5-.398.904-.889.904H41.667a.897.897 0 0 1-.89-.904v-8.143c0-.5.399-.905.89-.905h.888c.491 0 .89-.405.89-.905V36.09l3.815 3.884a.878.878 0 0 0 1.247-.011.917.917 0 0 0 .01-1.269l-5.333-5.428a.88.88 0 0 0-.969-.196.905.905 0 0 0-.548.835v4.524c-1.474 0-2.667 1.216-2.667 2.715v8.143C39 50.785 40.193 52 41.667 52h10.666C53.806 52 55 50.785 55 49.286v-8.143c0-1.5-1.194-2.715-2.667-2.715" mask="url(#d)"/>
        <path fill="#FF306F" d="M43 45h2a1 1 0 0 0 0-2h-2a1 1 0 0 0 0 2M51 44a1 1 0 0 0-1-1h-2a1 1 0 0 0 0 2h2a1 1 0 0 0 1-1M42.875 49h5.25c.483 0 .875-.448.875-1s-.392-1-.875-1h-5.25c-.483 0-.875.448-.875 1s.392 1 .875 1M6.245 47.755a.835.835 0 0 0 1.18 0l3.34-3.34a.835.835 0 0 0-1.18-1.18l-3.34 3.34a.835.835 0 0 0 0 1.18M7 44a1 1 0 1 1-2 0 1 1 0 0 1 2 0M11 48a1 1 0 1 1-2 0 1 1 0 0 1 2 0" mask="url(#d)"/>
    </g>
</svg>
