<svg xmlns="http://www.w3.org/2000/svg" width="20.765" height="25" viewBox="0 0 20.765 25">
    <g>
        <g>
            <path fill="#e4eded" d="M23.595 50.1l.039.009H6.9l5.259-5.271a1.381 1.381 0 0 0 0-1.942l-.818-.819a1.369 1.369 0 0 0-1.932 0L.4 51.087a1.378 1.378 0 0 0 0 1.939l9.013 9.014a1.37 1.37 0 0 0 1.932 0l.818-.819a1.354 1.354 0 0 0 .4-.966 1.314 1.314 0 0 0-.4-.948l-5.318-5.3h16.768A1.417 1.417 0 0 0 25 52.605v-1.157a1.389 1.389 0 0 0-1.405-1.348z" transform="rotate(-90 -8.337 33.337) translate(0 41.674) translate(0 -41.674)"/>
        </g>
    </g>
</svg>
