<svg xmlns="http://www.w3.org/2000/svg" width="49.805" height="49.804" viewBox="0 0 49.805 49.804">
    <defs>
        <style>
            .cls-1{fill:#181818}.cls-2{clip-path:url(#clip-path)}.cls-3{clip-path:url(#clip-path-2)}.cls-4{clip-path:url(#clip-path-3)}.cls-5{clip-path:url(#clip-path-4)}.cls-6{clip-path:url(#clip-path-5)}.cls-7{clip-path:url(#clip-path-6)}.cls-8{clip-path:url(#clip-path-7)}.cls-9{clip-path:url(#clip-path-8)}.cls-10{clip-path:url(#clip-path-9)}
        </style>
        <clipPath id="clip-path">
            <path id="Path_16" d="M32.809 45.486a18.96 18.96 0 0 1-1.109-2.971c-.132-.409-.272-.841-.422-1.289a12.5 12.5 0 0 1 3.2-.4h.071c5 0 5.924 2.809 6.086 4.021.261 1.954-.735 3.789-1.768 4.064a3.227 3.227 0 0 1-.834.109c-2.292 0-4.491-2.322-5.223-3.535m-21.093 3.421c-1.032-.275-2.029-2.11-1.768-4.064.163-1.213 1.082-4.021 6.086-4.021h.072a12.533 12.533 0 0 1 3.2.4c-.15.449-.29.882-.422 1.289a18.909 18.909 0 0 1-1.108 2.972c-.731 1.214-2.93 3.534-5.223 3.534a3.228 3.228 0 0 1-.834-.108m11.726-6.064a7.449 7.449 0 0 0-.92-.833c.1-.528.194-1.048.279-1.547a24.32 24.32 0 0 1 2.488-7.7 24.29 24.29 0 0 1 2.495 7.707c.084.5.174 1.019.278 1.547a7.546 7.546 0 0 0-.919.831 8.21 8.21 0 0 0-1.85 3.472 8.208 8.208 0 0 0-1.85-3.479M1.668 38.861a3.292 3.292 0 0 1-.108-.834c0-2.293 2.321-4.493 3.534-5.224A18.977 18.977 0 0 1 8.066 31.7c.408-.134.841-.273 1.289-.423a12.564 12.564 0 0 1 .4 3.2v.071c0 5-2.809 5.924-4.02 6.086a4.816 4.816 0 0 1-.637.042c-1.7 0-3.183-.891-3.428-1.809m43.183 1.768c-1.212-.163-4.019-1.082-4.021-6.086v-.072a12.492 12.492 0 0 1 .4-3.2c.449.15.88.289 1.288.422a18.933 18.933 0 0 1 2.969 1.101c1.215.732 3.534 2.931 3.534 5.224a3.122 3.122 0 0 1-.107.834c-.245.919-1.726 1.81-3.427 1.81a4.808 4.808 0 0 1-.637-.042m-4.379-12.85a24.338 24.338 0 0 1-7.7-2.488 24.23 24.23 0 0 1 7.706-2.495c.5-.085 1.02-.175 1.548-.278a7.319 7.319 0 0 0 .832.919 8.193 8.193 0 0 0 3.471 1.849 8.216 8.216 0 0 0-3.479 1.852 7.171 7.171 0 0 0-.832.92c-.528-.106-1.049-.2-1.547-.279m-32.74-.642a8.228 8.228 0 0 0-3.478-1.851 8.185 8.185 0 0 0 3.471-1.849 7.426 7.426 0 0 0 .831-.919c.528.1 1.049.193 1.547.278a24.286 24.286 0 0 1 7.708 2.494 24.351 24.351 0 0 1-7.7 2.49c-.5.083-1.02.172-1.547.279a7.3 7.3 0 0 0-.833-.922m16.742 3.6h-.011a11.128 11.128 0 0 0-3.308-1.305 11.116 11.116 0 0 0-1.3-3.305v-.007c-.151-.263-.32-.536-.5-.814.185-.28.355-.555.509-.823s0-.005 0-.007a11.062 11.062 0 0 0 1.306-3.312 11.087 11.087 0 0 0 3.3-1.3h.011c.264-.152.536-.321.814-.5q.42.276.825.509h.007a11.089 11.089 0 0 0 3.3 1.3 11.073 11.073 0 0 0 1.305 3.305v.012c.154.267.326.543.508.823-.18.277-.349.55-.5.814s0 .007 0 .007a11.14 11.14 0 0 0-1.3 3.3 11.091 11.091 0 0 0-3.311 1.305h-.007c-.269.154-.544.325-.825.509-.277-.181-.55-.35-.814-.5M40.839 16.1v-.071c0-5 2.807-5.923 4.02-6.086 1.954-.261 3.788.735 4.064 1.768a3.25 3.25 0 0 1 .108.834c0 2.292-2.321 4.492-3.534 5.223a18.893 18.893 0 0 1-2.972 1.106c-.408.133-.841.272-1.289.422a12.493 12.493 0 0 1-.4-3.2M8.059 18.874a18.834 18.834 0 0 1-2.972-1.106c-1.215-.732-3.534-2.931-3.534-5.223a3.183 3.183 0 0 1 .107-.834c.275-1.034 2.111-2.03 4.063-1.768 1.213.161 4.021 1.081 4.021 6.086v.071a12.52 12.52 0 0 1-.4 3.2c-.449-.15-.881-.29-1.29-.422M22.8 10.1c-.084-.5-.175-1.019-.279-1.547a7.5 7.5 0 0 0 .92-.832 8.21 8.21 0 0 0 1.85-3.479 8.205 8.205 0 0 0 1.85 3.472 7.433 7.433 0 0 0 .919.832 78.85 78.85 0 0 0-.278 1.547 24.294 24.294 0 0 1-2.493 7.707 24.326 24.326 0 0 1-2.489-7.7M9.948 5.722c-.26-1.954.736-3.789 1.768-4.065a3.26 3.26 0 0 1 .834-.108c2.293 0 4.492 2.321 5.223 3.534a18.971 18.971 0 0 1 1.108 2.972c.132.408.271.841.422 1.289a12.469 12.469 0 0 1-3.2.4h-.072c-5 0-5.923-2.809-6.086-4.021m24.53 4.013a12.5 12.5 0 0 1-3.2-.4c.15-.449.29-.881.422-1.29a19.021 19.021 0 0 1 1.106-2.972c.732-1.214 2.931-3.534 5.223-3.534a3.226 3.226 0 0 1 .834.108c1.033.275 2.03 2.111 1.768 4.065-.162 1.212-1.082 4.02-6.086 4.021h-.071M32.3 1.53c-2.536 1.447-3.525 3.87-4.071 6.234a6.718 6.718 0 0 1-.557-.535 8.585 8.585 0 0 1-1.987-5.9.359.359 0 0 0-.329-.387.4.4 0 0 0-.094.011h-.034a.36.36 0 0 0-.329.387 8.592 8.592 0 0 1-1.986 5.9 6.623 6.623 0 0 1-.558.535c-.547-2.365-1.536-4.787-4.074-6.235A8.15 8.15 0 0 0 12.23.631a4.829 4.829 0 0 0-1.23.56l-.044.027a3.93 3.93 0 0 0-1.388 1.463.35.35 0 0 0 .011.344 5.666 5.666 0 0 0-.34 2.792c.39 2.911 2.93 4.643 6.8 4.643h.07a13.194 13.194 0 0 0 3.423-.432c1.065 3.1 2.584 6.78 5.016 8.77a3.49 3.49 0 0 1-.464.426 10.582 10.582 0 0 1-2.809 1.142c.023-.233.037-.456.037-.657a4.357 4.357 0 0 0-.292-1.717.359.359 0 0 0-.652.3 4.593 4.593 0 0 1 .155 2.211 4.6 4.6 0 0 1-2.222-.153A.359.359 0 0 0 18 21a4.34 4.34 0 0 0 1.718.292c.2 0 .432-.015.669-.038a10.53 10.53 0 0 1-1.144 2.82 3.393 3.393 0 0 1-.434.472c-1.989-2.436-5.671-3.956-8.778-5.023a13.185 13.185 0 0 0 .434-3.421v-.07c0-3.873-1.732-6.414-4.642-6.8a5.687 5.687 0 0 0-2.793.34.356.356 0 0 0-.344-.011 3.939 3.939 0 0 0-1.462 1.393L1.193 11a4.912 4.912 0 0 0-.56 1.225 8.149 8.149 0 0 0 .907 6.052c1.447 2.537 3.869 3.527 6.234 4.074a6.606 6.606 0 0 1-.533.558 8.586 8.586 0 0 1-5.9 1.986.36.36 0 0 0-.387.329.392.392 0 0 0 .012.094.273.273 0 0 0 0 .034.359.359 0 0 0 .387.328 8.593 8.593 0 0 1 5.9 1.987 6.388 6.388 0 0 1 .535.557c-2.365.547-4.787 1.536-6.234 4.074a8.15 8.15 0 0 0-.907 6.053 4.887 4.887 0 0 0 .553 1.221.382.382 0 0 0 .026.043 3.939 3.939 0 0 0 1.465 1.395.353.353 0 0 0 .346-.01 5.667 5.667 0 0 0 2.79.341c2.911-.39 4.644-2.93 4.644-6.8v-.069a13.187 13.187 0 0 0-.431-3.423c3.1-1.067 6.78-2.585 8.771-5.016a3.53 3.53 0 0 1 .425.464 10.567 10.567 0 0 1 1.143 2.813 6.909 6.909 0 0 0-.66-.037 4.341 4.341 0 0 0-1.719.288.359.359 0 0 0 .3.652 4.6 4.6 0 0 1 2.214-.155 4.6 4.6 0 0 1-.153 2.218.359.359 0 0 0 .652.3 4.348 4.348 0 0 0 .293-1.718 6.632 6.632 0 0 0-.039-.664 10.573 10.573 0 0 1 2.818 1.143 3.54 3.54 0 0 1 .464.426c-2.432 1.99-3.95 5.668-5.016 8.771a13.161 13.161 0 0 0-3.423-.434h-.07c-3.873 0-6.413 1.733-6.8 4.643a5.665 5.665 0 0 0 .34 2.792.35.35 0 0 0-.011.344 3.926 3.926 0 0 0 1.393 1.464.42.42 0 0 0 .044.026 4.83 4.83 0 0 0 1.226.561 8.154 8.154 0 0 0 6.051-.907c2.539-1.448 3.528-3.869 4.074-6.235a6.622 6.622 0 0 1 .558.535 8.593 8.593 0 0 1 1.986 5.9.36.36 0 0 0 .329.387h.034a.4.4 0 0 0 .094.012.36.36 0 0 0 .329-.387 8.584 8.584 0 0 1 1.987-5.9 6.609 6.609 0 0 1 .557-.535c.547 2.365 1.536 4.787 4.074 6.234a8.149 8.149 0 0 0 6.052.907 4.893 4.893 0 0 0 1.226-.56l.043-.027a3.937 3.937 0 0 0 1.393-1.463.355.355 0 0 0-.012-.345 5.665 5.665 0 0 0 .341-2.792c-.39-2.911-2.931-4.643-6.8-4.643h-.07a13.221 13.221 0 0 0-3.422.433c-1.067-3.107-2.587-6.789-5.023-8.777a3.472 3.472 0 0 1 .471-.434 10.529 10.529 0 0 1 2.818-1.144 7.15 7.15 0 0 0-.038.672 4.325 4.325 0 0 0 .293 1.718.359.359 0 0 0 .652-.3 4.575 4.575 0 0 1-.153-2.225 4.59 4.59 0 0 1 2.213.155.359.359 0 0 0 .3-.651 4.3 4.3 0 0 0-1.718-.293c-.2 0-.424.015-.659.037a10.6 10.6 0 0 1 1.142-2.807 3.436 3.436 0 0 1 .426-.463c1.991 2.431 5.667 3.949 8.771 5.016a13.156 13.156 0 0 0-.433 3.423v.07c0 3.872 1.734 6.412 4.644 6.8A5.65 5.65 0 0 0 47.549 41a.354.354 0 0 0 .344.012 3.937 3.937 0 0 0 1.465-1.394l.026-.043a4.874 4.874 0 0 0 .56-1.225 8.154 8.154 0 0 0-.907-6.053c-1.448-2.537-3.87-3.526-6.235-4.074a6.84 6.84 0 0 1 .534-.556 8.6 8.6 0 0 1 5.9-1.988.36.36 0 0 0 .387-.329v-.034a.387.387 0 0 0 .012-.094.36.36 0 0 0-.388-.329 8.581 8.581 0 0 1-5.9-1.986 6.855 6.855 0 0 1-.535-.558c2.366-.546 4.787-1.536 6.234-4.074a8.148 8.148 0 0 0 .908-6.051A4.921 4.921 0 0 0 49.391 11a.323.323 0 0 1-.027-.044A3.952 3.952 0 0 0 47.9 9.56a.355.355 0 0 0-.345.012 5.657 5.657 0 0 0-2.793-.34c-2.91.389-4.642 2.93-4.642 6.8v.07a13.154 13.154 0 0 0 .434 3.422c-3.107 1.068-6.789 2.587-8.778 5.023a3.474 3.474 0 0 1-.434-.471 10.558 10.558 0 0 1-1.142-2.812c.237.023.464.038.668.038a4.321 4.321 0 0 0 1.718-.293.359.359 0 0 0-.3-.651 4.591 4.591 0 0 1-2.221.153 4.586 4.586 0 0 1 .154-2.218.359.359 0 0 0-.652-.3 4.349 4.349 0 0 0-.294 1.718c0 .2.015.428.039.664a10.578 10.578 0 0 1-2.81-1.142 3.433 3.433 0 0 1-.471-.435c2.436-1.988 3.956-5.67 5.023-8.777a13.159 13.159 0 0 0 3.422.433h.07c3.873 0 6.414-1.732 6.8-4.643a5.666 5.666 0 0 0-.341-2.792.354.354 0 0 0 .012-.344 3.94 3.94 0 0 0-1.393-1.465l-.043-.026a4.893 4.893 0 0 0-1.226-.56A6.46 6.46 0 0 0 36.548.38 8.75 8.75 0 0 0 32.3 1.53" class="cls-1" data-name="Path 16" transform="translate(-.39 -.38)"/>
        </clipPath>
        <clipPath id="clip-path-2">
            <path id="Path_18" d="M32.309 35.238l-1.556 1.316a.359.359 0 0 0 .464.548l1.555-1.316a.359.359 0 1 0-.464-.547" class="cls-1" data-name="Path 18" transform="translate(-30.627 -35.153)"/>
        </clipPath>
        <clipPath id="clip-path-3">
            <path id="Path_20" d="M35.02 35.28a.359.359 0 0 0 .041.506l1.556 1.314a.359.359 0 0 0 .464-.548l-1.555-1.316a.358.358 0 0 0-.506.042" class="cls-1" data-name="Path 20" transform="translate(-34.935 -35.153)"/>
        </clipPath>
        <clipPath id="clip-path-4">
            <path id="Path_22" d="M33.737 36.075c-.157.423-.636 1.85-.226 2.44a.663.663 0 0 0 .562.285.654.654 0 0 0 .55-.279c.409-.583-.059-2.017-.214-2.443l-.332-.925z" class="cls-1" data-name="Path 22" transform="translate(-33.349 -35.154)"/>
        </clipPath>
        <clipPath id="clip-path-5">
            <path id="Path_24" d="M33.511 28.8c-.41.59.069 2.016.226 2.439l.34.922.332-.925c.154-.426.623-1.86.214-2.443a.655.655 0 0 0-.55-.28.664.664 0 0 0-.562.286" class="cls-1" data-name="Path 24" transform="translate(-33.349 -28.512)"/>
        </clipPath>
        <clipPath id="clip-path-6">
            <path id="Path_26" d="M36.422 30.743L35.106 32.3a.359.359 0 0 0 .548.464l1.316-1.556a.358.358 0 0 0-.043-.506.359.359 0 0 0-.506.043" class="cls-1" data-name="Path 26" transform="translate(-35.022 -30.616)"/>
        </clipPath>
        <clipPath id="clip-path-7">
            <path id="Path_28" d="M35.944 33.725l-.922.341.925.333c.426.153 1.861.621 2.442.212a.651.651 0 0 0 .281-.55.665.665 0 0 0-.286-.562 1.183 1.183 0 0 0-.67-.162 5.865 5.865 0 0 0-1.77.387" class="cls-1" data-name="Path 28" transform="translate(-35.022 -33.338)"/>
        </clipPath>
        <clipPath id="clip-path-8">
            <path id="Path_30" d="M30.993 30.7a.36.36 0 0 0-.042.506l1.316 1.556a.359.359 0 0 0 .548-.464L31.5 30.743a.36.36 0 0 0-.506-.043" class="cls-1" data-name="Path 30" transform="translate(-30.867 -30.616)"/>
        </clipPath>
        <clipPath id="clip-path-9">
            <path id="Path_32" d="M28.951 33.5a.665.665 0 0 0-.286.562.652.652 0 0 0 .28.55c.582.409 2.016-.059 2.443-.212l.925-.333-.922-.341a5.859 5.859 0 0 0-1.77-.387 1.181 1.181 0 0 0-.67.162" class="cls-1" data-name="Path 32" transform="translate(-28.665 -33.338)"/>
        </clipPath>
    </defs>
    <g id="Group_716" data-name="Group 716" transform="translate(-.39 -.38)">
        <g id="Group_25" data-name="Group 25" transform="translate(.39 .38)">
            <path id="Path_15" d="M32.809 45.486a18.96 18.96 0 0 1-1.109-2.971c-.132-.409-.272-.841-.422-1.289a12.5 12.5 0 0 1 3.2-.4h.071c5 0 5.924 2.809 6.086 4.021.261 1.954-.735 3.789-1.768 4.064a3.227 3.227 0 0 1-.834.109c-2.292 0-4.491-2.322-5.223-3.535m-21.093 3.421c-1.032-.275-2.029-2.11-1.768-4.064.163-1.213 1.082-4.021 6.086-4.021h.072a12.533 12.533 0 0 1 3.2.4c-.15.449-.29.882-.422 1.289a18.909 18.909 0 0 1-1.108 2.972c-.731 1.214-2.93 3.534-5.223 3.534a3.228 3.228 0 0 1-.834-.108m11.726-6.064a7.449 7.449 0 0 0-.92-.833c.1-.528.194-1.048.279-1.547a24.32 24.32 0 0 1 2.488-7.7 24.29 24.29 0 0 1 2.495 7.707c.084.5.174 1.019.278 1.547a7.546 7.546 0 0 0-.919.831 8.21 8.21 0 0 0-1.85 3.472 8.208 8.208 0 0 0-1.85-3.479M1.668 38.861a3.292 3.292 0 0 1-.108-.834c0-2.293 2.321-4.493 3.534-5.224A18.977 18.977 0 0 1 8.066 31.7c.408-.134.841-.273 1.289-.423a12.564 12.564 0 0 1 .4 3.2v.071c0 5-2.809 5.924-4.02 6.086a4.816 4.816 0 0 1-.637.042c-1.7 0-3.183-.891-3.428-1.809m43.183 1.768c-1.212-.163-4.019-1.082-4.021-6.086v-.072a12.492 12.492 0 0 1 .4-3.2c.449.15.88.289 1.288.422a18.933 18.933 0 0 1 2.969 1.101c1.215.732 3.534 2.931 3.534 5.224a3.122 3.122 0 0 1-.107.834c-.245.919-1.726 1.81-3.427 1.81a4.808 4.808 0 0 1-.637-.042m-4.379-12.85a24.338 24.338 0 0 1-7.7-2.488 24.23 24.23 0 0 1 7.706-2.495c.5-.085 1.02-.175 1.548-.278a7.319 7.319 0 0 0 .832.919 8.193 8.193 0 0 0 3.471 1.849 8.216 8.216 0 0 0-3.479 1.852 7.171 7.171 0 0 0-.832.92c-.528-.106-1.049-.2-1.547-.279m-32.74-.642a8.228 8.228 0 0 0-3.478-1.851 8.185 8.185 0 0 0 3.471-1.849 7.426 7.426 0 0 0 .831-.919c.528.1 1.049.193 1.547.278a24.286 24.286 0 0 1 7.708 2.494 24.351 24.351 0 0 1-7.7 2.49c-.5.083-1.02.172-1.547.279a7.3 7.3 0 0 0-.833-.922m16.742 3.6h-.011a11.128 11.128 0 0 0-3.308-1.305 11.116 11.116 0 0 0-1.3-3.305v-.007c-.151-.263-.32-.536-.5-.814.185-.28.355-.555.509-.823s0-.005 0-.007a11.062 11.062 0 0 0 1.306-3.312 11.087 11.087 0 0 0 3.3-1.3h.011c.264-.152.536-.321.814-.5q.42.276.825.509h.007a11.089 11.089 0 0 0 3.3 1.3 11.073 11.073 0 0 0 1.305 3.305v.012c.154.267.326.543.508.823-.18.277-.349.55-.5.814s0 .007 0 .007a11.14 11.14 0 0 0-1.3 3.3 11.091 11.091 0 0 0-3.311 1.305h-.007c-.269.154-.544.325-.825.509-.277-.181-.55-.35-.814-.5M40.839 16.1v-.071c0-5 2.807-5.923 4.02-6.086 1.954-.261 3.788.735 4.064 1.768a3.25 3.25 0 0 1 .108.834c0 2.292-2.321 4.492-3.534 5.223a18.893 18.893 0 0 1-2.972 1.106c-.408.133-.841.272-1.289.422a12.493 12.493 0 0 1-.4-3.2M8.059 18.874a18.834 18.834 0 0 1-2.972-1.106c-1.215-.732-3.534-2.931-3.534-5.223a3.183 3.183 0 0 1 .107-.834c.275-1.034 2.111-2.03 4.063-1.768 1.213.161 4.021 1.081 4.021 6.086v.071a12.52 12.52 0 0 1-.4 3.2c-.449-.15-.881-.29-1.29-.422M22.8 10.1c-.084-.5-.175-1.019-.279-1.547a7.5 7.5 0 0 0 .92-.832 8.21 8.21 0 0 0 1.85-3.479 8.205 8.205 0 0 0 1.85 3.472 7.433 7.433 0 0 0 .919.832 78.85 78.85 0 0 0-.278 1.547 24.294 24.294 0 0 1-2.493 7.707 24.326 24.326 0 0 1-2.489-7.7M9.948 5.722c-.26-1.954.736-3.789 1.768-4.065a3.26 3.26 0 0 1 .834-.108c2.293 0 4.492 2.321 5.223 3.534a18.971 18.971 0 0 1 1.108 2.972c.132.408.271.841.422 1.289a12.469 12.469 0 0 1-3.2.4h-.072c-5 0-5.923-2.809-6.086-4.021m24.53 4.013a12.5 12.5 0 0 1-3.2-.4c.15-.449.29-.881.422-1.29a19.021 19.021 0 0 1 1.106-2.972c.732-1.214 2.931-3.534 5.223-3.534a3.226 3.226 0 0 1 .834.108c1.033.275 2.03 2.111 1.768 4.065-.162 1.212-1.082 4.02-6.086 4.021h-.071M32.3 1.53c-2.536 1.447-3.525 3.87-4.071 6.234a6.718 6.718 0 0 1-.557-.535 8.585 8.585 0 0 1-1.987-5.9.359.359 0 0 0-.329-.387.4.4 0 0 0-.094.011h-.034a.36.36 0 0 0-.329.387 8.592 8.592 0 0 1-1.986 5.9 6.623 6.623 0 0 1-.558.535c-.547-2.365-1.536-4.787-4.074-6.235A8.15 8.15 0 0 0 12.23.631a4.829 4.829 0 0 0-1.23.56l-.044.027a3.93 3.93 0 0 0-1.388 1.463.35.35 0 0 0 .011.344 5.666 5.666 0 0 0-.34 2.792c.39 2.911 2.93 4.643 6.8 4.643h.07a13.194 13.194 0 0 0 3.423-.432c1.065 3.1 2.584 6.78 5.016 8.77a3.49 3.49 0 0 1-.464.426 10.582 10.582 0 0 1-2.809 1.142c.023-.233.037-.456.037-.657a4.357 4.357 0 0 0-.292-1.717.359.359 0 0 0-.652.3 4.593 4.593 0 0 1 .155 2.211 4.6 4.6 0 0 1-2.222-.153A.359.359 0 0 0 18 21a4.34 4.34 0 0 0 1.718.292c.2 0 .432-.015.669-.038a10.53 10.53 0 0 1-1.144 2.82 3.393 3.393 0 0 1-.434.472c-1.989-2.436-5.671-3.956-8.778-5.023a13.185 13.185 0 0 0 .434-3.421v-.07c0-3.873-1.732-6.414-4.642-6.8a5.687 5.687 0 0 0-2.793.34.356.356 0 0 0-.344-.011 3.939 3.939 0 0 0-1.462 1.393L1.193 11a4.912 4.912 0 0 0-.56 1.225 8.149 8.149 0 0 0 .907 6.052c1.447 2.537 3.869 3.527 6.234 4.074a6.606 6.606 0 0 1-.533.558 8.586 8.586 0 0 1-5.9 1.986.36.36 0 0 0-.387.329.392.392 0 0 0 .012.094.273.273 0 0 0 0 .034.359.359 0 0 0 .387.328 8.593 8.593 0 0 1 5.9 1.987 6.388 6.388 0 0 1 .535.557c-2.365.547-4.787 1.536-6.234 4.074a8.15 8.15 0 0 0-.907 6.053 4.887 4.887 0 0 0 .553 1.221.382.382 0 0 0 .026.043 3.939 3.939 0 0 0 1.465 1.395.353.353 0 0 0 .346-.01 5.667 5.667 0 0 0 2.79.341c2.911-.39 4.644-2.93 4.644-6.8v-.069a13.187 13.187 0 0 0-.431-3.423c3.1-1.067 6.78-2.585 8.771-5.016a3.53 3.53 0 0 1 .425.464 10.567 10.567 0 0 1 1.143 2.813 6.909 6.909 0 0 0-.66-.037 4.341 4.341 0 0 0-1.719.288.359.359 0 0 0 .3.652 4.6 4.6 0 0 1 2.214-.155 4.6 4.6 0 0 1-.153 2.218.359.359 0 0 0 .652.3 4.348 4.348 0 0 0 .293-1.718 6.632 6.632 0 0 0-.039-.664 10.573 10.573 0 0 1 2.818 1.143 3.54 3.54 0 0 1 .464.426c-2.432 1.99-3.95 5.668-5.016 8.771a13.161 13.161 0 0 0-3.423-.434h-.07c-3.873 0-6.413 1.733-6.8 4.643a5.665 5.665 0 0 0 .34 2.792.35.35 0 0 0-.011.344 3.926 3.926 0 0 0 1.393 1.464.42.42 0 0 0 .044.026 4.83 4.83 0 0 0 1.226.561 8.154 8.154 0 0 0 6.051-.907c2.539-1.448 3.528-3.869 4.074-6.235a6.622 6.622 0 0 1 .558.535 8.593 8.593 0 0 1 1.986 5.9.36.36 0 0 0 .329.387h.034a.4.4 0 0 0 .094.012.36.36 0 0 0 .329-.387 8.584 8.584 0 0 1 1.987-5.9 6.609 6.609 0 0 1 .557-.535c.547 2.365 1.536 4.787 4.074 6.234a8.149 8.149 0 0 0 6.052.907 4.893 4.893 0 0 0 1.226-.56l.043-.027a3.937 3.937 0 0 0 1.393-1.463.355.355 0 0 0-.012-.345 5.665 5.665 0 0 0 .341-2.792c-.39-2.911-2.931-4.643-6.8-4.643h-.07a13.221 13.221 0 0 0-3.422.433c-1.067-3.107-2.587-6.789-5.023-8.777a3.472 3.472 0 0 1 .471-.434 10.529 10.529 0 0 1 2.818-1.144 7.15 7.15 0 0 0-.038.672 4.325 4.325 0 0 0 .293 1.718.359.359 0 0 0 .652-.3 4.575 4.575 0 0 1-.153-2.225 4.59 4.59 0 0 1 2.213.155.359.359 0 0 0 .3-.651 4.3 4.3 0 0 0-1.718-.293c-.2 0-.424.015-.659.037a10.6 10.6 0 0 1 1.142-2.807 3.436 3.436 0 0 1 .426-.463c1.991 2.431 5.667 3.949 8.771 5.016a13.156 13.156 0 0 0-.433 3.423v.07c0 3.872 1.734 6.412 4.644 6.8A5.65 5.65 0 0 0 47.549 41a.354.354 0 0 0 .344.012 3.937 3.937 0 0 0 1.465-1.394l.026-.043a4.874 4.874 0 0 0 .56-1.225 8.154 8.154 0 0 0-.907-6.053c-1.448-2.537-3.87-3.526-6.235-4.074a6.84 6.84 0 0 1 .534-.556 8.6 8.6 0 0 1 5.9-1.988.36.36 0 0 0 .387-.329v-.034a.387.387 0 0 0 .012-.094.36.36 0 0 0-.388-.329 8.581 8.581 0 0 1-5.9-1.986 6.855 6.855 0 0 1-.535-.558c2.366-.546 4.787-1.536 6.234-4.074a8.148 8.148 0 0 0 .908-6.051A4.921 4.921 0 0 0 49.391 11a.323.323 0 0 1-.027-.044A3.952 3.952 0 0 0 47.9 9.56a.355.355 0 0 0-.345.012 5.657 5.657 0 0 0-2.793-.34c-2.91.389-4.642 2.93-4.642 6.8v.07a13.154 13.154 0 0 0 .434 3.422c-3.107 1.068-6.789 2.587-8.778 5.023a3.474 3.474 0 0 1-.434-.471 10.558 10.558 0 0 1-1.142-2.812c.237.023.464.038.668.038a4.321 4.321 0 0 0 1.718-.293.359.359 0 0 0-.3-.651 4.591 4.591 0 0 1-2.221.153 4.586 4.586 0 0 1 .154-2.218.359.359 0 0 0-.652-.3 4.349 4.349 0 0 0-.294 1.718c0 .2.015.428.039.664a10.578 10.578 0 0 1-2.81-1.142 3.433 3.433 0 0 1-.471-.435c2.436-1.988 3.956-5.67 5.023-8.777a13.159 13.159 0 0 0 3.422.433h.07c3.873 0 6.414-1.732 6.8-4.643a5.666 5.666 0 0 0-.341-2.792.354.354 0 0 0 .012-.344 3.94 3.94 0 0 0-1.393-1.465l-.043-.026a4.893 4.893 0 0 0-1.226-.56A6.46 6.46 0 0 0 36.548.38 8.75 8.75 0 0 0 32.3 1.53" class="cls-1" data-name="Path 15" transform="translate(-.39 -.38)"/>
            <g id="Group_24" class="cls-2" data-name="Group 24">
                <path id="Rectangle_24" d="M0 0h50.377v50.369H0z" class="cls-1" data-name="Rectangle 24" transform="translate(-.286 -.279)"/>
            </g>
        </g>
        <g id="Group_27" data-name="Group 27" transform="translate(22.576 25.894)">
            <path id="Path_17" d="M32.309 35.238l-1.556 1.316a.359.359 0 0 0 .464.548l1.555-1.316a.359.359 0 1 0-.464-.547" class="cls-1" data-name="Path 17" transform="translate(-30.627 -35.153)"/>
            <g id="Group_26" class="cls-3" data-name="Group 26">
                <path id="Rectangle_25" d="M0 0h2.358v2.033H0z" class="cls-1" data-name="Rectangle 25" transform="translate(-.043)"/>
            </g>
        </g>
        <g id="Group_29" data-name="Group 29" transform="translate(25.737 25.894)">
            <path id="Path_19" d="M35.02 35.28a.359.359 0 0 0 .041.506l1.556 1.314a.359.359 0 0 0 .464-.548l-1.555-1.316a.358.358 0 0 0-.506.042" class="cls-1" data-name="Path 19" transform="translate(-34.935 -35.153)"/>
            <g id="Group_28" class="cls-4" data-name="Group 28">
                <path id="Rectangle_26" d="M0 0h2.358v2.033H0z" class="cls-1" data-name="Rectangle 26" transform="translate(-.043)"/>
            </g>
        </g>
        <g id="Group_31" data-name="Group 31" transform="translate(24.573 25.895)">
            <path id="Path_21" d="M33.737 36.075c-.157.423-.636 1.85-.226 2.44a.663.663 0 0 0 .562.285.654.654 0 0 0 .55-.279c.409-.583-.059-2.017-.214-2.443l-.332-.925z" class="cls-1" data-name="Path 21" transform="translate(-33.349 -35.154)"/>
            <g id="Group_30" class="cls-5" data-name="Group 30">
                <path id="Rectangle_27" d="M0 0h1.932v3.647H0z" class="cls-1" data-name="Rectangle 27" transform="translate(-.248)"/>
            </g>
        </g>
        <g id="Group_33" data-name="Group 33" transform="translate(24.573 21.021)">
            <path id="Path_23" d="M33.511 28.8c-.41.59.069 2.016.226 2.439l.34.922.332-.925c.154-.426.623-1.86.214-2.443a.655.655 0 0 0-.55-.28.664.664 0 0 0-.562.286" class="cls-1" data-name="Path 23" transform="translate(-33.349 -28.512)"/>
            <g id="Group_32" class="cls-6" data-name="Group 32">
                <path id="Rectangle_28" d="M0 0h1.932v3.647H0z" class="cls-1" data-name="Rectangle 28" transform="translate(-.248)"/>
            </g>
        </g>
        <g id="Group_35" data-name="Group 35" transform="translate(25.801 22.565)">
            <path id="Path_25" d="M36.422 30.743L35.106 32.3a.359.359 0 0 0 .548.464l1.316-1.556a.358.358 0 0 0-.043-.506.359.359 0 0 0-.506.043" class="cls-1" data-name="Path 25" transform="translate(-35.022 -30.616)"/>
            <g id="Group_34" class="cls-7" data-name="Group 34">
                <path id="Rectangle_29" d="M0 0h2.076v2.315H0z" class="cls-1" data-name="Rectangle 29" transform="translate(-.043)"/>
            </g>
        </g>
        <g id="Group_37" data-name="Group 37" transform="translate(25.801 24.562)">
            <path id="Path_27" d="M35.944 33.725l-.922.341.925.333c.426.153 1.861.621 2.442.212a.651.651 0 0 0 .281-.55.665.665 0 0 0-.286-.562 1.183 1.183 0 0 0-.67-.162 5.865 5.865 0 0 0-1.77.387" class="cls-1" data-name="Path 27" transform="translate(-35.022 -33.338)"/>
            <g id="Group_36" class="cls-8" data-name="Group 36">
                <path id="Rectangle_30" d="M0 0h3.647v1.683H0z" class="cls-1" data-name="Rectangle 30"/>
            </g>
        </g>
        <g id="Group_39" data-name="Group 39" transform="translate(22.752 22.565)">
            <path id="Path_29" d="M30.993 30.7a.36.36 0 0 0-.042.506l1.316 1.556a.359.359 0 0 0 .548-.464L31.5 30.743a.36.36 0 0 0-.506-.043" class="cls-1" data-name="Path 29" transform="translate(-30.867 -30.616)"/>
            <g id="Group_38" class="cls-9" data-name="Group 38">
                <path id="Rectangle_31" d="M0 0h2.075v2.315H0z" class="cls-1" data-name="Rectangle 31"/>
            </g>
        </g>
        <g id="Group_41" data-name="Group 41" transform="translate(21.136 24.562)">
            <path id="Path_31" d="M28.951 33.5a.665.665 0 0 0-.286.562.652.652 0 0 0 .28.55c.582.409 2.016-.059 2.443-.212l.925-.333-.922-.341a5.859 5.859 0 0 0-1.77-.387 1.181 1.181 0 0 0-.67.162" class="cls-1" data-name="Path 31" transform="translate(-28.665 -33.338)"/>
            <g id="Group_40" class="cls-10" data-name="Group 40">
                <path id="Rectangle_32" d="M0 0h3.648v1.683H0z" class="cls-1" data-name="Rectangle 32"/>
            </g>
        </g>
    </g>
</svg>
