<?xml version="1.0" encoding="UTF-8"?>
<svg width="76px" height="76px" viewBox="0 0 76 76" version="1.1" xmlns="http://www.w3.org/2000/svg" xmlns:xlink="http://www.w3.org/1999/xlink">
    <!-- Generator: Sketch 52.5 (67469) - http://www.bohemiancoding.com/sketch -->
    <title>Untitled 3</title>
    <desc>Created with Sketch.</desc>
    <g id="Page-1" stroke="none" stroke-width="1" fill="none" fill-rule="evenodd">
        <path d="M49.145,68.378 C48.4614464,66.9274081 47.9004889,65.4221553 47.468,63.878 C47.268,63.258 47.055,62.603 46.828,61.924 C48.4106833,61.5157706 50.0395461,61.3140955 51.674,61.324 L51.782,61.324 C59.368,61.324 60.763,65.582 61.008,67.424 C61.408,70.386 59.893,73.168 58.327,73.585 C57.9143408,73.6949689 57.4890604,73.7504402 57.062,73.75 C53.587,73.75 50.254,70.231 49.144,68.391 M17.17,73.561 C15.605,73.144 14.095,70.361 14.489,67.4 C14.736,65.561 16.129,61.3 23.715,61.3 L23.824,61.3 C25.4584165,61.290733 27.0871975,61.492398 28.67,61.9 C28.442,62.581 28.231,63.237 28.03,63.854 C27.5972028,65.4004058 27.0352257,66.9077087 26.35,68.36 C25.244,70.207 21.91,73.72 18.435,73.72 C18.0079836,73.7207665 17.582704,73.6656314 17.17,73.556 M34.945,64.364 C34.5159098,63.9052659 34.0492911,63.4831349 33.55,63.102 C33.708,62.302 33.845,61.514 33.973,60.757 C34.637,56.845 35.95,52.047 37.745,49.085 C39.545,52.047 40.86,56.852 41.527,60.768 C41.655,61.523 41.791,62.313 41.949,63.114 C41.4505623,63.4950565 40.9843227,63.9164782 40.555,64.374 C39.2090597,65.8755781 38.2481588,67.6817286 37.755,69.637 C37.2620009,67.6776573 36.2992636,65.8678484 34.95,64.364 M1.938,58.334 C1.82977889,57.9210418 1.77499817,57.4959031 1.775,57.069 C1.775,53.593 5.293,50.257 7.132,49.149 C8.58460437,48.4655835 10.0918666,47.9049595 11.638,47.473 C12.256,47.273 12.913,47.059 13.592,46.832 C13.9991093,48.414896 14.2007664,50.043613 14.192,51.678 L14.192,51.786 C14.192,59.373 9.934,60.767 8.098,61.012 C7.77774862,61.0543506 7.45503925,61.0753968 7.132,61.075 C4.554,61.075 2.307,59.725 1.932,58.332 M67.395,61.012 C65.558,60.765 61.302,59.372 61.295,51.786 L61.295,51.677 C61.2851145,50.0428766 61.48679,48.4143469 61.895,46.832 C62.576,47.059 63.23,47.27 63.848,47.472 C65.3922163,47.9043017 66.8974845,48.465265 68.348,49.149 C70.19,50.258 73.705,53.591 73.705,57.069 C73.7082273,57.4957097 73.6537335,57.920896 73.543,58.333 C73.172,59.727 70.926,61.077 68.343,61.077 C68.0199598,61.0774263 67.6972485,61.0563799 67.377,61.014 M60.763,41.53 C56.852,40.865 52.052,39.553 49.091,37.758 C52.052,35.958 56.858,34.64 60.773,33.976 C61.5570378,33.8449837 62.3394306,33.7043063 63.12,33.554 C63.5002066,34.0531392 63.9220509,34.5191417 64.381,34.947 C65.8817144,36.293625 67.6877209,37.2546319 69.643,37.747 C67.6836554,38.2410722 65.8739417,39.2044453 64.37,40.554 C63.9103283,40.9830136 63.4887473,41.4511024 63.11,41.953 C62.3306185,41.7978451 61.5484902,41.656822 60.764,41.53 M11.13,40.557 C9.62582481,39.2085425 7.81663312,38.2456078 5.858,37.751 C7.8134537,37.259085 9.61956386,36.298023 11.12,34.951 C11.5780729,34.5225786 11.9995397,34.0566237 12.38,33.558 C13.18,33.716 13.969,33.851 14.726,33.98 C18.644,34.646 23.449,35.96 26.411,37.761 C23.449,39.561 18.648,40.869 14.739,41.535 C13.983,41.661 13.193,41.796 12.393,41.958 C12.0128993,41.4563042 11.5907027,40.9879403 11.131,40.558 M36.51,46.01 L36.493,46.01 C34.9386115,45.0818142 33.2449483,44.4098864 31.477,44.02 C31.0906636,42.2543989 30.4227973,40.5624483 29.499,39.009 L29.499,38.999 C29.499,38.995 29.499,38.999 29.492,38.992 C29.2502896,38.5730847 28.9965169,38.1612459 28.731,37.757 C29.011,37.333 29.269,36.915 29.503,36.509 C29.503,36.509 29.509,36.509 29.509,36.502 L29.509,36.491 C30.435782,34.9352236 31.104441,33.2395987 31.489,31.47 C33.2509598,31.0835859 34.9392245,30.416046 36.489,29.493 L36.498,29.493 C36.5011109,29.4916734 36.5038554,29.489615 36.506,29.487 C36.906,29.257 37.319,29.001 37.739,28.727 C38.1636667,29.0063333 38.5803333,29.2636667 38.989,29.499 L39.005,29.499 C40.5558419,30.4252887 42.245849,31.0955512 44.01,31.484 C44.3955437,33.2499971 45.063817,34.9421233 45.989,36.495 L45.989,36.505 L45.996,36.513 C46.23,36.913 46.49,37.336 46.767,37.761 C46.493,38.181 46.239,38.594 46.007,38.995 L46.001,39.002 C45.995,39.009 46.001,39.012 46.001,39.012 C45.0799144,40.56252 44.4131349,42.2505694 44.026,44.012 C42.2584758,44.3971894 40.5646997,45.0651099 39.01,45.99 L39,45.99 C38.997,45.99 39,45.99 38.994,45.996 C38.586,46.23 38.169,46.489 37.744,46.768 C37.324,46.493 36.911,46.237 36.511,46.007 M61.321,23.826 L61.321,23.72 C61.321,16.135 65.577,14.741 67.415,14.495 C70.377,14.095 73.158,15.61 73.576,17.176 C73.6848271,17.5884996 73.7396187,18.0133867 73.739,18.44 C73.739,21.915 70.221,25.249 68.381,26.358 C66.9286572,27.0423047 65.4213477,27.6032808 63.875,28.035 C63.257,28.235 62.6,28.448 61.921,28.675 C61.5127154,27.0923272 61.3110394,25.4634572 61.321,23.829 M11.626,28.035 C10.081566,27.6033671 8.57624244,27.0423831 7.126,26.358 C5.284,25.248 1.769,21.916 1.769,18.44 C1.76689004,18.0133581 1.82136484,17.5883202 1.931,17.176 C2.348,15.609 5.131,14.098 8.091,14.495 C9.93,14.74 14.191,16.133 14.191,23.72 L14.191,23.828 C14.2004902,25.4624296 13.9988217,27.0912392 13.591,28.674 C12.91,28.447 12.255,28.235 11.636,28.034 M33.984,14.734 C33.8536075,13.9501245 33.7125946,13.1680526 33.561,12.388 C34.0600386,12.0069276 34.5266357,11.5851506 34.956,11.127 C36.3052731,9.62277317 37.2680005,7.81263973 37.761,5.853 C38.2539333,7.80835839 39.2148616,9.61456036 40.561,11.116 C40.9897313,11.5744284 41.4560203,11.9962293 41.955,12.377 C41.797,13.177 41.661,13.966 41.533,14.722 C40.867,18.638 39.552,23.445 37.751,26.407 C35.951,23.444 34.643,18.647 33.979,14.735 M14.49,8.098 C14.095,5.136 15.61,2.355 17.17,1.936 C17.5828557,1.82725331 18.0080627,1.77246379 18.435,1.773 C21.911,1.773 25.244,5.291 26.352,7.131 C27.0368182,8.58346301 27.5987823,10.0907312 28.032,11.637 C28.232,12.255 28.444,12.912 28.672,13.591 C27.0894071,13.9997052 25.4604822,14.201388 23.826,14.191 L23.717,14.191 C16.13,14.191 14.738,9.933 14.491,8.091 M51.676,14.174 C50.041548,14.1838708 48.4126896,13.9821962 46.83,13.574 C47.057,12.893 47.269,12.238 47.47,11.619 C47.9029015,10.0749791 48.4638464,8.56976027 49.147,7.119 C50.257,5.279 53.591,1.761 57.065,1.761 C57.4919739,1.75988433 57.9172557,1.81468349 58.33,1.924 C59.896,2.341 61.407,5.124 61.011,8.086 C60.765,9.923 59.37,14.18 51.785,14.186 L51.677,14.186 M48.377,1.747 C44.53,3.942 43.03,7.612 42.202,11.198 C41.9053511,10.9440711 41.6235525,10.6732906 41.358,10.387 C39.2717939,7.8890505 38.197166,4.70013151 38.346,1.449 C38.3575943,1.30494535 38.3113908,1.16219776 38.2175856,1.05225802 C38.1237804,0.942318279 37.990084,0.874223325 37.846,0.863 C37.7981582,0.862985119 37.7504863,0.868692318 37.704,0.88 C37.686,0.88 37.671,0.873 37.653,0.874 C37.3531908,0.897907868 37.1294222,1.1601647 37.153,1.46 C37.153,1.512 37.54,6.69 34.142,10.398 C33.8763546,10.6845459 33.594208,10.9553399 33.297,11.209 C32.47,7.62 30.971,3.949 27.122,1.754 C24.3588128,0.122075408 21.0690723,-0.370686329 17.949,0.38 C17.2926865,0.574691156 16.6669241,0.860475024 16.09,1.229 L16.023,1.27 C15.1373586,1.81249425 14.4089395,2.57711023 13.91,3.488 C13.8237905,3.65295436 13.8302404,3.8510044 13.927,4.01 C13.4017653,5.35480528 13.2239554,6.81030166 13.41,8.242 C14.001,12.654 17.851,15.281 23.722,15.281 L23.828,15.281 C25.578881,15.2907445 27.3234612,15.0705286 29.017,14.626 C30.632,19.326 32.935,24.905 36.617,27.926 C36.4035637,28.1619414 36.1692813,28.3781507 35.917,28.572 C34.5881215,29.3504112 33.1540698,29.9333946 31.659,30.303 C31.693,29.949 31.715,29.612 31.715,29.303 C31.7437683,28.415355 31.5930936,27.531034 31.272,26.703 C31.1403033,26.439642 30.8232358,26.3285102 30.5559415,26.4520223 C30.2886473,26.5755344 30.16779,26.8890238 30.283,27.16 C30.6336802,28.2410741 30.714362,29.3915628 30.518,30.511 C29.392954,30.7108731 28.2360283,30.6312035 27.149,30.279 C26.8761713,30.1525268 26.5524732,30.2711713 26.426,30.544 C26.2995268,30.8168287 26.4181713,31.1405268 26.691,31.267 C27.5188792,31.5886537 28.4033155,31.7393481 29.291,31.71 C29.6,31.71 29.946,31.688 30.305,31.652 C29.9389316,33.1505973 29.3575527,34.5882133 28.579,35.92 C28.3827188,36.1785617 28.1624028,36.4179628 27.921,36.635 C24.906,32.942 19.321,30.635 14.614,29.02 C15.0591773,27.3272266 15.2800668,25.5833092 15.271,23.833 L15.271,23.726 C15.271,17.855 12.646,14.003 8.234,13.413 C6.80205261,13.2278509 5.34653639,13.4052774 4.001,13.929 C3.84154871,13.8337814 3.64430883,13.8273578 3.479,13.912 C2.56785392,14.4118435 1.80297126,15.1408776 1.26,16.027 L1.218,16.095 C0.850995751,16.6723939 0.565308597,17.2976079 0.369,17.953 C-0.381764818,21.0735111 0.111370833,24.3637122 1.744,27.127 C3.937,30.973 7.609,32.474 11.194,33.302 C10.9410299,33.5991907 10.6709024,33.8813386 10.385,34.147 C7.88659744,36.2329981 4.69732626,37.3072676 1.446,37.158 C1.30184058,37.1463986 1.15898123,37.1925725 1.04888263,37.2863532 C0.938784029,37.380134 0.870475486,37.5138305 0.859,37.658 C0.859254256,37.7058858 0.865298125,37.7535653 0.877,37.8 C0.873905116,37.8171894 0.871901111,37.8345575 0.871,37.852 C0.882223325,37.996084 0.950318279,38.1297804 1.06025802,38.2235856 C1.17019776,38.3173908 1.31294535,38.3635943 1.457,38.352 C1.508,38.352 6.687,37.965 10.394,41.364 C10.6811055,41.6287218 10.9519335,41.91057 11.205,42.208 C7.62,43.037 3.948,44.536 1.755,48.383 C0.123098645,51.1458126 -0.370008848,54.4351086 0.38,57.555 C0.576166242,58.2106165 0.862218946,58.8358941 1.23,59.413 C1.24185067,59.4358651 1.25521368,59.4579141 1.27,59.479 C1.81300236,60.3642307 2.57749582,61.0925331 3.488,61.592 C3.65383705,61.6778653 3.85244606,61.6710429 4.012,61.574 C5.35619162,62.0988984 6.81095709,62.2767031 8.242,62.091 C12.656,61.499 15.282,57.65 15.282,51.778 L15.282,51.678 C15.2921864,49.9271562 15.072305,48.1825616 14.628,46.489 C19.328,44.872 24.907,42.57 27.928,38.889 C28.1630167,39.1027574 28.3785343,39.3370157 28.572,39.589 C29.3519142,40.9195001 29.9356046,42.3556545 30.305,43.853 C29.949,43.819 29.605,43.797 29.305,43.797 C28.4173173,43.7676796 27.5328866,43.918373 26.705,44.24 C26.5285108,44.3218138 26.4090752,44.4915688 26.3916835,44.6853198 C26.3742917,44.8790709 26.461586,45.0673826 26.6206835,45.1793198 C26.7797809,45.291257 26.9865108,45.3098138 27.163,45.228 C28.2460019,44.876613 29.3986043,44.7959274 30.52,44.993 C30.7185028,46.1157904 30.6388466,47.2701183 30.288,48.355 C30.2061862,48.5314892 30.224743,48.7382191 30.3366802,48.8973165 C30.4486174,49.056414 30.6369291,49.1437083 30.8306802,49.1263165 C31.0244312,49.1089248 31.1941862,48.9894892 31.276,48.813 C31.5976744,47.9851027 31.748698,47.1007301 31.72,46.213 C31.7171935,45.8765576 31.6975021,45.5404681 31.661,45.206 C33.160721,45.5748907 34.5992567,46.1585906 35.932,46.939 C36.1840219,47.1331569 36.418278,47.3493417 36.632,47.585 C32.946,50.602 30.643,56.177 29.032,60.885 C27.338567,60.4399248 25.5939143,60.2196998 23.843,60.23 L23.737,60.23 C17.866,60.23 14.016,62.857 13.425,67.269 C13.2385511,68.700614 13.4160194,70.1561293 13.941,71.501 C13.8442404,71.6599956 13.8377905,71.8580456 13.924,72.023 C14.4220561,72.9341459 15.1498169,73.6991394 16.035,74.242 C16.0567957,74.256214 16.0791466,74.2695578 16.102,74.282 C16.6788743,74.6508623 17.3046374,74.9369832 17.961,75.132 C21.0812293,75.8817447 24.3707347,75.3886596 27.134,73.757 C30.983,71.562 32.482,67.892 33.311,64.306 C33.6082095,64.5596584 33.8903562,64.8304525 34.156,65.117 C36.240898,67.6156266 37.3150361,70.8041509 37.167,74.055 C37.1553986,74.1991594 37.2015725,74.3420188 37.2953532,74.4521174 C37.389134,74.562216 37.5228305,74.6305245 37.667,74.642 C37.685,74.642 37.7,74.636 37.718,74.635 C37.7644455,74.6466447 37.812118,74.6526877 37.86,74.653 C38.0041695,74.6415245 38.137866,74.573216 38.2316468,74.4631174 C38.3254275,74.3530188 38.3716014,74.2101594 38.36,74.066 C38.36,74.015 37.972,68.836 41.372,65.129 C41.6372883,64.8424499 41.9191024,64.5716546 42.216,64.318 C43.045,67.903 44.544,71.575 48.391,73.768 C51.1542878,75.4006292 54.4444889,75.8937648 57.565,75.143 C58.2208739,74.9471368 58.846478,74.6614252 59.424,74.294 C59.445,74.281 59.466,74.266 59.49,74.253 C60.3713461,73.7037565 61.0941485,72.934077 61.587,72.02 C61.671709,71.8542535 61.664904,71.6565303 61.569,71.497 C62.094361,70.1522266 62.2721749,68.6966978 62.086,67.265 C61.495,62.853 57.644,60.226 51.773,60.226 L51.667,60.226 C49.9164386,60.2171534 48.1722625,60.4376968 46.479,60.882 C44.862,56.173 42.557,50.591 38.864,47.577 C39.0812162,47.3361343 39.3202331,47.1158638 39.578,46.919 C40.9102632,46.1373827 42.3489296,45.5532929 43.849,45.185 C43.813,45.547 43.791,45.894 43.791,46.204 C43.7613587,47.0917945 43.9124144,47.976355 44.235,48.804 C44.3614732,49.0768286 44.6851713,49.1954732 44.958,49.069 C45.2308286,48.9425268 45.3494732,48.6188287 45.223,48.346 C44.8680846,47.2577952 44.7880377,46.0986614 44.99,44.972 C46.1107266,44.7748505 47.2627006,44.8555402 48.345,45.207 C48.6175525,45.3337493 48.9412506,45.2155525 49.068,44.943 C49.1947493,44.6704475 49.0765525,44.3467494 48.804,44.22 C47.9767425,43.8959341 47.0919433,43.7444973 46.204,43.775 C45.898,43.775 45.561,43.797 45.204,43.832 C45.5742724,42.3384112 46.1572288,40.905773 46.935,39.578 C47.128186,39.3254708 47.3440871,39.0911594 47.58,38.878 C50.598,42.563 56.171,44.864 60.88,46.478 C60.434496,48.1713703 60.2139332,49.9160359 60.224,51.667 L60.224,51.774 C60.224,57.644 62.852,61.494 67.264,62.084 C68.6956097,62.2714503 70.1513741,62.0939516 71.496,61.568 C71.6551646,61.6639161 71.8526064,61.6707244 72.018,61.586 C72.9292921,61.0868885 73.694517,60.358546 74.238,59.473 L74.278,59.407 C74.6456593,58.829962 74.9313892,58.2046543 75.127,57.549 C75.8773933,54.4281463 75.3842861,51.1377764 73.752,48.374 C71.557,44.528 67.886,43.028 64.301,42.199 C64.5549299,41.9029891 64.8253597,41.6215418 65.111,41.356 C67.6100442,39.270252 70.7992647,38.1954062 74.051,38.343 C74.3510268,38.3665921 74.6135711,38.1429598 74.638,37.843 C74.638,37.825 74.631,37.81 74.631,37.792 C74.6427701,37.7455782 74.648815,37.6978904 74.649,37.65 C74.6245807,37.349618 74.3614019,37.1258265 74.061,37.15 C70.810374,37.2998236 67.6216454,36.2258533 65.124,34.14 C64.8379667,33.8734813 64.5672029,33.5910322 64.313,33.294 C67.899,32.466 71.57,30.965 73.763,27.119 C75.3959089,24.3561944 75.8894086,21.0663162 75.139,17.946 C74.9427073,17.289973 74.6570248,16.6640961 74.29,16.086 C74.2745624,16.0647998 74.2608517,16.0423945 74.249,16.019 C73.7012099,15.1384366 72.9341892,14.4151768 72.023,13.92 C71.8572535,13.835291 71.6595303,13.842096 71.5,13.938 C70.1549607,13.4123027 68.6989393,13.2348146 67.267,13.422 C62.856,14.011 60.23,17.863 60.23,23.734 L60.23,23.84 C60.2203009,25.5906766 60.4412001,27.335007 60.887,29.028 C56.176,30.646 50.596,32.95 47.581,36.643 C47.3401464,36.4257716 47.119877,36.1867559 46.923,35.929 C46.1429097,34.5985868 45.5592087,33.1624062 45.19,31.665 C45.549,31.701 45.89,31.723 46.202,31.723 C47.0898078,31.7528368 47.9744073,31.6017744 48.802,31.279 C49.0745525,31.1522506 49.1927493,30.8285525 49.066,30.556 C48.9392506,30.2834475 48.6155525,30.1652507 48.343,30.292 C47.2567058,30.6444399 46.1003676,30.7241164 44.976,30.524 C44.7771155,29.401101 44.8574759,28.2465202 45.21,27.162 C45.2918138,26.9855108 45.273257,26.7787809 45.1613198,26.6196835 C45.0493826,26.460586 44.8610709,26.3732917 44.6673198,26.3906835 C44.4735688,26.4080752 44.3038138,26.5275108 44.222,26.704 C43.9000111,27.5318342 43.7486479,28.4162036 43.777,29.304 C43.777,29.612 43.8,29.952 43.836,30.311 C42.3402176,29.9416427 40.905471,29.3586506 39.576,28.58 C39.317909,28.3827827 39.0788643,28.161817 38.862,27.92 C42.555,24.907 44.862,19.325 46.477,14.615 C48.1700556,15.0603712 49.9143732,15.2809325 51.665,15.271 L51.771,15.271 C57.642,15.271 61.493,12.645 62.084,8.232 C62.270088,6.80030183 62.0922768,5.34479467 61.567,4 C61.6629161,3.84083539 61.6697244,3.64339359 61.585,3.478 C61.0859127,2.56728073 60.3579627,1.80245073 59.473,1.259 L59.41,1.22 C58.8325827,0.85188848 58.2069754,0.565502352 57.551,0.369 C56.6593902,0.116951421 55.7365222,-0.00728727503 54.81,-2.77550335e-15 C52.5509083,0.0233226267 50.3352124,0.62328504 48.373,1.743" id="Path_15" fill="" fill-rule="nonzero"></path>
    </g>
</svg>
