<svg xmlns="http://www.w3.org/2000/svg" xmlns:xlink="http://www.w3.org/1999/xlink" width="55" height="55" viewBox="0 0 55 55">
    <defs>
        <path id="a" d="M0 .032h38.916V41.98H0z"/>
        <path id="c" d="M0 55h55V0H0z"/>
    </defs>
    <g fill="none" fill-rule="evenodd">
        <g transform="translate(0 13)">
            <mask id="b" fill="#fff">
                <use xlink:href="#a"/>
            </mask>
            <path fill="#FF306F" d="M38.108 21.51a.936.936 0 0 0-1.192-.552.911.911 0 0 0-.547 1.207c.85 2.179.91 3.845.168 4.577-.902.885-3.147.608-6.009-.738a39.792 39.792 0 0 1-10.309-7.562c-7.295-7.172-10.305-14.21-8.443-16.04a2.578 2.578 0 0 1 2.107-.483.926.926 0 0 0 .997-.846.92.92 0 0 0-.817-.976 4.34 4.34 0 0 0-3.604 1.007c-3.412 3.353 1.804 12.101 8.444 18.629a41.608 41.608 0 0 0 10.822 7.918c.728.343 1.478.638 2.246.884l-6.617 2.466C16.518 27.7 10.157 20 8.683 10.82a.93.93 0 0 0-1.065-.762.918.918 0 0 0-.775 1.046c.146.916.341 1.831.58 2.727 2.145 7.988 7.794 14.624 15.414 18.107l-10.89 4.051a.904.904 0 0 0-.187-.218 12.695 12.695 0 0 1-4.806-8.865l-.432-5.144a.915.915 0 0 0-.98-.842l-.028.002a.92.92 0 0 0-.855.992l.44 5.142a14.498 14.498 0 0 0 4.928 9.646l-7.77 2.89 1.398-5.635a.915.915 0 0 0-.685-1.107.933.933 0 0 0-1.126.673L.027 40.846a.915.915 0 0 0 .683 1.107.948.948 0 0 0 .552-.033l34.46-12.817a.884.884 0 0 0 .154-.096 3.643 3.643 0 0 0 1.978-.97c.922-.906 1.717-2.777.254-6.528" mask="url(#b)"/>
        </g>
        <path fill="#FF306F" d="M45.408 32.557c-4.92-1.507-10.236-1.93-15.418-1.225l-3.252.447c-.493.077-.816.468-.721.872.091.39.541.653 1.022.597l3.25-.444c4.867-.662 9.86-.265 14.48 1.152.103.03.21.045.32.044.502 0 .91-.332.911-.744 0-.311-.235-.59-.592-.699M49.911 18.523a.912.912 0 0 0-1.217-.434l-19.173 9.166a.918.918 0 0 0-.432 1.222.911.911 0 0 0 1.217.434l19.173-9.166a.918.918 0 0 0 .432-1.222M22.238 5.731c-.116-.494-.671-.813-1.241-.713-.57.1-.938.583-.822 1.076l.008.033c1.333 5.16.783 10.551-1.572 15.43l-1.53 3.183c-.222.464.03.995.565 1.19.127.046.265.07.404.07.425 0 .808-.221.972-.561l1.532-3.18c2.523-5.225 3.112-11 1.684-16.528M50 37a1 1 0 1 1 0-2 1 1 0 0 1 0 2m0-4a3 3 0 1 0 0 6 3 3 0 0 0 0-6M28 11a1 1 0 1 1 0-2 1 1 0 0 1 0 2m0-4a3 3 0 1 0 0 6 3 3 0 0 0 0-6M20.5 0a1.5 1.5 0 1 1 0 3 1.5 1.5 0 0 1 0-3M46 5c-.552 0-1 .298-1 .667v.666c0 .369.448.667 1 .667s1-.298 1-.667v-.666C47 5.298 46.552 5 46 5M46 0c-.552 0-1 .298-1 .667v.666c0 .369.448.667 1 .667s1-.298 1-.667V.667C47 .298 46.552 0 46 0M48.333 2h-.666C47.298 2 47 2.448 47 3s.298 1 .667 1h.666c.369 0 .667-.448.667-1s-.298-1-.667-1M44.333 2h-.666C43.298 2 43 2.448 43 3s.298 1 .667 1h.666c.369 0 .667-.448.667-1s-.298-1-.667-1"/>
        <mask id="d" fill="#fff">
            <use xlink:href="#c"/>
        </mask>
        <path fill="#FF306F" d="M35.994 15.006h3.012v-3.012h-3.012v3.012zM40.003 10h-5.006a.997.997 0 0 0-.997.997v5.006c0 .55.446.997.997.997h5.006c.55 0 .997-.446.997-.997v-5.006a.997.997 0 0 0-.997-.997zM32.752 18.288a.923.923 0 0 0-1.27-.066l-9.178 8.192a.905.905 0 0 0-.068 1.285c.339.373.919.404 1.296.067l9.178-8.191a.905.905 0 0 0 .042-1.287M49 21c-.552 0-1 .299-1 .667v.666c0 .369.448.667 1 .667s1-.299 1-.667v-.666c0-.369-.448-.667-1-.667M53.79 20.736l-.526-.527a.746.746 0 0 0-1.055 1.055l.527.527a.746.746 0 0 0 1.055-1.055M54.333 18h-.666c-.369 0-.667.448-.667 1s.298 1 .667 1h.666c.369 0 .667-.448.667-1s-.298-1-.667-1M53.773 14.208a.742.742 0 0 0-1.03 0l-.526.525a.742.742 0 0 0 1.05 1.05l.525-.525a.742.742 0 0 0-.019-1.05M49 13c-.552 0-1 .299-1 .667v.666c0 .368.448.667 1 .667s1-.299 1-.667v-.666c0-.368-.448-.667-1-.667M46.79 14.736l-.526-.527a.746.746 0 0 0-1.055 1.055l.527.527a.746.746 0 0 0 1.055-1.055M7.15 6.05a.987.987 0 0 0-.264.848l.227 1.385-1.186-.655a.881.881 0 0 0-.853 0l-1.191.654.227-1.385a.987.987 0 0 0-.26-.847l-.963-.981 1.33-.202a.92.92 0 0 0 .69-.525L5.5 3.083l.594 1.26a.92.92 0 0 0 .69.524l1.328.202-.962.981zm3.805-1.947a.929.929 0 0 0-.74-.652l-2.69-.41-1.2-2.55A.931.931 0 0 0 5.02.139a.977.977 0 0 0-.338.354l-1.205 2.55-2.69.41c-.501.075-.849.561-.776 1.085a.975.975 0 0 0 .266.55L2.222 7.07l-.458 2.803c-.088.522.244 1.02.743 1.111.2.037.407.004.587-.096L5.5 9.562l2.406 1.323a.897.897 0 0 0 1.238-.402.998.998 0 0 0 .092-.609l-.458-2.803 1.947-1.985a.99.99 0 0 0 .23-.983zM50.43 50.494a1.73 1.73 0 0 1-2.365.692 1.774 1.774 0 0 1-.683-2.395l.007-.014a3.26 3.26 0 0 1 2.358-1.553.875.875 0 0 1 .435.102c.735.415.774 2.215.248 3.168m1.668-4.218h-.004l-.358-.544a13.126 13.126 0 0 0-8.742-5.723.872.872 0 0 0-.985.748.88.88 0 0 0 .697.99 11.355 11.355 0 0 1 6.644 3.75 5.136 5.136 0 0 0-3.482 2.42c-.938 1.7-.337 3.848 1.343 4.797 1.679.95 3.8.34 4.738-1.36.358-.7.551-1.474.565-2.262.926 1.362 1 3.14.19 4.577a.887.887 0 0 0 .305 1.208.865.865 0 0 0 1.216-.35c1.594-2.882.655-6.524-2.127-8.25" mask="url(#d)"/>
    </g>
</svg>
