<?xml version="1.0" encoding="UTF-8"?>
<svg width="52px" height="52px" viewBox="0 0 52 52" version="1.1" xmlns="http://www.w3.org/2000/svg" xmlns:xlink="http://www.w3.org/1999/xlink">
    <!-- Generator: Sketch 52.5 (67469) - http://www.bohemiancoding.com/sketch -->
    <title>Untitled</title>
    <desc>Created with Sketch.</desc>
    <defs>
        <polygon id="path-1" points="0 52 52 52 52 0 0 0"></polygon>
    </defs>
    <g id="Page-1" stroke="none" stroke-width="1" fill="none" fill-rule="evenodd">
        <g id="Group-31">
            <path d="M25.6189277,49.8378734 L5.45800187,49.8378734 C4.87769022,49.8387856 4.30765416,49.6876709 3.80747138,49.4002387 C2.26343343,48.5130097 1.74830434,46.5715249 2.65691608,45.0638234 L13.1327299,27.6832976 C13.2327872,27.5171828 13.2855145,27.32796 13.2855145,27.1351899 L13.2855145,14.1622279 L16.6069191,14.1622279 L16.6069191,27.1351899 C16.6068153,27.3434668 16.6683651,27.5472842 16.7840953,27.7222165 L28.2761552,45.0659518 C28.6076728,45.5661203 28.7841225,46.1490928 28.7843301,46.7449369 C28.784849,48.452503 27.367751,49.8372653 25.6189277,49.8378734 M30.1371797,43.8918987 L18.8211542,26.8108659 L18.8211542,13.081114 C18.8211542,12.4840536 18.3254346,12 17.7139848,12 L12.1783451,12 C11.5668953,12 11.0711756,12.4840536 11.0711756,13.081114 L11.0711756,26.8410685 L0.753855046,43.9676081 C0.260315084,44.7867291 0,45.7197688 0,46.670241 C-0.000103793893,49.6136844 2.44361963,51.9998986 5.45800187,52 L25.6189277,52 C26.6549983,51.9996959 27.6690647,51.7073989 28.5392727,51.1581764 C31.035412,49.5824683 31.7508633,46.3292953 30.1371797,43.8918987" id="Fill-1" fill="#FF006A"></path>
            <path d="M15,32.0804284 L13.1683103,31 L4.14672302,46.3927546 C4.05050179,46.5570285 3.99980137,46.7441987 4.00000058,46.9345685 C4.00059823,47.5236749 4.47682361,48.0006991 5.06361376,47.9999992 L12.4446589,47.9999992 L12.4446589,45.8670381 L6.91980701,45.8670381 L15,32.0804284 Z" id="Fill-3" fill="#FF006A"></path>
            <path d="M49.6866467,27.9235901 L46.8654997,30.7164666 C46.6609502,30.9189664 46.5458911,31.1936573 46.5458911,31.4799919 L46.5458911,46.5999393 C46.5458911,48.3893283 45.0806007,49.8399352 43.2730988,49.8399352 L33.454722,49.8399352 C31.6472202,49.8399352 30.1819297,48.3893283 30.1819297,46.5999393 L30.1819297,29.3200283 C30.1819297,28.1271023 31.1587559,27.1600648 32.3637571,27.1600648 L49.3670381,27.1600648 C49.4871086,27.1599636 49.6023723,27.207146 49.6872603,27.2912846 C49.8634797,27.4660419 49.8631729,27.7491366 49.6866467,27.9235901 M49.3669358,25 L32.3637571,25 C29.953857,25 28,26.9341763 28,29.3200283 L28,46.6000405 C28.0035796,49.580938 30.4437531,51.9964563 33.4546197,52 L43.2729966,52 C46.2840677,51.9964563 48.7240367,49.5808368 48.7276163,46.6000405 L48.7276163,31.9271113 L51.2301774,29.4506407 C51.7228349,28.9620088 51.9995904,28.2999359 51.9999995,27.6096142 C52.0009199,26.1692335 50.8219988,25.00081 49.3669358,25" id="Fill-5" fill="#FF006A"></path>
            <path d="M41.9999625,32 L41.9999625,45.8667 L39,45.8667 L39,48 L42.9999813,48 C43.5522556,48 44,47.5224 44,46.9333 L44,32 L41.9999625,32 Z" id="Fill-7" fill="#FF006A"></path>
            <path d="M30.7835631,15.4041911 L30.7835631,1.0635648 C30.7835631,0.476196256 30.289938,0 29.6809442,0 L21.9620951,0 C21.3531013,0 20.8593728,0.476196256 20.8593728,1.0635648 L20.8593728,15.7063006 C19.5136113,16.1059225 18.2190214,16.6507166 17,17.3303133 L18.1027223,19.1712864 C19.3982426,18.4498132 20.7892833,17.90133 22.2378015,17.5408925 C22.7249139,17.4195502 23.0652309,16.9955999 23.0648174,16.5103304 L23.0648174,2.12702989 L28.5782219,2.12702989 L28.5782219,16.2624611 C28.5784287,16.7729562 28.9547209,17.2113639 29.4747071,17.3068823 C33.341213,18.0197808 36.8178842,20.0381311 39.2809442,23 L41,21.6684253 C38.4051344,18.5495192 34.8127843,16.3469121 30.7835631,15.4041911" id="Fill-9" fill="#FF006A"></path>
            <path d="M46,20.7144082 C45.0531701,20.7144082 44.285699,19.946937 44.285699,19.0001071 C44.285699,18.0532773 45.0531701,17.2858061 46,17.2858061 C46.9468299,17.2858061 47.714301,18.0532773 47.714301,19.0001071 C47.714301,19.946937 46.9468299,20.7144082 46,20.7144082 M46,15 C43.7908017,15 42,16.7909088 42,19 C42,21.2091983 43.7909088,23 46,23 C48.2091983,23 50,21.2090912 50,19 C50,16.7909088 48.2091983,15 46,15" id="Fill-11" fill="#FF006A"></path>
            <path d="M42.5,12.6665938 C41.8556719,12.6665938 41.3332969,12.1442187 41.3332969,11.4998906 C41.3332969,10.8555625 41.8556719,10.3332969 42.5,10.3332969 C43.1443281,10.3332969 43.6667031,10.8556719 43.6667031,11.5 C43.6667031,12.1443281 43.1443281,12.6665938 42.5,12.6665938 M42.5,8 C40.5670156,8 39,9.56701562 39,11.5 C39,13.4329844 40.5670156,15 42.5,15 C44.4329844,15 46,13.4329844 46,11.5 C46,9.56701562 44.4329844,8 42.5,8" id="Fill-13" fill="#FF006A"></path>
            <path d="M4,13.7143316 C3.05317012,13.7143316 2.28569898,12.9468708 2.28569898,12.0000536 C2.28569898,11.0532364 3.05317012,10.2857755 4,10.2857755 C4.94682988,10.2857755 5.71430102,11.0532364 5.71430102,12.0000536 C5.71430102,12.9468708 4.94682988,13.7143316 4,13.7143316 M4,8 C1.7908017,8 0,9.79088486 0,11.9999464 C0,14.2091151 1.7908017,16 4,16 C6.2091983,16 8,14.2091151 8,12.0000536 C8,9.79088486 6.2091983,8 4,8" id="Fill-15" fill="#FF006A"></path>
            <path d="M8.5,5.66659375 C7.85567187,5.66659375 7.33329688,5.14421875 7.33329688,4.49989063 C7.33329688,3.85567187 7.85567187,3.33329687 8.5,3.33329687 C9.14432813,3.33329687 9.66670312,3.85567187 9.66670312,4.5 C9.66670312,5.14432813 9.14432813,5.66659375 8.5,5.66659375 M8.5,1 C6.56701562,1 5,2.56701562 5,4.5 C5,6.43298438 6.56701562,8 8.5,8 C10.4329844,8 12,6.43298438 12,4.5 C12,2.56701562 10.4329844,1 8.5,1" id="Fill-17" fill="#FF006A"></path>
            <mask id="mask-2" fill="white">
                <use xlink:href="#path-1"></use>
            </mask>
            <g id="Clip-20"></g>
            <polygon id="Fill-19" fill="#FF006A" mask="url(#mask-2)" points="33 34 36 34 36 31 33 31"></polygon>
            <polygon id="Fill-21" fill="#FF006A" mask="url(#mask-2)" points="32 39 35 39 35 36 32 36"></polygon>
            <polygon id="Fill-22" fill="#FF006A" mask="url(#mask-2)" points="33 43 36 43 36 40 33 40"></polygon>
            <polygon id="Fill-23" fill="#FF006A" mask="url(#mask-2)" points="32 47 35 47 35 44 32 44"></polygon>
            <polygon id="Fill-24" fill="#FF006A" mask="url(#mask-2)" points="1 22 4 22 4 19 1 19"></polygon>
            <polygon id="Fill-25" fill="#FF006A" mask="url(#mask-2)" points="5 27 8 27 8 24 5 24"></polygon>
            <polygon id="Fill-26" fill="#FF006A" mask="url(#mask-2)" points="24 32 27 32 27 29 24 29"></polygon>
            <polygon id="Fill-27" fill="#FF006A" mask="url(#mask-2)" points="21 27 24 27 24 24 21 24"></polygon>
            <polygon id="Fill-28" fill="#FF006A" mask="url(#mask-2)" points="20 23 23 23 23 20 20 20"></polygon>
            <polygon id="Fill-29" fill="#FF006A" mask="url(#mask-2)" points="21 47 24 47 24 44 21 44"></polygon>
            <polygon id="Fill-30" fill="#FF006A" mask="url(#mask-2)" points="18 43 21 43 21 40 18 40"></polygon>
        </g>
    </g>
</svg>