<svg xmlns="http://www.w3.org/2000/svg" width="92" height="59.287" viewBox="0 0 92 59.287">
    <defs>
        <style>
            .cls-1{fill:#7f28c4}
        </style>
    </defs>
    <g id="coupon" transform="translate(0 -91.027)">
        <g id="Сгруппировать_2248" data-name="Сгруппировать 2248" transform="translate(0 91.027)">
            <g id="Сгруппировать_2247" data-name="Сгруппировать 2247">
                <path id="Контур_410" d="M90.65 91.027H1.35A1.35 1.35 0 0 0 0 92.377v51.851a1.35 1.35 0 0 0 1.35 1.35h22.46l.29 3.5a1.363 1.363 0 0 0 2.242.9l4.628-4.108 5.24 3.293a1.362 1.362 0 0 0 2.064-1.255l-.193-2.334H90.65a1.35 1.35 0 0 0 1.35-1.35V92.377a1.35 1.35 0 0 0-1.35-1.35zm-63.464 2.7h3.061v17.464h-3.061zm5.941 20.164v8.822h-8.822v-8.822zM2.7 93.728h21.785v17.464h-1.53a1.35 1.35 0 0 0-1.35 1.35v.047l-10.73-3.577a2.791 2.791 0 0 0-3.675 2.647v2.412H2.7zm18.9 21.708v5.735l-11.584 3.861a.09.09 0 0 1-.118-.086v-13.287a.09.09 0 0 1 .118-.086zm-18.9 1.337h4.5v3.061H2.7zm0 26.106v-20.345h4.5v2.412a2.819 2.819 0 0 0 3.673 2.648l10.454-3.485c-.028.072-2.51 12.283-2.51 12.283a1.363 1.363 0 0 0 1.9 1.488l2.36-1.122.506 6.12H2.7zm19.3-8.6l1.8-8.867h9l-2.151 10.618-2.993-3.362a1.351 1.351 0 0 0-1.588-.322zm9.549 8.768a1.35 1.35 0 0 0-1.615.133l-3.366 2.988-.88-10.651.622-.3 4.116 4.622a1.362 1.362 0 0 0 2.332-.63l1.483-7.322 1.12 13.55zm4.277-21.878v-5.735l11.584-3.861a.081.081 0 0 1 .081.012.082.082 0 0 1 .037.073v13.287a.092.092 0 0 1-.118.086zM89.3 142.878H37.859s-1.544-18.658-1.552-18.7l10.251 3.417a2.819 2.819 0 0 0 3.673-2.648v-2.412H89.3v20.344zm0-28.806H77.807a1.35 1.35 0 0 0 0 2.7H89.3v3.061H50.231v-3.061h21.035a1.35 1.35 0 1 0 0-2.7H50.231v-2.412a2.791 2.791 0 0 0-3.673-2.647l-10.73 3.577v-.047a1.35 1.35 0 0 0-1.35-1.35h-1.53V93.728H89.3v20.344z" class="cls-1" data-name="Контур 410" transform="translate(0 -91.027)"/>
            </g>
        </g>
        <g id="Сгруппировать_2250" data-name="Сгруппировать 2250" transform="translate(54.732 99.669)">
            <g id="Сгруппировать_2249" data-name="Сгруппировать 2249">
                <path id="Контур_411" d="M313.147 139.121h-7.2a1.35 1.35 0 1 0 0 2.7h7.2a1.35 1.35 0 1 0 0-2.7z" class="cls-1" data-name="Контур 411" transform="translate(-304.595 -139.121)"/>
            </g>
        </g>
        <g id="Сгруппировать_2252" data-name="Сгруппировать 2252" transform="translate(67.695 99.669)">
            <g id="Сгруппировать_2251" data-name="Сгруппировать 2251">
                <path id="Контур_412" d="M388.168 139.121h-10.083a1.35 1.35 0 0 0 0 2.7h10.082a1.35 1.35 0 0 0 0-2.7z" class="cls-1" data-name="Контур 412" transform="translate(-376.735 -139.121)"/>
            </g>
        </g>
        <g id="Сгруппировать_2254" data-name="Сгруппировать 2254" transform="translate(54.732 106.871)">
            <g id="Сгруппировать_2253" data-name="Сгруппировать 2253">
                <path id="Контур_413" d="M328.99 179.2h-23.045a1.35 1.35 0 1 0 0 2.7h23.045a1.35 1.35 0 0 0 0-2.7z" class="cls-1" data-name="Контур 413" transform="translate(-304.595 -179.2)"/>
            </g>
        </g>
    </g>
</svg>
