<svg width="122px" height="43px" viewBox="0 0 122 43" version="1.1" xmlns="http://www.w3.org/2000/svg" xmlns:xlink="http://www.w3.org/1999/xlink">
    <g id="Page-1" stroke="none" stroke-width="1" fill="none" fill-rule="evenodd">
        <g id="eleksnet" transform="translate(-1.000000, 0.000000)">
            <path d="M38.713,31.104 C38.58,31.104 38.469,31.038 38.48,30.882 C38.491,30.726 38.558,30.771 38.602,30.76 C38.646,30.749 38.779,30.849 38.802,30.96 L38.713,31.104 Z" id="Path_160" fill="#FFFFFF"></path>
            <path d="M42.038,20.783 C41.9641691,9.7637086 32.9909254,0.880196565 21.9714485,0.917112227 C10.9519716,0.954027889 2.03844891,9.89746126 2.03844891,20.917 C2.03844891,31.9365387 10.9519716,40.8799721 21.9714485,40.9168878 C32.9909254,40.9538034 41.9641691,32.0702914 42.038,21.051 C42.0390001,20.9616695 42.0390001,20.8723305 42.038,20.783 Z" id="Path_161" fill="#FFFFFF"></path>
            <path d="M22.086,42.121 C13.5096737,42.1318238 5.78343534,36.9408587 2.55176444,28.9966914 C-0.679906469,21.0525241 1.2285849,11.9421707 7.377,5.963 C11.2611856,2.14073071 16.4925377,-0.00101681606 21.942,2.7533531e-14 L22.242,2.7533531e-14 C33.705544,0.0839258571 42.9965315,9.32113628 43.147,20.784 C43.2072227,26.4318278 41.0178786,31.8715474 37.062,35.903 C33.1118039,39.9089792 27.7119238,42.1509967 22.086,42.121 Z M21.953,2.221 C15.1921036,2.2017732 8.93904235,5.80598332 5.56680891,11.665858 C2.19457547,17.5257326 2.22004607,24.7431045 5.6335548,30.5790318 C9.04706352,36.4149591 15.3254077,39.9749451 22.086,39.908 C27.1169944,39.9419256 31.9486792,37.9436273 35.486,34.366 C39.0364974,30.7452805 40.9956646,25.857621 40.929,20.787 C40.7827971,10.5318813 32.461956,2.27681414 22.206,2.212 L21.953,2.221 Z" id="Path_162" fill="#E38720"></path>
            <path d="M23.505,14.078 C22.5899031,13.7079245 21.9679195,12.8460885 21.905,11.861 C21.7509311,11.2227545 21.949611,10.5508275 22.426,10.099 C22.4688315,10.0535063 22.5296238,10.0293359 22.592,10.033 C22.9614562,9.71808374 23.3973171,9.49075238 23.867,9.368 C24.5825081,9.22608635 25.3248488,9.38642616 25.918,9.811 C26.7661522,10.4818108 27.1069041,11.6098033 26.772,12.638 C26.3725541,13.6349626 25.386983,14.2708925 24.314,14.224 C24.040182,14.2021044 23.7691982,14.1532 23.505,14.078 Z" id="Path_163" fill="#FFFFFF"></path>
            <path d="M15.878,22.003 L15.878,20.274 C15.878,19.653 15.878,19.554 16.598,19.554 L37.05,19.554 C37.22349,19.5650778 37.39751,19.5650778 37.571,19.554 C37.704,19.554 37.859,19.554 37.892,19.366 C37.9119189,19.2226888 37.9119189,19.0773112 37.892,18.934 C37.737,18.169 37.571,17.415 37.415,16.651 C37.1952542,15.9284826 36.9280053,15.2212753 36.615,14.534 C36.2619018,13.6085182 35.7964134,12.729934 35.229,11.918 C34.7316827,11.1546883 34.151858,10.4484357 33.5,9.812 C32.7218564,8.92764689 31.8182452,8.16217165 30.818,7.54 C29.8260453,6.82774488 28.7319839,6.26975674 27.573,5.885 C27.0911212,5.64687069 26.5805923,5.47176499 26.054,5.364 C24.7311373,5.02718406 23.3729671,4.84860112 22.008,4.832 C21.0709665,4.84787377 20.1358277,4.92201693 19.208,5.054 C18.2519569,5.2434978 17.3110998,5.50286019 16.393,5.83 C13.5339399,6.87627393 11.0390991,8.7282148 9.21,11.162 C8.76333015,11.702895 8.36984354,12.2855901 8.035,12.902 C7.29006454,14.1668469 6.7335434,15.5335577 6.383,16.959 C6.04858357,18.3759422 5.89436459,19.8294309 5.924,21.285 C5.94508446,22.5744424 6.13126646,23.8558719 6.478,25.098 C6.74264889,26.1531237 7.14121863,27.1700479 7.664,28.124 C8.41309302,29.6937402 9.44227486,31.1136519 10.701,32.314 C14.1105997,35.7140023 18.8881017,37.3676538 23.67,36.803 C26.9731317,36.4664036 30.0812914,35.0795082 32.538,32.846 C33.6491612,31.8358168 34.6186121,30.6800106 35.42,29.41 L35.498,29.332 C36.7285509,27.3789767 37.533081,25.1882423 37.859,22.903 C37.859,22.603 37.77,22.582 37.538,22.582 L15.745,22.582 C15.7668198,22.5887732 15.7901802,22.5887732 15.812,22.582 C15.8767937,22.3963119 15.8993415,22.1985066 15.878,22.003 Z M8.74,13.845 L26.065,10.021 C26.6372903,10.6055655 26.8787059,11.4379422 26.708,12.238 C26.6682553,12.3413093 26.6682553,12.4556907 26.708,12.559 C26.5941703,12.6491912 26.5061998,12.7678651 26.453,12.903 C26.0649005,13.6046489 25.3520377,14.0661337 24.553,14.133 C24.209,14.133 23.888,14.011 23.544,14.033 C23.466,13.878 23.3,13.833 23.178,13.745 C22.5320045,13.2862965 22.1254467,12.5623447 22.07,11.772 L22.019,11.685 C22.0274439,11.0748773 22.2557585,10.4882899 22.662,10.033 L22.729,10.033 C22.8497571,9.9975105 22.9599734,9.93296013 23.05,9.845 C23.6117582,9.41704302 24.3338071,9.25894614 25.023,9.413 C25.378,9.491 25.666,9.746 26.032,9.79 C26.0220097,9.86856667 26.0334107,9.94837327 26.065,10.021 L8.74,13.845 Z" id="Path_164" fill="#E38720" fill-rule="nonzero"></path>
            <circle id="Ellipse_12" fill="#FFFFFF" cx="24.391" cy="11.805" r="2.549"></circle>
            <path d="M80.357,16.195 C80.3415997,15.0346956 79.848527,13.932065 78.994,13.147 C77.310737,11.8126007 74.9030238,11.9165247 73.341,13.391 C72.3184658,14.4086942 71.7474092,15.7943622 71.756,17.237 C71.6582074,18.4412149 71.9793082,19.642252 72.665,20.637 C73.2082852,21.4347589 74.0245406,22.0063156 74.96,22.244 C76.2694448,22.6052998 77.6556763,22.5782006 78.95,22.166 C80.058,21.833 79.937,22.044 79.615,20.88 C79.615,20.647 79.615,20.525 79.294,20.647 C78.4945157,20.9478865 77.64243,21.0839481 76.789,21.047 C75.3151901,21.1493219 73.9816799,20.1758891 73.63,18.741 L73.552,18.287 L73.552,18.043 C73.552,17.743 73.696,17.733 73.918,17.733 L79.981,17.733 C80.125,17.733 80.291,17.811 80.402,17.655 C80.4344827,17.1680274 80.4194114,16.6790478 80.357,16.195 Z M74.693,14.195 C74.804,14.095 74.97,14.018 74.959,13.84 C75.8795109,13.3187403 77.0263159,13.4202099 77.841,14.095 L78.052,14.272 C78.4436582,14.8936723 78.6583611,15.6103856 78.673,16.345 C78.551,16.179 78.352,16.245 78.196,16.245 L74.027,16.245 C73.65,16.245 73.617,16.245 73.717,15.845 C73.8670135,15.2099853 74.207564,14.6360042 74.693,14.2 L74.693,14.195 Z" id="Path_165" fill="#191713" fill-rule="nonzero"></path>
            <path d="M62.454,17.891 C62.6207037,17.3925956 62.7215576,16.8745423 62.754,16.35 C62.8570568,15.6407239 62.8570568,14.9202761 62.754,14.211 C62.7552849,13.6695061 62.6219544,13.136184 62.366,12.659 C62.0611019,11.3541163 61.2676897,10.2157112 60.149,9.478 C58.0110799,8.12137437 55.3237798,7.96630145 53.044,9.068 C52.878,9.135 52.844,9.223 52.911,9.389 C53.0193151,9.67570375 53.111788,9.96814493 53.188,10.265 C53.255,10.531 53.376,10.553 53.576,10.398 C55.0906966,9.70128573 56.8284176,9.6729829 58.365,10.32 C59.1213712,10.7590882 59.7484825,11.3899939 60.183,12.149 C60.5037364,12.7728929 60.7279547,13.4418391 60.848,14.133 C60.848,14.433 60.848,14.554 60.493,14.554 L55.672,14.554 C55.306,14.554 54.807,14.388 54.564,14.632 C54.321,14.876 54.564,15.341 54.497,15.74 C54.43,16.139 54.608,16.073 54.841,16.017 L60.516,16.017 C60.671,16.017 60.871,15.951 60.871,16.228 C60.6604298,18.8228914 58.5700344,20.865933 55.971,21.017 C55.0403213,21.0224634 54.1175951,20.8454603 53.255,20.496 C53.022,20.407 52.955,20.441 52.9,20.673 C52.845,20.905 52.734,21.316 52.634,21.626 C52.534,21.936 52.634,21.892 52.822,21.914 C54.2643624,22.470935 55.8259541,22.6465883 57.356,22.424 C59.7955427,22.0752284 61.7879071,20.2972747 62.411,17.913 L62.454,17.891 Z" id="Path_166" fill="#191713"></path>
            <path d="M122.845,12.747 C122.845,12.525 122.845,12.437 122.579,12.437 L115.079,12.437 C114.978191,12.8894528 114.978191,13.3585472 115.079,13.811 C115.157,13.955 115.29,13.811 115.389,13.811 L117.772,13.811 C117.927,13.811 118.116,13.811 118.138,14.022 C118.134606,14.0478892 118.134606,14.0741108 118.138,14.1 L118.138,21.97 C118.138,22.247 118.26,22.27 118.471,22.214 L119.657,22.214 C119.868,22.214 119.945,22.148 119.945,21.937 L119.945,14.165 C119.945,13.888 120.034,13.788 120.322,13.799 L122.617,13.799 C122.839,13.799 122.95,13.744 122.927,13.499 C122.887063,13.2498684 122.859695,12.998884 122.845,12.747 Z" id="Path_167" fill="#191713"></path>
            <path d="M87.496,18.724 C86.9959224,17.74419 86.0560052,17.0638938 84.969,16.895 C84.714,16.806 84.969,16.718 84.969,16.673 L86.554,14.973 C87.275,14.297 87.954,13.565 88.627,12.834 C88.7845405,12.7381659 88.9115006,12.5994117 88.993,12.434 L88.372,12.434 C87.8708064,12.3552091 87.3591167,12.3738839 86.865,12.489 C86.433,12.689 86.156,13.221 85.757,13.597 L85.502,13.885 C84.682,14.805 83.917,15.769 83.063,16.656 C82.797,16.656 82.719,16.556 82.73,16.301 L82.73,12.776 C82.73,12.654 82.797,12.521 82.652,12.432 L81.245,12.432 C80.957,12.432 80.89,12.51 80.89,12.787 L80.89,21.91 C80.89,22.22 80.968,22.331 81.278,22.231 L82.652,22.231 C82.807,22.131 82.73,21.976 82.73,21.843 L82.73,17.952 C83.3268955,17.9143829 83.9253985,17.9935266 84.492,18.185 L85.301,18.728 C85.8395023,19.3898494 86.2593678,20.1399234 86.542,20.945 C86.686,21.3 86.863,21.645 87.019,21.987 C87.019,22.109 87.13,22.209 87.296,22.209 L89.036,22.209 C88.714313,21.5552143 88.4256171,20.8857067 88.171,20.203 C88.0148838,19.6813803 87.7877549,19.1837156 87.496,18.724 Z" id="Path_168" fill="#191713"></path>
            <path d="M70.448,12.437 L64.296,12.437 C64.019,12.437 63.919,12.437 63.93,12.792 L63.93,15.541 C63.9654501,16.5730767 63.9320427,17.6063686 63.83,18.634 C63.708,19.465 63.553,20.363 62.722,20.696 C62.022,20.962 61.922,21.306 62.101,21.915 C62.1087193,21.9774289 62.1087193,22.0405711 62.101,22.103 C62.101,22.347 62.223,22.447 62.467,22.391 C62.9649581,22.3854085 63.4518863,22.2436183 63.875,21.981 C64.9127652,21.2952317 65.5341336,20.1318585 65.527,18.888 C65.6146473,18.5256287 65.6446819,18.1517154 65.616,17.78 C65.6483692,17.6451636 65.6707631,17.5081263 65.683,17.37 L65.683,13.87 L68.765,13.87 C68.998,13.87 68.976,14.014 68.976,14.17 L68.976,21.929 C68.976,22.04 68.909,22.184 69.054,22.273 L70.554,22.273 C70.776,22.273 70.831,22.195 70.831,21.985 L70.831,12.829 C70.858,12.529 70.759,12.437 70.448,12.437 Z" id="Path_169" fill="#191713"></path>
            <path d="M114.176,13.324 C112.544145,11.8542725 110.065855,11.8542725 108.434,13.324 C106.480206,15.2889592 106.148011,18.3451513 107.634,20.684 C108.124929,21.4066735 108.842773,21.9450564 109.674,22.214 C111.091483,22.6617436 112.612517,22.6617436 114.03,22.214 C114.85,21.992 114.839,21.97 114.662,21.106 C114.673194,21.003603 114.645339,20.9007526 114.584,20.818 C114.506,20.718 114.506,20.574 114.296,20.652 C113.471671,20.96226 112.592886,21.1017497 111.713,21.062 C110.445485,21.1078566 109.283035,20.3609376 108.798,19.189 L108.565,18.202 C108.565,18.036 108.476,17.892 108.487,17.736 L114.994,17.736 C115.127,17.736 115.338,17.825 115.371,17.603 C115.490749,17.0963124 115.490749,16.5686876 115.371,16.062 C115.284517,15.0427748 114.864518,14.0804671 114.176,13.324 Z M113.655,16.346 C113.492346,16.2584406 113.305296,16.2271483 113.123,16.257 L109.188,16.257 C108.667,16.257 108.634,16.202 108.767,15.703 C108.913786,15.4066547 109.025539,15.0942144 109.1,14.772 C109.285328,14.4973527 109.513569,14.2542565 109.776,14.052 C110.831793,13.3075478 112.28343,13.5057563 113.101,14.506 C113.457887,15.055189 113.650125,15.6950547 113.655,16.35 L113.655,16.346 Z" id="Path_170" fill="#191713" fill-rule="nonzero"></path>
            <path d="M96.164,12.636 C94.568378,11.990712 92.7728802,12.0591397 91.231,12.824 C88.56,14.176 88.061,17.701 89.169,19.951 C89.53073,20.7931744 90.1785733,21.4803346 90.998,21.891 C92.4752854,22.6141335 94.1819915,22.7100523 95.731,22.157 C96.363,21.98 96.352,21.957 96.208,21.303 L96.064,20.716 C95.986,20.406 95.809,20.649 95.72,20.716 C94.1932512,21.4506166 92.3655883,21.0992992 91.22,19.851 C90.9783431,19.5040992 90.7738827,19.1327187 90.61,18.743 L90.455,17.743 C90.4242729,16.9836177 90.5608277,16.2267626 90.855,15.526 C91.1433203,15.0296815 91.5186399,14.5893246 91.963,14.226 C92.9021089,13.7283729 93.9938851,13.6016712 95.022,13.871 C95.332,13.938 95.698,14.271 95.909,14.093 C96.12,13.915 96.164,13.472 96.242,13.151 C96.441,12.869 96.419,12.725 96.164,12.636 Z" id="Path_171" fill="#191713"></path>
            <path d="M105.775,18.733 L105.775,12.759 C105.775,12.526 105.775,12.438 105.498,12.449 C105.103009,12.472282 104.706991,12.472282 104.312,12.449 C104.035,12.449 103.946,12.449 103.946,12.804 L103.946,16.052 C103.946,16.318 103.868,16.396 103.602,16.396 L99.479,16.396 C99.346,16.396 99.335,16.196 99.324,16.063 L99.324,12.788 C99.391,12.5 99.324,12.378 98.98,12.4 C98.6110321,12.4232346 98.2409679,12.4232346 97.872,12.4 C97.628,12.4 97.551,12.455 97.551,12.71 L97.551,21.91 C97.551,22.21 97.662,22.265 97.917,22.198 C98.3116225,22.1644734 98.7083775,22.1644734 99.103,22.198 C99.325,22.198 99.38,22.12 99.38,21.91 L99.38,17.742 L103.58,17.742 C103.713,17.742 103.901,17.664 103.968,17.886 L103.968,21.91 C103.968,22.243 104.123,22.22 104.345,22.176 L105.719,22.176 C105.83,22.176 105.797,22.021 105.797,21.943 C105.78404,20.873046 105.776706,19.8030312 105.775,18.733 Z" id="Path_172" fill="#191713"></path>
            <path d="M57.623,32.179 C57.6354729,32.666559 57.5409207,33.1509259 57.346,33.598 C57.1789107,33.9845485 56.9003844,34.3125132 56.546,34.54 C55.8076916,34.9765038 54.8903084,34.9765038 54.152,34.54 C53.797119,34.315426 53.5158553,33.9917468 53.343,33.609 C53.1462166,33.1688672 53.0479267,32.691069 53.055,32.209 L53.055,31.869 C53.0579117,31.3844252 53.1675074,30.906438 53.376,30.469 C53.546743,30.0820105 53.8282396,29.7542357 54.185,29.527 C54.9214807,29.0877435 55.8385138,29.0835299 56.579,29.516 C56.9341132,29.7403036 57.2154449,30.064061 57.388,30.447 C57.5679,30.8974372 57.6474138,31.381686 57.621,31.866 L57.623,32.179 Z M56.703,31.869 C56.7351354,31.3755212 56.615064,30.8840664 56.359,30.461 C56.1288069,30.1538134 55.7673652,29.9729998 55.3835,29.9729998 C54.9996348,29.9729998 54.6381931,30.1538134 54.408,30.461 C54.1284314,30.8759019 53.9883225,31.369085 54.008,31.869 L54.008,32.19 C53.9771786,32.6848171 54.1012595,33.1769467 54.363,33.598 C54.5917943,33.909683 54.9545966,34.0947007 55.3412339,34.0968684 C55.7278713,34.0990361 56.0927252,33.918098 56.325,33.609 C56.594601,33.1823874 56.7262368,32.6830789 56.702,32.179 L56.703,31.869 Z" id="Path_173" fill="#949494" fill-rule="nonzero"></path>
            <polygon id="Path_174" fill="#949494" points="62.955 34.794 62.002 34.794 62.002 32.344 59.54 32.344 59.54 34.794 58.576 34.794 58.576 29.252 59.54 29.252 59.54 31.546 62.001 31.546 62.001 29.274 62.954 29.274"></polygon>
            <path d="M68.497,29.276 L68.497,34.818 L67.547,34.818 L67.547,30.052 L65.847,30.052 L65.747,32.18 C65.7314409,32.705553 65.6494567,33.2270263 65.503,33.732 C65.4108736,34.0517312 65.2210008,34.3346172 64.96,34.541 C64.6765418,34.7229479 64.3434448,34.8120767 64.007,34.796 L63.763,34.796 L63.763,34.02 L63.918,34.02 C64.111982,34.0122388 64.295145,33.9285584 64.428,33.787 C64.5701578,33.6101938 64.6654291,33.4003907 64.705,33.177 C64.7815957,32.7812372 64.8260739,32.3799303 64.838,31.977 L64.947,29.285 L68.497,29.276 Z" id="Path_175" fill="#949494"></path>
            <path d="M72.798,33.508 L70.67,33.508 L70.227,34.794 L69.227,34.794 L71.311,29.252 L72.22,29.252 L74.304,34.794 L73.304,34.794 L72.798,33.508 Z M70.936,32.732 L72.536,32.732 L71.736,30.449 L70.936,32.732 Z" id="Path_176" fill="#949494" fill-rule="nonzero"></path>
            <path d="M78.263,29.275 L79.227,29.275 L79.227,34.817 L78.263,34.817 L78.263,30.871 L75.847,34.795 L74.883,34.795 L74.883,29.253 L75.847,29.253 L75.847,33.188 L78.263,29.275 Z M78.263,27.867 C78.2732729,28.1623822 78.1511652,28.4469334 77.93,28.643 C77.3997455,29.0355486 76.6752545,29.0355486 76.145,28.643 C75.9230116,28.4475289 75.8007283,28.1625686 75.812,27.867 L76.499,27.867 C76.491901,28.0073169 76.5441647,28.1441461 76.643,28.244 C76.7500261,28.3372598 76.8892674,28.3849894 77.031,28.377 C77.1728665,28.3859732 77.3124717,28.3381188 77.419,28.244 C77.5164896,28.1432839 77.5685212,28.0070623 77.563,27.867 L78.263,27.867 Z" id="Path_177" fill="#949494" fill-rule="nonzero"></path>
            <polygon id="Path_178" fill="#949494" points="84.747 34.794 83.794 34.794 83.794 32.344 81.322 32.344 81.322 34.794 80.358 34.794 80.358 29.252 81.322 29.252 81.322 31.546 83.783 31.546 83.783 29.274 84.736 29.274"></polygon>
        </g>
    </g>
</svg>
