<svg width="122" height="43" viewBox="0 0 122 43" xmlns="http://www.w3.org/2000/svg" xmlns:xlink="http://www.w3.org/1999/xlink"><g id="Page-1" stroke="none" stroke-width="1" fill="none" fill-rule="evenodd"><g id="eleksnet" transform="translate(-1)"><path d="M38.713 31.104c-.133 0-.244-.066-.233-.222.011-.156.078-.111.122-.122.044-.011.177.089.2.2l-.089.144z" id="Path_160" fill="#FFF"/><path d="M42.038 20.783C41.964 9.763 32.991.88 21.971.917c-11.019.037-19.933 8.98-19.933 20s8.914 19.963 19.933 20c11.02.037 19.993-8.847 20.067-19.866v-.268z" id="Path_161" fill="#FFF"/><path d="M22.086 42.121A21.06 21.06 0 017.377 5.963 20.76 20.76 0 0121.942 0h.3c11.464.084 20.755 9.321 20.905 20.784a21.263 21.263 0 01-6.085 15.119 20.876 20.876 0 01-14.976 6.218zm-.133-39.9a18.844 18.844 0 10.133 37.687 18.667 18.667 0 0013.4-5.542 19.037 19.037 0 005.443-13.579c-.146-10.255-8.467-18.51-18.723-18.575l-.253.009z" id="Path_162" fill="#E38720"/><path d="M23.505 14.078a2.568 2.568 0 01-1.6-2.217 1.835 1.835 0 01.521-1.762.211.211 0 01.166-.066c.37-.315.805-.542 1.275-.665a2.641 2.641 0 012.051.443 2.584 2.584 0 01.854 2.827 2.529 2.529 0 01-2.458 1.586 4.169 4.169 0 01-.809-.146z" id="Path_163" fill="#FFF"/><path d="M15.878 22.003v-1.729c0-.621 0-.72.72-.72H37.05c.173.011.348.011.521 0 .133 0 .288 0 .321-.188.02-.143.02-.289 0-.432-.155-.765-.321-1.519-.477-2.283-.22-.723-.487-1.43-.8-2.117a12.091 12.091 0 00-1.386-2.616A12.415 12.415 0 0033.5 9.812a12.05 12.05 0 00-2.682-2.272 12.1 12.1 0 00-3.245-1.655 6.263 6.263 0 00-1.519-.521 17.248 17.248 0 00-4.046-.532 22.6 22.6 0 00-2.8.222c-.956.19-1.897.449-2.815.776a15.761 15.761 0 00-7.183 5.332c-.447.54-.84 1.124-1.175 1.74a15.1 15.1 0 00-1.652 4.057 17.3 17.3 0 00-.459 4.326 15.1 15.1 0 00.554 3.813 12.752 12.752 0 001.186 3.026 14.3 14.3 0 003.037 4.19 15.751 15.751 0 0012.969 4.489 15.522 15.522 0 008.868-3.957 16.657 16.657 0 002.882-3.436l.078-.078a16.405 16.405 0 002.361-6.429c0-.3-.089-.321-.321-.321H15.745a.113.113 0 00.067 0c.065-.186.087-.383.066-.579zM8.74 13.845l17.325-3.824c.572.585.814 1.417.643 2.217a.447.447 0 000 .321.824.824 0 00-.255.344 2.4 2.4 0 01-1.9 1.23c-.344 0-.665-.122-1.009-.1-.078-.155-.244-.2-.366-.288a2.647 2.647 0 01-1.108-1.973l-.051-.087c.008-.61.237-1.197.643-1.652h.067a.77.77 0 00.321-.188 2.394 2.394 0 011.973-.432c.355.078.643.333 1.009.377a.44.44 0 00.033.231L8.74 13.845z" id="Path_164" fill="#E38720" fill-rule="nonzero"/><circle id="Ellipse_12" fill="#FFF" cx="24.391" cy="11.805" r="2.549"/><path d="M80.357 16.195a4.215 4.215 0 00-1.363-3.048 4.323 4.323 0 00-5.653.244 5.381 5.381 0 00-1.585 3.846 5.243 5.243 0 00.909 3.4 3.955 3.955 0 002.295 1.607 7.007 7.007 0 003.99-.078c1.108-.333.987-.122.665-1.286 0-.233 0-.355-.321-.233-.8.3-1.652.437-2.505.4a3.036 3.036 0 01-3.159-2.306l-.078-.454v-.244c0-.3.144-.31.366-.31h6.063c.144 0 .31.078.421-.078a7.509 7.509 0 00-.045-1.46zm-5.664-2c.111-.1.277-.177.266-.355a2.549 2.549 0 012.882.255l.211.177a4.04 4.04 0 01.621 2.073c-.122-.166-.321-.1-.477-.1h-4.169c-.377 0-.41 0-.31-.4a3.2 3.2 0 01.976-1.645v-.005z" id="Path_165" fill="#191713" fill-rule="nonzero"/><path d="M62.454 17.891a6.032 6.032 0 00.3-1.541c.103-.71.103-1.43 0-2.139a3.267 3.267 0 00-.388-1.552 5.238 5.238 0 00-2.217-3.181 7.318 7.318 0 00-7.105-.41c-.166.067-.2.155-.133.321.108.287.2.58.277.876.067.266.188.288.388.133a5.942 5.942 0 014.789-.078 4.97 4.97 0 011.818 1.829 6.96 6.96 0 01.665 1.984c0 .3 0 .421-.355.421h-4.821c-.366 0-.865-.166-1.108.078-.243.244 0 .709-.067 1.108-.067.399.111.333.344.277h5.675c.155 0 .355-.066.355.211a5.22 5.22 0 01-4.9 4.789 7.122 7.122 0 01-2.716-.521c-.233-.089-.3-.055-.355.177-.055.232-.166.643-.266.953-.1.31 0 .266.188.288a8.993 8.993 0 004.534.51 6.12 6.12 0 005.055-4.511l.043-.022z" id="Path_166" fill="#191713"/><path d="M122.845 12.747c0-.222 0-.31-.266-.31h-7.5c-.1.452-.1.922 0 1.374.078.144.211 0 .31 0h2.383c.155 0 .344 0 .366.211a.3.3 0 000 .078v7.87c0 .277.122.3.333.244h1.186c.211 0 .288-.066.288-.277v-7.772c0-.277.089-.377.377-.366h2.295c.222 0 .333-.055.31-.3-.04-.25-.067-.5-.082-.752z" id="Path_167" fill="#191713"/><path d="M87.496 18.724c-.5-.98-1.44-1.66-2.527-1.829-.255-.089 0-.177 0-.222l1.585-1.7c.721-.676 1.4-1.408 2.073-2.139a.97.97 0 00.366-.4h-.621a3.943 3.943 0 00-1.507.055c-.432.2-.709.732-1.108 1.108l-.255.288c-.82.92-1.585 1.884-2.439 2.771-.266 0-.344-.1-.333-.355v-3.525c0-.122.067-.255-.078-.344h-1.407c-.288 0-.355.078-.355.355v9.123c0 .31.078.421.388.321h1.374c.155-.1.078-.255.078-.388v-3.891a4.6 4.6 0 011.762.233l.809.543a7.393 7.393 0 011.241 2.217c.144.355.321.7.477 1.042 0 .122.111.222.277.222h1.74a21.793 21.793 0 01-.865-2.006 5.937 5.937 0 00-.675-1.479z" id="Path_168" fill="#191713"/><path d="M70.448 12.437h-6.152c-.277 0-.377 0-.366.355v2.749a23.231 23.231 0 01-.1 3.093c-.122.831-.277 1.729-1.108 2.062-.7.266-.8.61-.621 1.219a.766.766 0 010 .188c0 .244.122.344.366.288a2.728 2.728 0 001.408-.41 3.682 3.682 0 001.652-3.093 3.53 3.53 0 00.089-1.108c.032-.135.055-.272.067-.41v-3.5h3.082c.233 0 .211.144.211.3v7.759c0 .111-.067.255.078.344h1.5c.222 0 .277-.078.277-.288v-9.156c.027-.3-.072-.392-.383-.392z" id="Path_169" fill="#191713"/><path d="M114.176 13.324a4.29 4.29 0 00-5.742 0 5.929 5.929 0 00-.8 7.36 3.928 3.928 0 002.04 1.53 7.231 7.231 0 004.356 0c.82-.222.809-.244.632-1.108a.409.409 0 00-.078-.288c-.078-.1-.078-.244-.288-.166a6.5 6.5 0 01-2.583.41 3.036 3.036 0 01-2.915-1.873l-.233-.987c0-.166-.089-.31-.078-.466h6.507c.133 0 .344.089.377-.133a3.35 3.35 0 000-1.541 4.652 4.652 0 00-1.195-2.738zm-.521 3.022a.837.837 0 00-.532-.089h-3.935c-.521 0-.554-.055-.421-.554a4.22 4.22 0 00.333-.931c.185-.275.414-.518.676-.72a2.462 2.462 0 013.325.454c.357.55.55 1.19.554 1.844v-.004z" id="Path_170" fill="#191713" fill-rule="nonzero"/><path d="M96.164 12.636a6.021 6.021 0 00-4.933.188c-2.671 1.352-3.17 4.877-2.062 7.127a3.885 3.885 0 001.829 1.94 6.1 6.1 0 004.733.266c.632-.177.621-.2.477-.854l-.144-.587c-.078-.31-.255-.067-.344 0a3.845 3.845 0 01-4.5-.865 6.023 6.023 0 01-.61-1.108l-.155-1c-.03-.76.106-1.516.4-2.217a4.782 4.782 0 011.108-1.3 4.239 4.239 0 013.059-.355c.31.067.676.4.887.222.211-.178.255-.621.333-.942.199-.282.177-.426-.078-.515z" id="Path_171" fill="#191713"/><path d="M105.775 18.733v-5.974c0-.233 0-.321-.277-.31-.395.023-.791.023-1.186 0-.277 0-.366 0-.366.355v3.248c0 .266-.078.344-.344.344h-4.123c-.133 0-.144-.2-.155-.333v-3.275c.067-.288 0-.41-.344-.388a8.815 8.815 0 01-1.108 0c-.244 0-.321.055-.321.31v9.2c0 .3.111.355.366.288a7.005 7.005 0 011.186 0c.222 0 .277-.078.277-.288v-4.168h4.2c.133 0 .321-.078.388.144v4.024c0 .333.155.31.377.266h1.374c.111 0 .078-.155.078-.233-.013-1.07-.02-2.14-.022-3.21z" id="Path_172" fill="#191713"/><path d="M57.623 32.179c.012.488-.082.972-.277 1.419a2.118 2.118 0 01-.8.942 2.352 2.352 0 01-2.394 0 2.148 2.148 0 01-.809-.931 3.311 3.311 0 01-.288-1.4v-.34a3.3 3.3 0 01.321-1.4c.17-.387.452-.715.809-.942a2.355 2.355 0 012.394-.011c.355.224.636.548.809.931.18.45.26.935.233 1.419l.002.313zm-.92-.31a2.416 2.416 0 00-.344-1.408 1.219 1.219 0 00-1.951 0c-.28.415-.42.908-.4 1.408v.321c-.03.495.093.987.355 1.408a1.222 1.222 0 001.962.011c.27-.427.401-.926.377-1.43l.001-.31z" id="Path_173" fill="#949494" fill-rule="nonzero"/><path id="Path_174" fill="#949494" d="M62.955 34.794h-.953v-2.45H59.54v2.45h-.964v-5.542h.964v2.294h2.461v-2.272h.953z"/><path d="M68.497 29.276v5.542h-.95v-4.766h-1.7l-.1 2.128a6.234 6.234 0 01-.244 1.552 1.59 1.59 0 01-.543.809 1.621 1.621 0 01-.953.255h-.244v-.776h.155a.74.74 0 00.51-.233c.142-.177.237-.387.277-.61a7.48 7.48 0 00.133-1.2l.109-2.692 3.55-.009z" id="Path_175" fill="#949494"/><path d="M72.798 33.508H70.67l-.443 1.286h-1l2.084-5.542h.909l2.084 5.542h-1l-.506-1.286zm-1.862-.776h1.6l-.8-2.283-.8 2.283z" id="Path_176" fill="#949494" fill-rule="nonzero"/><path d="M78.263 29.275h.964v5.542h-.964v-3.946l-2.416 3.924h-.964v-5.542h.964v3.935l2.416-3.913zm0-1.408a.991.991 0 01-.333.776 1.5 1.5 0 01-1.785 0 .984.984 0 01-.333-.776h.687a.5.5 0 00.144.377.544.544 0 00.388.133.535.535 0 00.388-.133c.097-.1.15-.237.144-.377h.7z" id="Path_177" fill="#949494" fill-rule="nonzero"/><path id="Path_178" fill="#949494" d="M84.747 34.794h-.953v-2.45h-2.472v2.45h-.964v-5.542h.964v2.294h2.461v-2.272h.953z"/></g></g></svg>