<svg xmlns="http://www.w3.org/2000/svg" xmlns:xlink="http://www.w3.org/1999/xlink" width="55" height="55" viewBox="0 0 55 55">
    <defs>
        <path id="a" d="M0 55h55V0H0z"/>
    </defs>
    <g fill="none" fill-rule="evenodd">
        <path fill="#FF306F" d="M22.855 50.273l-4.026-4.066 1.157-1.056 4.019 4.06-1.15 1.063zm-1.795 1.664a4.335 4.335 0 0 1-3.096 1.294c-1.169 0-2.269-.461-3.097-1.296L3.032 39.98a4.417 4.417 0 0 1-1.282-3.127c0-1.182.455-2.293 1.282-3.128l.481-.487 4.017 4.057-.032.032a2.677 2.677 0 0 0 0 3.754l6.28 6.343a2.6 2.6 0 0 0 1.858.778c.703 0 1.362-.276 1.826-.747l.066-.059 4.035 4.075-.503.466zM5.704 31.027l4.016 4.056-.951.96-4.016-4.056.95-.96zm8.028 11.31a4.394 4.394 0 0 1 3.37-2.953l6.122-1.124 3.798 3.837 3.797-3.836 6.12 1.124a4.393 4.393 0 0 1 3.372 2.954l1.26 3.815H23.457l-3.411-3.446-3.79 3.464a.888.888 0 0 1-1.239 0l-1.912-1.932.627-1.902zM29.649 36.9v.042l-2.627 2.653-2.627-2.653V36.9a8.668 8.668 0 0 0 5.254 0zm-9.633-8.438v-4.457c2.63-.2 5.082-1.296 7.006-3.144a11.296 11.296 0 0 0 7.006 3.144v4.457c0 1.29-.349 2.496-.948 3.538h-6.058v1.77h4.619a6.929 6.929 0 0 1-4.62 1.768c-3.862 0-7.005-3.174-7.005-7.076zm-1.752-6.193v1.01a3.454 3.454 0 0 0-.875.367V20.5c0-5.365 4.322-9.73 9.633-9.73 5.311 0 9.633 4.365 9.633 9.73v3.146a3.421 3.421 0 0 0-.876-.367v-1.01h-.875a9.587 9.587 0 0 1-6.857-2.869l-1.025-1.035-1.026 1.035a9.587 9.587 0 0 1-6.856 2.87h-.876zm0 5.947a1.767 1.767 0 0 1-.875-1.524c0-.652.354-1.216.875-1.523v3.047zm17.515 0v-3.047c.521.307.876.871.876 1.523 0 .652-.355 1.217-.876 1.524zm.876 2.9a.881.881 0 0 1-.876.884h-.736a8.845 8.845 0 0 0 .57-1.843c.376-.078.72-.229 1.042-.418v1.376zM44 47.922l-2.027-6.144a6.15 6.15 0 0 0-4.72-4.134l-5.852-1.076v-.458a8.842 8.842 0 0 0 2.61-2.342h1.768c1.449 0 2.628-1.19 2.628-2.654V20.5c0-6.34-5.108-11.5-11.385-11.5s-11.385 5.16-11.385 11.5v6.192c0 1.706 1.2 3.133 2.793 3.465a8.86 8.86 0 0 0 4.213 5.954v.458l-5.853 1.076a6.149 6.149 0 0 0-4.719 4.134l-.35 1.062-2.983-3.013a.893.893 0 0 1 0-1.252l3.46-3.493-6.493-6.559-3.91 3.95A6.184 6.184 0 0 0 0 36.851c0 1.654.638 3.209 1.795 4.378l11.836 11.956A6.06 6.06 0 0 0 17.966 55a6.033 6.033 0 0 0 4.307-1.788l4.265-3.948-1.33-1.34H44zM53.3 9.336a.85.85 0 0 1-.85.848h-2.794l-5.398 3.369.579-3.369H40.55a.85.85 0 0 1-.85-.848v-6.79a.85.85 0 0 1 .85-.849h11.9a.85.85 0 0 1 .85.85v6.789zM52.45 0h-11.9A2.551 2.551 0 0 0 38 2.546v6.79a2.551 2.551 0 0 0 2.55 2.546h2.27L41.942 17l8.202-5.118h2.306A2.551 2.551 0 0 0 55 9.336v-6.79A2.551 2.551 0 0 0 52.45 0z"/>
        <mask id="b" fill="#fff">
            <use xlink:href="#a"/>
        </mask>
        <path fill="#FF306F" d="M40 5h11V4H40zM41 9h6V8h-6zM50 9h1V8h-1zM28.372 3C16.358 3 6.01 11.193 3.32 22.621l-1.742-2.863L0 20.69 3.232 26l5.385-3.186-.946-1.555-2.492 1.474c2.606-10.455 12.142-17.92 23.193-17.92 2.416 0 4.799.354 7.084 1.052L36 4.133A26.068 26.068 0 0 0 28.372 3M55 19.163L49.32 16l-3.407 5.272 1.663.926 1.697-2.625a21.787 21.787 0 0 1 1.35 7.562c0 5.351-1.997 10.583-5.623 14.731L46.506 43c3.906-4.467 6.056-10.102 6.056-15.865 0-2.753-.478-5.441-1.41-8.015l2.85 1.587.998-1.544z" mask="url(#b)"/>
    </g>
</svg>
