<svg xmlns="http://www.w3.org/2000/svg" xmlns:xlink="http://www.w3.org/1999/xlink" width="53" height="55" viewBox="0 0 53 55">
    <defs>
        <path id="a" d="M0 55h52.994V0H0z"/>
    </defs>
    <g fill="none" fill-rule="evenodd">
        <path fill="#FF306F" d="M38 25.265L27.265 36 26 34.735 36.735 24z"/>
        <g transform="rotate(-180 26.5 27.5)">
            <path fill="#FF306F" d="M24.562 27.738c-.563 0-1.021.452-1.021 1.008s.458 1.008 1.02 1.008c.564 0 1.023-.452 1.023-1.008s-.459-1.008-1.022-1.008m0 3.82c-1.57 0-2.849-1.262-2.849-2.812 0-1.55 1.278-2.81 2.849-2.81 1.57 0 2.849 1.26 2.849 2.81s-1.278 2.811-2.85 2.811M17.468 20.738c-.564 0-1.022.452-1.022 1.008s.458 1.008 1.022 1.008c.563 0 1.021-.452 1.021-1.008s-.458-1.008-1.02-1.008m0 3.819c-1.572 0-2.85-1.261-2.85-2.811s1.278-2.812 2.85-2.812c1.57 0 2.848 1.262 2.848 2.812 0 1.55-1.278 2.81-2.849 2.81"/>
            <mask id="b" fill="#fff">
                <use xlink:href="#a"/>
            </mask>
            <path fill="#FF306F" d="M20.101 18.033h1.828v-6.311H20.1zM26.44 54.098h-.003a.921.921 0 0 1-.713-.34L14.818 40.234a.893.893 0 0 1-.109-.954.916.916 0 0 1 .824-.51H20.1V32.46h1.828v7.213c0 .499-.41.902-.914.902h-3.587l9.015 11.18 9.11-11.18H31.98a.907.907 0 0 1-.913-.902v-27.95h1.827V38.77h4.569c.351 0 .671.2.824.513a.893.893 0 0 1-.112.954L27.152 53.762a.92.92 0 0 1-.713.336M.428 18.297l5.482-5.41 1.293 1.275-5.483 5.41zM2.741 13.896c0 .703-.578 1.273-1.29 1.273-.712 0-1.29-.57-1.29-1.273s.578-1.273 1.29-1.273c.712 0 1.29.57 1.29 1.273M7.471 18.563c0 .703-.577 1.273-1.29 1.273-.712 0-1.29-.57-1.29-1.273s.578-1.273 1.29-1.273c.713 0 1.29.57 1.29 1.273M43.21 19.199l7.31-7.213 1.293 1.275-7.31 7.213zM45.148 13.525a.374.374 0 0 0-.377.371c0 .205.169.372.377.372a.375.375 0 0 0 .376-.372.375.375 0 0 0-.376-.371m0 2.546c-1.216 0-2.204-.976-2.204-2.175 0-1.2.988-2.174 2.204-2.174 1.215 0 2.203.975 2.203 2.174 0 1.2-.988 2.175-2.203 2.175M49.877 18.191a.375.375 0 0 0-.377.372c0 .204.169.371.377.371a.375.375 0 0 0 .376-.371.375.375 0 0 0-.376-.372m0 2.547c-1.215 0-2.204-.976-2.204-2.175 0-1.2.989-2.175 2.204-2.175 1.215 0 2.204.976 2.204 2.175 0 1.2-.989 2.175-2.204 2.175M24.67 14.426h1.827V4.508H24.67zM49.34 9.918h1.827V8.115H49.34zM49.34 6.311h1.827V1.803H49.34zM49.34 50.492h1.827v-1.803H49.34zM49.34 54.098h1.827v-1.803H49.34zM28.325 8.115h1.827V6.31h-1.827zM28.325 4.508h1.827V2.705h-1.827zM41.116 33.36h1.828v-1.803h-1.828zM41.116 36.967h1.828v-1.803h-1.828zM31.066 5.41h1.827V3.607h-1.827zM31.066 9.918h1.827V7.213h-1.827zM20.101 7.213h1.828V5.41H20.1zM20.101 11.722h1.828V9.016H20.1zM40.013 50.756l5.482-5.41 1.292 1.275-5.482 5.41zM42.326 46.355c0 .703-.577 1.273-1.29 1.273-.713 0-1.29-.57-1.29-1.273s.577-1.273 1.29-1.273c.713 0 1.29.57 1.29 1.273M47.055 51.022c0 .703-.577 1.273-1.29 1.273-.712 0-1.29-.57-1.29-1.273s.578-1.273 1.29-1.273c.713 0 1.29.57 1.29 1.273M.267 46.248l7.31-7.214 1.292 1.275-7.31 7.213zM2.204 40.574a.375.375 0 0 0-.377.372c0 .205.17.371.377.371a.375.375 0 0 0 .377-.371.375.375 0 0 0-.377-.372m0 2.546C.989 43.12 0 42.145 0 40.946c0-1.2.989-2.175 2.204-2.175 1.215 0 2.204.975 2.204 2.175 0 1.199-.99 2.174-2.204 2.174M6.933 45.24a.375.375 0 0 0-.377.372c0 .205.17.372.377.372a.375.375 0 0 0 .377-.372.375.375 0 0 0-.377-.371m0 2.546c-1.215 0-2.204-.976-2.204-2.175 0-1.2.989-2.175 2.204-2.175 1.215 0 2.204.976 2.204 2.175 0 1.2-.989 2.175-2.204 2.175M1.827 34.262h1.828v-6.311H1.827zM51.167 38.77h1.827v-7.213h-1.827zM47.512 34.262h1.828V27.05h-1.828z" mask="url(#b)"/>
            <path fill="#FF306F" d="M34.72 23.442h1.828v-3.606H34.72zM34.72 29.754h1.828v-4.508H34.72zM7.31 51.393h1.827V49.59H7.31zM7.31 55h1.827v-1.803H7.31zM4.568 7.213h1.828V5.41H4.568zM4.568 11.722h1.828V9.016H4.568zM12.792 26.148h1.827v-1.804h-1.827zM24.67 2.705h1.827V0H24.67z" mask="url(#b)"/>
        </g>
    </g>
</svg>
