<svg xmlns="http://www.w3.org/2000/svg" id="Сгруппировать_2687" width="50" height="50" viewBox="0 0 50 50">
    <defs>
        <style>
            .cls-1{fill:#7f28c4}
        </style>
    </defs>
    <g id="information">
        <g id="Сгруппировать_109">
            <g id="Сгруппировать_108">
                <path id="Контур_221" d="M192.246 110.182a5.374 5.374 0 0 0 .3.542c.1.148.246.3.345.443a4.444 4.444 0 0 0 .493.443 1.66 1.66 0 0 0 .591.3 2.439 2.439 0 0 0 .64.2 3.03 3.03 0 0 0 .64.049 2.809 2.809 0 0 0 .64-.049 1.765 1.765 0 0 0 .542-.2h.049a3.675 3.675 0 0 0 .591-.345 3.187 3.187 0 0 0 .443-.394l.049-.049a2.707 2.707 0 0 0 .345-.443 1.541 1.541 0 0 0 .246-.493c0-.049 0-.049.049-.1a3.187 3.187 0 0 0 .2-.64 4.188 4.188 0 0 0 0-1.281 4.577 4.577 0 0 0-.2-.64 2.8 2.8 0 0 0-.591-.887l-.1-.1a4.307 4.307 0 0 0-.493-.394c-.2-.1-.345-.2-.542-.3a2.777 2.777 0 0 0-.591-.2 3.03 3.03 0 0 0-.64-.049 2.809 2.809 0 0 0-.64.049 2.776 2.776 0 0 0-.591.2h-.049a5.371 5.371 0 0 0-.542.3 4.306 4.306 0 0 0-.493.394 3.187 3.187 0 0 0-.394.443 5.374 5.374 0 0 0-.3.542 2.778 2.778 0 0 0-.2.591 3.03 3.03 0 0 0-.049.64 2.809 2.809 0 0 0 .049.64 4.469 4.469 0 0 0 .203.788z" class="cls-1" transform="translate(-170.295 -93.664)"/>
                <path id="Контур_222" d="M186.467 194.15h-1.133v-12.07a1.272 1.272 0 0 0-1.281-1.281h-5.173a1.272 1.272 0 0 0-1.281 1.281v2.66a1.272 1.272 0 0 0 1.281 1.281h1.035v8.179h-1.035a1.272 1.272 0 0 0-1.281 1.281v2.66a1.272 1.272 0 0 0 1.281 1.281h7.587a1.272 1.272 0 0 0 1.281-1.281v-2.66a1.315 1.315 0 0 0-1.281-1.331z" class="cls-1" transform="translate(-157.674 -160.991)"/>
                <path id="Контур_223" d="M25 0a25 25 0 1 0 25 25A25.006 25.006 0 0 0 25 0zm0 46.709A21.709 21.709 0 1 1 46.709 25 21.729 21.729 0 0 1 25 46.709z" class="cls-1"/>
            </g>
        </g>
    </g>
</svg>
