<?xml version="1.0" encoding="UTF-8"?>
<svg width="31px" height="52px" viewBox="0 0 31 52" version="1.1" xmlns="http://www.w3.org/2000/svg" xmlns:xlink="http://www.w3.org/1999/xlink">
    <!-- Generator: Sketch 52.5 (67469) - http://www.bohemiancoding.com/sketch -->
    <title>Untitled</title>
    <desc>Created with Sketch.</desc>
    <defs>
        <polygon id="path-1" points="0 0.0767091372 15.9978842 0.0767091372 15.9978842 36.9999695 0 36.9999695"></polygon>
    </defs>
    <g id="Page-1" stroke="none" stroke-width="1" fill="none" fill-rule="evenodd">
        <g id="Group-8">
            <g id="Group-3" transform="translate(0.000000, 15.000000)">
                <mask id="mask-2" fill="white">
                    <use xlink:href="#path-1"></use>
                </mask>
                <g id="Clip-2"></g>
                <path d="M13.8929368,33.9510272 C13.8929368,34.5115162 13.4208316,34.9674091 12.8404105,34.9674091 L10.9458842,34.9674091 L10.9458842,27.2432525 C10.9458842,26.6819503 10.4747263,26.2268706 9.89335789,26.2268706 C9.31209474,26.2268706 8.84083158,26.6818486 8.84083158,27.2432525 L8.84083158,34.9674091 L3.15746316,34.9674091 C2.57714737,34.9674091 2.10493684,34.5116179 2.10493684,33.9510272 L2.10493684,19.5188926 L13.8929368,19.5188926 L13.8929368,33.9510272 Z M3.99946316,13.0141096 L4.20998947,13.0141096 L11.7879895,13.0141096 L11.9985158,13.0141096 L11.9985158,17.4861288 L3.99956842,17.4861288 L3.99956842,13.0141096 L3.99946316,13.0141096 Z M5.26251579,3.12941731 C5.26251579,2.60948599 5.62051579,2.34642005 5.77430526,2.2573761 C5.9282,2.16843379 6.33746316,1.98810962 6.81198947,2.23359038 L10.1799895,3.97624973 C10.5226211,4.15352445 10.7353579,4.49679093 10.7353579,4.87207665 L10.7353579,10.9812442 L5.26251579,10.9812442 L5.26251579,3.12941731 Z M14.1034632,17.4962937 L14.1034632,13.0141096 C14.1034632,12.1825245 13.5830421,11.4668184 12.8405158,11.1523184 L12.8405158,4.8721783 C12.8405158,3.74621951 12.2020947,2.7165217 11.1743053,2.18459588 L7.80630526,0.441936538 C6.81851579,-0.0690497253 5.65483158,-0.0426211538 4.69314737,0.513496978 C3.73156842,1.06920852 3.15756842,2.04716731 3.15756842,3.12941731 L3.15756842,11.1522168 C2.41504211,11.4667168 1.89462105,12.1824228 1.89462105,13.014008 L1.89462105,17.496192 C0.832305263,17.5985519 -1.05263158e-05,18.4663239 -1.05263158e-05,19.5187909 L-1.05263158e-05,33.9509255 C-1.05263158e-05,35.6321893 1.41641053,36.9999695 3.15746316,36.9999695 L12.8404105,36.9999695 C14.5814632,36.9999695 15.9978842,35.6321893 15.9978842,33.9509255 L15.9978842,19.5187909 C15.9979895,18.4664255 15.1656737,17.5986536 14.1034632,17.4962937 Z" id="Fill-1" fill="#FF006A" mask="url(#mask-2)"></path>
            </g>
            <path d="M9.7069707,37.2930293 C9.5209521,37.1070107 9.2640264,37 9,37 C8.7369737,37 8.4790479,37.1069107 8.2930293,37.2930293 C8.1070107,37.4790479 8,37.7369737 8,38 C8,38.2630263 8.1070107,38.5209521 8.2930293,38.7068707 C8.4790479,38.8928893 8.7369737,39 9,39 C9.2640264,39 9.5209521,38.8929893 9.7069707,38.7068707 C9.8929893,38.5209521 10,38.2630263 10,38 C10,37.7369737 9.8929893,37.4789479 9.7069707,37.2930293" id="Fill-4" fill="#FF006A"></path>
            <path d="M28.8787268,37.3449781 C28.8787268,41.7793622 27.6617367,46.1318764 25.3544093,49.9687929 L22.6452725,49.9687929 C20.3380511,46.1317748 19.121061,41.7793622 19.121061,37.3449781 L19.121061,31.4844726 L25.5123539,31.4844726 C26.098096,31.4844726 26.5729905,31.0296171 26.5729905,30.4688182 C26.5729905,29.9078162 26.098202,29.4531639 25.5123539,29.4531639 L19.121061,29.4531639 L19.121061,27.0156544 L28.8786207,27.0156544 L28.8786207,37.3449781 L28.8787268,37.3449781 Z M29.9393634,24.9844472 L25.0605836,24.9844472 L25.0605836,15.0313595 L26.8649068,15.0313595 C27.4506489,15.0313595 27.9255434,14.5766056 27.9255434,14.0157051 C27.9255434,13.4548047 27.450755,13.0000508 26.8649068,13.0000508 L25.0605836,13.0000508 L25.0605836,11.7813468 L26.8649068,11.7813468 C27.4506489,11.7813468 27.9255434,11.3265929 27.9255434,10.7656925 C27.9255434,10.204792 27.450755,9.75003809 26.8649068,9.75003809 L25.0605836,9.75003809 L25.0605836,8.53133412 L26.8649068,8.53133412 C27.4506489,8.53133412 27.9255434,8.07647861 27.9255434,7.51557818 C27.9255434,6.95477933 27.450755,6.49992382 26.8649068,6.49992382 L25.0605836,6.49992382 L25.0605836,5.28121984 L26.8649068,5.28121984 C27.4506489,5.28121984 27.9255434,4.82646591 27.9255434,4.26556548 C27.9255434,3.70466505 27.450755,3.24991112 26.8649068,3.24991112 L25.0605836,3.24991112 L25.0605836,2.03120715 L26.8649068,2.03120715 C27.4506489,2.03120715 27.9255434,1.57655479 27.9255434,1.01555279 C27.9255434,0.454652358 27.450755,0 26.8649068,0 L21.1351992,0 C20.5494571,0 20.0745626,0.454652358 20.0745626,1.01555279 C20.0745626,1.57655479 20.5493511,2.03120715 21.1351992,2.03120715 L22.9394164,2.03120715 L22.9394164,3.24991112 L21.1350932,3.24991112 C20.5493511,3.24991112 20.0744566,3.70466505 20.0744566,4.26556548 C20.0744566,4.82646591 20.549245,5.28121984 21.1350932,5.28121984 L22.9394164,5.28121984 L22.9394164,6.49992382 L21.1350932,6.49992382 C20.5493511,6.49992382 20.0744566,6.95477933 20.0744566,7.51557818 C20.0744566,8.07647861 20.549245,8.53133412 21.1350932,8.53133412 L22.9394164,8.53133412 L22.9394164,9.75003809 L21.1350932,9.75003809 C20.5493511,9.75003809 20.0744566,10.204792 20.0744566,10.7656925 C20.0744566,11.3265929 20.549245,11.7813468 21.1350932,11.7813468 L22.9394164,11.7813468 L22.9394164,13.0000508 L21.1350932,13.0000508 C20.5493511,13.0000508 20.0744566,13.4548047 20.0744566,14.0157051 C20.0744566,14.5766056 20.549245,15.0313595 21.1350932,15.0313595 L22.9394164,15.0313595 L22.9394164,24.9844472 L18.0606366,24.9844472 C17.4748945,24.9844472 17,25.4393027 17,26.0002032 L17,37.3450796 C17,42.3406689 18.4292447,47.2390503 21.1332899,51.5110151 C21.3256025,51.8146245 21.6693892,52 22.040331,52 L25.959669,52 C26.3307168,52 26.6745035,51.814523 26.8667101,51.5110151 C29.5707553,47.2389488 31,42.3405673 31,37.3450796 L31,26.0001016 C30.9998939,25.4392011 30.5251055,24.9844472 29.9393634,24.9844472 Z" id="Fill-6" fill="#FF006A"></path>
        </g>
    </g>
</svg>