<svg xmlns="http://www.w3.org/2000/svg" width="43.757" height="48.872" viewBox="0 0 43.757 48.872">
    <defs>
        <style>
            .cls-1{fill:#ff336d}
        </style>
    </defs>
    <path id="like" d="M33.291 48.872h-5.188c-6.524 0-11.2-.567-14.712-1.784-.748-.263-1.4-.554-1.979-.811a6.813 6.813 0 0 0-2.664-.814H5.34a5.273 5.273 0 0 1-3.58-1.065A4.574 4.574 0 0 1 .5 40.864V25.285a4.877 4.877 0 0 1 1.271-3.492 4.773 4.773 0 0 1 3.569-1.347h.3c1.065.012 2.817.031 3.951-.953.069-.132.136-.257.2-.368.041-.081.079-.147.108-.2.01-.017.021-.034.03-.053a2.324 2.324 0 0 1 .281-.5 16.753 16.753 0 0 1 1.875-2.6 14.88 14.88 0 0 1 3.583-2.819 6.546 6.546 0 0 0 2.945-2.853l.055-.1a21.988 21.988 0 0 0 1.964-4.4 4.288 4.288 0 0 0 .131-1.21A3.927 3.927 0 0 1 24.1.009L24.179 0h.079a6.747 6.747 0 0 1 4.012 1.134c1.563 1.12 2.355 2.94 2.355 5.409a26.432 26.432 0 0 1-2.006 10.147l11.059 1.389a5.044 5.044 0 0 1 4.574 5.381 5.718 5.718 0 0 1-1.633 3.8 4.453 4.453 0 0 1 1.318 3.433 4.43 4.43 0 0 1-1.249 3.254 4.022 4.022 0 0 1-1.035.724 4.794 4.794 0 0 1 .967 2.91 5.118 5.118 0 0 1-1.555 3.749 5.225 5.225 0 0 1-3.019 1.4 4.143 4.143 0 0 1 .236 1.578 7.273 7.273 0 0 1-.056.829 3.652 3.652 0 0 1-1.086 2.136 5.526 5.526 0 0 1-3.849 1.599zM5.34 23.309c-1.385 0-1.976.591-1.976 1.976v15.579a2.229 2.229 0 0 0 .318 1.407c.134.121.528.324 1.659.324h3.407a9.111 9.111 0 0 1 3.829 1.062c.553.246 1.124.5 1.757.723C17.487 45.472 21.992 46 28.1 46h5.19a2.685 2.685 0 0 0 1.874-.817.765.765 0 0 0 .23-.509c.008-.085.019-.3.021-.389v-.097a1.207 1.207 0 0 0-.817-1.219 1.7 1.7 0 0 1 .833-3.248l1.925.163a2.379 2.379 0 0 0 1.725-.637 2.255 2.255 0 0 0 .67-1.679 2.131 2.131 0 0 0-2.138-2.068 1.549 1.549 0 0 1 .149-3.093c.879.016 2.351.045 2.93-.519.093-.09.374-.364.382-1.251v-.048c.054-1.264-.953-1.758-1.807-1.95a1.46 1.46 0 0 1 .247-2.883 2.368 2.368 0 0 0 1.877-2.423 2.181 2.181 0 0 0-1.9-2.4l-.116-.01-11.263-1.41a2.748 2.748 0 0 1-2.186-3.8 23.851 23.851 0 0 0 1.836-9.165c0-3.2-1.8-3.663-3.413-3.679a.684.684 0 0 0-.6.516 2.392 2.392 0 0 0-.13.836v.046a7.136 7.136 0 0 1-.219 2.051 23.819 23.819 0 0 1-2.184 4.982l-.055.107a9.273 9.273 0 0 1-4 4 12.288 12.288 0 0 0-2.961 2.307 14.178 14.178 0 0 0-1.575 2.21l-.09.143c-.057.125-.112.22-.15.286-.01.019-.022.037-.032.057l-.031.06c-.087.159-.188.348-.284.54l-.1.207-.164.164c-1.975 1.975-4.8 1.945-6.155 1.93zM35.4 44.658v.013a.048.048 0 0 1 0-.007zm0-.006v.006zm.017-.333v.01zm2.415-11.672zm1.827-4.028zm0 0" class="cls-1" transform="translate(-.5)"/>
</svg>
