<?xml version="1.0" encoding="UTF-8"?>
<svg width="106px" height="21px" viewBox="0 0 106 21" version="1.1" xmlns="http://www.w3.org/2000/svg" xmlns:xlink="http://www.w3.org/1999/xlink">
    <!-- Generator: Sketch 52.5 (67469) - http://www.bohemiancoding.com/sketch -->
    <title>Untitled</title>
    <desc>Created with Sketch.</desc>
    <g id="Page-1" stroke="none" stroke-width="1" fill="none" fill-rule="evenodd">
        <g id="group">
            <path d="M72.5473636,10.3699318 C72.5473636,12.5875 71.6945455,14.6701591 70.1455,16.2324545 C68.62238,17.7816234 66.5398066,18.6525098 64.3672955,18.6487727 C62.1990434,18.6535757 60.1207033,17.7827143 58.6035455,16.2336591 C57.062747,14.672191 56.203798,12.563586 56.2149318,10.3699318 C56.2149318,8.13309091 57.0701591,6.03959091 58.6240227,4.47247727 C60.1369833,2.9303729 62.2069404,2.06210228 64.3672955,2.06338636 C68.8783182,2.06338636 72.5461591,5.78904545 72.5461591,10.3699318 L72.5473636,10.3699318 Z M71.7379091,2.98606818 C69.78775,1.0335 67.2389318,0 64.3660909,0 C61.5137273,0 58.9733409,1.03229545 57.0255909,2.98486364 C55.0585682,4.92779545 53.9756818,7.55009091 53.9756818,10.3687273 C53.9756818,13.1271364 55.0585682,15.7289545 57.0231818,17.6995909 C59.0094773,19.6870909 61.5486591,20.7386591 64.3672955,20.7386591 C67.13775,20.7386591 69.7540227,19.6593864 71.7367045,17.7007955 C73.6983024,15.7672748 74.7970343,13.1242382 74.7842045,10.3699318 C74.7842045,7.55129545 73.7025227,4.929 71.7379091,2.98606818 Z M36.9313636,12.2381818 L35.1173182,16.1854773 L33.3044773,12.2345682 L27.8635455,0.648045455 L25.3617045,0.648045455 L34.3861591,19.6292727 C34.6788636,20.2435909 35.5509545,20.2447955 35.8424545,19.6292727 L44.8717273,0.64925 L42.3397727,0.64925 L36.9313636,12.2381818 Z" id="Shape" fill="#FFFFFF" fill-rule="nonzero"></path>
            <g id="Group" transform="translate(0.000000, 0.648045)">
                <g id="Clipped">
                    <polygon id="a" points="0.0277045455 0.308363636 105.58925 0.308363636 105.58925 20.0544773 0.0277045455 20.0544773"></polygon>
                    <path d="M103.372886,0.308363636 L103.372886,11.3685 L103.421068,15.8879545 L88.3449773,0.797409091 C88.1109812,0.562272555 87.758265,0.491489724 87.4516658,0.618139994 C87.1450666,0.744790263 86.9451307,1.04386312 86.9452955,1.37559091 L86.9452954,20.0556818 L89.1616591,20.0556818 L89.1134773,4.48090909 L104.188364,19.7184091 C104.42197,19.9551249 104.775518,20.0270908 105.08307,19.9005294 C105.390622,19.7739679 105.591118,19.4740062 105.590455,19.1414318 L105.590456,0.308363636 L103.374091,0.308363636 L103.372886,0.308363636 Z M14.4075682,13.0632955 L5.87818182,13.0632955 L8.07045455,8.47518182 L10.1386591,4.08340909 L12.2044545,8.48240909 L14.4087727,13.0645 L14.4075682,13.0632955 Z M0,19.96775 L2.57531818,19.96775 L4.87961364,15.1495682 L15.4121591,15.1495682 L17.7321136,19.96775 L20.2761136,19.96775 L10.8637955,0.851613636 C10.7259411,0.571175919 10.4405336,0.393608971 10.1280451,0.393864899 C9.81555656,0.394120828 9.53044024,0.572155035 9.39304545,0.852818182 L0,19.9689545 L0,19.96775 Z" id="Shape" fill="#FFFFFF" fill-rule="nonzero"></path>
                </g>
            </g>
        </g>
    </g>
</svg>