<?xml version="1.0" encoding="UTF-8"?>
<svg width="42px" height="52px" viewBox="0 0 42 52" version="1.1" xmlns="http://www.w3.org/2000/svg" xmlns:xlink="http://www.w3.org/1999/xlink">
    <!-- Generator: Sketch 52.5 (67469) - http://www.bohemiancoding.com/sketch -->
    <title>Untitled</title>
    <desc>Created with Sketch.</desc>
    <defs>
        <polygon id="path-1" points="2.58355591e-05 0.101263158 41.9570494 0.101263158 41.9570494 51.9999899 2.58355591e-05 51.9999899"></polygon>
    </defs>
    <g id="Page-1" stroke="none" stroke-width="1" fill="none" fill-rule="evenodd">
        <g id="Group-10">
            <path d="M34.993116,17.1650628 C34.5269083,13.8227588 32.8129789,10.747957 30.1668387,8.50691321 C27.4964521,6.24542836 24.0633756,5 20.4997568,5 C16.9367519,5 13.5040846,6.24503527 10.8340049,8.50583219 C8.18806941,10.7460898 6.47383302,13.8202037 6.00690924,17.1617215 C5.95053873,17.5650386 6.24528181,17.9360235 6.66524722,17.9901726 C7.08439418,18.0450096 7.4713148,17.7611938 7.52768531,17.3577784 C8.39472717,11.1529448 13.9714176,6.47401405 20.4997568,6.47401405 C27.0296307,6.47401405 32.6065257,11.1543207 33.4722376,17.3608249 C33.523902,17.7310236 33.8532245,18 34.231756,18 C34.2657216,18 34.299994,17.997838 34.3345734,17.9934156 C34.7545388,17.9393648 35.0493842,17.5684782 34.993116,17.1650628" id="Fill-1" fill="#FF006A"></path>
            <path d="M34.3278293,21.0149832 C33.9072767,20.9655998 33.5252441,21.2493599 33.473237,21.6488989 C32.6653387,27.8589595 27.0883168,32.5419258 20.500579,32.5419258 C13.9080391,32.5419258 8.33050626,27.8551683 7.52679714,21.6400527 C7.47509656,21.2405137 7.09347266,20.9562675 6.67271572,21.0055537 C6.252674,21.0547426 5.95411844,21.4185078 6.00581903,21.818144 C6.90393791,28.7629286 13.135289,34 20.5006812,34 C27.860556,34 34.0913962,28.7672059 34.994113,21.8280596 C35.0461201,21.4284234 34.7477689,21.0644638 34.3278293,21.0149832" id="Fill-3" fill="#FF006A"></path>
            <path d="M24.4624632,26.5049927 L16.6133057,26.5049927 L16.6133057,25.2823305 L18.7892529,25.2823305 C19.3355978,25.2823305 19.7800348,24.8501869 19.7800348,24.3189544 L19.7800348,15.4765098 C19.7799323,15.0992939 19.5619684,14.7652424 19.2108273,14.6047462 C18.8597887,14.4441503 18.4562584,14.4937945 18.1573014,14.7344391 L16.6216101,15.9707585 L15.7483195,14.8842688 L19.901627,11.4953064 L21.748168,11.4953064 L21.748168,24.3189544 C21.748168,24.8501869 22.192605,25.2823305 22.7389498,25.2823305 L24.4624632,25.2823305 L24.4624632,26.5049927 Z M25.0093207,23.7870241 L23.2858073,23.7870241 L23.2858073,10.9633761 C23.2858073,10.4321435 22.8413702,10 22.2950254,10 L19.7024249,10 C19.4699028,10 19.2436347,10.0800487 19.0655523,10.2253925 L14.3553401,14.0689281 C13.9442231,14.4043752 13.8811715,14.98904 14.2116029,15.4000498 L15.7564188,17.3224158 C15.9202505,17.5261762 16.1658955,17.6590591 16.4301997,17.6869715 C16.694914,17.7148838 16.9638317,17.6362307 17.1687751,17.4712486 L18.2421904,16.6071609 L18.2421904,23.7869244 L16.0662432,23.7869244 L16.0662432,23.7870241 C15.5198984,23.7870241 15.0754614,24.2192673 15.0754614,24.7504001 L15.0754614,27.0366239 C15.0754614,27.5678565 15.5198984,28 16.0662432,28 L25.0093207,28 C25.555563,28 26,27.5677568 26,27.0366239 L26,24.7504001 C26,24.2191676 25.555563,23.7870241 25.0093207,23.7870241 Z" id="Fill-5" fill="#FF006A"></path>
            <g id="Group-9">
                <mask id="mask-2" fill="white">
                    <use xlink:href="#path-1"></use>
                </mask>
                <g id="Clip-8"></g>
                <path d="M36.8040686,43.6082238 L32.0100394,36.0713661 C32.4808277,35.6079275 32.8060978,35.0094713 32.9299518,34.3533388 C32.9955577,34.005253 33.1663168,33.695483 33.4059518,33.4540327 L40.1380102,43.8992413 L36.8040686,43.6082238 Z M33.7810905,43.3443719 C33.2249737,43.2958183 32.7058496,43.6254558 32.5171051,44.1459626 L32.2258642,44.9490737 L27.2753825,37.1660016 C27.7041708,36.8558261 28.2641708,36.7434129 28.7947401,36.8931283 C29.4230029,37.0703135 30.0868277,37.0547033 30.6996599,36.8602862 L34.8852511,43.4407696 L33.7810905,43.3443719 Z M30.3566088,50.1020405 L23.2723022,39.1101731 C23.5178642,39.16714 23.7698642,39.197448 24.0233971,39.197448 C24.2239956,39.197448 24.4258204,39.1792023 24.6257036,39.1422043 C25.224638,39.0311088 25.7758496,38.7560055 26.2216015,38.3584538 L31.567762,46.7632959 L30.3566088,50.1020405 Z M21.4560832,36.7052998 C21.4070321,36.6945552 21.3569591,36.6887774 21.3066818,36.6877637 C21.1974409,36.6769177 21.0882,36.6696195 20.9785504,36.6696195 C20.8690029,36.6696195 20.759762,36.6769177 20.6506234,36.6877637 C20.6000394,36.688676 20.5498642,36.6945552 20.5006088,36.7052998 C19.9655431,36.7823368 19.445908,36.9881068 18.9955577,37.325448 C18.5960978,37.6243719 18.1049737,37.7387111 17.6129299,37.6476858 C17.1208861,37.5564577 16.7047693,37.273752 16.4411197,36.8515688 C16.3852219,36.7622667 16.3245212,36.6773232 16.2611635,36.5950152 C16.2514555,36.5823446 16.2416453,36.5698768 16.2310175,36.5579158 C15.4156453,35.5290659 14.0324044,35.066945 12.7430759,35.4305396 C12.2616599,35.566368 11.762054,35.4972374 11.3364336,35.2358183 C10.9108131,34.9743992 10.6257036,34.5616429 10.5336307,34.0735727 C10.3373241,33.0330659 9.64161606,32.1735961 8.71465255,31.7316468 C8.6672365,31.704177 8.6181854,31.6822823 8.56790803,31.6659626 C8.2652219,31.5393583 7.94128029,31.4546175 7.60282774,31.4233973 C7.10444818,31.3774791 6.66380584,31.1340016 6.36214161,30.7377676 C6.06047737,30.3415337 5.94490073,29.8544772 6.03687153,29.3663057 C6.30532409,27.9400055 5.57844818,26.4921146 4.26909051,25.8450035 C3.82109051,25.6236234 3.49888613,25.2386409 3.36184964,24.7611127 C3.22491533,24.283483 3.29450657,23.7879119 3.55795182,23.3657287 C4.32784964,22.1320211 4.17732409,20.5212374 3.19201022,19.4486994 C2.85478394,19.0817598 2.69465255,18.6072725 2.74074015,18.1129177 C2.78692993,17.6184616 3.03228759,17.1813778 3.43174745,16.8820483 C4.59885693,16.0073739 5.0452219,14.4515298 4.51700292,13.0984148 C4.3362292,12.6353817 4.35963066,12.1356546 4.58281314,11.6911712 C4.80589343,11.2466877 5.19390803,10.926984 5.67542628,10.7910542 C7.08227299,10.3936039 8.06503212,9.10272671 8.06533869,7.65179493 C8.06544088,7.15521014 8.2692073,6.69765068 8.63913431,6.36304639 C9.00906131,6.02854347 9.48730949,5.86929981 9.98579124,5.91521793 C11.4429153,6.04912047 12.8288131,5.19725302 13.3575431,3.84434074 C13.5385212,3.38140897 13.8952657,3.02754542 14.3620686,2.84823158 C14.8287693,2.66891774 15.3327693,2.69192749 15.7806672,2.91320624 C17.0904336,3.5596078 18.6933825,3.26240702 19.6791051,2.19037583 C20.0164336,1.82353762 20.4778204,1.62151813 20.9784482,1.62151813 C21.4790759,1.62151813 21.9404628,1.82353762 22.2777912,2.19037583 C23.2634117,3.26240702 24.866565,3.5596078 26.176127,2.91320624 C26.6242292,2.69202885 27.1279226,2.66891774 27.5948277,2.84823158 C28.0615285,3.02754542 28.418273,3.38140897 28.5992511,3.84434074 C29.127981,5.19715166 30.5135723,6.04891774 31.9711051,5.91521793 C32.4692803,5.86929981 32.9476307,6.02854347 33.3176599,6.36304639 C33.6875869,6.69765068 33.8913533,7.15521014 33.8914555,7.65179493 C33.8916599,9.10272671 34.874419,10.3936039 36.2813679,10.7910542 C36.7627839,10.926984 37.1507985,11.2466877 37.3738788,11.6911712 C37.5970613,12.1356546 37.6202584,12.6353817 37.4395869,13.0984148 C36.9113679,14.4515298 37.3577328,16.0073739 38.5248423,16.8820483 C38.9243022,17.1813778 39.1695577,17.6184616 39.2158496,18.1129177 C39.2620394,18.6073739 39.1017036,19.0817598 38.7645796,19.4486994 C37.7792657,20.5212374 37.6287401,22.1319197 38.398638,23.3656273 C38.6620832,23.7879119 38.7315723,24.2833817 38.5945358,24.7610113 C38.4577036,25.2386409 38.1353971,25.623522 37.6873971,25.8449021 C36.3781416,26.4919119 35.6512657,27.9400055 35.9197182,29.3662043 C36.0115869,29.8543758 35.8961124,30.341331 35.5944482,30.7376663 C35.2927839,31.1340016 34.8520394,31.3773778 34.3536599,31.4232959 C34.0149007,31.4546175 33.6907547,31.5394596 33.3876599,31.6661653 C33.3378934,31.682485 33.2891489,31.7042784 33.2421416,31.7314441 C32.3149737,32.173292 31.6191635,33.0328632 31.4228569,34.0735727 C31.3306818,34.5615415 31.0455723,34.9742979 30.6199518,35.235717 C30.1943314,35.4971361 29.6947255,35.5661653 29.2134117,35.4305396 C27.9237766,35.0667423 26.5403314,35.5291673 25.7250613,36.5584226 C25.7147401,36.5699782 25.7054409,36.5821419 25.6960394,36.5941029 C25.6324774,36.676715 25.5714701,36.7618612 25.5154701,36.8514674 C25.2519226,37.2736507 24.8357036,37.5563563 24.3435577,37.6475844 C23.8518204,37.7386097 23.360492,37.6243719 22.9610321,37.3253466 C22.5108861,36.9880055 21.9913533,36.7823368 21.4560832,36.7052998 Z M11.600492,50.1020405 L10.3893387,46.7629918 L15.7352949,38.3583524 C16.1811489,38.7559041 16.7323606,39.0311088 17.3313971,39.1422043 C17.7833825,39.2260327 18.2442584,39.2134635 18.683981,39.1115922 L11.600492,50.1020405 Z M9.73113431,44.9485669 L9.43999562,44.1458612 C9.25125109,43.6255571 8.73161606,43.2955142 8.17601022,43.3443719 L7.07154307,43.4407696 L11.2573387,36.8600834 C11.8701708,37.0546019 12.5339956,37.0702121 13.1624628,36.8929255 C13.6928277,36.7433115 14.2528277,36.8556234 14.6815139,37.1656975 L9.73113431,44.9485669 Z M1.81909051,43.8992413 L8.55114891,33.4539314 C8.79068175,33.695483 8.96154307,34.005253 9.02725109,34.3533388 C9.15100292,35.00937 9.4761708,35.6077248 9.94695912,36.0711634 L5.15272555,43.6082238 L1.81909051,43.8992413 Z M41.7622146,43.5967696 L34.8571489,32.8832491 C35.6345066,32.7234986 36.3353241,32.2880366 36.8179664,31.6541029 C37.3743898,30.9232647 37.596346,29.9876702 37.4268131,29.0874519 C37.2832365,28.3253934 37.671762,27.551678 38.3713533,27.206025 C39.197762,26.7976273 39.8165212,26.0581731 40.0693387,25.1773154 C40.3219518,24.2964577 40.1882876,23.3445435 39.702273,22.5657598 C39.2910613,21.9065864 39.3714847,21.0460016 39.897762,20.4729879 C40.5195869,19.7960756 40.8275869,18.8848086 40.7423606,17.9729333 C40.6571343,17.0609567 40.185835,16.2213544 39.4490467,15.6692218 C38.8252803,15.2019314 38.5868715,14.3706409 38.8692219,13.6476078 C39.202565,12.7935103 39.1577036,11.8335883 38.7461854,11.0136507 C38.3346672,10.1938144 37.5892949,9.57984951 36.7012657,9.32897232 C35.9495577,9.11661365 35.4244044,8.42692943 35.4243022,7.65169357 C35.4240978,6.73586511 35.0326088,5.8567306 34.3501854,5.23972476 C33.6679664,4.62271891 32.7490759,4.3173076 31.829981,4.40154152 C31.0514993,4.47310487 30.3109299,4.0178768 30.028273,3.29504639 C29.6946234,2.44105029 29.0094409,1.7616039 28.148492,1.4307501 C27.2875431,1.09999766 26.3196015,1.14419259 25.4930905,1.55228616 C24.7934993,1.89763509 23.9368423,1.73889825 23.4102584,1.16608733 C22.7882292,0.489377778 21.901835,0.101253021 20.9785504,0.101253021 C20.0552657,0.101253021 19.1689737,0.489377778 18.5467401,1.16598596 C18.0201562,1.73869552 17.1633971,1.89763509 16.4638058,1.5521848 C15.6371927,1.14409123 14.6694555,1.0998963 13.8085066,1.43064873 C12.9475577,1.76150253 12.2623752,2.44094893 11.9286234,3.29494503 C11.6461708,4.01777544 10.9043752,4.47280078 10.1271197,4.40144016 C9.20751387,4.31710487 8.28913431,4.62251618 7.60681314,5.23962339 C6.92449197,5.85662924 6.53300292,6.73576374 6.53279854,7.6515922 C6.53269635,8.42682807 6.00754307,9.11661365 5.25583504,9.32887096 C4.36780584,9.57964678 3.62243358,10.1937131 3.21091533,11.0135493 C2.79939708,11.8333856 2.75453577,12.793409 3.08787883,13.6475064 C3.37002482,14.3704382 3.13161606,15.20183 2.50805401,15.6691205 C1.77136788,16.221253 1.29996642,17.0608554 1.21474015,17.972832 C1.12961606,18.8847072 1.43741168,19.7959743 2.0592365,20.4728865 C2.58561606,21.0459002 2.66603942,21.906485 2.25472555,22.5657598 C1.76881314,23.3445435 1.63514891,24.2964577 1.88776204,25.1773154 C2.14047737,26.0581731 2.75933869,26.7976273 3.58574745,27.206025 C4.28533869,27.551678 4.67376204,28.3253934 4.53028759,29.0874519 C4.36075474,29.9877715 4.58271095,30.9232647 5.13913431,31.6541029 C5.62177664,32.2879353 6.32259416,32.7234986 7.09984964,32.8832491 L0.194886131,43.5967696 C-0.059259854,43.9911789 -0.0651868613,44.4848242 0.179353285,44.8851127 C0.423893431,45.2854012 0.868725547,45.5084031 1.33787883,45.4675532 L8.07709051,44.8793349 L10.3674701,51.1936351 C10.5272949,51.6340639 10.917762,51.9400834 11.3867109,51.9921848 C11.4336161,51.9973544 11.4803168,51.9999899 11.5267109,51.9999899 C11.9435431,51.9999899 12.3302292,51.792294 12.5589299,51.4375181 L20.9785504,38.3738612 L29.3979664,51.4373154 C29.6267693,51.7921926 30.0133533,51.9997871 30.4302876,51.9997871 C30.4766818,51.9997871 30.5234847,51.997253 30.5703898,51.9919821 C31.0393387,51.9397793 31.4298058,51.6338612 31.5896307,51.193331 L33.8801124,44.8790308 L40.6192219,45.4672491 C41.0893971,45.508099 41.5332073,45.2850971 41.7778496,44.8849099 C42.0221854,44.4847228 42.0163606,43.9910776 41.7622146,43.5967696 Z" id="Fill-7" fill="#FF006A" mask="url(#mask-2)"></path>
            </g>
        </g>
    </g>
</svg>