<svg xmlns="http://www.w3.org/2000/svg" width="122.134" height="23.639" viewBox="0 0 122.134 23.639">
    <g id="Group_106" data-name="Group 106" transform="translate(-833.069 -350.37)">
        <path fill="#112186" fill-rule="evenodd" id="Path_197" d="M903.5 369.1v-1.912h6.663V365H903.5v-1.589c0-.156.021-.281.2-.281h6.621v-2.29h-7.746c-.923 0-1.525.644-1.525 1.758v7.286c0 1.111.6 1.757 1.525 1.757h7.9v-2.286h-6.776c-.176 0-.2-.094-.2-.249z" class="cls-1" data-name="Path 197" transform="translate(-20.736 -3.194)"/>
        <path fill="#112186" fill-rule="evenodd" id="Path_198" d="M927.221 363.127v-2.287h-7.734c-.926 0-1.53.644-1.53 1.758v9.022h2.528v-8.211c0-.137.009-.281.185-.281z" class="cls-1" data-name="Path 198" transform="translate(-25.896 -3.194)"/>
        <path fill="#112186" fill-rule="evenodd" id="Path_199" d="M958.708 358.4a10.776 10.776 0 0 0-.885-.032h-4.908c-.309 0-.6.009-.88.032-3.327.26-4.635 2.047-4.635 5.52 0 3.43 1.4 5.249 4.635 5.529.291.022.592.031.915.031h1.15v1.383h2.525v-1.383h1.175c.311 0 .624-.009.9-.031 3.254-.28 4.637-2.1 4.637-5.529 0-3.484-1.261-5.26-4.637-5.52zm-4.605 8.834h-1.188a5.5 5.5 0 0 1-.88-.062c-1.6-.26-2.071-1.32-2.071-3.211 0-1.956.46-3 2.071-3.264a5.928 5.928 0 0 1 .924-.064h1.141v6.6zm4.605-.062a5.426 5.426 0 0 1-.885.062h-1.2v-6.6h1.154a5.871 5.871 0 0 1 .926.064c1.633.26 2.09 1.309 2.09 3.264 0 1.89-.479 2.951-2.09 3.211z" class="cls-1" data-name="Path 199" transform="translate(-34.878 -2.441)"/>
        <path fill="#112186" fill-rule="evenodd" id="Path_200" d="M887.625 358c-1.216 0-2 .676-2.58 2.047l-3.4 8.119-3.462-8.119c-.571-1.37-1.361-2.047-2.577-2.047-1.426 0-2.328.852-2.328 2.7v10.052h2.622v-9.7l3.493 8.169a2.386 2.386 0 0 0 2.215 1.738 2.344 2.344 0 0 0 2.234-1.738l3.5-8.251v9.781h2.608V360.7c0-1.85-.884-2.7-2.327-2.7z" class="cls-1" data-name="Path 200" transform="translate(-12.267 -2.327)"/>
        <path fill="#112186" fill-rule="evenodd" id="Path_201" d="M979.889 360.617h-.914c-3.951 0-5.519 1.767-5.519 5.54 0 3.721 1.6 5.572 5.539 5.571h.862c3.909 0 5.553-1.85 5.553-5.571 0-3.762-1.531-5.54-5.521-5.54zm0 8.865h-.914c-2.257 0-2.984-1.081-2.984-3.294 0-2.246.634-3.325 3.024-3.327h.832c2.39 0 3.014 1.081 3.014 3.327 0 2.213-.707 3.294-2.972 3.294z" class="cls-1" data-name="Path 201" transform="translate(-42.827 -3.126)"/>
        <path fill="#112186" fill-rule="evenodd" id="Path_202" d="M935.209 360.451h-.022a2.167 2.167 0 0 0-2.112 1.466l-3.41 7.65-.865 1.933h2.773l.978-2.327h5.322l1.01 2.327h2.7l-4.27-9.521a2.254 2.254 0 0 0-2.109-1.529zm-1.831 6.56l1.622-3.858c.1-.226.31-.222.4 0l1.632 3.858z" class="cls-1" data-name="Path 202" transform="translate(-29.205 -3.075)"/>
        <path fill="#112186" fill-rule="evenodd" id="Path_203" d="M1001.693 360.84v4.085h-5.512v-4.085h-2.5v10.779h2.5v-4.366h5.512v4.366h2.506V360.84z" class="cls-1" data-name="Path 203" transform="translate(-48.996 -3.194)"/>
        <path fill="#4a9e00" fill-rule="evenodd" id="Path_204" d="M844.888 350.37a11.818 11.818 0 0 0-2.111 23.447v-10.392a.889.889 0 0 1 .887-.886h1.575a.085.085 0 0 0 .085-.085v-12.073c-.145 0-.29-.011-.436-.011zm-2.272 10.138a1.393 1.393 0 1 1 1.393-1.393 1.392 1.392 0 0 1-1.393 1.393z" class="cls-2" data-name="Path 204"/>
        <path fill="#112186" fill-rule="evenodd" id="Path_205" d="M851.607 350.576v12.5a.889.889 0 0 1-.886.887h-1.575a.084.084 0 0 0-.084.084v10c.233.014.469.023.706.023a11.82 11.82 0 0 0 1.839-23.5zm-.074 17.745a1.245 1.245 0 1 1 1.245-1.245 1.245 1.245 0 0 1-1.245 1.245zm3.293 0a1.245 1.245 0 1 1 1.245-1.245 1.245 1.245 0 0 1-1.245 1.245zm3.293 0a1.245 1.245 0 1 1 1.245-1.245 1.245 1.245 0 0 1-1.245 1.245z" class="cls-1" data-name="Path 205" transform="translate(-4.879 -.063)"/>
    </g>
</svg>
