<svg xmlns="http://www.w3.org/2000/svg" xmlns:xlink="http://www.w3.org/1999/xlink" width="41" height="55" viewBox="0 0 41 55">
    <defs>
        <path id="a" d="M0 0h41v55H0z"/>
    </defs>
    <g fill="none" fill-rule="evenodd">
        <g>
            <mask id="b" fill="#fff">
                <use xlink:href="#a"/>
            </mask>
            <path fill="#FF306F" d="M40.184 45.119a.816.816 0 0 0-.816.816v2.633H11.144V22.411a.817.817 0 1 0-1.632 0v23.073a5.553 5.553 0 0 0-3.94-1.636c-1.537 0-2.93.626-3.94 1.636V5.576v-.024a3.946 3.946 0 0 1 3.94-3.918 3.945 3.945 0 0 1 3.94 3.942v14.112a.816.816 0 1 0 1.632 0V6.393h28.224v36.82a.817.817 0 1 0 1.632 0V5.575a.817.817 0 0 0-.816-.817h-29.1A5.581 5.581 0 0 0 5.572 0 5.58 5.58 0 0 0 0 5.602v43.822A5.58 5.58 0 0 0 5.572 55h32.585a.817.817 0 0 0 0-1.634H5.572a3.945 3.945 0 0 1-3.94-3.937V49.407a3.946 3.946 0 0 1 3.94-3.926 3.946 3.946 0 0 1 3.94 3.943.817.817 0 0 0 1.066.778h29.606c.45 0 .816-.366.816-.817v-3.45a.817.817 0 0 0-.816-.816" mask="url(#b)"/>
        </g>
        <path fill="#FF306F" d="M23.163 32H12.837c-.462 0-.837.224-.837.5s.375.5.837.5h10.326c.462 0 .837-.224.837-.5s-.375-.5-.837-.5M23.163 34H12.837c-.462 0-.837.224-.837.5s.375.5.837.5h10.326c.462 0 .837-.224.837-.5s-.375-.5-.837-.5M23.163 38H12.837c-.462 0-.837.224-.837.5s.375.5.837.5h10.326c.462 0 .837-.224.837-.5s-.375-.5-.837-.5M23.163 42H12.837c-.462 0-.837.224-.837.5s.375.5.837.5h10.326c.462 0 .837-.224.837-.5s-.375-.5-.837-.5M23.163 45H12.837c-.462 0-.837.224-.837.5s.375.5.837.5h10.326c.462 0 .837-.224.837-.5s-.375-.5-.837-.5M36.163 11H25.837c-.462 0-.837.224-.837.5s.375.5.837.5h10.326c.462 0 .837-.224.837-.5s-.375-.5-.837-.5M36.163 15H25.837c-.462 0-.837.224-.837.5s.375.5.837.5h10.326c.462 0 .837-.224.837-.5s-.375-.5-.837-.5M36.163 17H25.837c-.462 0-.837.224-.837.5s.375.5.837.5h10.326c.462 0 .837-.224.837-.5s-.375-.5-.837-.5M36.163 42H25.837c-.462 0-.837.224-.837.5s.375.5.837.5h10.326c.462 0 .837-.224.837-.5s-.375-.5-.837-.5M36.163 45H25.837c-.462 0-.837.224-.837.5s.375.5.837.5h10.326c.462 0 .837-.224.837-.5s-.375-.5-.837-.5M39.186 51H20.814c-.45 0-.814.224-.814.5s.364.5.814.5h18.372c.45 0 .814-.224.814-.5s-.364-.5-.814-.5M18.181 51.19H6.168c-.844 0-1.53-.758-1.53-1.69 0-.932.686-1.69 1.53-1.69.843 0 1.53.758 1.53 1.69 0 .5.366.905.818.905.452 0 .819-.405.819-.905 0-1.93-1.421-3.5-3.167-3.5C4.42 46 3 47.57 3 49.5S4.421 53 6.168 53H18.18c.453 0 .819-.405.819-.905s-.366-.904-.819-.904M22.327 27.43h-4.821l.175-2.912h1.44c.23 0 .45-.089.608-.246a.757.757 0 0 0 .227-.582l-.37-6.3c.442-.322.728-.699.86-1.134.304-.997.138-2.144-.492-3.409a8.107 8.107 0 0 0-.146-.277h2.519v14.86zm-6.273-3.74l-.224 3.74h-2.157v-8.673c.627-.028 1.535-.09 2.475-.232a13.237 13.237 0 0 0 1.805-.387l.283 4.81H16.89c-.443 0-.81.325-.835.741zm-2.38-11.12h4.2c.52.732 1.297 2.158.963 3.255-.103.34-.934.845-2.935 1.147-.829.125-1.647.184-2.229.212V12.57zm9.49-1.57H12.836c-.462 0-.837.351-.837.785v16.43c0 .434.375.785.837.785h10.326c.463 0 .837-.351.837-.785v-16.43c0-.434-.374-.785-.837-.785zM35.327 29.093l-3.26 3.057-1.98-1.645a.872.872 0 0 0-.61-.196.859.859 0 0 0-.576.268l-2.228 2.397V22.57h8.653v6.523zm0 8.337h-8.654v-2.067l2.935-3.159 3.63 3.014a.876.876 0 0 0 1.18-.067.751.751 0 0 0-.07-1.108l-1.025-.85 2.004-1.88v6.117zM36.163 21H25.837c-.462 0-.837.351-.837.785v16.43c0 .434.375.785.837.785h10.326c.463 0 .837-.351.837-.785v-16.43c0-.434-.374-.785-.837-.785z"/>
        <path fill="#FF306F" d="M31.5 27.158a1.66 1.66 0 0 1-1.658-1.658 1.66 1.66 0 0 1 1.658-1.658 1.66 1.66 0 0 1 1.658 1.658 1.66 1.66 0 0 1-1.658 1.658m0-5.158c-1.93 0-3.5 1.57-3.5 3.5s1.57 3.5 3.5 3.5 3.5-1.57 3.5-3.5-1.57-3.5-3.5-3.5M16.944 18.769c-.17-.613-.675-.923-1.128-.693l-1.247.631c-.453.23-.683.912-.513 1.524.132.476.466.769.82.769a.676.676 0 0 0 .308-.076l1.247-.631c.453-.23.683-.912.513-1.524"/>
    </g>
</svg>
