<svg xmlns="http://www.w3.org/2000/svg" xmlns:xlink="http://www.w3.org/1999/xlink" width="55" height="55" viewBox="0 0 55 55">
    <defs>
        <path id="a" d="M0 .012h2V2.87H0z"/>
        <path id="c" d="M.001.062H10.94V11H.001z"/>
        <path id="e" d="M.141.079h2.857V6H.141z"/>
    </defs>
    <g fill="none" fill-rule="evenodd">
        <g transform="translate(53)">
            <mask id="b" fill="#fff">
                <use xlink:href="#a"/>
            </mask>
            <path fill="#FF306F" d="M1.707.43C1.521.166 1.263.013 1 .013.737.012.48.165.293.431.107.696 0 1.065 0 1.44c0 .375.107.744.293 1.01s.444.418.707.418c.263 0 .521-.151.707-.419.187-.265.293-.634.293-1.01 0-.375-.106-.744-.293-1.01" mask="url(#b)"/>
        </g>
        <path fill="#FF306F" d="M41.848 24.526c0 .237-.194.43-.432.43h-4.244l-2.625-4.608h6.869c.238 0 .432.193.432.43v3.748zm-1.291 19.829c0 .828-.676 1.501-1.507 1.501h-7.961V28.211l1.394 2.47a1.076 1.076 0 0 0 1.977-.25l.593-2.205 2.213.592c.42.112.865-.038 1.13-.38.266-.341.299-.808.085-1.184l-.088-.154h2.164v17.255zm-15.78-19.336l2.274-3.96 2.236 3.96h-4.51zm4.16 20.837H14.95a1.506 1.506 0 0 1-1.508-1.501V27.1h2.866c.013.019.024.038.038.056.265.343.71.493 1.13.38l2.214-.591.592 2.205a1.075 1.075 0 0 0 1.04.795c.382 0 .74-.203.933-.54l.655-1.14v10.84c0 .591.482 1.071 1.076 1.071.594 0 1.076-.48 1.076-1.072V27.163h3.874v18.693zm-16.785-21.33v-3.748c0-.237.194-.43.433-.43h6.898l-2.638 4.608h-4.26a.432.432 0 0 1-.433-.43zm8.349-11.382a2.53 2.53 0 0 1 2.532 2.522v2.523H20.5a2.53 2.53 0 0 1-2.533-2.523 2.53 2.53 0 0 1 2.533-2.522zm4.48 7.203l-3.294 5.734-.196-.727a1.073 1.073 0 0 0-1.318-.758l-.762.204 2.55-4.453h3.02zM27 14.572c1 0 1.815.811 1.815 1.808 0 .998-.815 1.809-1.816 1.809a1.814 1.814 0 0 1-1.815-1.809c0-.997.814-1.808 1.815-1.808zm5.071 5.775l3.268 5.736-.77-.205a1.08 1.08 0 0 0-1.318.758l-.188.7-3.946-6.989h2.954zm-1.104-4.68a2.53 2.53 0 0 1 2.532-2.523 2.53 2.53 0 0 1 2.532 2.522A2.53 2.53 0 0 1 33.5 18.19h-2.532v-2.523zm10.448 2.537h-3.988a4.624 4.624 0 0 0 .756-2.538c0-2.573-2.101-4.666-4.684-4.666a4.69 4.69 0 0 0-4.03 2.291 3.957 3.957 0 0 0-2.47-.863c-.933 0-1.792.324-2.47.863A4.69 4.69 0 0 0 20.5 11c-2.583 0-4.684 2.093-4.684 4.666 0 .935.279 1.807.756 2.538h-3.988A2.582 2.582 0 0 0 10 20.778v3.747c0 .95.52 1.782 1.291 2.228v17.602A3.656 3.656 0 0 0 14.951 48H39.05a3.656 3.656 0 0 0 3.659-3.645V26.753A2.574 2.574 0 0 0 44 24.526v-3.748c0-1.42-1.16-2.574-2.584-2.574z"/>
        <path fill="#FF306F" d="M25.707 42.292A1.007 1.007 0 0 0 25 42c-.263 0-.521.106-.707.292A1.008 1.008 0 0 0 24 43c0 .263.107.521.293.707.186.186.444.293.707.293.263 0 .521-.107.707-.293A1.01 1.01 0 0 0 26 43a1.01 1.01 0 0 0-.293-.708M51.686 3.314a1.074 1.074 0 0 0-1.519 0l-9.853 9.853a1.074 1.074 0 0 0 1.518 1.519l9.854-9.854c.419-.419.419-1.098 0-1.518M10.694 10.215L4.785 4.306a1.046 1.046 0 0 0-1.479 1.48l5.909 5.908a1.043 1.043 0 0 0 1.479 0 1.046 1.046 0 0 0 0-1.48"/>
        <g transform="translate(0 44)">
            <mask id="d" fill="#fff">
                <use xlink:href="#c"/>
            </mask>
            <path fill="#FF306F" d="M10.61.39a1.123 1.123 0 0 0-1.587 0L.33 9.085a1.122 1.122 0 0 0 1.587 1.587l8.693-8.693a1.122 1.122 0 0 0 0-1.587" mask="url(#d)"/>
        </g>
        <path fill="#FF306F" d="M51.707 50.291l-4.998-4.998a1.001 1.001 0 0 0-1.416 1.416l4.998 4.998a.998.998 0 0 0 1.416 0 1.001 1.001 0 0 0 0-1.416M6.954 27H1.046C.468 27 0 27.448 0 28s.468 1 1.046 1h5.908C7.532 29 8 28.552 8 28s-.468-1-1.046-1M53.962 27h-5.924c-.573 0-1.038.448-1.038 1s.465 1 1.038 1h5.924c.573 0 1.038-.448 1.038-1s-.465-1-1.038-1M27 0c-.552 0-1 .51-1 1.138v8.724c0 .628.448 1.138 1 1.138s1-.51 1-1.138V1.138C28 .51 27.552 0 27 0"/>
        <g transform="translate(26 49)">
            <mask id="f" fill="#fff">
                <use xlink:href="#e"/>
            </mask>
            <path fill="#FF306F" d="M1.57.079C.78.079.14.534.14 1.096v3.887C.141 5.545.781 6 1.57 6c.788 0 1.428-.455 1.428-1.017V1.096c0-.562-.64-1.017-1.428-1.017" mask="url(#f)"/>
        </g>
        <path fill="#FF306F" d="M53.883 38h-.766C52.5 38 52 38.448 52 39s.5 1 1.117 1h.766C54.5 40 55 39.552 55 39s-.5-1-1.117-1M48.883 38h-.766C47.5 38 47 38.448 47 39s.5 1 1.117 1h.766C49.5 40 50 39.552 50 39s-.5-1-1.117-1M51 41c-.552 0-1 .5-1 1.117v.766C50 43.5 50.448 44 51 44s1-.5 1-1.117v-.766C52 41.5 51.552 41 51 41M51 35c-.552 0-1 .5-1 1.117v.766C50 37.5 50.448 38 51 38s1-.5 1-1.117v-.766C52 35.5 51.552 35 51 35M6.883 18h-.766C5.5 18 5 18.448 5 19s.5 1 1.117 1h.766C7.5 20 8 19.552 8 19s-.5-1-1.117-1M1.883 18h-.766C.5 18 0 18.448 0 19s.5 1 1.117 1h.766C2.5 20 3 19.552 3 19s-.5-1-1.117-1M4 19c-.552 0-1 .5-1 1.117v.766C3 21.5 3.448 22 4 22s1-.5 1-1.117v-.766C5 19.5 4.552 19 4 19M4 14c-.552 0-1 .5-1 1.117v.766C3 16.5 3.448 17 4 17s1-.5 1-1.117v-.766C5 14.5 4.552 14 4 14M40 7a1.001 1.001 0 0 1 0-2 1.001 1.001 0 0 1 0 2m0-4c-1.654 0-3 1.346-3 3s1.346 3 3 3 3-1.346 3-3-1.346-3-3-3M5 40a1.001 1.001 0 0 1 0-2 1.001 1.001 0 0 1 0 2m0-4c-1.654 0-3 1.346-3 3s1.346 3 3 3 3-1.346 3-3-1.346-3-3-3M40.707 50.293A1.007 1.007 0 0 0 40 50a1.01 1.01 0 0 0-.708.293A1.006 1.006 0 0 0 39 51c0 .263.106.52.292.707.187.186.445.293.708.293.263 0 .521-.107.707-.293A1.01 1.01 0 0 0 41 51c0-.263-.107-.521-.293-.707M17.707 50.293A1.008 1.008 0 0 0 17 50c-.263 0-.521.107-.707.293A1.006 1.006 0 0 0 16 51c0 .263.107.52.293.707.186.186.444.293.707.293.263 0 .521-.107.707-.293A1.01 1.01 0 0 0 18 51c0-.264-.107-.521-.293-.707M18.707 4.293A1.008 1.008 0 0 0 18 4c-.263 0-.521.107-.707.293A1.008 1.008 0 0 0 17 5a1.003 1.003 0 0 0 1.707.707C18.893 5.521 19 5.264 19 5c0-.263-.107-.52-.293-.707M51.707 17.293a1.003 1.003 0 0 0-1.414 0A1.006 1.006 0 0 0 50 18c0 .263.107.52.293.707.186.186.444.293.707.293.263 0 .521-.107.707-.293A1.01 1.01 0 0 0 52 18c0-.264-.107-.521-.293-.707"/>
    </g>
</svg>
