<svg xmlns="http://www.w3.org/2000/svg" width="76.233" height="75.884" viewBox="0 0 76.233 75.884">
    <defs>
        <linearGradient id="linear-gradient" x1=".5" x2=".5" y2="1" gradientUnits="objectBoundingBox">
            <stop offset="0" stop-color="#986f2c"/>
            <stop offset=".478" stop-color="#f9dea3"/>
            <stop offset="1" stop-color="#986f2c"/>
        </linearGradient>
        <style>
            .cls-1{fill:#fff}
        </style>
    </defs>
    <g id="Сгруппировать_4264" transform="translate(3026.225 11480.892)">
        <g id="Сгруппировать_4262">
            <g id="Сгруппировать_4260" transform="translate(-3026.225 -11479.628)">
                <path id="Контур_2188" d="M6.043 0s-25.974 0-25.974 25.974v47.7h47.918s25.974 0 25.974-25.974V0z" class="cls-1" transform="translate(19.931)"/>
            </g>
            <g id="Сгруппировать_4261" transform="translate(-3026.225 -11479.628)">
                <path id="Контур_2189" d="M6.043 0s-25.974 0-25.974 25.974v47.7h47.918s25.974 0 25.974-25.974V0z" class="cls-1" transform="translate(19.931)"/>
            </g>
            <g id="Сгруппировать_4259" transform="translate(-3026.093 -11480.892)">
                <path id="Контур_2190" fill="url(#linear-gradient)" d="M801.688 985.738H752.9v-48.567c0-27 27.047-27.317 27.32-27.317H829v48.565c0 27.007-27.04 27.319-27.312 27.319zm-44.959-3.824h44.959c.956 0 23.493-.343 23.493-23.494v-44.742h-44.957c-1 0-23.5.366-23.5 23.493z" transform="translate(-752.904 -909.854)"/>
            </g>
        </g>
        <path id="star" fill="#181818" d="M9.088 39.4a2.161 2.161 0 0 1-2.1-2.639L9.6 25.257.739 17.488a2.16 2.16 0 0 1 1.223-3.776l11.721-1.064L18.317 1.8a2.158 2.158 0 0 1 3.969 0l4.634 10.848 11.719 1.064a2.16 2.16 0 0 1 1.227 3.776l-8.858 7.767 2.612 11.506a2.157 2.157 0 0 1-3.211 2.331L20.3 33.053 10.194 39.1a2.163 2.163 0 0 1-1.106.3zM20.3 30.451a2.163 2.163 0 0 1 1.107.306l9.538 5.7L28.481 25.6a2.158 2.158 0 0 1 .684-2.1l8.364-7.336-11.066-1a2.156 2.156 0 0 1-1.793-1.308L20.3 3.617l-4.372 10.235a2.15 2.15 0 0 1-1.788 1.3l-11.068 1 8.364 7.348a2.153 2.153 0 0 1 .684 2.1L9.656 36.46l9.538-5.7a2.162 2.162 0 0 1 1.106-.309zm-6.707-17.593zm13.413 0s.002-.004 0-.005zm0 0" transform="translate(-3008.646 -11464.492)"/>
    </g>
</svg>
