<?xml version="1.0" encoding="UTF-8"?>
<svg width="44px" height="56px" viewBox="0 0 44 56" version="1.1" xmlns="http://www.w3.org/2000/svg" xmlns:xlink="http://www.w3.org/1999/xlink">
    <!-- Generator: Sketch 52.5 (67469) - http://www.bohemiancoding.com/sketch -->
    <title>Untitled</title>
    <desc>Created with Sketch.</desc>
    <defs>
        <polygon id="path-1" points="0 56 44 56 44 0 0 0"></polygon>
    </defs>
    <g id="Page-1" stroke="none" stroke-width="1" fill="none" fill-rule="evenodd">
        <g id="Group-16">
            <path d="M35,28 C36.104625,28 37,28.895375 37,30 C37,31.104625 36.104625,32 35,32 C33.895375,32 33,31.104625 33,30 C33,28.895375 33.895375,28 35,28 M31,30 C31,32.209125 32.790875,34 35,34 C37.209125,34 39,32.209125 39,30 C39,27.790875 37.209125,26 35,26 C32.790875,26 31,27.790875 31,30" id="Fill-1" fill="#FF006A"></path>
            <path d="M26,36 C25.44775,36 25,35.55225 25,35 C25,34.44775 25.44775,34 26,34 C26.55225,34 27,34.44775 27,35 C27,35.55225 26.55225,36 26,36 M26,32 C24.343125,32 23,33.343125 23,35 C23,36.656875 24.343125,38 26,38 C27.656875,38 29,36.656875 29,35 C29,33.343125 27.656875,32 26,32" id="Fill-3" fill="#FF006A"></path>
            <path d="M26,21 C19.672,21 18,28.1958333 18,32 L19.7777778,32 C19.7777778,31.626 19.8666667,22.8333333 26,22.8333333 L26,21 Z" id="Fill-5" fill="#FF006A"></path>
            <mask id="mask-2" fill="white">
                <use xlink:href="#path-1"></use>
            </mask>
            <g id="Clip-8"></g>
            <polygon id="Fill-7" fill="#FF006A" mask="url(#mask-2)" points="28 22 30 22 30 20 28 20"></polygon>
            <polygon id="Fill-9" fill="#FF006A" mask="url(#mask-2)" points="18 45 20 45 20 43 18 43"></polygon>
            <polygon id="Fill-10" fill="#FF006A" mask="url(#mask-2)" points="32 49 34 49 34 47 32 47"></polygon>
            <polygon id="Fill-11" fill="#FF006A" mask="url(#mask-2)" points="40 43 38 43 38 47 35 47 35 49 40 49"></polygon>
            <path d="M29,1.8684929 C30.0355859,1.8684929 30.875,2.70426471 30.875,3.7350966 C30.875,4.76592848 30.0355859,5.60170029 29,5.60170029 C27.9644141,5.60170029 27.125,4.76592848 27.125,3.7350966 C27.125,2.70426471 27.9644141,1.8684929 29,1.8684929 Z M28.0625,13.0681151 L29.9375,13.0681151 L29.9375,11.2015114 L28.0625,11.2015114 L28.0625,13.0681151 Z M26.1875,16.8013224 L31.8125,16.8013224 L31.8125,14.9347188 L26.1875,14.9347188 L26.1875,16.8013224 Z M42.125,28.9342465 L42.125,39.2005668 L15.875,39.2005668 L15.875,28.9342465 C15.875,22.9853805 19.818125,18.6679261 25.25,18.6679261 L32.75,18.6679261 C38.181875,18.6679261 42.125,22.9853805 42.125,28.9342465 Z M39.3125,54.1333963 L18.6875,54.1333963 C17.4999219,54.1284965 16.4433594,53.381505 16.0475,52.2667926 L41.9525,52.2667926 C41.5566406,53.381505 40.5001953,54.1284965 39.3125,54.1333963 Z M15.875,50.4001889 L42.125,50.4001889 L42.125,41.0671705 L15.875,41.0671705 L15.875,50.4001889 Z M20.84375,4.66839844 L25.3803125,4.66839844 C25.7237891,5.97513769 26.7495312,6.99511994 28.0625,7.33577512 L28.0625,9.33490767 L26.1875,9.33490767 L26.1875,13.0681151 L24.3125,13.0681151 L24.3125,16.8470542 C18.284375,17.3137052 14,22.2471387 14,28.9342465 L14,51.3334908 C14.0030469,53.9094039 16.0998828,55.9969668 18.6875,56 L39.3125,56 C41.9,55.9969668 43.9969531,53.9094039 44,51.3334908 L44,28.9342465 C44,22.2471387 39.715625,17.3137052 33.6875,16.8470542 L33.6875,13.0681151 L31.8125,13.0681151 L31.8125,9.33490767 L29.9375,9.33490767 L29.9375,7.33577512 C31.9397656,6.82502568 33.1469141,4.79509417 32.6338672,2.80179475 C32.1208203,0.80849533 30.0816406,-0.39324746 28.0794922,0.117501975 C26.7558594,0.455240581 25.7222656,1.4840892 25.383125,2.80179475 L20.5625,2.80179475 C20.3773438,2.80202807 20.1964063,2.85662623 20.0421875,2.95858946 L17.2296875,4.82519315 L18.2703125,6.37820742 L20.84375,4.66839844 Z" id="Fill-12" fill="#FF006A" mask="url(#mask-2)"></path>
            <path d="M4.5,20.8 C5.9911875,20.8 7.2,22.0088125 7.2,23.5 C7.2,24.9911875 5.9911875,26.2 4.5,26.2 C3.0088125,26.2 1.8,24.9911875 1.8,23.5 C1.8,22.0088125 3.0088125,20.8 4.5,20.8 M4.5,28 C6.9852375,28 9,25.9852375 9,23.5 C9,21.0147625 6.9852375,19 4.5,19 C2.0147625,19 0,21.0147625 0,23.5 C0.002925,25.9841125 2.0158875,27.997075 4.5,28" id="Fill-13" fill="#FF006A" mask="url(#mask-2)"></path>
            <path d="M4.5,5.8 C5.9911875,5.8 7.2,7.0088125 7.2,8.5 C7.2,9.9911875 5.9911875,11.2 4.5,11.2 C3.0088125,11.2 1.8,9.9911875 1.8,8.5 C1.8,7.0088125 3.0088125,5.8 4.5,5.8 M4.5,13 C6.9852375,13 9,10.9852375 9,8.5 C9,6.0147625 6.9852375,4 4.5,4 C2.0147625,4 0,6.0147625 0,8.5 C0.002925,10.9841125 2.0158875,12.997075 4.5,13" id="Fill-14" fill="#FF006A" mask="url(#mask-2)"></path>
            <path d="M15,12 C16.1045,12 17,12.8955 17,14 C17,15.1045 16.1045,16 15,16 C13.8955,16 13,15.1045 13,14 C13,12.8955 13.8955,12 15,12 M15,18 C17.209125,18 19,16.209125 19,14 C19,11.790875 17.209125,10 15,10 C12.790875,10 11,11.790875 11,14 C11,16.209125 12.790875,18 15,18" id="Fill-15" fill="#FF006A" mask="url(#mask-2)"></path>
        </g>
    </g>
</svg>