<svg xmlns="http://www.w3.org/2000/svg" width="30.338" height="29.073" viewBox="0 0 30.338 29.073">
    <path id="star" fill="#fff" d="M6.79 29.566a1.615 1.615 0 0 1-1.571-1.972L7.171 19 .552 13.2a1.614 1.614 0 0 1 .914-2.822l8.758-.8 3.462-8.1a1.612 1.612 0 0 1 2.966 0l3.462 8.1 8.756.8a1.614 1.614 0 0 1 .917 2.822L23.168 19l1.952 8.6a1.612 1.612 0 0 1-2.4 1.742l-7.552-4.513-7.551 4.508a1.616 1.616 0 0 1-.827.229zm8.379-6.688a1.616 1.616 0 0 1 .827.229l7.127 4.263-1.842-8.114a1.612 1.612 0 0 1 .511-1.571l6.25-5.481-8.269-.751a1.611 1.611 0 0 1-1.34-.977l-3.264-7.649-3.269 7.648a1.606 1.606 0 0 1-1.336.974L2.3 12.2l6.25 5.481a1.609 1.609 0 0 1 .511 1.573l-1.846 8.113 7.127-4.261a1.616 1.616 0 0 1 .827-.229zM10.157 9.732zm10.022 0s.001-.003 0-.004zm0 0" transform="translate(0 -.492)"/>
</svg>
