<svg xmlns="http://www.w3.org/2000/svg" width="45.559" height="50.872" viewBox="0 0 45.559 50.872">
    <defs>
        <style>
            .cls-1{fill:#ff336d}
        </style>
    </defs>
    <g id="stopwatch" transform="translate(-25.893)">
        <path id="Path_5" d="M67.113 11.543l1.687 1.683a1.539 1.539 0 0 0 2.177-2.177l-5.546-5.542a1.539 1.539 0 0 0-2.177 2.177l1.683 1.683-2.214 2.213a22.114 22.114 0 0 0-12.968-5.3v-3.2h2.38a1.539 1.539 0 0 0 0-3.078H44.3a1.539 1.539 0 0 0 0 3.078h2.38v3.2a22.323 22.323 0 1 0 18.242 7.46l2.194-2.194zm.348 17.005A19.245 19.245 0 1 1 48.216 9.3a19.267 19.267 0 0 1 19.245 19.248z" class="cls-1" data-name="Path 5"/>
        <path id="Path_6" d="M93.516 108.176a17.143 17.143 0 1 0 17.143 17.143 17.164 17.164 0 0 0-17.143-17.143zm0 31.208a14.065 14.065 0 1 1 14.065-14.065 14.081 14.081 0 0 1-14.065 14.065z" class="cls-1" data-name="Path 6" transform="translate(-45.3 -97.076)"/>
        <path id="Path_7" d="M201.405 166.157v-4.5a1.539 1.539 0 0 0-3.078 0v4.5a4.983 4.983 0 1 0 3.078 0zm-1.539 6.644a1.9 1.9 0 1 1 1.9-1.9 1.906 1.906 0 0 1-1.9 1.899z" class="cls-1" data-name="Path 7" transform="translate(-151.65 -143.7)"/>
    </g>
</svg>
