<svg width="139px" height="66px" viewBox="0 0 139 66" version="1.1" xmlns="http://www.w3.org/2000/svg" xmlns:xlink="http://www.w3.org/1999/xlink">
    <g id="Page-1" stroke="none" stroke-width="1" fill="none" fill-rule="evenodd">
        <g id="viber" transform="translate(0.000000, -1.000000)">
            <path d="M71.129,55.58 C60.8982008,55.6957908 50.6665531,55.4426263 40.454,54.821 C39.528235,54.7634139 38.6343819,55.1696767 38.069,55.905 C35.359,58.941 32.649,61.976 29.831,65.01 C29.397,65.444 28.964,66.31 28.205,65.986 C27.446,65.662 27.771,64.793 27.771,64.143 C27.771,61.65 27.663,59.048 27.771,56.555 C27.879,54.604 27.446,53.628 25.171,53.628 C22.4038321,53.5169527 19.6495095,53.1906333 16.933,52.652 C7.609,50.486 1.322,45.392 0.455,34.768 C-0.141199789,30.1622137 -0.141199789,25.4987863 0.455,20.893 C1.973,11.352 7.5,5.934 17.04,4.308 C30.8884165,2.19632353 44.8736212,1.10804318 58.882,1.052 C73.516,0.835 88.149,1.269 102.782,2.028 C109.850856,2.38999249 116.881323,3.2960063 123.811,4.738 C132.157,6.472 137.792,12.868 138.553,21.538 C139.077217,26.5151813 139.00403,31.5372081 138.335,36.497 C137.571395,42.7635879 133.461473,48.1196251 127.606,50.479 C122.295,52.756 116.656,53.515 111.02,53.948 C97.9,54.93 85.005,55.689 71.129,55.58 Z" id="Path_33" fill="#7C529E"></path>
            <path d="M35.338,41.38 C37.5192846,41.1448073 39.3940728,39.7281469 40.216,37.694 C40.866,35.96 39.566,35.201 38.482,34.334 C37.723,33.684 36.856,33.142 36.097,32.6 C34.471,31.408 32.953,31.408 31.761,33.25 C31.5141276,33.6937294 31.0945096,34.0154027 30.6018894,34.1385577 C30.1092693,34.2617127 29.5876424,34.1753507 29.161,33.9 C26.4487042,32.7226774 24.2534637,30.6045065 22.98,27.936 C22.6433304,27.4057353 22.5340791,26.7623458 22.6768409,26.1506709 C22.8196026,25.538996 23.2023792,25.0104432 23.739,24.684 C24.5509592,24.3256251 25.0649477,23.5111511 25.039,22.624 C24.931,21.324 21.787,16.879 20.486,16.445 C19.9656756,16.2282222 19.3803244,16.2282222 18.86,16.445 C15.933,17.421 14.632,19.914 15.825,22.732 C19.292,31.407 25.582,37.369 34.037,41.055 C34.579,41.272 35.121,41.272 35.338,41.38 Z" id="Path_34" fill="#FFFFFF"></path>
            <path d="M29.05,15.906 C28.616,16.014 27.641,15.581 27.641,16.556 C27.641,17.206 28.4,17.098 28.941,17.206 C35.12,18.182 38.046,21.106 38.805,27.395 C38.913,27.937 38.697,28.804 39.455,28.913 C40.322,28.913 40.105,28.046 40.105,27.504 C40.0079684,21.3467988 35.1954806,16.297931 29.05,15.906 Z" id="Path_35" fill="#FFFFFF"></path>
            <path d="M74.035,28.698 L74.035,19.484 C74.035,17.641 74.686,16.124 76.745,16.124 C78.696,16.124 79.238,17.533 79.238,19.376 L79.238,20.568 C79.238,23.386 79.238,23.386 81.838,22.628 C85.2468861,21.4737151 88.986262,22.9971487 90.618,26.205 C92.678,30.105 92.895,34.005 90.618,37.912 C89.6695351,39.7562871 87.9783745,41.1075522 85.9702472,41.6256307 C83.9621199,42.1437092 81.828318,41.7792496 80.106,40.624 C79.455,40.19 79.238,39.974 78.696,40.732 C77.9797985,41.7383728 76.6085505,42.0218688 75.552,41.382 C74.4720958,40.8309544 73.8623201,39.6540108 74.035,38.454 L74.035,28.698 Z M86.935,32.058 C86.935,29.131 85.309,26.963 83.141,26.858 C80.865,26.75 79.13,28.809 79.13,31.736 C79.13,34.555 80.756,36.831 82.924,36.936 C85.2,37.153 86.935,34.985 86.935,32.058 Z" id="Path_36" fill="#FFFFFF" fill-rule="nonzero"></path>
            <path d="M54.519,32.166 C56.0766181,28.0968022 57.5956861,24.0129526 59.076,19.915 C59.2815863,19.2472024 59.5352494,18.5951648 59.835,17.964 C60.485,16.446 61.569,15.579 63.304,16.23 C65.147,16.88 65.364,18.29 64.822,20.024 C63.088,24.577 61.245,29.129 59.511,33.79 C58.752,35.741 57.993,37.69 57.235,39.535 C56.8955413,40.6616314 55.9124224,41.473996 54.742,41.595 C53.4309462,41.629591 52.286045,40.71367 52.032,39.427 C49.539,33.027 46.937,26.527 44.444,20.132 C43.794,18.398 44.119,16.88 46.07,16.232 C48.021,15.584 48.888,16.774 49.539,18.4 C51.055,22.736 52.681,27.072 54.519,32.166 Z" id="Path_37" fill="#FFFFFF"></path>
            <path d="M104.17,33.684 L99.513,33.684 C98.321,33.684 98.213,34.226 98.754,35.093 C99.73,36.936 102.548,37.693 104.933,36.827 C105.784506,36.4740578 106.616677,36.0761647 107.426,35.635 C107.901546,35.2756753 108.50983,35.1408755 109.092657,35.2656574 C109.675484,35.3904393 110.175257,35.762471 110.462,36.285 C111.329,37.585 110.787,38.67 109.703,39.429 C106.233,41.814 102.439,42.573 98.537,40.947 C94.743,39.321 93.117,36.069 93.117,32.058 C92.8462446,27.1558363 96.379867,22.8651333 101.243,22.191 C106.045757,21.7593425 110.359982,25.1270978 111.107,29.891 C111.649,32.601 110.89,33.577 108.072,33.685 L104.17,33.684 Z M101.893,30.215 C102.361104,30.2691833 102.833896,30.2691833 103.302,30.215 C104.169,30.107 105.47,30.757 105.687,29.781 C106.012,28.481 104.928,27.505 103.844,26.963 C102.478641,26.1487325 100.733682,26.3725298 99.618,27.505 C98.967,28.155 98.208,28.914 98.534,29.89 C98.859,30.757 99.834,30.215 100.592,30.324 C101.026,30.324 101.46,30.215 101.893,30.215 Z" id="Path_38" fill="#FFFFFF" fill-rule="nonzero"></path>
            <path d="M35.338,41.38 C34.8988028,41.2966403 34.464755,41.1881284 34.038,41.055 C25.474,37.369 19.291,31.407 15.826,22.736 C14.634,19.809 15.826,17.425 18.861,16.449 C19.3813244,16.2322222 19.9666756,16.2322222 20.487,16.449 C21.787,16.883 24.931,21.327 25.04,22.628 C25.148,23.604 24.39,24.146 23.74,24.688 C22.44,25.555 22.44,26.639 22.981,27.94 C24.1908157,30.6525638 26.4059357,32.7898911 29.16,33.902 C29.5866424,34.1773507 30.1082693,34.2637127 30.6008894,34.1405577 C31.0935096,34.0174027 31.5131276,33.6957294 31.76,33.252 C32.952,31.409 34.47,31.518 36.096,32.602 C36.9343429,33.1179054 37.7317014,33.6976201 38.481,34.336 C39.565,35.203 40.866,35.852 40.215,37.696 C39.393021,39.7293539 37.5186123,41.1452493 35.338,41.38 Z" id="Path_39" fill="#FFFFFF"></path>
            <path d="M112.842,31.733 L112.842,25.233 C112.75253,24.1337161 113.358717,23.0954521 114.36,22.633 C115.398405,22.0144011 116.732661,22.2444159 117.504,23.175 C118.154,24.151 118.478,23.717 119.02,23.175 C119.797671,22.5029602 120.82062,22.1861431 121.842,22.301 C122.953253,22.4055358 123.848866,23.2565335 124.01,24.361 C124.226,25.553 123.793,26.529 122.817,26.746 C118.373,27.83 117.722,30.865 118.156,34.766 C118.284089,36.1387376 118.247832,37.5218584 118.048,38.886 C118.040949,39.6033321 117.730183,40.284063 117.192809,40.7592934 C116.655434,41.2345237 115.941811,41.4597172 115.229,41.379 C113.713,41.27 112.953,40.186 112.844,38.669 C112.842,36.501 112.842,34.118 112.842,31.733 Z" id="Path_40" fill="#FFFFFF"></path>
            <path d="M66.664,32.603 L66.664,26.421 C66.664,24.687 67.423,23.603 69.264,23.603 C70.998,23.603 71.757,24.687 71.757,26.313 L71.757,38.779 C71.757,40.514 70.89,41.598 69.157,41.598 C67.423,41.489 66.664,40.403 66.664,38.671 L66.664,32.603 Z" id="Path_41" fill="#FFFFFF"></path>
            <path d="M29.05,15.906 C35.1970225,16.2969972 40.0109229,21.3473042 40.107,27.506 C40.107,28.048 40.324,28.915 39.457,28.915 C38.59,28.915 38.807,28.048 38.807,27.397 C38.047,21.106 35.12,18.183 28.941,17.206 C28.399,17.098 27.641,17.206 27.641,16.556 C27.749,15.581 28.617,16.015 29.05,15.906 Z" id="Path_42" fill="#FFFFFF"></path>
            <path d="M72.193,19.05 C71.977,20.676 71.218,21.76 69.483,21.868 C68.7124132,21.9146097 67.9575072,21.6364717 67.4013672,21.1010421 C66.8452272,20.5656125 66.5386541,19.8218003 66.556,19.05 C66.5522546,18.2725692 66.8594312,17.5258971 67.4091641,16.9761641 C67.9588971,16.4264312 68.7055692,16.1192546 69.483,16.123 C70.98985,16.2863565 72.1459696,17.535051 72.193,19.05 Z" id="Path_43" fill="#FFFFFF"></path>
            <path d="M37.072,26.422 C36.964,26.856 37.289,27.614 36.53,27.722 C35.554,27.83 35.771,26.963 35.663,26.422 C35.013,22.628 33.712,21.222 29.81,20.352 C29.268,20.244 28.401,20.352 28.51,19.485 C28.619,18.618 29.486,18.943 30.028,19.051 C33.8818915,19.4152861 36.8828475,22.5555539 37.072,26.422 Z" id="Path_44" fill="#FFFFFF"></path>
            <path d="M34.145,25.771 C34.145,26.205 34.145,26.747 33.495,26.855 C33.061,26.855 32.845,26.53 32.736,26.096 C32.7639162,24.6306447 31.6012542,23.4187932 30.136,23.386 C29.702,23.278 29.16,23.169 29.377,22.519 C29.485,22.085 29.919,22.085 30.353,22.085 C32.3689373,22.1740515 33.9988443,23.7583967 34.145,25.771 Z" id="Path_45" fill="#FFFFFF"></path>
        </g>
    </g>
</svg>
