<svg xmlns="http://www.w3.org/2000/svg" id="Group_113" width="91.348" height="57.104" data-name="Group 113" viewBox="0 0 91.348 57.104"><path id="Path_35" fill="#1a1818" fill-rule="evenodd" d="M140.9 110.112h91.348v57.1H140.9v-57.1z" class="cls-1" data-name="Path 35" transform="translate(-140.898 -110.112)"/><path id="Path_36" fill="#fff" fill-rule="evenodd" d="M157.31 178.267h85.99v-51.741h-85.99v51.741z" class="cls-2" data-name="Path 36" transform="translate(-154.629 -123.845)"/><path id="Path_37" fill="#0e277f" fill-rule="evenodd" d="M179.8 165.688h78.4v-11.422h-78.4v11.422z" class="cls-3" data-name="Path 37" transform="translate(-173.442 -147.053)"/><path id="Path_38" fill="#f1831c" fill-rule="evenodd" d="M179.8 376.768h78.4v-11.422h-78.4v11.422z" class="cls-4" data-name="Path 38" transform="translate(-173.442 -326.448)"/><path id="Path_39" fill="#fff" fill-rule="evenodd" d="M636.376 414.716a.439.439 0 00-.346-.152h-.73v1.736h.169v-.745h.37l.506.745h.207l-.492-.745a.36.36 0 00.289-.095.5.5 0 00.147-.336.623.623 0 00-.121-.408zm-.906.639v-.584h.5a.277.277 0 01.2.046.325.325 0 01.091.229.361.361 0 01-.077.253.273.273 0 01-.214.056zm1.141-1.217a1.446 1.446 0 10.529.529 1.453 1.453 0 00-.529-.529zm.316.654a1.2 1.2 0 11-.441-.441 1.209 1.209 0 01.441.441z" class="cls-2" data-name="Path 39" transform="translate(-553.817 -367.108)"/><path id="Path_40" fill="#0e277f" fill-rule="evenodd" d="M270 244.376h4.022L263.114 262.1h-4.746l-.429-14.023a4.71 4.71 0 00-.277-1.8 2.318 2.318 0 00-1.117-1.114 3.909 3.909 0 00-1.743-.38v-.4h7.829l.383 12.064L270 244.376z" class="cls-3" data-name="Path 40" transform="translate(-236.195 -223.897)"/><path id="Path_41" fill="#0e277f" fill-rule="evenodd" d="M351.7 262.1l5.6-17.724h-4.987l-5.6 17.724z" class="cls-3" data-name="Path 41" transform="translate(-313.091 -223.898)"/><path id="Path_42" fill="#0e277f" fill-rule="evenodd" d="M394.967 257.726a5.668 5.668 0 003.065 1.566 13.357 13.357 0 004.622-.018 9.734 9.734 0 004.185-1.628 5.522 5.522 0 002-3.093 4.353 4.353 0 00-.354-3.452 9.575 9.575 0 00-2.966-2.382 6.084 6.084 0 01-2.248-2.019 1.9 1.9 0 01.2-2.011 2.556 2.556 0 011.919-.784 8.416 8.416 0 012.64.3 5.394 5.394 0 012.028 1.027l1.662-2.654a7.768 7.768 0 00-2.887-1.234 14.947 14.947 0 00-4.23-.371 7.362 7.362 0 00-3.62 1.188 7.146 7.146 0 00-2.471 2.76 4.418 4.418 0 00-.31 3.216 5.274 5.274 0 001.816 2.433 19.366 19.366 0 002.242 1.381 4.422 4.422 0 011.607 1.448 1.6 1.6 0 01-.021 1.763 3.326 3.326 0 01-2.143 1.131 6.8 6.8 0 01-2.995-.271 8.179 8.179 0 01-2.7-1.405l-1.045 3.11z" class="cls-3" data-name="Path 42" transform="translate(-353.462 -221.016)"/><path id="Path_43" fill="#0e277f" fill-rule="evenodd" d="M477.072 258l-2.257 4.1h-4.022l10.7-17.724h4.531l1.528 17.724h-4.719l-.333-4.1zm4.733-8.606l-3.465 6.3h3.974l-.509-6.3z" class="cls-3" data-name="Path 43" transform="translate(-416.901 -223.897)"/><path id="Path_44" fill="#0e277f" fill-rule="evenodd" d="M573.515 242.373a.438.438 0 00-.345-.152h-.73v1.736h.169v-.745h.37l.505.745h.207l-.492-.745a.359.359 0 00.289-.095.5.5 0 00.147-.337.621.621 0 00-.12-.408zm-.906.639v-.584h.5a.277.277 0 01.2.046.327.327 0 01.092.229.363.363 0 01-.078.253.273.273 0 01-.214.056zm1.141-1.217a1.444 1.444 0 10.529.529 1.453 1.453 0 00-.529-.529zm.316.654a1.2 1.2 0 11-.441-.441 1.207 1.207 0 01.441.441z" class="cls-3" data-name="Path 44" transform="translate(-501.225 -221.176)"/></svg>