<svg xmlns="http://www.w3.org/2000/svg" id="vk-3" width="24.259" height="24.259" viewBox="0 0 24.259 24.259">
    <defs>
        <style>
            .cls-1{fill:#181818}
        </style>
    </defs>
    <path id="Path_28" d="M87.988 159.5a7.24 7.24 0 0 0 2.21 2.069 5.883 5.883 0 0 0 3.284.707c.542-.026.706-.167.731-.708a2.4 2.4 0 0 1 .242-1.072.48.48 0 0 1 .765-.185 2.174 2.174 0 0 1 .412.368c.306.334.6.679.918 1a1.776 1.776 0 0 0 1.462.6h2.295c.369-.025.561-.478.349-.891a4.471 4.471 0 0 0-.552-.794 21.09 21.09 0 0 0-1.544-1.553c-.471-.46-.5-.727-.123-1.257.414-.58.858-1.136 1.275-1.712a6.2 6.2 0 0 0 .992-1.72c.131-.411.015-.592-.4-.665a1.38 1.38 0 0 0-.222-.012h-2.5a.557.557 0 0 0-.585.4c-.147.368-.3.737-.474 1.091a8.937 8.937 0 0 1-1.46 2.245c-.137.145-.29.329-.519.254-.286-.1-.37-.576-.365-.735v-2.882c-.055-.411-.147-.6-.556-.675h-2.598a.829.829 0 0 0-.7.351c-.106.126-.139.206.081.248a.866.866 0 0 1 .738.792 8.877 8.877 0 0 1 .036 2.074 1.924 1.924 0 0 1-.132.592.349.349 0 0 1-.594.174 2.446 2.446 0 0 1-.575-.632 13.973 13.973 0 0 1-1.523-2.822.659.659 0 0 0-.623-.467c-.749-.012-1.5-.014-2.248 0-.45.008-.584.227-.4.636a27.83 27.83 0 0 0 2.903 5.181zm0 0" class="cls-1" data-name="Path 28" transform="translate(-80.747 -145.692)"/>
    <path id="Path_29" d="M0 0v24.259h24.259V0zm22.759 22.759H1.5V1.5h21.259zm0 0" class="cls-1" data-name="Path 29"/>
</svg>
