<svg width="198px" height="52px" viewBox="0 0 198 52" version="1.1" xmlns="http://www.w3.org/2000/svg" xmlns:xlink="http://www.w3.org/1999/xlink">
    <g id="Page-1" stroke="none" stroke-width="1" fill="none" fill-rule="evenodd">
        <g id="webmoney" transform="translate(-1.000000, -74.000000)" fill="#295D9B">
            <g id="Group" transform="translate(1.000000, 74.000000)">
                <path d="M25.853,0.148 C29.911,0.148 33.755,1.092 37.179,2.771 C37.716,3.026 38.253,3.307 38.791,3.615 L36.412,5.746 L32.836,2.049 L26.801,7.432 L23.216,3.519 L11.975,13.654 L19.183,21.595 L16.35,24.086 L23.449,32.042 L20.633,34.526 L30.777,45.817 L36.798,40.273 L42.003,46.214 C40.969,47.019 39.84,47.776 38.598,48.478 C34.833,50.624 30.482,51.853 25.853,51.853 C11.613,51.853 0,40.239 0,26 C0,11.761 11.613,0.148 25.853,0.148" id="Fill-2"></path>
                <polyline id="Fill-3" points="21.141 24.366 27.288 18.831 32.824 24.978 26.676 30.514 21.141 24.366"></polyline>
                <polyline id="Fill-4" points="25.513 34.989 31.661 29.454 37.196 35.602 31.048 41.138 25.513 34.989"></polyline>
                <polyline id="Fill-5" points="16.741 13.868 22.889 8.333 28.424 14.48 22.276 20.016 16.741 13.868"></polyline>
                <polyline id="Fill-6" points="28.023 10.89 32.633 6.738 36.785 11.349 32.174 15.501 28.023 10.89"></polyline>
                <polyline id="Fill-7" points="36.216 29.903 40.826 25.752 44.978 30.363 40.367 34.515 36.216 29.903"></polyline>
                <polyline id="Fill-8" points="40.27 39.216 44.881 35.064 49.033 39.675 44.422 43.826 40.27 39.216"></polyline>
                <polyline id="Fill-9" points="42.129 17.871 45.203 15.104 47.971 18.178 44.896 20.945 42.129 17.871"></polyline>
                <polyline id="Fill-10" points="38.201 8.739 41.274 5.971 44.042 9.045 40.968 11.813 38.201 8.739"></polyline>
                <polyline id="Fill-11" points="46.058 27.004 49.131 24.236 51.899 27.311 48.825 30.078 46.058 27.004"></polyline>
                <polyline id="Fill-12" points="32.273 20.16 36.883 16.009 41.035 20.62 36.425 24.771 32.273 20.16"></polyline>
                <path d="M122.918,16.07 L122.773,16.166 L122.629,16.07 C121.569,15.106 120.412,14.72 118.967,14.72 C115.642,14.72 113.473,17.034 113.473,20.648 C113.473,20.648 113.473,37.177 113.473,37.563 C113.811,37.563 116.461,37.563 116.798,37.563 C116.798,37.177 116.798,20.648 116.798,20.648 C116.798,18.238 118.437,18.045 118.967,18.045 C119.352,18.045 119.931,18.142 120.412,18.527 C120.895,19.009 121.135,19.684 121.135,20.648 C121.135,20.648 121.135,37.177 121.135,37.563 C121.473,37.563 124.123,37.563 124.461,37.563 C124.461,37.177 124.461,20.648 124.461,20.648 C124.461,18.238 126.1,18.045 126.629,18.045 C127.015,18.045 127.593,18.142 128.075,18.527 C128.557,19.009 128.798,19.684 128.798,20.648 C128.798,20.648 128.798,37.177 128.798,37.563 C129.135,37.563 131.785,37.563 132.122,37.563 C132.122,37.177 132.122,20.648 132.122,20.648 C132.122,18.769 131.545,17.226 130.484,16.166 C129.52,15.251 128.171,14.72 126.629,14.72 C125.135,14.72 123.931,15.154 122.918,16.07" id="Fill-13"></path>
                <path d="M147.159,22.527 C146.051,21.371 144.219,20.359 141.713,20.359 C139.303,20.359 137.472,21.371 136.363,22.527 C134.629,24.407 134.291,27.058 134.291,29.129 C134.291,31.153 134.629,33.805 136.363,35.684 C137.472,36.84 139.303,37.852 141.713,37.852 C144.219,37.852 146.051,36.84 147.159,35.684 C148.894,33.805 149.23,31.153 149.23,29.129 C149.23,27.058 148.894,24.407 147.159,22.527 Z M145.857,29.853 C145.857,31.442 145.857,33.226 144.652,34.527 C144.17,35.009 143.255,35.636 141.713,35.636 C140.267,35.636 139.352,35.009 138.869,34.527 C137.664,33.226 137.664,31.442 137.664,29.853 L137.664,28.358 C137.664,26.769 137.664,24.985 138.869,23.732 C139.352,23.203 140.267,22.575 141.713,22.575 C143.255,22.575 144.17,23.203 144.652,23.732 C145.857,24.985 145.857,26.769 145.857,28.358 L145.857,29.853 Z" id="Fill-14"></path>
                <path d="M151.977,20.648 L154.773,20.696 L154.773,22.19 C155.592,21.612 156.314,21.178 157.135,20.889 C158.147,20.455 158.869,20.359 159.881,20.359 C161.327,20.359 162.82,20.648 164.025,21.998 C165.182,23.347 165.423,24.938 165.423,26.287 L165.423,37.515 L162.338,37.515 L162.338,26.045 C162.338,23.299 160.605,22.575 159.158,22.575 C157.712,22.575 156.219,23.203 155.015,24.31 L155.015,37.515 L151.977,37.515 L151.977,20.648" id="Fill-15"></path>
                <path d="M180.507,34.238 C179.928,34.527 179.302,34.768 178.531,35.009 C177.615,35.299 176.893,35.442 175.928,35.442 C174.339,35.442 172.893,34.913 172.121,34.045 C171.543,33.467 170.917,32.311 170.917,30.286 L170.917,29.853 L181.326,29.853 L181.326,29.082 C181.326,26.383 181.23,24.165 179.543,22.382 C178.435,21.178 176.748,20.359 174.627,20.359 C172.266,20.359 170.531,21.371 169.472,22.575 C167.736,24.552 167.543,27.153 167.543,28.84 C167.543,30.72 167.833,33.516 169.567,35.442 C170.676,36.743 172.651,37.852 175.447,37.852 C176.7,37.852 178.05,37.707 179.398,37.177 C180.121,36.888 180.94,36.503 181.471,36.213 L180.507,34.238 Z M170.917,27.251 C170.917,25.322 171.543,24.214 172.026,23.684 C172.507,23.154 173.278,22.575 174.579,22.575 C175.447,22.575 176.314,22.768 176.941,23.395 C178.05,24.455 178.05,25.756 178.05,26.913 L178.05,27.636 L170.917,27.636 L170.917,27.251 Z" id="Fill-16"></path>
                <path d="M198,20.696 L191.398,40.551 C191.157,41.419 190.531,42.864 189.808,43.683 C188.94,44.647 187.784,45.081 186.482,45.081 C185.566,45.081 184.7,44.888 183.832,44.406 C183.303,44.068 182.771,43.731 182.434,43.346 L183.88,41.514 C184.121,41.756 184.458,41.997 184.748,42.188 C185.23,42.479 185.809,42.623 186.338,42.623 C187.254,42.623 187.832,42.142 188.121,41.756 C188.458,41.322 188.795,40.311 189.037,39.684 L189.423,38.334 L182.339,20.696 L185.663,20.696 L189.903,31.25 C190.338,32.261 190.772,33.805 190.868,34.238 L191.012,34.238 C191.542,32.214 191.784,31.538 192.218,30.286 L195.253,20.696 L198,20.696" id="Fill-17"></path>
                <path d="M68.317,36.551 L68.414,36.406 L68.559,36.551 C69.666,37.467 70.775,37.9 72.27,37.9 C75.594,37.9 77.763,35.538 77.763,31.973 C77.763,31.973 77.763,15.395 77.763,15.058 C77.425,15.058 74.727,15.058 74.39,15.058 C74.39,15.395 74.39,31.973 74.39,31.973 C74.39,34.382 72.751,34.527 72.27,34.527 C71.835,34.527 71.257,34.479 70.823,34.045 C70.341,33.611 70.101,32.889 70.101,31.973 C70.101,31.973 70.101,15.395 70.101,15.058 C69.763,15.058 67.064,15.058 66.727,15.058 C66.727,15.395 66.727,31.973 66.727,31.973 C66.727,34.382 65.089,34.527 64.559,34.527 C64.173,34.527 63.595,34.479 63.161,34.045 C62.679,33.611 62.438,32.889 62.438,31.973 C62.438,31.973 62.438,15.395 62.438,15.058 C62.101,15.058 59.402,15.058 59.065,15.058 C59.065,15.395 59.065,31.973 59.065,31.973 C59.065,33.805 59.643,35.346 60.704,36.406 C61.667,37.37 63.065,37.9 64.559,37.9 C66.053,37.9 67.257,37.419 68.317,36.551" id="Fill-18"></path>
                <path d="M93.233,34.238 C92.703,34.479 92.076,34.768 91.305,35.009 C90.39,35.299 89.666,35.442 88.703,35.442 C87.112,35.442 85.666,34.913 84.895,34.045 C84.365,33.467 83.739,32.311 83.739,30.286 L83.739,29.853 L94.052,29.853 L94.052,29.082 C94.052,26.383 93.956,24.165 92.317,22.382 C91.209,21.226 89.521,20.407 87.353,20.407 C85.088,20.407 83.354,21.419 82.293,22.575 C80.51,24.6 80.365,27.201 80.365,28.84 C80.365,30.72 80.606,33.516 82.341,35.442 C83.498,36.696 85.425,37.852 88.221,37.852 C89.474,37.852 90.774,37.659 92.172,37.129 C92.895,36.888 93.666,36.454 94.196,36.165 L93.233,34.238 Z M83.739,27.251 C83.739,25.322 84.317,24.263 84.847,23.684 C85.281,23.203 86.052,22.575 87.353,22.575 C88.221,22.575 89.088,22.816 89.715,23.443 C90.823,24.455 90.823,25.756 90.823,26.961 L90.823,27.636 L83.739,27.636 L83.739,27.251 Z" id="Fill-19"></path>
                <path d="M108.364,22.094 C107.159,21.033 105.473,20.407 103.738,20.407 C102.967,20.407 102.148,20.551 101.569,20.648 C101.088,20.792 100.461,21.033 99.931,21.226 L99.931,14.624 L96.895,14.624 L96.895,36.068 C98.678,37.129 100.799,37.852 103.208,37.852 C104.99,37.852 107.401,37.467 109.135,35.201 C110.533,33.321 110.822,30.961 110.822,29.033 C110.822,27.201 110.678,24.069 108.364,22.094 Z M103.159,22.575 C104.364,22.575 105.618,22.961 106.389,23.781 C107.449,24.938 107.449,26.671 107.449,28.166 L107.449,29.611 C107.449,32.455 106.967,33.611 106.533,34.238 C106.051,34.865 105.04,35.636 103.305,35.636 C102.678,35.636 101.906,35.442 101.328,35.299 C100.896,35.153 100.365,34.865 99.931,34.623 L99.931,23.587 L103.159,22.575 Z" id="Fill-20"></path>
            </g>
        </g>
    </g>
</svg>
