<svg id="whatsapp" width="237px" height="71px" viewBox="0 0 237 71" version="1.1" xmlns="http://www.w3.org/2000/svg" xmlns:xlink="http://www.w3.org/1999/xlink">
    <g id="Page-1" stroke="none" stroke-width="1" fill="none" fill-rule="evenodd">
        <g id="whatsapp" transform="translate(-1.000000, 0.000000)">
            <path d="M36.391,62.82 C30.7764375,62.821336 25.2851486,61.1734625 20.599,58.081 L9.569,61.605 L13.145,50.944 C5.37798719,40.2018906 5.98444371,25.5365557 14.6118591,15.4724061 C23.2392744,5.40825654 37.6396497,2.56765317 49.4425853,8.60173252 C61.2455209,14.6358119 67.3755898,27.9723066 64.2696123,40.859211 C61.1636347,53.7461154 49.6309184,62.8255587 36.375,62.82 L36.392,62.82 L36.391,62.82 Z M36.391,0 C24.084172,0.00661702334 12.7331676,6.63565468 6.68036835,17.3511425 C0.627569112,28.0666304 0.80966716,41.2103088 7.157,51.754 L0.999,70.057 L19.894,64 C32.3834352,70.8984685 47.8461806,69.2991298 58.659281,59.9904392 C69.4723813,50.6817487 73.3532374,35.6287311 68.3886319,22.2523508 C63.4240264,8.87597047 50.6619662,-7.60145593e-05 36.394,0 L36.391,0 Z" id="path3007" fill="#FEFEFE" fill-rule="nonzero"></path>
            <g id="Group_26" transform="translate(6.999000, 5.000000)">
                <path d="M225.866,36.836 C225.746886,37.4590614 225.512176,38.0543154 225.174,38.591 C224.852165,39.0983429 224.412748,39.5206084 223.893,39.822 C223.293952,40.1497997 222.618615,40.3126812 221.936,40.294 C221.258135,40.3190259 220.586602,40.1556425 219.996,39.822 C219.473966,39.5168332 219.029156,39.0956322 218.696,38.591 C218.359352,38.0518196 218.119732,37.4578473 217.988,36.836 C217.839496,36.1659 217.766044,35.4813518 217.769,34.795 C217.766326,34.0987264 217.833326,33.4039323 217.969,32.721 C218.088076,32.0926152 218.322714,31.4917793 218.661,30.949 C218.98118,30.4313463 219.420363,29.9976485 219.942,29.684 C220.536453,29.3428942 221.213967,29.1736023 221.899,29.195 C222.573074,29.1753433 223.239197,29.3447317 223.822,29.684 C224.346184,30.0081899 224.790533,30.4463871 225.122,30.966 C225.465436,31.5154926 225.710754,32.1204959 225.847,32.754 C225.995504,33.4241 226.068956,34.1086482 226.066,34.795 C226.067046,35.4802758 226.00005,36.1639624 225.866,36.836 Z M230.354,31.388 C230.062908,30.3184721 229.576752,29.3119175 228.92,28.419 C228.263096,27.5685936 227.428289,26.8720113 226.474,26.378 C225.378974,25.8402137 224.170653,25.5737177 222.951,25.601 C221.931442,25.5911824 220.922671,25.810228 219.999,26.242 C219.078177,26.6909691 218.309652,27.4007249 217.789,28.283 L217.722,28.283 L217.722,26.073 L213.201,26.073 L213.201,49.473 L217.951,49.473 L217.951,41.255 L218.018,41.255 C218.579912,42.0825353 219.350151,42.7472244 220.251,43.182 C221.177408,43.6252559 222.193063,43.8503489 223.22,43.84 C224.376516,43.8619764 225.521575,43.6075951 226.56,43.098 C227.48836,42.6227174 228.30061,41.9487443 228.939,41.124 C229.59242,40.2749695 230.07376,39.3065142 230.356,38.273 C230.675694,37.1828962 230.834701,36.0519956 230.828,34.916 C230.835719,33.7188268 230.676863,32.5263993 230.356,31.373 L230.354,31.388 Z M206.889,36.836 C206.769909,37.459068 206.535197,38.0543261 206.197,38.591 C205.874913,39.0984865 205.435136,39.5207685 204.915,39.822 C204.316316,40.1498075 203.641298,40.3126954 202.959,40.294 C202.281042,40.3168264 201.609773,40.1535917 201.018,39.822 C200.496138,39.5166032 200.051376,39.0954473 199.718,38.591 C199.382088,38.0515552 199.142837,37.4576563 199.011,36.836 C198.862001,36.1659812 198.788543,35.4813774 198.792,34.795 C198.789285,34.0987246 198.856286,33.4039265 198.992,32.721 C199.111499,32.0927368 199.346108,31.4919765 199.684,30.949 C200.004554,30.4313028 200.44407,29.9976146 200.966,29.684 C201.560043,29.3427791 202.23727,29.1734723 202.922,29.195 C203.596394,29.175316 204.262845,29.3446999 204.846,29.684 C205.370441,30.0078629 205.814857,30.4461256 206.146,30.966 C206.489371,31.5156369 206.734998,32.120569 206.872,32.754 C207.020537,33.4240946 207.093989,34.1086465 207.091,34.795 C207.091387,35.4803423 207.023722,36.1640296 206.889,36.836 Z M209.942,28.419 C209.289291,27.5645636 208.453502,26.8671615 207.496,26.378 C206.399995,25.8400511 205.190584,25.5738845 203.97,25.602 C202.950453,25.5922845 201.941703,25.8113252 201.018,26.243 C200.097312,26.6921657 199.328837,27.4018745 198.808,28.284 L198.74,28.284 L198.74,26.074 L194.219,26.074 L194.219,49.474 L198.976,49.474 L198.976,41.255 L199.044,41.255 C199.604788,42.0802616 200.372828,42.743459 201.271,43.178 C202.197022,43.6213431 203.212374,43.8464446 204.239,43.836 C205.396016,43.8597693 206.541817,43.6052992 207.58,43.094 C208.507835,42.6183482 209.319684,41.9444246 209.958,41.12 C210.610967,40.2681146 211.097773,39.3009479 211.393,38.269 C211.704133,37.1770665 211.862967,36.0473936 211.865,34.912 C211.872241,33.714857 211.713394,32.5224954 211.393,31.369 C211.103036,30.2959978 210.610149,29.2884981 209.941,28.401 L209.942,28.419 Z M178.633,34.154 L181.754,25.365 L181.822,25.365 L184.842,34.154 L178.633,34.154 Z M179.139,19.461 L170.081,43.397 L175.381,43.397 L177.254,38.067 L186.211,38.067 L188.011,43.397 L193.476,43.397 L184.519,19.461 L179.137,19.461 L179.139,19.461 Z M169.693,35.807 C169.379329,35.2630439 168.953994,34.7916992 168.445,34.424 C167.906077,34.0430861 167.314979,33.7419798 166.69,33.53 C166.02353,33.3111484 165.348286,33.1199847 164.666,32.957 C163.991,32.805 163.333,32.657 162.692,32.518 C162.109647,32.4009113 161.534927,32.248632 160.971,32.062 C160.52604,31.9269235 160.113065,31.7030866 159.757,31.404 C159.21629,30.9114881 159.130302,30.0920237 159.557,29.498 C159.737532,29.2884101 159.962248,29.1214103 160.215,29.009 C160.487793,28.888536 160.778802,28.8145162 161.076,28.79 C161.36725,28.7579149 161.659991,28.741225 161.953,28.74 C162.718115,28.7244975 163.475847,28.8921586 164.163,29.229 C164.823597,29.6070822 165.218772,30.3214821 165.188,31.082 L169.709,31.082 C169.660652,30.1382936 169.376676,29.2217316 168.883,28.416 C168.446489,27.7289723 167.8576,27.1517174 167.162,26.729 C166.432078,26.2934761 165.633332,25.9854076 164.8,25.818 C163.900904,25.632966 162.984922,25.5424738 162.067,25.548 C161.144788,25.5465598 160.224458,25.631261 159.318,25.801 C158.468702,25.9492899 157.652203,26.246168 156.906,26.678 C156.196021,27.081941 155.603025,27.6632215 155.185,28.365 C154.715157,29.2026516 154.487348,30.1543958 154.527,31.114 C154.501922,31.7864742 154.665412,32.4525603 154.999,33.037 C155.30815,33.5604165 155.728359,34.0096415 156.23,34.353 C156.776785,34.7077195 157.366532,34.9913359 157.985,35.197 C158.64936,35.4182705 159.324973,35.6041976 160.009,35.754 C161.359468,36.0137452 162.689807,36.3689702 163.99,36.817 C164.935,37.171 165.407,37.711 165.407,38.417 C165.420871,38.7940168 165.315929,39.1658618 165.107,39.48 C164.909051,39.7601739 164.649369,39.9911159 164.348,40.155 C164.030064,40.3262482 163.689286,40.451178 163.336,40.526 C162.98725,40.6052942 162.630649,40.6448792 162.273,40.644 C161.817402,40.6494399 161.363198,40.5925803 160.923,40.475 C160.507436,40.3699777 160.113482,40.1929691 159.759,39.952 C159.420868,39.7118184 159.13902,39.4009672 158.933,39.041 C158.70861,38.6395713 158.597648,38.1846629 158.612,37.725 L154.091,37.725 C154.09669,38.7444484 154.370154,39.7445058 154.884,40.625 C155.343783,41.3782821 155.972741,42.0140871 156.721,42.482 C157.507768,42.9709494 158.376376,43.3137851 159.285,43.494 C160.255848,43.6966556 161.245231,43.7972027 162.237,43.794 C163.210702,43.7919442 164.181912,43.6954931 165.137,43.506 C166.035663,43.3345539 166.893972,42.9953016 167.667,42.506 C169.287399,41.4965187 170.235592,39.6900182 170.146,37.783 C170.174236,37.0780977 170.011134,36.3786974 169.674,35.759 L169.693,35.807 Z M150.006,20.882 L145.251,20.882 L145.251,26.082 L142.366,26.082 L142.366,29.262 L145.251,29.262 L145.251,39.482 C145.221924,40.2102745 145.372338,40.934529 145.689,41.591 C145.965083,42.1108138 146.380646,42.5433451 146.889,42.84 C147.427403,43.1412405 148.016475,43.3412132 148.627,43.43 C149.319538,43.532926 150.01886,43.5834028 150.719,43.581 C151.191,43.581 151.664,43.564 152.17,43.548 C152.616859,43.5329647 153.0622,43.4878627 153.503,43.413 L153.503,39.721 C153.270057,39.7732279 153.033296,39.8066686 152.795,39.821 C152.542,39.838 152.289,39.855 152.019,39.855 C151.45386,39.9236649 150.883413,39.7792704 150.419,39.45 C150.092442,38.9843398 149.948315,38.4149468 150.014,37.85 L150.014,29.262 L153.506,29.262 L153.506,26.074 L150.014,26.074 L150.014,20.882 L150.006,20.882 Z M136.359,36.701 C136.349436,37.0621969 136.321399,37.422668 136.275,37.781 C136.218085,38.2470497 136.062642,38.6956519 135.819,39.097 C135.539362,39.565637 135.144519,39.9549721 134.672,40.228 C134.003538,40.5815291 133.250862,40.7447934 132.496,40.7 C132.122423,40.7000644 131.749593,40.6665967 131.382,40.6 C131.048006,40.5407699 130.727707,40.420785 130.437,40.246 C130.166263,40.0756363 129.945179,39.8369623 129.796,39.554 C129.629811,39.218852 129.548755,38.8479205 129.56,38.474 C129.549137,38.0895204 129.630037,37.7079855 129.796,37.361 C129.951558,37.0781547 130.164428,36.8308842 130.421,36.635 C130.69912,36.4368186 131.006492,36.2833012 131.332,36.18 C131.679338,36.0644131 132.034604,35.9741762 132.395,35.91 C132.766,35.843 133.154,35.792 133.542,35.741 C133.93,35.69 134.285,35.641 134.642,35.572 C134.973312,35.5097246 135.300051,35.4251999 135.62,35.319 C135.900077,35.2337805 136.158808,35.0899271 136.379,34.897 L136.379,36.668 L136.359,36.701 Z M141.116,39.552 L141.116,30.527 C141.15898,29.6293863 140.910632,28.7419286 140.408,27.997 C139.936715,27.3621959 139.31695,26.8526489 138.603,26.513 C137.828246,26.1510707 137.003843,25.9067161 136.157,25.788 C135.279374,25.6679301 134.394793,25.6057956 133.509,25.602 C132.545966,25.6046449 131.585462,25.7007623 130.641,25.889 C129.736935,26.0582735 128.869288,26.3838105 128.077,26.851 C127.329725,27.2956514 126.690372,27.900509 126.205,28.622 C125.683369,29.4590367 125.392525,30.4192022 125.362,31.405 L130.119,31.405 C130.12578,30.6303136 130.470587,29.8972318 131.063,29.398 C131.713343,28.9591673 132.489745,28.7459203 133.273,28.791 C133.674442,28.7917511 134.075368,28.8198159 134.473,28.875 C134.818448,28.9206004 135.151112,29.0355701 135.451,29.213 C135.736427,29.3829385 135.969868,29.627793 136.126,29.921 C136.312649,30.3034814 136.399674,30.7269087 136.379,31.152 C136.425544,31.5776985 136.261725,31.9993726 135.94,32.282 C135.559346,32.5673621 135.122341,32.7684801 134.658,32.872 C134.053181,33.0169335 133.438524,33.1172038 132.819,33.172 C132.127,33.24 131.419,33.324 130.71,33.442 C130.001,33.56 129.293,33.711 128.584,33.897 C127.911813,34.065757 127.276745,34.3576916 126.711,34.758 C126.150815,35.1565658 125.689072,35.6778227 125.361,36.282 C124.984405,37.0345315 124.804481,37.8701647 124.838,38.711 C124.817024,39.5055936 124.972773,40.2949289 125.294,41.022 C125.579085,41.6456321 126.006544,42.1936574 126.542,42.622 C127.098889,43.0552966 127.734674,43.3762454 128.414,43.567 C129.166697,43.7736721 129.944483,43.8746396 130.725,43.867 C131.794568,43.8712762 132.858512,43.7121062 133.88,43.395 C134.897539,43.084298 135.820086,42.5215512 136.562,41.759 C136.584796,42.0476937 136.624195,42.3348354 136.68,42.619 C136.737002,42.8983281 136.810124,43.1741226 136.899,43.445 L141.724,43.445 C141.45655,42.9505254 141.295757,42.4054642 141.252,41.845 C141.162789,41.1006514 141.11771,40.3516752 141.117,39.602 L141.117,39.552 L141.116,39.552 Z M121.516,27.575 C121.010892,26.9376158 120.347994,26.4432866 119.593,26.141 C118.593242,25.7558443 117.525632,25.5779093 116.455,25.618 C115.498028,25.6370817 114.557952,25.8737251 113.706,26.31 C112.737458,26.7988094 111.933854,27.5613813 111.395,28.503 L111.295,28.503 L111.295,19.482 L106.538,19.482 L106.538,43.415 L111.295,43.415 L111.295,34.322 C111.181059,32.9908557 111.487809,31.6575238 112.172,30.51 C112.865226,29.6876569 113.918509,29.2587905 114.989,29.363 C115.915288,29.2633693 116.823717,29.6688974 117.368,30.425 C117.87698,31.4114481 118.110186,32.5170171 118.043,33.625 L118.043,43.409 L122.8,43.409 L122.8,32.754 C122.806565,31.7683525 122.710379,30.7847049 122.513,29.819 C122.354491,29.004917 122.012873,28.2375575 121.514,27.575 L121.516,27.575 Z M96.364,35.975 L96.296,35.975 L92.214,19.475 L87.288,19.475 L83.138,35.775 L83.07,35.775 L79.27,19.475 L74.011,19.475 L80.351,43.415 L85.682,43.415 L89.663,27.115 L89.731,27.115 L93.78,43.415 L99.009,43.415 L101.876,32.787 L105.451,19.482 L100.289,19.482 L96.364,35.975 Z" id="path3005" fill="#272525" fill-rule="nonzero"></path>
                <path transform="scale(0.45)" clip-rule="evenodd" d="M46.114,32.509    c-1.241-2.972-2.182-3.085-4.062-3.161c-0.64-0.037-1.353-0.074-2.144-0.074c-2.446,0-5.003,0.715-6.546,2.295    c-1.88,1.919-6.545,6.396-6.545,15.576c0,9.181,6.695,18.06,7.598,19.303c0.941,1.24,13.053,20.354,31.86,28.144    c14.707,6.095,19.071,5.53,22.418,4.816c4.89-1.053,11.021-4.667,12.564-9.03c1.542-4.365,1.542-8.09,1.09-8.88    c-0.451-0.79-1.693-1.24-3.573-2.182c-1.88-0.941-11.021-5.456-12.751-6.058c-1.693-0.639-3.31-0.413-4.588,1.393    c-1.806,2.521-3.573,5.08-5.003,6.622c-1.128,1.204-2.972,1.355-4.514,0.715c-2.069-0.864-7.861-2.898-15.008-9.256    c-5.53-4.928-9.291-11.06-10.381-12.904c-1.091-1.881-0.113-2.973,0.752-3.988c0.941-1.167,1.843-1.994,2.783-3.086    c0.941-1.091,1.467-1.655,2.069-2.935c0.64-1.241,0.188-2.521-0.263-3.462C51.418,45.414,47.657,36.233,46.114,32.509z M63.981,0    C28.699,0,0,28.707,0,63.999c0,13.996,4.514,26.977,12.187,37.512L4.212,125.29l24.6-7.862C38.93,124.125,51.004,128,64.019,128    C99.301,128,128,99.291,128,64.001c0-35.292-28.699-63.999-63.981-63.999h-0.037V0z" fill="#67C15E" fill-rule="evenodd" id="WhatsApp_1_"/>
            </g>
        </g>
    </g>
</svg>
