<svg xmlns="http://www.w3.org/2000/svg" id="work" width="55.481" height="55.481" viewBox="0 0 55.481 55.481">
    <defs>
        <style>
            .cls-1{fill:#ff336c}
        </style>
    </defs>
    <g id="Group_301" data-name="Group 301" transform="translate(14.795 38.837)">
        <g id="Group_300" data-name="Group 300">
            <path id="Path_318" d="M164.895 345.331a4.574 4.574 0 0 0 1.017-2.858v-1.849a4.623 4.623 0 0 0-9.247 0v1.849a4.574 4.574 0 0 0 1.017 2.858 4.613 4.613 0 0 0-2.867 1.794 4.613 4.613 0 0 0-2.867-1.794 4.574 4.574 0 0 0 1.017-2.858v-1.849a4.623 4.623 0 0 0-9.247 0v1.849a4.574 4.574 0 0 0 1.017 2.858 4.613 4.613 0 0 0-2.867 1.794 4.613 4.613 0 0 0-2.868-1.794 4.574 4.574 0 0 0 1.017-2.858v-1.849a4.623 4.623 0 0 0-9.247 0v1.849a4.574 4.574 0 0 0 1.017 2.858A4.623 4.623 0 0 0 128 349.87v2.774h1.849v-2.774a2.774 2.774 0 0 1 2.774-2.774h5.548a2.774 2.774 0 0 1 2.774 2.774v2.774h1.849v-2.774a2.774 2.774 0 0 1 2.774-2.774h5.548a2.774 2.774 0 0 1 2.774 2.774v2.774h1.849v-2.774a2.774 2.774 0 0 1 2.774-2.774h5.548a2.774 2.774 0 0 1 2.774 2.774v2.774h1.849v-2.774a4.623 4.623 0 0 0-3.789-4.539zm-26.723-2.858a2.774 2.774 0 1 1-5.548 0v-1.849a2.774 2.774 0 0 1 5.548 0zm12.946 0a2.774 2.774 0 1 1-5.548 0v-1.849a2.774 2.774 0 0 1 5.548 0zm12.946 0a2.774 2.774 0 1 1-5.548 0v-1.849a2.774 2.774 0 0 1 5.548 0z" class="cls-1" data-name="Path 318" transform="translate(-128 -336)"/>
        </g>
    </g>
    <g id="Group_303" data-name="Group 303" transform="translate(0 9.247)">
        <g id="Group_302" data-name="Group 302">
            <path id="Path_319" d="M22.531 89.311a.923.923 0 0 0-.338-.064h-3.7a.925.925 0 0 0-.869.608l-.98 2.7-.032-.088a4.9 4.9 0 0 0-4.591-3.216H12a4.575 4.575 0 0 0 .949-2.774v-1.854a4.623 4.623 0 0 0-9.247 0v1.849a4.575 4.575 0 0 0 .949 2.774h-.028A4.629 4.629 0 0 0 0 93.87v11.1a.925.925 0 0 0 .925.925H3.7v8.969L2 117.4a.925.925 0 0 0 .769 1.438h11.1a.925.925 0 0 0 .769-1.438l-1.694-2.538V97.787l.233.462a3.781 3.781 0 0 0 6.892-.287l1.5-3.753 1.479-3.7a.925.925 0 0 0-.517-1.198zM5.548 84.623a2.774 2.774 0 0 1 5.548 0v1.849a2.774 2.774 0 0 1-5.548 0zM3.7 104.042H1.849v-1.849H3.7zm5.548 12.946v-11.1H7.4v11.1H4.5l.89-1.336a.931.931 0 0 0 .155-.513v-11.1H11.1v11.1a.931.931 0 0 0 .155.513l.89 1.336zm9.106-19.707a1.932 1.932 0 0 1-3.52.146l-1.98-3.97a.925.925 0 0 0-1.757.413v8.322H5.548V93.87a.925.925 0 0 0-1.849 0v6.473h-1.85V93.87a2.774 2.774 0 0 1 2.774-2.77H7.4v9.247h1.847V91.1h2.774a3.044 3.044 0 0 1 2.853 2l.9 2.479a.925.925 0 0 0 1.738 0l.283-.779h1.551zm1.734-4.335h-1.619l.672-1.849h1.686z" class="cls-1" data-name="Path 319" transform="translate(0 -80)"/>
        </g>
    </g>
    <g id="Group_305" data-name="Group 305" transform="translate(14.795)">
        <g id="Group_304" data-name="Group 304">
            <path id="Path_320" d="M167.761 5.548a.925.925 0 0 0 .925-.925V.925a.925.925 0 0 0-.925-.925h-38.836a.925.925 0 0 0-.925.925v3.7a.925.925 0 0 0 .925.925h.925v11.1h1.85V5.548h33.289v20.343H135.4v1.849h12.021v4.087l-6.01 3.432.917 1.605 5.093-2.908v3.03h1.849v-3.03l5.086 2.908.917-1.605-6-3.432v-4.086h19.418v-1.85h-1.849V5.548zM129.849 3.7V1.849h36.987V3.7z" class="cls-1" data-name="Path 320" transform="translate(-128)"/>
        </g>
    </g>
    <g id="Group_307" data-name="Group 307" transform="translate(24.429 9.275)">
        <g id="Group_306" data-name="Group 306">
            <path id="Path_321" d="M232.457 81.165l-3.7-.925-.449 1.794 1.732.433-7.018 4.913-4.082-3.266a.925.925 0 0 0-1.115-.03l-6.473 4.623 1.074 1.5 5.9-4.217 4.077 3.262a.925.925 0 0 0 1.11.035l7.79-5.454v1.927h1.849v-3.7a.925.925 0 0 0-.695-.895z" class="cls-1" data-name="Path 321" transform="translate(-211.352 -80.24)"/>
        </g>
    </g>
</svg>
