<svg xmlns="http://www.w3.org/2000/svg" width="123" height="23.416" viewBox="0 0 123 23.416">
    <g id="Group_96" data-name="Group 96" transform="translate(.359 -257)">
        <path fill="red" id="Path_179" d="M5.565 269.382l-3.425 7.693h-2.5l3.76-8.227c-1.769-.9-2.949-2.527-2.949-5.531C.455 259.106 3.122 257 6.3 257h3.224v20.075H7.362v-7.693h-1.8m1.8-10.557H6.211c-1.741 0-3.425 1.151-3.425 4.492 0 3.229 1.544 4.267 3.425 4.267h1.151z" class="cls-1" data-name="Path 179"/>
        <path id="Path_180" d="M61.458 281.657v14.151H59.3v-6.345h-3.261v6.345h-2.19v-14.151h2.19v6.008H59.3v-6.008h2.162m11.258 16.93h-1.969v-2.78h-6.064v2.78h-1.966v-4.577h.87c1.291-3 1.432-7.384 1.432-11.146v-1.207h6.57v12.354h1.123zm-3.285-15.161h-2.446v.253c0 2.976-.14 7.327-1.319 10.332h3.762zM78.753 296c-2.92 0-4.717-2.33-4.717-6.681 0-4.549 1.264-7.862 4.268-7.862 2.358 0 3.9 1.769 3.9 6.569v1.208h-5.9c0 3.2.9 4.885 2.639 4.885a4.908 4.908 0 0 0 2.78-.954l.506 1.684A5.57 5.57 0 0 1 78.753 296zm-2.415-8.563h3.622c0-2.415-.393-4.183-1.656-4.183-1.348.004-1.825 1.66-1.966 4.187zm10.3 1.319v7.047h-2.19v-14.146h2.19v6.543l3.4-6.542h2.218l-3.51 6.654 4.015 7.5h-2.385zm6.4-.028c0-4.436 1.713-7.272 5.026-7.272a4.456 4.456 0 0 1 2.611.73l-.309 2.078a3.746 3.746 0 0 0-2.33-.983c-1.572 0-2.7 1.769-2.7 5.334 0 3.537.842 5.559 2.611 5.559a3.577 3.577 0 0 0 2.387-.87l.505 1.628A4.285 4.285 0 0 1 97.9 296c-3.032 0-4.857-2.438-4.857-7.267z" data-name="Path 180" transform="translate(-41.515 -18.733)"/>
        <path id="Path_181" d="M285.845 277.075h-8.591l-.2 3.341h-1.095v-4.492h.59c.983-.815 1.46-3.061 1.74-5.924.281-2.976.365-7.412.45-13h7.019v18.924h1.376v4.492h-1.1l-.2-3.341m-1.488-18.923h-4.352c-.085 5.082-.225 8.956-.45 11.848-.253 3-.7 5-1.46 5.924h6.261z" data-name="Path 181" transform="translate(-211.618)"/>
        <path id="Path_182" d="M334.1 294.661a3.607 3.607 0 0 0 2.863-1.516l.421 1.066a4.087 4.087 0 0 1-3.313 1.6c-3 0-4.38-2.724-4.38-7.355s1.74-7.356 4.128-7.356c2.442 0 4.014 2.555 3.565 7.581h-6.4c.056 3.874 1.067 5.98 3.116 5.98m-3.089-7.02h5.139c.224-3.762-.9-5.446-2.331-5.446-1.49.005-2.697 1.905-2.81 5.446z" data-name="Path 182" transform="translate(-252.766 -18.457)"/>
        <path id="Path_183" d="M379.373 289.627h-4.829v6.822h-1.319V282.3h1.319v6.261h4.829V282.3h1.319v14.15h-1.319v-6.822" data-name="Path 183" transform="translate(-286.106 -19.375)"/>
        <path id="Path_184" d="M418.439 282.3h1.319v5.251h1.04c2.695 0 4.436 1.46 4.436 4.408 0 3-1.853 4.492-4.52 4.492h-2.274V282.3m1.319 6.289v6.822h.843c1.993 0 3.341-.982 3.341-3.425 0-2.386-1.179-3.4-3.2-3.4z" data-name="Path 184" transform="translate(-320.733 -19.375)"/>
        <path id="Path_185" d="M458.465 283.394v13.056h-1.291V282.3h5.98v1.1h-4.689" data-name="Path 185" transform="translate(-350.398 -19.375)"/>
        <path id="Path_186" d="M498.413 286.595a19.222 19.222 0 0 1 .112-1.937h-.085a12.551 12.551 0 0 1-.758 1.825l-4.6 9.967h-1.123V282.3h1.235v9.827c0 .758-.057 1.376-.112 1.993h.084a15.426 15.426 0 0 1 .758-1.881l4.6-9.939h1.151v14.15h-1.263v-9.855" data-name="Path 186" transform="translate(-377.036 -19.375)"/>
    </g>
</svg>
